M48
; DRILL file KiCad 10.0.5 date 2026-08-09T15:19:19
; FORMAT={-:-/ absolute / metric / decimal}
; #@! TF.CreationDate,2026-08-09T15:19:19+02:00
; #@! TF.GenerationSoftware,Kicad,Pcbnew,10.0.5
; #@! TF.FileFunction,MixedPlating,1,2
FMAT,2
METRIC
; #@! TA.AperFunction,Plated,PTH,ViaDrill
T1C0.300
; #@! TA.AperFunction,Plated,PTH,ComponentDrill
T2C0.800
; #@! TA.AperFunction,Plated,PTH,ComponentDrill
T3C0.900
; #@! TA.AperFunction,Plated,PTH,ComponentDrill
T4C1.000
; #@! TA.AperFunction,Plated,PTH,ComponentDrill
T5C1.020
; #@! TA.AperFunction,NonPlated,NPTH,ComponentDrill
T6C3.000
; #@! TA.AperFunction,NonPlated,NPTH,ComponentDrill
T7C3.200
%
G90
G05
T1
X59.2Y-69.0
X66.2Y-65.2
X67.4Y-65.2
X68.6Y-63.6
X92.2Y-75.6
X93.8Y-75.6
T2
X51.9Y-59.5
X51.9Y-69.5
X52.15Y-81.0
X54.15Y-81.0
X54.44Y-59.5
X54.44Y-69.5
X62.0Y-63.0
X62.0Y-70.62
X64.54Y-63.0
X64.54Y-70.62
X66.0Y-52.6
X67.08Y-63.0
X67.08Y-70.62
X67.5Y-55.3
X67.5Y-60.3
X68.54Y-52.6
X69.62Y-63.0
X69.62Y-70.62
X70.0Y-73.8
X72.16Y-63.0
X72.16Y-70.62
X72.62Y-58.5
X74.7Y-63.0
X74.7Y-70.62
X75.0Y-73.8
X75.2Y-78.0
X77.24Y-63.0
X77.24Y-70.62
X77.5Y-58.5
X79.78Y-63.0
X79.78Y-70.62
X80.2Y-78.0
X82.0Y-88.0
X82.32Y-63.0
X82.32Y-70.62
X82.98Y-76.0
X82.98Y-83.62
X83.0Y-55.3
X83.0Y-60.3
X84.86Y-63.0
X84.86Y-70.62
X85.52Y-76.0
X85.52Y-83.62
X85.52Y-91.5
X87.0Y-88.0
X87.4Y-63.0
X87.4Y-70.62
X88.06Y-76.0
X88.06Y-83.62
X88.06Y-91.5
X89.02Y-59.8
X89.94Y-63.0
X89.94Y-70.62
X90.6Y-76.0
X90.6Y-83.62
X91.56Y-59.8
X92.48Y-63.0
X92.48Y-70.62
X95.02Y-63.0
X95.02Y-70.62
X95.42Y-57.3
X95.42Y-59.8
X99.02Y-58.86
X99.02Y-61.4
T3
X51.7Y-64.5
X51.7Y-74.5
X54.24Y-64.5
X54.24Y-74.5
T4
X60.0Y-53.0
X61.0Y-78.5
X62.54Y-53.0
X63.54Y-78.5
X66.08Y-78.5
X68.62Y-78.5
X71.16Y-78.5
X98.62Y-65.4
X98.62Y-67.94
T5
X61.9Y-82.2
X61.9Y-85.2
X64.9Y-82.2
X64.9Y-85.2
X73.6Y-82.2
X73.6Y-85.2
X76.6Y-82.2
X76.6Y-85.2
T6
X63.4Y-89.52
X75.1Y-89.52
T7
X54.0Y-54.0
X54.0Y-91.0
X101.0Y-54.0
X101.0Y-91.0
M30
