%TF.GenerationSoftware,KiCad,Pcbnew,10.0.5*%
%TF.CreationDate,2026-08-09T15:19:19+02:00*%
%TF.ProjectId,canfuel,63616e66-7565-46c2-9e6b-696361645f70,rev?*%
%TF.SameCoordinates,Original*%
%TF.FileFunction,Drillmap*%
%TF.FilePolarity,Positive*%
%FSLAX45Y45*%
G04 Gerber Fmt 4.5, Leading zero omitted, Abs format (unit mm)*
G04 Created by KiCad (PCBNEW 10.0.5) date 2026-08-09 15:19:19*
%MOMM*%
%LPD*%
G01*
G04 APERTURE LIST*
%ADD10C,0.100000*%
%ADD11C,0.200000*%
%ADD12C,0.102000*%
%ADD13C,0.300000*%
%ADD14C,0.320000*%
G04 APERTURE END LIST*
D10*
X5000000Y-5200000D02*
G75*
G02*
X5200000Y-5000000I200000J0D01*
G01*
X5000000Y-9300000D02*
X5000000Y-5200000D01*
X5200000Y-5000000D02*
X10300000Y-5000000D01*
X5200000Y-9500000D02*
G75*
G02*
X5000000Y-9300000I0J200000D01*
G01*
X10300000Y-5000000D02*
G75*
G02*
X10500000Y-5200000I0J-200000D01*
G01*
X10300000Y-9500000D02*
X5200000Y-9500000D01*
X10500000Y-5200000D02*
X10500000Y-9300000D01*
X10500000Y-9300000D02*
G75*
G02*
X10300000Y-9500000I-200000J0D01*
G01*
D11*
D10*
X5905000Y-6885000D02*
X5935000Y-6915000D01*
X5935000Y-6885000D02*
X5905000Y-6915000D01*
X6605000Y-6505000D02*
X6635000Y-6535000D01*
X6635000Y-6505000D02*
X6605000Y-6535000D01*
X6725000Y-6505000D02*
X6755000Y-6535000D01*
X6755000Y-6505000D02*
X6725000Y-6535000D01*
X6845000Y-6345000D02*
X6875000Y-6375000D01*
X6875000Y-6345000D02*
X6845000Y-6375000D01*
X9205000Y-7545000D02*
X9235000Y-7575000D01*
X9235000Y-7545000D02*
X9205000Y-7575000D01*
X9365000Y-7545000D02*
X9395000Y-7575000D01*
X9395000Y-7545000D02*
X9365000Y-7575000D01*
X5230000Y-5950000D02*
G75*
G02*
X5150000Y-5950000I-40000J0D01*
G01*
X5150000Y-5950000D02*
G75*
G02*
X5230000Y-5950000I40000J0D01*
G01*
X5230000Y-6950000D02*
G75*
G02*
X5150000Y-6950000I-40000J0D01*
G01*
X5150000Y-6950000D02*
G75*
G02*
X5230000Y-6950000I40000J0D01*
G01*
X5255000Y-8100000D02*
G75*
G02*
X5175000Y-8100000I-40000J0D01*
G01*
X5175000Y-8100000D02*
G75*
G02*
X5255000Y-8100000I40000J0D01*
G01*
X5455000Y-8100000D02*
G75*
G02*
X5375000Y-8100000I-40000J0D01*
G01*
X5375000Y-8100000D02*
G75*
G02*
X5455000Y-8100000I40000J0D01*
G01*
X5484000Y-5950000D02*
G75*
G02*
X5404000Y-5950000I-40000J0D01*
G01*
X5404000Y-5950000D02*
G75*
G02*
X5484000Y-5950000I40000J0D01*
G01*
X5484000Y-6950000D02*
G75*
G02*
X5404000Y-6950000I-40000J0D01*
G01*
X5404000Y-6950000D02*
G75*
G02*
X5484000Y-6950000I40000J0D01*
G01*
X6240000Y-6300000D02*
G75*
G02*
X6160000Y-6300000I-40000J0D01*
G01*
X6160000Y-6300000D02*
G75*
G02*
X6240000Y-6300000I40000J0D01*
G01*
X6240000Y-7062000D02*
G75*
G02*
X6160000Y-7062000I-40000J0D01*
G01*
X6160000Y-7062000D02*
G75*
G02*
X6240000Y-7062000I40000J0D01*
G01*
X6494000Y-6300000D02*
G75*
G02*
X6414000Y-6300000I-40000J0D01*
G01*
X6414000Y-6300000D02*
G75*
G02*
X6494000Y-6300000I40000J0D01*
G01*
X6494000Y-7062000D02*
G75*
G02*
X6414000Y-7062000I-40000J0D01*
G01*
X6414000Y-7062000D02*
G75*
G02*
X6494000Y-7062000I40000J0D01*
G01*
X6640000Y-5260000D02*
G75*
G02*
X6560000Y-5260000I-40000J0D01*
G01*
X6560000Y-5260000D02*
G75*
G02*
X6640000Y-5260000I40000J0D01*
G01*
X6748000Y-6300000D02*
G75*
G02*
X6668000Y-6300000I-40000J0D01*
G01*
X6668000Y-6300000D02*
G75*
G02*
X6748000Y-6300000I40000J0D01*
G01*
X6748000Y-7062000D02*
G75*
G02*
X6668000Y-7062000I-40000J0D01*
G01*
X6668000Y-7062000D02*
G75*
G02*
X6748000Y-7062000I40000J0D01*
G01*
X6790000Y-5530000D02*
G75*
G02*
X6710000Y-5530000I-40000J0D01*
G01*
X6710000Y-5530000D02*
G75*
G02*
X6790000Y-5530000I40000J0D01*
G01*
X6790000Y-6030000D02*
G75*
G02*
X6710000Y-6030000I-40000J0D01*
G01*
X6710000Y-6030000D02*
G75*
G02*
X6790000Y-6030000I40000J0D01*
G01*
X6894000Y-5260000D02*
G75*
G02*
X6814000Y-5260000I-40000J0D01*
G01*
X6814000Y-5260000D02*
G75*
G02*
X6894000Y-5260000I40000J0D01*
G01*
X7002000Y-6300000D02*
G75*
G02*
X6922000Y-6300000I-40000J0D01*
G01*
X6922000Y-6300000D02*
G75*
G02*
X7002000Y-6300000I40000J0D01*
G01*
X7002000Y-7062000D02*
G75*
G02*
X6922000Y-7062000I-40000J0D01*
G01*
X6922000Y-7062000D02*
G75*
G02*
X7002000Y-7062000I40000J0D01*
G01*
X7040000Y-7380000D02*
G75*
G02*
X6960000Y-7380000I-40000J0D01*
G01*
X6960000Y-7380000D02*
G75*
G02*
X7040000Y-7380000I40000J0D01*
G01*
X7256000Y-6300000D02*
G75*
G02*
X7176000Y-6300000I-40000J0D01*
G01*
X7176000Y-6300000D02*
G75*
G02*
X7256000Y-6300000I40000J0D01*
G01*
X7256000Y-7062000D02*
G75*
G02*
X7176000Y-7062000I-40000J0D01*
G01*
X7176000Y-7062000D02*
G75*
G02*
X7256000Y-7062000I40000J0D01*
G01*
X7302000Y-5850000D02*
G75*
G02*
X7222000Y-5850000I-40000J0D01*
G01*
X7222000Y-5850000D02*
G75*
G02*
X7302000Y-5850000I40000J0D01*
G01*
X7510000Y-6300000D02*
G75*
G02*
X7430000Y-6300000I-40000J0D01*
G01*
X7430000Y-6300000D02*
G75*
G02*
X7510000Y-6300000I40000J0D01*
G01*
X7510000Y-7062000D02*
G75*
G02*
X7430000Y-7062000I-40000J0D01*
G01*
X7430000Y-7062000D02*
G75*
G02*
X7510000Y-7062000I40000J0D01*
G01*
X7540000Y-7380000D02*
G75*
G02*
X7460000Y-7380000I-40000J0D01*
G01*
X7460000Y-7380000D02*
G75*
G02*
X7540000Y-7380000I40000J0D01*
G01*
X7560000Y-7800000D02*
G75*
G02*
X7480000Y-7800000I-40000J0D01*
G01*
X7480000Y-7800000D02*
G75*
G02*
X7560000Y-7800000I40000J0D01*
G01*
X7764000Y-6300000D02*
G75*
G02*
X7684000Y-6300000I-40000J0D01*
G01*
X7684000Y-6300000D02*
G75*
G02*
X7764000Y-6300000I40000J0D01*
G01*
X7764000Y-7062000D02*
G75*
G02*
X7684000Y-7062000I-40000J0D01*
G01*
X7684000Y-7062000D02*
G75*
G02*
X7764000Y-7062000I40000J0D01*
G01*
X7790000Y-5850000D02*
G75*
G02*
X7710000Y-5850000I-40000J0D01*
G01*
X7710000Y-5850000D02*
G75*
G02*
X7790000Y-5850000I40000J0D01*
G01*
X8018000Y-6300000D02*
G75*
G02*
X7938000Y-6300000I-40000J0D01*
G01*
X7938000Y-6300000D02*
G75*
G02*
X8018000Y-6300000I40000J0D01*
G01*
X8018000Y-7062000D02*
G75*
G02*
X7938000Y-7062000I-40000J0D01*
G01*
X7938000Y-7062000D02*
G75*
G02*
X8018000Y-7062000I40000J0D01*
G01*
X8060000Y-7800000D02*
G75*
G02*
X7980000Y-7800000I-40000J0D01*
G01*
X7980000Y-7800000D02*
G75*
G02*
X8060000Y-7800000I40000J0D01*
G01*
X8240000Y-8800000D02*
G75*
G02*
X8160000Y-8800000I-40000J0D01*
G01*
X8160000Y-8800000D02*
G75*
G02*
X8240000Y-8800000I40000J0D01*
G01*
X8272000Y-6300000D02*
G75*
G02*
X8192000Y-6300000I-40000J0D01*
G01*
X8192000Y-6300000D02*
G75*
G02*
X8272000Y-6300000I40000J0D01*
G01*
X8272000Y-7062000D02*
G75*
G02*
X8192000Y-7062000I-40000J0D01*
G01*
X8192000Y-7062000D02*
G75*
G02*
X8272000Y-7062000I40000J0D01*
G01*
X8338000Y-7600000D02*
G75*
G02*
X8258000Y-7600000I-40000J0D01*
G01*
X8258000Y-7600000D02*
G75*
G02*
X8338000Y-7600000I40000J0D01*
G01*
X8338000Y-8362000D02*
G75*
G02*
X8258000Y-8362000I-40000J0D01*
G01*
X8258000Y-8362000D02*
G75*
G02*
X8338000Y-8362000I40000J0D01*
G01*
X8340000Y-5530000D02*
G75*
G02*
X8260000Y-5530000I-40000J0D01*
G01*
X8260000Y-5530000D02*
G75*
G02*
X8340000Y-5530000I40000J0D01*
G01*
X8340000Y-6030000D02*
G75*
G02*
X8260000Y-6030000I-40000J0D01*
G01*
X8260000Y-6030000D02*
G75*
G02*
X8340000Y-6030000I40000J0D01*
G01*
X8526000Y-6300000D02*
G75*
G02*
X8446000Y-6300000I-40000J0D01*
G01*
X8446000Y-6300000D02*
G75*
G02*
X8526000Y-6300000I40000J0D01*
G01*
X8526000Y-7062000D02*
G75*
G02*
X8446000Y-7062000I-40000J0D01*
G01*
X8446000Y-7062000D02*
G75*
G02*
X8526000Y-7062000I40000J0D01*
G01*
X8592000Y-7600000D02*
G75*
G02*
X8512000Y-7600000I-40000J0D01*
G01*
X8512000Y-7600000D02*
G75*
G02*
X8592000Y-7600000I40000J0D01*
G01*
X8592000Y-8362000D02*
G75*
G02*
X8512000Y-8362000I-40000J0D01*
G01*
X8512000Y-8362000D02*
G75*
G02*
X8592000Y-8362000I40000J0D01*
G01*
X8592000Y-9150000D02*
G75*
G02*
X8512000Y-9150000I-40000J0D01*
G01*
X8512000Y-9150000D02*
G75*
G02*
X8592000Y-9150000I40000J0D01*
G01*
X8740000Y-8800000D02*
G75*
G02*
X8660000Y-8800000I-40000J0D01*
G01*
X8660000Y-8800000D02*
G75*
G02*
X8740000Y-8800000I40000J0D01*
G01*
X8780000Y-6300000D02*
G75*
G02*
X8700000Y-6300000I-40000J0D01*
G01*
X8700000Y-6300000D02*
G75*
G02*
X8780000Y-6300000I40000J0D01*
G01*
X8780000Y-7062000D02*
G75*
G02*
X8700000Y-7062000I-40000J0D01*
G01*
X8700000Y-7062000D02*
G75*
G02*
X8780000Y-7062000I40000J0D01*
G01*
X8846000Y-7600000D02*
G75*
G02*
X8766000Y-7600000I-40000J0D01*
G01*
X8766000Y-7600000D02*
G75*
G02*
X8846000Y-7600000I40000J0D01*
G01*
X8846000Y-8362000D02*
G75*
G02*
X8766000Y-8362000I-40000J0D01*
G01*
X8766000Y-8362000D02*
G75*
G02*
X8846000Y-8362000I40000J0D01*
G01*
X8846000Y-9150000D02*
G75*
G02*
X8766000Y-9150000I-40000J0D01*
G01*
X8766000Y-9150000D02*
G75*
G02*
X8846000Y-9150000I40000J0D01*
G01*
X8942000Y-5980000D02*
G75*
G02*
X8862000Y-5980000I-40000J0D01*
G01*
X8862000Y-5980000D02*
G75*
G02*
X8942000Y-5980000I40000J0D01*
G01*
X9034000Y-6300000D02*
G75*
G02*
X8954000Y-6300000I-40000J0D01*
G01*
X8954000Y-6300000D02*
G75*
G02*
X9034000Y-6300000I40000J0D01*
G01*
X9034000Y-7062000D02*
G75*
G02*
X8954000Y-7062000I-40000J0D01*
G01*
X8954000Y-7062000D02*
G75*
G02*
X9034000Y-7062000I40000J0D01*
G01*
X9100000Y-7600000D02*
G75*
G02*
X9020000Y-7600000I-40000J0D01*
G01*
X9020000Y-7600000D02*
G75*
G02*
X9100000Y-7600000I40000J0D01*
G01*
X9100000Y-8362000D02*
G75*
G02*
X9020000Y-8362000I-40000J0D01*
G01*
X9020000Y-8362000D02*
G75*
G02*
X9100000Y-8362000I40000J0D01*
G01*
X9196000Y-5980000D02*
G75*
G02*
X9116000Y-5980000I-40000J0D01*
G01*
X9116000Y-5980000D02*
G75*
G02*
X9196000Y-5980000I40000J0D01*
G01*
X9288000Y-6300000D02*
G75*
G02*
X9208000Y-6300000I-40000J0D01*
G01*
X9208000Y-6300000D02*
G75*
G02*
X9288000Y-6300000I40000J0D01*
G01*
X9288000Y-7062000D02*
G75*
G02*
X9208000Y-7062000I-40000J0D01*
G01*
X9208000Y-7062000D02*
G75*
G02*
X9288000Y-7062000I40000J0D01*
G01*
X9542000Y-6300000D02*
G75*
G02*
X9462000Y-6300000I-40000J0D01*
G01*
X9462000Y-6300000D02*
G75*
G02*
X9542000Y-6300000I40000J0D01*
G01*
X9542000Y-7062000D02*
G75*
G02*
X9462000Y-7062000I-40000J0D01*
G01*
X9462000Y-7062000D02*
G75*
G02*
X9542000Y-7062000I40000J0D01*
G01*
X9582000Y-5730000D02*
G75*
G02*
X9502000Y-5730000I-40000J0D01*
G01*
X9502000Y-5730000D02*
G75*
G02*
X9582000Y-5730000I40000J0D01*
G01*
X9582000Y-5980000D02*
G75*
G02*
X9502000Y-5980000I-40000J0D01*
G01*
X9502000Y-5980000D02*
G75*
G02*
X9582000Y-5980000I40000J0D01*
G01*
X9942000Y-5886000D02*
G75*
G02*
X9862000Y-5886000I-40000J0D01*
G01*
X9862000Y-5886000D02*
G75*
G02*
X9942000Y-5886000I40000J0D01*
G01*
X9942000Y-6140000D02*
G75*
G02*
X9862000Y-6140000I-40000J0D01*
G01*
X9862000Y-6140000D02*
G75*
G02*
X9942000Y-6140000I40000J0D01*
G01*
X5170000Y-6405000D02*
X5170000Y-6495000D01*
X5125000Y-6450000D02*
X5215000Y-6450000D01*
X5170000Y-7405000D02*
X5170000Y-7495000D01*
X5125000Y-7450000D02*
X5215000Y-7450000D01*
X5424000Y-6405000D02*
X5424000Y-6495000D01*
X5379000Y-6450000D02*
X5469000Y-6450000D01*
X5424000Y-7405000D02*
X5424000Y-7495000D01*
X5379000Y-7450000D02*
X5469000Y-7450000D01*
X6035356Y-5335356D02*
X6035356Y-5264644D01*
X5964644Y-5264644D01*
X5964644Y-5335356D01*
X6035356Y-5335356D01*
X6135356Y-7885356D02*
X6135356Y-7814644D01*
X6064644Y-7814644D01*
X6064644Y-7885356D01*
X6135356Y-7885356D01*
X6289356Y-5335356D02*
X6289356Y-5264644D01*
X6218644Y-5264644D01*
X6218644Y-5335356D01*
X6289356Y-5335356D01*
X6389356Y-7885356D02*
X6389356Y-7814644D01*
X6318644Y-7814644D01*
X6318644Y-7885356D01*
X6389356Y-7885356D01*
X6643356Y-7885356D02*
X6643356Y-7814644D01*
X6572644Y-7814644D01*
X6572644Y-7885356D01*
X6643356Y-7885356D01*
X6897356Y-7885356D02*
X6897356Y-7814644D01*
X6826644Y-7814644D01*
X6826644Y-7885356D01*
X6897356Y-7885356D01*
X7151356Y-7885356D02*
X7151356Y-7814644D01*
X7080644Y-7814644D01*
X7080644Y-7885356D01*
X7151356Y-7885356D01*
X9897356Y-6575356D02*
X9897356Y-6504644D01*
X9826644Y-6504644D01*
X9826644Y-6575356D01*
X9897356Y-6575356D01*
X9897356Y-6829356D02*
X9897356Y-6758644D01*
X9826644Y-6758644D01*
X9826644Y-6829356D01*
X9897356Y-6829356D01*
D12*
X6190000Y-8271000D02*
X6241000Y-8220000D01*
X6190000Y-8169000D01*
X6139000Y-8220000D01*
X6190000Y-8271000D01*
X6190000Y-8571000D02*
X6241000Y-8520000D01*
X6190000Y-8469000D01*
X6139000Y-8520000D01*
X6190000Y-8571000D01*
X6490000Y-8271000D02*
X6541000Y-8220000D01*
X6490000Y-8169000D01*
X6439000Y-8220000D01*
X6490000Y-8271000D01*
X6490000Y-8571000D02*
X6541000Y-8520000D01*
X6490000Y-8469000D01*
X6439000Y-8520000D01*
X6490000Y-8571000D01*
X7360000Y-8271000D02*
X7411000Y-8220000D01*
X7360000Y-8169000D01*
X7309000Y-8220000D01*
X7360000Y-8271000D01*
X7360000Y-8571000D02*
X7411000Y-8520000D01*
X7360000Y-8469000D01*
X7309000Y-8520000D01*
X7360000Y-8571000D01*
X7660000Y-8271000D02*
X7711000Y-8220000D01*
X7660000Y-8169000D01*
X7609000Y-8220000D01*
X7660000Y-8271000D01*
X7660000Y-8571000D02*
X7711000Y-8520000D01*
X7660000Y-8469000D01*
X7609000Y-8520000D01*
X7660000Y-8571000D01*
D13*
X6190000Y-8802000D02*
X6490000Y-9102000D01*
X6490000Y-8802000D02*
X6190000Y-9102000D01*
X6490000Y-8952000D02*
G75*
G02*
X6190000Y-8952000I-150000J0D01*
G01*
X6190000Y-8952000D02*
G75*
G02*
X6490000Y-8952000I150000J0D01*
G01*
X7360000Y-8802000D02*
X7660000Y-9102000D01*
X7660000Y-8802000D02*
X7360000Y-9102000D01*
X7660000Y-8952000D02*
G75*
G02*
X7360000Y-8952000I-150000J0D01*
G01*
X7360000Y-8952000D02*
G75*
G02*
X7660000Y-8952000I150000J0D01*
G01*
D14*
X5240000Y-5240000D02*
X5560000Y-5560000D01*
X5560000Y-5240000D02*
X5240000Y-5560000D01*
X5400000Y-5240000D02*
X5400000Y-5560000D01*
X5240000Y-5400000D02*
X5560000Y-5400000D01*
X5240000Y-8940000D02*
X5560000Y-9260000D01*
X5560000Y-8940000D02*
X5240000Y-9260000D01*
X5400000Y-8940000D02*
X5400000Y-9260000D01*
X5240000Y-9100000D02*
X5560000Y-9100000D01*
X9940000Y-5240000D02*
X10260000Y-5560000D01*
X10260000Y-5240000D02*
X9940000Y-5560000D01*
X10100000Y-5240000D02*
X10100000Y-5560000D01*
X9940000Y-5400000D02*
X10260000Y-5400000D01*
X9940000Y-8940000D02*
X10260000Y-9260000D01*
X10260000Y-8940000D02*
X9940000Y-9260000D01*
X10100000Y-8940000D02*
X10100000Y-9260000D01*
X9940000Y-9100000D02*
X10260000Y-9100000D01*
D11*
X5255777Y-9816484D02*
X5255777Y-9616484D01*
X5255777Y-9616484D02*
X5303396Y-9616484D01*
X5303396Y-9616484D02*
X5331967Y-9626008D01*
X5331967Y-9626008D02*
X5351015Y-9645055D01*
X5351015Y-9645055D02*
X5360539Y-9664103D01*
X5360539Y-9664103D02*
X5370063Y-9702198D01*
X5370063Y-9702198D02*
X5370063Y-9730770D01*
X5370063Y-9730770D02*
X5360539Y-9768865D01*
X5360539Y-9768865D02*
X5351015Y-9787912D01*
X5351015Y-9787912D02*
X5331967Y-9806960D01*
X5331967Y-9806960D02*
X5303396Y-9816484D01*
X5303396Y-9816484D02*
X5255777Y-9816484D01*
X5455777Y-9816484D02*
X5455777Y-9683150D01*
X5455777Y-9721246D02*
X5465301Y-9702198D01*
X5465301Y-9702198D02*
X5474824Y-9692674D01*
X5474824Y-9692674D02*
X5493872Y-9683150D01*
X5493872Y-9683150D02*
X5512920Y-9683150D01*
X5579586Y-9816484D02*
X5579586Y-9683150D01*
X5579586Y-9616484D02*
X5570063Y-9626008D01*
X5570063Y-9626008D02*
X5579586Y-9635531D01*
X5579586Y-9635531D02*
X5589110Y-9626008D01*
X5589110Y-9626008D02*
X5579586Y-9616484D01*
X5579586Y-9616484D02*
X5579586Y-9635531D01*
X5703396Y-9816484D02*
X5684348Y-9806960D01*
X5684348Y-9806960D02*
X5674824Y-9787912D01*
X5674824Y-9787912D02*
X5674824Y-9616484D01*
X5808158Y-9816484D02*
X5789110Y-9806960D01*
X5789110Y-9806960D02*
X5779586Y-9787912D01*
X5779586Y-9787912D02*
X5779586Y-9616484D01*
X6036729Y-9816484D02*
X6036729Y-9616484D01*
X6036729Y-9616484D02*
X6103396Y-9759341D01*
X6103396Y-9759341D02*
X6170062Y-9616484D01*
X6170062Y-9616484D02*
X6170062Y-9816484D01*
X6351015Y-9816484D02*
X6351015Y-9711722D01*
X6351015Y-9711722D02*
X6341491Y-9692674D01*
X6341491Y-9692674D02*
X6322443Y-9683150D01*
X6322443Y-9683150D02*
X6284348Y-9683150D01*
X6284348Y-9683150D02*
X6265301Y-9692674D01*
X6351015Y-9806960D02*
X6331967Y-9816484D01*
X6331967Y-9816484D02*
X6284348Y-9816484D01*
X6284348Y-9816484D02*
X6265301Y-9806960D01*
X6265301Y-9806960D02*
X6255777Y-9787912D01*
X6255777Y-9787912D02*
X6255777Y-9768865D01*
X6255777Y-9768865D02*
X6265301Y-9749817D01*
X6265301Y-9749817D02*
X6284348Y-9740293D01*
X6284348Y-9740293D02*
X6331967Y-9740293D01*
X6331967Y-9740293D02*
X6351015Y-9730770D01*
X6446253Y-9683150D02*
X6446253Y-9883150D01*
X6446253Y-9692674D02*
X6465301Y-9683150D01*
X6465301Y-9683150D02*
X6503396Y-9683150D01*
X6503396Y-9683150D02*
X6522443Y-9692674D01*
X6522443Y-9692674D02*
X6531967Y-9702198D01*
X6531967Y-9702198D02*
X6541491Y-9721246D01*
X6541491Y-9721246D02*
X6541491Y-9778389D01*
X6541491Y-9778389D02*
X6531967Y-9797436D01*
X6531967Y-9797436D02*
X6522443Y-9806960D01*
X6522443Y-9806960D02*
X6503396Y-9816484D01*
X6503396Y-9816484D02*
X6465301Y-9816484D01*
X6465301Y-9816484D02*
X6446253Y-9806960D01*
X6627205Y-9797436D02*
X6636729Y-9806960D01*
X6636729Y-9806960D02*
X6627205Y-9816484D01*
X6627205Y-9816484D02*
X6617682Y-9806960D01*
X6617682Y-9806960D02*
X6627205Y-9797436D01*
X6627205Y-9797436D02*
X6627205Y-9816484D01*
X6627205Y-9692674D02*
X6636729Y-9702198D01*
X6636729Y-9702198D02*
X6627205Y-9711722D01*
X6627205Y-9711722D02*
X6617682Y-9702198D01*
X6617682Y-9702198D02*
X6627205Y-9692674D01*
X6627205Y-9692674D02*
X6627205Y-9711722D01*
D10*
X4965000Y-10130000D02*
X4995000Y-10160000D01*
X4995000Y-10130000D02*
X4965000Y-10160000D01*
D11*
X5293872Y-10036484D02*
X5312920Y-10036484D01*
X5312920Y-10036484D02*
X5331967Y-10046008D01*
X5331967Y-10046008D02*
X5341491Y-10055531D01*
X5341491Y-10055531D02*
X5351015Y-10074579D01*
X5351015Y-10074579D02*
X5360539Y-10112674D01*
X5360539Y-10112674D02*
X5360539Y-10160293D01*
X5360539Y-10160293D02*
X5351015Y-10198389D01*
X5351015Y-10198389D02*
X5341491Y-10217436D01*
X5341491Y-10217436D02*
X5331967Y-10226960D01*
X5331967Y-10226960D02*
X5312920Y-10236484D01*
X5312920Y-10236484D02*
X5293872Y-10236484D01*
X5293872Y-10236484D02*
X5274824Y-10226960D01*
X5274824Y-10226960D02*
X5265301Y-10217436D01*
X5265301Y-10217436D02*
X5255777Y-10198389D01*
X5255777Y-10198389D02*
X5246253Y-10160293D01*
X5246253Y-10160293D02*
X5246253Y-10112674D01*
X5246253Y-10112674D02*
X5255777Y-10074579D01*
X5255777Y-10074579D02*
X5265301Y-10055531D01*
X5265301Y-10055531D02*
X5274824Y-10046008D01*
X5274824Y-10046008D02*
X5293872Y-10036484D01*
X5455777Y-10226960D02*
X5455777Y-10236484D01*
X5455777Y-10236484D02*
X5446253Y-10255531D01*
X5446253Y-10255531D02*
X5436729Y-10265055D01*
X5522444Y-10036484D02*
X5646253Y-10036484D01*
X5646253Y-10036484D02*
X5579586Y-10112674D01*
X5579586Y-10112674D02*
X5608158Y-10112674D01*
X5608158Y-10112674D02*
X5627205Y-10122198D01*
X5627205Y-10122198D02*
X5636729Y-10131722D01*
X5636729Y-10131722D02*
X5646253Y-10150770D01*
X5646253Y-10150770D02*
X5646253Y-10198389D01*
X5646253Y-10198389D02*
X5636729Y-10217436D01*
X5636729Y-10217436D02*
X5627205Y-10226960D01*
X5627205Y-10226960D02*
X5608158Y-10236484D01*
X5608158Y-10236484D02*
X5551015Y-10236484D01*
X5551015Y-10236484D02*
X5531967Y-10226960D01*
X5531967Y-10226960D02*
X5522444Y-10217436D01*
X5770062Y-10036484D02*
X5789110Y-10036484D01*
X5789110Y-10036484D02*
X5808158Y-10046008D01*
X5808158Y-10046008D02*
X5817682Y-10055531D01*
X5817682Y-10055531D02*
X5827205Y-10074579D01*
X5827205Y-10074579D02*
X5836729Y-10112674D01*
X5836729Y-10112674D02*
X5836729Y-10160293D01*
X5836729Y-10160293D02*
X5827205Y-10198389D01*
X5827205Y-10198389D02*
X5817682Y-10217436D01*
X5817682Y-10217436D02*
X5808158Y-10226960D01*
X5808158Y-10226960D02*
X5789110Y-10236484D01*
X5789110Y-10236484D02*
X5770062Y-10236484D01*
X5770062Y-10236484D02*
X5751015Y-10226960D01*
X5751015Y-10226960D02*
X5741491Y-10217436D01*
X5741491Y-10217436D02*
X5731967Y-10198389D01*
X5731967Y-10198389D02*
X5722443Y-10160293D01*
X5722443Y-10160293D02*
X5722443Y-10112674D01*
X5722443Y-10112674D02*
X5731967Y-10074579D01*
X5731967Y-10074579D02*
X5741491Y-10055531D01*
X5741491Y-10055531D02*
X5751015Y-10046008D01*
X5751015Y-10046008D02*
X5770062Y-10036484D01*
X5960539Y-10036484D02*
X5979586Y-10036484D01*
X5979586Y-10036484D02*
X5998634Y-10046008D01*
X5998634Y-10046008D02*
X6008158Y-10055531D01*
X6008158Y-10055531D02*
X6017682Y-10074579D01*
X6017682Y-10074579D02*
X6027205Y-10112674D01*
X6027205Y-10112674D02*
X6027205Y-10160293D01*
X6027205Y-10160293D02*
X6017682Y-10198389D01*
X6017682Y-10198389D02*
X6008158Y-10217436D01*
X6008158Y-10217436D02*
X5998634Y-10226960D01*
X5998634Y-10226960D02*
X5979586Y-10236484D01*
X5979586Y-10236484D02*
X5960539Y-10236484D01*
X5960539Y-10236484D02*
X5941491Y-10226960D01*
X5941491Y-10226960D02*
X5931967Y-10217436D01*
X5931967Y-10217436D02*
X5922443Y-10198389D01*
X5922443Y-10198389D02*
X5912920Y-10160293D01*
X5912920Y-10160293D02*
X5912920Y-10112674D01*
X5912920Y-10112674D02*
X5922443Y-10074579D01*
X5922443Y-10074579D02*
X5931967Y-10055531D01*
X5931967Y-10055531D02*
X5941491Y-10046008D01*
X5941491Y-10046008D02*
X5960539Y-10036484D01*
X6112920Y-10236484D02*
X6112920Y-10103150D01*
X6112920Y-10122198D02*
X6122443Y-10112674D01*
X6122443Y-10112674D02*
X6141491Y-10103150D01*
X6141491Y-10103150D02*
X6170063Y-10103150D01*
X6170063Y-10103150D02*
X6189110Y-10112674D01*
X6189110Y-10112674D02*
X6198634Y-10131722D01*
X6198634Y-10131722D02*
X6198634Y-10236484D01*
X6198634Y-10131722D02*
X6208158Y-10112674D01*
X6208158Y-10112674D02*
X6227205Y-10103150D01*
X6227205Y-10103150D02*
X6255777Y-10103150D01*
X6255777Y-10103150D02*
X6274824Y-10112674D01*
X6274824Y-10112674D02*
X6284348Y-10131722D01*
X6284348Y-10131722D02*
X6284348Y-10236484D01*
X6379586Y-10236484D02*
X6379586Y-10103150D01*
X6379586Y-10122198D02*
X6389110Y-10112674D01*
X6389110Y-10112674D02*
X6408158Y-10103150D01*
X6408158Y-10103150D02*
X6436729Y-10103150D01*
X6436729Y-10103150D02*
X6455777Y-10112674D01*
X6455777Y-10112674D02*
X6465301Y-10131722D01*
X6465301Y-10131722D02*
X6465301Y-10236484D01*
X6465301Y-10131722D02*
X6474824Y-10112674D01*
X6474824Y-10112674D02*
X6493872Y-10103150D01*
X6493872Y-10103150D02*
X6522443Y-10103150D01*
X6522443Y-10103150D02*
X6541491Y-10112674D01*
X6541491Y-10112674D02*
X6551015Y-10131722D01*
X6551015Y-10131722D02*
X6551015Y-10236484D01*
X6941491Y-10026960D02*
X6770063Y-10284103D01*
X7198634Y-10036484D02*
X7217682Y-10036484D01*
X7217682Y-10036484D02*
X7236729Y-10046008D01*
X7236729Y-10046008D02*
X7246253Y-10055531D01*
X7246253Y-10055531D02*
X7255777Y-10074579D01*
X7255777Y-10074579D02*
X7265301Y-10112674D01*
X7265301Y-10112674D02*
X7265301Y-10160293D01*
X7265301Y-10160293D02*
X7255777Y-10198389D01*
X7255777Y-10198389D02*
X7246253Y-10217436D01*
X7246253Y-10217436D02*
X7236729Y-10226960D01*
X7236729Y-10226960D02*
X7217682Y-10236484D01*
X7217682Y-10236484D02*
X7198634Y-10236484D01*
X7198634Y-10236484D02*
X7179586Y-10226960D01*
X7179586Y-10226960D02*
X7170063Y-10217436D01*
X7170063Y-10217436D02*
X7160539Y-10198389D01*
X7160539Y-10198389D02*
X7151015Y-10160293D01*
X7151015Y-10160293D02*
X7151015Y-10112674D01*
X7151015Y-10112674D02*
X7160539Y-10074579D01*
X7160539Y-10074579D02*
X7170063Y-10055531D01*
X7170063Y-10055531D02*
X7179586Y-10046008D01*
X7179586Y-10046008D02*
X7198634Y-10036484D01*
X7360539Y-10226960D02*
X7360539Y-10236484D01*
X7360539Y-10236484D02*
X7351015Y-10255531D01*
X7351015Y-10255531D02*
X7341491Y-10265055D01*
X7484348Y-10036484D02*
X7503396Y-10036484D01*
X7503396Y-10036484D02*
X7522444Y-10046008D01*
X7522444Y-10046008D02*
X7531967Y-10055531D01*
X7531967Y-10055531D02*
X7541491Y-10074579D01*
X7541491Y-10074579D02*
X7551015Y-10112674D01*
X7551015Y-10112674D02*
X7551015Y-10160293D01*
X7551015Y-10160293D02*
X7541491Y-10198389D01*
X7541491Y-10198389D02*
X7531967Y-10217436D01*
X7531967Y-10217436D02*
X7522444Y-10226960D01*
X7522444Y-10226960D02*
X7503396Y-10236484D01*
X7503396Y-10236484D02*
X7484348Y-10236484D01*
X7484348Y-10236484D02*
X7465301Y-10226960D01*
X7465301Y-10226960D02*
X7455777Y-10217436D01*
X7455777Y-10217436D02*
X7446253Y-10198389D01*
X7446253Y-10198389D02*
X7436729Y-10160293D01*
X7436729Y-10160293D02*
X7436729Y-10112674D01*
X7436729Y-10112674D02*
X7446253Y-10074579D01*
X7446253Y-10074579D02*
X7455777Y-10055531D01*
X7455777Y-10055531D02*
X7465301Y-10046008D01*
X7465301Y-10046008D02*
X7484348Y-10036484D01*
X7741491Y-10236484D02*
X7627206Y-10236484D01*
X7684348Y-10236484D02*
X7684348Y-10036484D01*
X7684348Y-10036484D02*
X7665301Y-10065055D01*
X7665301Y-10065055D02*
X7646253Y-10084103D01*
X7646253Y-10084103D02*
X7627206Y-10093627D01*
X7931967Y-10236484D02*
X7817682Y-10236484D01*
X7874825Y-10236484D02*
X7874825Y-10036484D01*
X7874825Y-10036484D02*
X7855777Y-10065055D01*
X7855777Y-10065055D02*
X7836729Y-10084103D01*
X7836729Y-10084103D02*
X7817682Y-10093627D01*
X8046253Y-10122198D02*
X8027206Y-10112674D01*
X8027206Y-10112674D02*
X8017682Y-10103150D01*
X8017682Y-10103150D02*
X8008158Y-10084103D01*
X8008158Y-10084103D02*
X8008158Y-10074579D01*
X8008158Y-10074579D02*
X8017682Y-10055531D01*
X8017682Y-10055531D02*
X8027206Y-10046008D01*
X8027206Y-10046008D02*
X8046253Y-10036484D01*
X8046253Y-10036484D02*
X8084348Y-10036484D01*
X8084348Y-10036484D02*
X8103396Y-10046008D01*
X8103396Y-10046008D02*
X8112920Y-10055531D01*
X8112920Y-10055531D02*
X8122444Y-10074579D01*
X8122444Y-10074579D02*
X8122444Y-10084103D01*
X8122444Y-10084103D02*
X8112920Y-10103150D01*
X8112920Y-10103150D02*
X8103396Y-10112674D01*
X8103396Y-10112674D02*
X8084348Y-10122198D01*
X8084348Y-10122198D02*
X8046253Y-10122198D01*
X8046253Y-10122198D02*
X8027206Y-10131722D01*
X8027206Y-10131722D02*
X8017682Y-10141246D01*
X8017682Y-10141246D02*
X8008158Y-10160293D01*
X8008158Y-10160293D02*
X8008158Y-10198389D01*
X8008158Y-10198389D02*
X8017682Y-10217436D01*
X8017682Y-10217436D02*
X8027206Y-10226960D01*
X8027206Y-10226960D02*
X8046253Y-10236484D01*
X8046253Y-10236484D02*
X8084348Y-10236484D01*
X8084348Y-10236484D02*
X8103396Y-10226960D01*
X8103396Y-10226960D02*
X8112920Y-10217436D01*
X8112920Y-10217436D02*
X8122444Y-10198389D01*
X8122444Y-10198389D02*
X8122444Y-10160293D01*
X8122444Y-10160293D02*
X8112920Y-10141246D01*
X8112920Y-10141246D02*
X8103396Y-10131722D01*
X8103396Y-10131722D02*
X8084348Y-10122198D01*
X8198634Y-10036484D02*
X8198634Y-10074579D01*
X8274825Y-10036484D02*
X8274825Y-10074579D01*
X8570063Y-10312674D02*
X8560539Y-10303150D01*
X8560539Y-10303150D02*
X8541491Y-10274579D01*
X8541491Y-10274579D02*
X8531968Y-10255531D01*
X8531968Y-10255531D02*
X8522444Y-10226960D01*
X8522444Y-10226960D02*
X8512920Y-10179341D01*
X8512920Y-10179341D02*
X8512920Y-10141246D01*
X8512920Y-10141246D02*
X8522444Y-10093627D01*
X8522444Y-10093627D02*
X8531968Y-10065055D01*
X8531968Y-10065055D02*
X8541491Y-10046008D01*
X8541491Y-10046008D02*
X8560539Y-10017436D01*
X8560539Y-10017436D02*
X8570063Y-10007912D01*
X8731968Y-10036484D02*
X8693872Y-10036484D01*
X8693872Y-10036484D02*
X8674825Y-10046008D01*
X8674825Y-10046008D02*
X8665301Y-10055531D01*
X8665301Y-10055531D02*
X8646253Y-10084103D01*
X8646253Y-10084103D02*
X8636730Y-10122198D01*
X8636730Y-10122198D02*
X8636730Y-10198389D01*
X8636730Y-10198389D02*
X8646253Y-10217436D01*
X8646253Y-10217436D02*
X8655777Y-10226960D01*
X8655777Y-10226960D02*
X8674825Y-10236484D01*
X8674825Y-10236484D02*
X8712920Y-10236484D01*
X8712920Y-10236484D02*
X8731968Y-10226960D01*
X8731968Y-10226960D02*
X8741491Y-10217436D01*
X8741491Y-10217436D02*
X8751015Y-10198389D01*
X8751015Y-10198389D02*
X8751015Y-10150770D01*
X8751015Y-10150770D02*
X8741491Y-10131722D01*
X8741491Y-10131722D02*
X8731968Y-10122198D01*
X8731968Y-10122198D02*
X8712920Y-10112674D01*
X8712920Y-10112674D02*
X8674825Y-10112674D01*
X8674825Y-10112674D02*
X8655777Y-10122198D01*
X8655777Y-10122198D02*
X8646253Y-10131722D01*
X8646253Y-10131722D02*
X8636730Y-10150770D01*
X8989111Y-10236484D02*
X8989111Y-10036484D01*
X9074825Y-10236484D02*
X9074825Y-10131722D01*
X9074825Y-10131722D02*
X9065301Y-10112674D01*
X9065301Y-10112674D02*
X9046253Y-10103150D01*
X9046253Y-10103150D02*
X9017682Y-10103150D01*
X9017682Y-10103150D02*
X8998634Y-10112674D01*
X8998634Y-10112674D02*
X8989111Y-10122198D01*
X9198634Y-10236484D02*
X9179587Y-10226960D01*
X9179587Y-10226960D02*
X9170063Y-10217436D01*
X9170063Y-10217436D02*
X9160539Y-10198389D01*
X9160539Y-10198389D02*
X9160539Y-10141246D01*
X9160539Y-10141246D02*
X9170063Y-10122198D01*
X9170063Y-10122198D02*
X9179587Y-10112674D01*
X9179587Y-10112674D02*
X9198634Y-10103150D01*
X9198634Y-10103150D02*
X9227206Y-10103150D01*
X9227206Y-10103150D02*
X9246253Y-10112674D01*
X9246253Y-10112674D02*
X9255777Y-10122198D01*
X9255777Y-10122198D02*
X9265301Y-10141246D01*
X9265301Y-10141246D02*
X9265301Y-10198389D01*
X9265301Y-10198389D02*
X9255777Y-10217436D01*
X9255777Y-10217436D02*
X9246253Y-10226960D01*
X9246253Y-10226960D02*
X9227206Y-10236484D01*
X9227206Y-10236484D02*
X9198634Y-10236484D01*
X9379587Y-10236484D02*
X9360539Y-10226960D01*
X9360539Y-10226960D02*
X9351015Y-10207912D01*
X9351015Y-10207912D02*
X9351015Y-10036484D01*
X9531968Y-10226960D02*
X9512920Y-10236484D01*
X9512920Y-10236484D02*
X9474825Y-10236484D01*
X9474825Y-10236484D02*
X9455777Y-10226960D01*
X9455777Y-10226960D02*
X9446253Y-10207912D01*
X9446253Y-10207912D02*
X9446253Y-10131722D01*
X9446253Y-10131722D02*
X9455777Y-10112674D01*
X9455777Y-10112674D02*
X9474825Y-10103150D01*
X9474825Y-10103150D02*
X9512920Y-10103150D01*
X9512920Y-10103150D02*
X9531968Y-10112674D01*
X9531968Y-10112674D02*
X9541492Y-10131722D01*
X9541492Y-10131722D02*
X9541492Y-10150770D01*
X9541492Y-10150770D02*
X9446253Y-10169817D01*
X9617682Y-10226960D02*
X9636730Y-10236484D01*
X9636730Y-10236484D02*
X9674825Y-10236484D01*
X9674825Y-10236484D02*
X9693873Y-10226960D01*
X9693873Y-10226960D02*
X9703396Y-10207912D01*
X9703396Y-10207912D02*
X9703396Y-10198389D01*
X9703396Y-10198389D02*
X9693873Y-10179341D01*
X9693873Y-10179341D02*
X9674825Y-10169817D01*
X9674825Y-10169817D02*
X9646253Y-10169817D01*
X9646253Y-10169817D02*
X9627206Y-10160293D01*
X9627206Y-10160293D02*
X9617682Y-10141246D01*
X9617682Y-10141246D02*
X9617682Y-10131722D01*
X9617682Y-10131722D02*
X9627206Y-10112674D01*
X9627206Y-10112674D02*
X9646253Y-10103150D01*
X9646253Y-10103150D02*
X9674825Y-10103150D01*
X9674825Y-10103150D02*
X9693873Y-10112674D01*
X9770063Y-10312674D02*
X9779587Y-10303150D01*
X9779587Y-10303150D02*
X9798634Y-10274579D01*
X9798634Y-10274579D02*
X9808158Y-10255531D01*
X9808158Y-10255531D02*
X9817682Y-10226960D01*
X9817682Y-10226960D02*
X9827206Y-10179341D01*
X9827206Y-10179341D02*
X9827206Y-10141246D01*
X9827206Y-10141246D02*
X9817682Y-10093627D01*
X9817682Y-10093627D02*
X9808158Y-10065055D01*
X9808158Y-10065055D02*
X9798634Y-10046008D01*
X9798634Y-10046008D02*
X9779587Y-10017436D01*
X9779587Y-10017436D02*
X9770063Y-10007912D01*
D10*
X4995000Y-10409000D02*
G75*
G02*
X4915000Y-10409000I-40000J0D01*
G01*
X4915000Y-10409000D02*
G75*
G02*
X4995000Y-10409000I40000J0D01*
G01*
D11*
X5293872Y-10300484D02*
X5312920Y-10300484D01*
X5312920Y-10300484D02*
X5331967Y-10310008D01*
X5331967Y-10310008D02*
X5341491Y-10319531D01*
X5341491Y-10319531D02*
X5351015Y-10338579D01*
X5351015Y-10338579D02*
X5360539Y-10376674D01*
X5360539Y-10376674D02*
X5360539Y-10424293D01*
X5360539Y-10424293D02*
X5351015Y-10462389D01*
X5351015Y-10462389D02*
X5341491Y-10481436D01*
X5341491Y-10481436D02*
X5331967Y-10490960D01*
X5331967Y-10490960D02*
X5312920Y-10500484D01*
X5312920Y-10500484D02*
X5293872Y-10500484D01*
X5293872Y-10500484D02*
X5274824Y-10490960D01*
X5274824Y-10490960D02*
X5265301Y-10481436D01*
X5265301Y-10481436D02*
X5255777Y-10462389D01*
X5255777Y-10462389D02*
X5246253Y-10424293D01*
X5246253Y-10424293D02*
X5246253Y-10376674D01*
X5246253Y-10376674D02*
X5255777Y-10338579D01*
X5255777Y-10338579D02*
X5265301Y-10319531D01*
X5265301Y-10319531D02*
X5274824Y-10310008D01*
X5274824Y-10310008D02*
X5293872Y-10300484D01*
X5455777Y-10490960D02*
X5455777Y-10500484D01*
X5455777Y-10500484D02*
X5446253Y-10519531D01*
X5446253Y-10519531D02*
X5436729Y-10529055D01*
X5570063Y-10386198D02*
X5551015Y-10376674D01*
X5551015Y-10376674D02*
X5541491Y-10367150D01*
X5541491Y-10367150D02*
X5531967Y-10348103D01*
X5531967Y-10348103D02*
X5531967Y-10338579D01*
X5531967Y-10338579D02*
X5541491Y-10319531D01*
X5541491Y-10319531D02*
X5551015Y-10310008D01*
X5551015Y-10310008D02*
X5570063Y-10300484D01*
X5570063Y-10300484D02*
X5608158Y-10300484D01*
X5608158Y-10300484D02*
X5627205Y-10310008D01*
X5627205Y-10310008D02*
X5636729Y-10319531D01*
X5636729Y-10319531D02*
X5646253Y-10338579D01*
X5646253Y-10338579D02*
X5646253Y-10348103D01*
X5646253Y-10348103D02*
X5636729Y-10367150D01*
X5636729Y-10367150D02*
X5627205Y-10376674D01*
X5627205Y-10376674D02*
X5608158Y-10386198D01*
X5608158Y-10386198D02*
X5570063Y-10386198D01*
X5570063Y-10386198D02*
X5551015Y-10395722D01*
X5551015Y-10395722D02*
X5541491Y-10405246D01*
X5541491Y-10405246D02*
X5531967Y-10424293D01*
X5531967Y-10424293D02*
X5531967Y-10462389D01*
X5531967Y-10462389D02*
X5541491Y-10481436D01*
X5541491Y-10481436D02*
X5551015Y-10490960D01*
X5551015Y-10490960D02*
X5570063Y-10500484D01*
X5570063Y-10500484D02*
X5608158Y-10500484D01*
X5608158Y-10500484D02*
X5627205Y-10490960D01*
X5627205Y-10490960D02*
X5636729Y-10481436D01*
X5636729Y-10481436D02*
X5646253Y-10462389D01*
X5646253Y-10462389D02*
X5646253Y-10424293D01*
X5646253Y-10424293D02*
X5636729Y-10405246D01*
X5636729Y-10405246D02*
X5627205Y-10395722D01*
X5627205Y-10395722D02*
X5608158Y-10386198D01*
X5770062Y-10300484D02*
X5789110Y-10300484D01*
X5789110Y-10300484D02*
X5808158Y-10310008D01*
X5808158Y-10310008D02*
X5817682Y-10319531D01*
X5817682Y-10319531D02*
X5827205Y-10338579D01*
X5827205Y-10338579D02*
X5836729Y-10376674D01*
X5836729Y-10376674D02*
X5836729Y-10424293D01*
X5836729Y-10424293D02*
X5827205Y-10462389D01*
X5827205Y-10462389D02*
X5817682Y-10481436D01*
X5817682Y-10481436D02*
X5808158Y-10490960D01*
X5808158Y-10490960D02*
X5789110Y-10500484D01*
X5789110Y-10500484D02*
X5770062Y-10500484D01*
X5770062Y-10500484D02*
X5751015Y-10490960D01*
X5751015Y-10490960D02*
X5741491Y-10481436D01*
X5741491Y-10481436D02*
X5731967Y-10462389D01*
X5731967Y-10462389D02*
X5722443Y-10424293D01*
X5722443Y-10424293D02*
X5722443Y-10376674D01*
X5722443Y-10376674D02*
X5731967Y-10338579D01*
X5731967Y-10338579D02*
X5741491Y-10319531D01*
X5741491Y-10319531D02*
X5751015Y-10310008D01*
X5751015Y-10310008D02*
X5770062Y-10300484D01*
X5960539Y-10300484D02*
X5979586Y-10300484D01*
X5979586Y-10300484D02*
X5998634Y-10310008D01*
X5998634Y-10310008D02*
X6008158Y-10319531D01*
X6008158Y-10319531D02*
X6017682Y-10338579D01*
X6017682Y-10338579D02*
X6027205Y-10376674D01*
X6027205Y-10376674D02*
X6027205Y-10424293D01*
X6027205Y-10424293D02*
X6017682Y-10462389D01*
X6017682Y-10462389D02*
X6008158Y-10481436D01*
X6008158Y-10481436D02*
X5998634Y-10490960D01*
X5998634Y-10490960D02*
X5979586Y-10500484D01*
X5979586Y-10500484D02*
X5960539Y-10500484D01*
X5960539Y-10500484D02*
X5941491Y-10490960D01*
X5941491Y-10490960D02*
X5931967Y-10481436D01*
X5931967Y-10481436D02*
X5922443Y-10462389D01*
X5922443Y-10462389D02*
X5912920Y-10424293D01*
X5912920Y-10424293D02*
X5912920Y-10376674D01*
X5912920Y-10376674D02*
X5922443Y-10338579D01*
X5922443Y-10338579D02*
X5931967Y-10319531D01*
X5931967Y-10319531D02*
X5941491Y-10310008D01*
X5941491Y-10310008D02*
X5960539Y-10300484D01*
X6112920Y-10500484D02*
X6112920Y-10367150D01*
X6112920Y-10386198D02*
X6122443Y-10376674D01*
X6122443Y-10376674D02*
X6141491Y-10367150D01*
X6141491Y-10367150D02*
X6170063Y-10367150D01*
X6170063Y-10367150D02*
X6189110Y-10376674D01*
X6189110Y-10376674D02*
X6198634Y-10395722D01*
X6198634Y-10395722D02*
X6198634Y-10500484D01*
X6198634Y-10395722D02*
X6208158Y-10376674D01*
X6208158Y-10376674D02*
X6227205Y-10367150D01*
X6227205Y-10367150D02*
X6255777Y-10367150D01*
X6255777Y-10367150D02*
X6274824Y-10376674D01*
X6274824Y-10376674D02*
X6284348Y-10395722D01*
X6284348Y-10395722D02*
X6284348Y-10500484D01*
X6379586Y-10500484D02*
X6379586Y-10367150D01*
X6379586Y-10386198D02*
X6389110Y-10376674D01*
X6389110Y-10376674D02*
X6408158Y-10367150D01*
X6408158Y-10367150D02*
X6436729Y-10367150D01*
X6436729Y-10367150D02*
X6455777Y-10376674D01*
X6455777Y-10376674D02*
X6465301Y-10395722D01*
X6465301Y-10395722D02*
X6465301Y-10500484D01*
X6465301Y-10395722D02*
X6474824Y-10376674D01*
X6474824Y-10376674D02*
X6493872Y-10367150D01*
X6493872Y-10367150D02*
X6522443Y-10367150D01*
X6522443Y-10367150D02*
X6541491Y-10376674D01*
X6541491Y-10376674D02*
X6551015Y-10395722D01*
X6551015Y-10395722D02*
X6551015Y-10500484D01*
X6941491Y-10290960D02*
X6770063Y-10548103D01*
X7198634Y-10300484D02*
X7217682Y-10300484D01*
X7217682Y-10300484D02*
X7236729Y-10310008D01*
X7236729Y-10310008D02*
X7246253Y-10319531D01*
X7246253Y-10319531D02*
X7255777Y-10338579D01*
X7255777Y-10338579D02*
X7265301Y-10376674D01*
X7265301Y-10376674D02*
X7265301Y-10424293D01*
X7265301Y-10424293D02*
X7255777Y-10462389D01*
X7255777Y-10462389D02*
X7246253Y-10481436D01*
X7246253Y-10481436D02*
X7236729Y-10490960D01*
X7236729Y-10490960D02*
X7217682Y-10500484D01*
X7217682Y-10500484D02*
X7198634Y-10500484D01*
X7198634Y-10500484D02*
X7179586Y-10490960D01*
X7179586Y-10490960D02*
X7170063Y-10481436D01*
X7170063Y-10481436D02*
X7160539Y-10462389D01*
X7160539Y-10462389D02*
X7151015Y-10424293D01*
X7151015Y-10424293D02*
X7151015Y-10376674D01*
X7151015Y-10376674D02*
X7160539Y-10338579D01*
X7160539Y-10338579D02*
X7170063Y-10319531D01*
X7170063Y-10319531D02*
X7179586Y-10310008D01*
X7179586Y-10310008D02*
X7198634Y-10300484D01*
X7360539Y-10490960D02*
X7360539Y-10500484D01*
X7360539Y-10500484D02*
X7351015Y-10519531D01*
X7351015Y-10519531D02*
X7341491Y-10529055D01*
X7484348Y-10300484D02*
X7503396Y-10300484D01*
X7503396Y-10300484D02*
X7522444Y-10310008D01*
X7522444Y-10310008D02*
X7531967Y-10319531D01*
X7531967Y-10319531D02*
X7541491Y-10338579D01*
X7541491Y-10338579D02*
X7551015Y-10376674D01*
X7551015Y-10376674D02*
X7551015Y-10424293D01*
X7551015Y-10424293D02*
X7541491Y-10462389D01*
X7541491Y-10462389D02*
X7531967Y-10481436D01*
X7531967Y-10481436D02*
X7522444Y-10490960D01*
X7522444Y-10490960D02*
X7503396Y-10500484D01*
X7503396Y-10500484D02*
X7484348Y-10500484D01*
X7484348Y-10500484D02*
X7465301Y-10490960D01*
X7465301Y-10490960D02*
X7455777Y-10481436D01*
X7455777Y-10481436D02*
X7446253Y-10462389D01*
X7446253Y-10462389D02*
X7436729Y-10424293D01*
X7436729Y-10424293D02*
X7436729Y-10376674D01*
X7436729Y-10376674D02*
X7446253Y-10338579D01*
X7446253Y-10338579D02*
X7455777Y-10319531D01*
X7455777Y-10319531D02*
X7465301Y-10310008D01*
X7465301Y-10310008D02*
X7484348Y-10300484D01*
X7617682Y-10300484D02*
X7741491Y-10300484D01*
X7741491Y-10300484D02*
X7674825Y-10376674D01*
X7674825Y-10376674D02*
X7703396Y-10376674D01*
X7703396Y-10376674D02*
X7722444Y-10386198D01*
X7722444Y-10386198D02*
X7731967Y-10395722D01*
X7731967Y-10395722D02*
X7741491Y-10414770D01*
X7741491Y-10414770D02*
X7741491Y-10462389D01*
X7741491Y-10462389D02*
X7731967Y-10481436D01*
X7731967Y-10481436D02*
X7722444Y-10490960D01*
X7722444Y-10490960D02*
X7703396Y-10500484D01*
X7703396Y-10500484D02*
X7646253Y-10500484D01*
X7646253Y-10500484D02*
X7627206Y-10490960D01*
X7627206Y-10490960D02*
X7617682Y-10481436D01*
X7931967Y-10500484D02*
X7817682Y-10500484D01*
X7874825Y-10500484D02*
X7874825Y-10300484D01*
X7874825Y-10300484D02*
X7855777Y-10329055D01*
X7855777Y-10329055D02*
X7836729Y-10348103D01*
X7836729Y-10348103D02*
X7817682Y-10357627D01*
X8112920Y-10300484D02*
X8017682Y-10300484D01*
X8017682Y-10300484D02*
X8008158Y-10395722D01*
X8008158Y-10395722D02*
X8017682Y-10386198D01*
X8017682Y-10386198D02*
X8036729Y-10376674D01*
X8036729Y-10376674D02*
X8084348Y-10376674D01*
X8084348Y-10376674D02*
X8103396Y-10386198D01*
X8103396Y-10386198D02*
X8112920Y-10395722D01*
X8112920Y-10395722D02*
X8122444Y-10414770D01*
X8122444Y-10414770D02*
X8122444Y-10462389D01*
X8122444Y-10462389D02*
X8112920Y-10481436D01*
X8112920Y-10481436D02*
X8103396Y-10490960D01*
X8103396Y-10490960D02*
X8084348Y-10500484D01*
X8084348Y-10500484D02*
X8036729Y-10500484D01*
X8036729Y-10500484D02*
X8017682Y-10490960D01*
X8017682Y-10490960D02*
X8008158Y-10481436D01*
X8198634Y-10300484D02*
X8198634Y-10338579D01*
X8274825Y-10300484D02*
X8274825Y-10338579D01*
X8570063Y-10576674D02*
X8560539Y-10567150D01*
X8560539Y-10567150D02*
X8541491Y-10538579D01*
X8541491Y-10538579D02*
X8531968Y-10519531D01*
X8531968Y-10519531D02*
X8522444Y-10490960D01*
X8522444Y-10490960D02*
X8512920Y-10443341D01*
X8512920Y-10443341D02*
X8512920Y-10405246D01*
X8512920Y-10405246D02*
X8522444Y-10357627D01*
X8522444Y-10357627D02*
X8531968Y-10329055D01*
X8531968Y-10329055D02*
X8541491Y-10310008D01*
X8541491Y-10310008D02*
X8560539Y-10281436D01*
X8560539Y-10281436D02*
X8570063Y-10271912D01*
X8731968Y-10300484D02*
X8693872Y-10300484D01*
X8693872Y-10300484D02*
X8674825Y-10310008D01*
X8674825Y-10310008D02*
X8665301Y-10319531D01*
X8665301Y-10319531D02*
X8646253Y-10348103D01*
X8646253Y-10348103D02*
X8636730Y-10386198D01*
X8636730Y-10386198D02*
X8636730Y-10462389D01*
X8636730Y-10462389D02*
X8646253Y-10481436D01*
X8646253Y-10481436D02*
X8655777Y-10490960D01*
X8655777Y-10490960D02*
X8674825Y-10500484D01*
X8674825Y-10500484D02*
X8712920Y-10500484D01*
X8712920Y-10500484D02*
X8731968Y-10490960D01*
X8731968Y-10490960D02*
X8741491Y-10481436D01*
X8741491Y-10481436D02*
X8751015Y-10462389D01*
X8751015Y-10462389D02*
X8751015Y-10414770D01*
X8751015Y-10414770D02*
X8741491Y-10395722D01*
X8741491Y-10395722D02*
X8731968Y-10386198D01*
X8731968Y-10386198D02*
X8712920Y-10376674D01*
X8712920Y-10376674D02*
X8674825Y-10376674D01*
X8674825Y-10376674D02*
X8655777Y-10386198D01*
X8655777Y-10386198D02*
X8646253Y-10395722D01*
X8646253Y-10395722D02*
X8636730Y-10414770D01*
X8922444Y-10367150D02*
X8922444Y-10500484D01*
X8874825Y-10290960D02*
X8827206Y-10433817D01*
X8827206Y-10433817D02*
X8951015Y-10433817D01*
X9179587Y-10500484D02*
X9179587Y-10300484D01*
X9265301Y-10500484D02*
X9265301Y-10395722D01*
X9265301Y-10395722D02*
X9255777Y-10376674D01*
X9255777Y-10376674D02*
X9236730Y-10367150D01*
X9236730Y-10367150D02*
X9208158Y-10367150D01*
X9208158Y-10367150D02*
X9189111Y-10376674D01*
X9189111Y-10376674D02*
X9179587Y-10386198D01*
X9389111Y-10500484D02*
X9370063Y-10490960D01*
X9370063Y-10490960D02*
X9360539Y-10481436D01*
X9360539Y-10481436D02*
X9351015Y-10462389D01*
X9351015Y-10462389D02*
X9351015Y-10405246D01*
X9351015Y-10405246D02*
X9360539Y-10386198D01*
X9360539Y-10386198D02*
X9370063Y-10376674D01*
X9370063Y-10376674D02*
X9389111Y-10367150D01*
X9389111Y-10367150D02*
X9417682Y-10367150D01*
X9417682Y-10367150D02*
X9436730Y-10376674D01*
X9436730Y-10376674D02*
X9446253Y-10386198D01*
X9446253Y-10386198D02*
X9455777Y-10405246D01*
X9455777Y-10405246D02*
X9455777Y-10462389D01*
X9455777Y-10462389D02*
X9446253Y-10481436D01*
X9446253Y-10481436D02*
X9436730Y-10490960D01*
X9436730Y-10490960D02*
X9417682Y-10500484D01*
X9417682Y-10500484D02*
X9389111Y-10500484D01*
X9570063Y-10500484D02*
X9551015Y-10490960D01*
X9551015Y-10490960D02*
X9541492Y-10471912D01*
X9541492Y-10471912D02*
X9541492Y-10300484D01*
X9722444Y-10490960D02*
X9703396Y-10500484D01*
X9703396Y-10500484D02*
X9665301Y-10500484D01*
X9665301Y-10500484D02*
X9646253Y-10490960D01*
X9646253Y-10490960D02*
X9636730Y-10471912D01*
X9636730Y-10471912D02*
X9636730Y-10395722D01*
X9636730Y-10395722D02*
X9646253Y-10376674D01*
X9646253Y-10376674D02*
X9665301Y-10367150D01*
X9665301Y-10367150D02*
X9703396Y-10367150D01*
X9703396Y-10367150D02*
X9722444Y-10376674D01*
X9722444Y-10376674D02*
X9731968Y-10395722D01*
X9731968Y-10395722D02*
X9731968Y-10414770D01*
X9731968Y-10414770D02*
X9636730Y-10433817D01*
X9808158Y-10490960D02*
X9827206Y-10500484D01*
X9827206Y-10500484D02*
X9865301Y-10500484D01*
X9865301Y-10500484D02*
X9884349Y-10490960D01*
X9884349Y-10490960D02*
X9893873Y-10471912D01*
X9893873Y-10471912D02*
X9893873Y-10462389D01*
X9893873Y-10462389D02*
X9884349Y-10443341D01*
X9884349Y-10443341D02*
X9865301Y-10433817D01*
X9865301Y-10433817D02*
X9836730Y-10433817D01*
X9836730Y-10433817D02*
X9817682Y-10424293D01*
X9817682Y-10424293D02*
X9808158Y-10405246D01*
X9808158Y-10405246D02*
X9808158Y-10395722D01*
X9808158Y-10395722D02*
X9817682Y-10376674D01*
X9817682Y-10376674D02*
X9836730Y-10367150D01*
X9836730Y-10367150D02*
X9865301Y-10367150D01*
X9865301Y-10367150D02*
X9884349Y-10376674D01*
X9960539Y-10576674D02*
X9970063Y-10567150D01*
X9970063Y-10567150D02*
X9989111Y-10538579D01*
X9989111Y-10538579D02*
X9998634Y-10519531D01*
X9998634Y-10519531D02*
X10008158Y-10490960D01*
X10008158Y-10490960D02*
X10017682Y-10443341D01*
X10017682Y-10443341D02*
X10017682Y-10405246D01*
X10017682Y-10405246D02*
X10008158Y-10357627D01*
X10008158Y-10357627D02*
X9998634Y-10329055D01*
X9998634Y-10329055D02*
X9989111Y-10310008D01*
X9989111Y-10310008D02*
X9970063Y-10281436D01*
X9970063Y-10281436D02*
X9960539Y-10271912D01*
D10*
X4950000Y-10628000D02*
X4950000Y-10718000D01*
X4905000Y-10673000D02*
X4995000Y-10673000D01*
D11*
X5293872Y-10564484D02*
X5312920Y-10564484D01*
X5312920Y-10564484D02*
X5331967Y-10574008D01*
X5331967Y-10574008D02*
X5341491Y-10583531D01*
X5341491Y-10583531D02*
X5351015Y-10602579D01*
X5351015Y-10602579D02*
X5360539Y-10640674D01*
X5360539Y-10640674D02*
X5360539Y-10688293D01*
X5360539Y-10688293D02*
X5351015Y-10726389D01*
X5351015Y-10726389D02*
X5341491Y-10745436D01*
X5341491Y-10745436D02*
X5331967Y-10754960D01*
X5331967Y-10754960D02*
X5312920Y-10764484D01*
X5312920Y-10764484D02*
X5293872Y-10764484D01*
X5293872Y-10764484D02*
X5274824Y-10754960D01*
X5274824Y-10754960D02*
X5265301Y-10745436D01*
X5265301Y-10745436D02*
X5255777Y-10726389D01*
X5255777Y-10726389D02*
X5246253Y-10688293D01*
X5246253Y-10688293D02*
X5246253Y-10640674D01*
X5246253Y-10640674D02*
X5255777Y-10602579D01*
X5255777Y-10602579D02*
X5265301Y-10583531D01*
X5265301Y-10583531D02*
X5274824Y-10574008D01*
X5274824Y-10574008D02*
X5293872Y-10564484D01*
X5455777Y-10754960D02*
X5455777Y-10764484D01*
X5455777Y-10764484D02*
X5446253Y-10783531D01*
X5446253Y-10783531D02*
X5436729Y-10793055D01*
X5551015Y-10764484D02*
X5589110Y-10764484D01*
X5589110Y-10764484D02*
X5608158Y-10754960D01*
X5608158Y-10754960D02*
X5617682Y-10745436D01*
X5617682Y-10745436D02*
X5636729Y-10716865D01*
X5636729Y-10716865D02*
X5646253Y-10678770D01*
X5646253Y-10678770D02*
X5646253Y-10602579D01*
X5646253Y-10602579D02*
X5636729Y-10583531D01*
X5636729Y-10583531D02*
X5627205Y-10574008D01*
X5627205Y-10574008D02*
X5608158Y-10564484D01*
X5608158Y-10564484D02*
X5570063Y-10564484D01*
X5570063Y-10564484D02*
X5551015Y-10574008D01*
X5551015Y-10574008D02*
X5541491Y-10583531D01*
X5541491Y-10583531D02*
X5531967Y-10602579D01*
X5531967Y-10602579D02*
X5531967Y-10650198D01*
X5531967Y-10650198D02*
X5541491Y-10669246D01*
X5541491Y-10669246D02*
X5551015Y-10678770D01*
X5551015Y-10678770D02*
X5570063Y-10688293D01*
X5570063Y-10688293D02*
X5608158Y-10688293D01*
X5608158Y-10688293D02*
X5627205Y-10678770D01*
X5627205Y-10678770D02*
X5636729Y-10669246D01*
X5636729Y-10669246D02*
X5646253Y-10650198D01*
X5770062Y-10564484D02*
X5789110Y-10564484D01*
X5789110Y-10564484D02*
X5808158Y-10574008D01*
X5808158Y-10574008D02*
X5817682Y-10583531D01*
X5817682Y-10583531D02*
X5827205Y-10602579D01*
X5827205Y-10602579D02*
X5836729Y-10640674D01*
X5836729Y-10640674D02*
X5836729Y-10688293D01*
X5836729Y-10688293D02*
X5827205Y-10726389D01*
X5827205Y-10726389D02*
X5817682Y-10745436D01*
X5817682Y-10745436D02*
X5808158Y-10754960D01*
X5808158Y-10754960D02*
X5789110Y-10764484D01*
X5789110Y-10764484D02*
X5770062Y-10764484D01*
X5770062Y-10764484D02*
X5751015Y-10754960D01*
X5751015Y-10754960D02*
X5741491Y-10745436D01*
X5741491Y-10745436D02*
X5731967Y-10726389D01*
X5731967Y-10726389D02*
X5722443Y-10688293D01*
X5722443Y-10688293D02*
X5722443Y-10640674D01*
X5722443Y-10640674D02*
X5731967Y-10602579D01*
X5731967Y-10602579D02*
X5741491Y-10583531D01*
X5741491Y-10583531D02*
X5751015Y-10574008D01*
X5751015Y-10574008D02*
X5770062Y-10564484D01*
X5960539Y-10564484D02*
X5979586Y-10564484D01*
X5979586Y-10564484D02*
X5998634Y-10574008D01*
X5998634Y-10574008D02*
X6008158Y-10583531D01*
X6008158Y-10583531D02*
X6017682Y-10602579D01*
X6017682Y-10602579D02*
X6027205Y-10640674D01*
X6027205Y-10640674D02*
X6027205Y-10688293D01*
X6027205Y-10688293D02*
X6017682Y-10726389D01*
X6017682Y-10726389D02*
X6008158Y-10745436D01*
X6008158Y-10745436D02*
X5998634Y-10754960D01*
X5998634Y-10754960D02*
X5979586Y-10764484D01*
X5979586Y-10764484D02*
X5960539Y-10764484D01*
X5960539Y-10764484D02*
X5941491Y-10754960D01*
X5941491Y-10754960D02*
X5931967Y-10745436D01*
X5931967Y-10745436D02*
X5922443Y-10726389D01*
X5922443Y-10726389D02*
X5912920Y-10688293D01*
X5912920Y-10688293D02*
X5912920Y-10640674D01*
X5912920Y-10640674D02*
X5922443Y-10602579D01*
X5922443Y-10602579D02*
X5931967Y-10583531D01*
X5931967Y-10583531D02*
X5941491Y-10574008D01*
X5941491Y-10574008D02*
X5960539Y-10564484D01*
X6112920Y-10764484D02*
X6112920Y-10631150D01*
X6112920Y-10650198D02*
X6122443Y-10640674D01*
X6122443Y-10640674D02*
X6141491Y-10631150D01*
X6141491Y-10631150D02*
X6170063Y-10631150D01*
X6170063Y-10631150D02*
X6189110Y-10640674D01*
X6189110Y-10640674D02*
X6198634Y-10659722D01*
X6198634Y-10659722D02*
X6198634Y-10764484D01*
X6198634Y-10659722D02*
X6208158Y-10640674D01*
X6208158Y-10640674D02*
X6227205Y-10631150D01*
X6227205Y-10631150D02*
X6255777Y-10631150D01*
X6255777Y-10631150D02*
X6274824Y-10640674D01*
X6274824Y-10640674D02*
X6284348Y-10659722D01*
X6284348Y-10659722D02*
X6284348Y-10764484D01*
X6379586Y-10764484D02*
X6379586Y-10631150D01*
X6379586Y-10650198D02*
X6389110Y-10640674D01*
X6389110Y-10640674D02*
X6408158Y-10631150D01*
X6408158Y-10631150D02*
X6436729Y-10631150D01*
X6436729Y-10631150D02*
X6455777Y-10640674D01*
X6455777Y-10640674D02*
X6465301Y-10659722D01*
X6465301Y-10659722D02*
X6465301Y-10764484D01*
X6465301Y-10659722D02*
X6474824Y-10640674D01*
X6474824Y-10640674D02*
X6493872Y-10631150D01*
X6493872Y-10631150D02*
X6522443Y-10631150D01*
X6522443Y-10631150D02*
X6541491Y-10640674D01*
X6541491Y-10640674D02*
X6551015Y-10659722D01*
X6551015Y-10659722D02*
X6551015Y-10764484D01*
X6941491Y-10554960D02*
X6770063Y-10812103D01*
X7198634Y-10564484D02*
X7217682Y-10564484D01*
X7217682Y-10564484D02*
X7236729Y-10574008D01*
X7236729Y-10574008D02*
X7246253Y-10583531D01*
X7246253Y-10583531D02*
X7255777Y-10602579D01*
X7255777Y-10602579D02*
X7265301Y-10640674D01*
X7265301Y-10640674D02*
X7265301Y-10688293D01*
X7265301Y-10688293D02*
X7255777Y-10726389D01*
X7255777Y-10726389D02*
X7246253Y-10745436D01*
X7246253Y-10745436D02*
X7236729Y-10754960D01*
X7236729Y-10754960D02*
X7217682Y-10764484D01*
X7217682Y-10764484D02*
X7198634Y-10764484D01*
X7198634Y-10764484D02*
X7179586Y-10754960D01*
X7179586Y-10754960D02*
X7170063Y-10745436D01*
X7170063Y-10745436D02*
X7160539Y-10726389D01*
X7160539Y-10726389D02*
X7151015Y-10688293D01*
X7151015Y-10688293D02*
X7151015Y-10640674D01*
X7151015Y-10640674D02*
X7160539Y-10602579D01*
X7160539Y-10602579D02*
X7170063Y-10583531D01*
X7170063Y-10583531D02*
X7179586Y-10574008D01*
X7179586Y-10574008D02*
X7198634Y-10564484D01*
X7360539Y-10754960D02*
X7360539Y-10764484D01*
X7360539Y-10764484D02*
X7351015Y-10783531D01*
X7351015Y-10783531D02*
X7341491Y-10793055D01*
X7484348Y-10564484D02*
X7503396Y-10564484D01*
X7503396Y-10564484D02*
X7522444Y-10574008D01*
X7522444Y-10574008D02*
X7531967Y-10583531D01*
X7531967Y-10583531D02*
X7541491Y-10602579D01*
X7541491Y-10602579D02*
X7551015Y-10640674D01*
X7551015Y-10640674D02*
X7551015Y-10688293D01*
X7551015Y-10688293D02*
X7541491Y-10726389D01*
X7541491Y-10726389D02*
X7531967Y-10745436D01*
X7531967Y-10745436D02*
X7522444Y-10754960D01*
X7522444Y-10754960D02*
X7503396Y-10764484D01*
X7503396Y-10764484D02*
X7484348Y-10764484D01*
X7484348Y-10764484D02*
X7465301Y-10754960D01*
X7465301Y-10754960D02*
X7455777Y-10745436D01*
X7455777Y-10745436D02*
X7446253Y-10726389D01*
X7446253Y-10726389D02*
X7436729Y-10688293D01*
X7436729Y-10688293D02*
X7436729Y-10640674D01*
X7436729Y-10640674D02*
X7446253Y-10602579D01*
X7446253Y-10602579D02*
X7455777Y-10583531D01*
X7455777Y-10583531D02*
X7465301Y-10574008D01*
X7465301Y-10574008D02*
X7484348Y-10564484D01*
X7617682Y-10564484D02*
X7741491Y-10564484D01*
X7741491Y-10564484D02*
X7674825Y-10640674D01*
X7674825Y-10640674D02*
X7703396Y-10640674D01*
X7703396Y-10640674D02*
X7722444Y-10650198D01*
X7722444Y-10650198D02*
X7731967Y-10659722D01*
X7731967Y-10659722D02*
X7741491Y-10678770D01*
X7741491Y-10678770D02*
X7741491Y-10726389D01*
X7741491Y-10726389D02*
X7731967Y-10745436D01*
X7731967Y-10745436D02*
X7722444Y-10754960D01*
X7722444Y-10754960D02*
X7703396Y-10764484D01*
X7703396Y-10764484D02*
X7646253Y-10764484D01*
X7646253Y-10764484D02*
X7627206Y-10754960D01*
X7627206Y-10754960D02*
X7617682Y-10745436D01*
X7922444Y-10564484D02*
X7827206Y-10564484D01*
X7827206Y-10564484D02*
X7817682Y-10659722D01*
X7817682Y-10659722D02*
X7827206Y-10650198D01*
X7827206Y-10650198D02*
X7846253Y-10640674D01*
X7846253Y-10640674D02*
X7893872Y-10640674D01*
X7893872Y-10640674D02*
X7912920Y-10650198D01*
X7912920Y-10650198D02*
X7922444Y-10659722D01*
X7922444Y-10659722D02*
X7931967Y-10678770D01*
X7931967Y-10678770D02*
X7931967Y-10726389D01*
X7931967Y-10726389D02*
X7922444Y-10745436D01*
X7922444Y-10745436D02*
X7912920Y-10754960D01*
X7912920Y-10754960D02*
X7893872Y-10764484D01*
X7893872Y-10764484D02*
X7846253Y-10764484D01*
X7846253Y-10764484D02*
X7827206Y-10754960D01*
X7827206Y-10754960D02*
X7817682Y-10745436D01*
X8103396Y-10631150D02*
X8103396Y-10764484D01*
X8055777Y-10554960D02*
X8008158Y-10697817D01*
X8008158Y-10697817D02*
X8131967Y-10697817D01*
X8198634Y-10564484D02*
X8198634Y-10602579D01*
X8274825Y-10564484D02*
X8274825Y-10602579D01*
X8570063Y-10840674D02*
X8560539Y-10831150D01*
X8560539Y-10831150D02*
X8541491Y-10802579D01*
X8541491Y-10802579D02*
X8531968Y-10783531D01*
X8531968Y-10783531D02*
X8522444Y-10754960D01*
X8522444Y-10754960D02*
X8512920Y-10707341D01*
X8512920Y-10707341D02*
X8512920Y-10669246D01*
X8512920Y-10669246D02*
X8522444Y-10621627D01*
X8522444Y-10621627D02*
X8531968Y-10593055D01*
X8531968Y-10593055D02*
X8541491Y-10574008D01*
X8541491Y-10574008D02*
X8560539Y-10545436D01*
X8560539Y-10545436D02*
X8570063Y-10535912D01*
X8731968Y-10631150D02*
X8731968Y-10764484D01*
X8684349Y-10554960D02*
X8636730Y-10697817D01*
X8636730Y-10697817D02*
X8760539Y-10697817D01*
X8989111Y-10764484D02*
X8989111Y-10564484D01*
X9074825Y-10764484D02*
X9074825Y-10659722D01*
X9074825Y-10659722D02*
X9065301Y-10640674D01*
X9065301Y-10640674D02*
X9046253Y-10631150D01*
X9046253Y-10631150D02*
X9017682Y-10631150D01*
X9017682Y-10631150D02*
X8998634Y-10640674D01*
X8998634Y-10640674D02*
X8989111Y-10650198D01*
X9198634Y-10764484D02*
X9179587Y-10754960D01*
X9179587Y-10754960D02*
X9170063Y-10745436D01*
X9170063Y-10745436D02*
X9160539Y-10726389D01*
X9160539Y-10726389D02*
X9160539Y-10669246D01*
X9160539Y-10669246D02*
X9170063Y-10650198D01*
X9170063Y-10650198D02*
X9179587Y-10640674D01*
X9179587Y-10640674D02*
X9198634Y-10631150D01*
X9198634Y-10631150D02*
X9227206Y-10631150D01*
X9227206Y-10631150D02*
X9246253Y-10640674D01*
X9246253Y-10640674D02*
X9255777Y-10650198D01*
X9255777Y-10650198D02*
X9265301Y-10669246D01*
X9265301Y-10669246D02*
X9265301Y-10726389D01*
X9265301Y-10726389D02*
X9255777Y-10745436D01*
X9255777Y-10745436D02*
X9246253Y-10754960D01*
X9246253Y-10754960D02*
X9227206Y-10764484D01*
X9227206Y-10764484D02*
X9198634Y-10764484D01*
X9379587Y-10764484D02*
X9360539Y-10754960D01*
X9360539Y-10754960D02*
X9351015Y-10735912D01*
X9351015Y-10735912D02*
X9351015Y-10564484D01*
X9531968Y-10754960D02*
X9512920Y-10764484D01*
X9512920Y-10764484D02*
X9474825Y-10764484D01*
X9474825Y-10764484D02*
X9455777Y-10754960D01*
X9455777Y-10754960D02*
X9446253Y-10735912D01*
X9446253Y-10735912D02*
X9446253Y-10659722D01*
X9446253Y-10659722D02*
X9455777Y-10640674D01*
X9455777Y-10640674D02*
X9474825Y-10631150D01*
X9474825Y-10631150D02*
X9512920Y-10631150D01*
X9512920Y-10631150D02*
X9531968Y-10640674D01*
X9531968Y-10640674D02*
X9541492Y-10659722D01*
X9541492Y-10659722D02*
X9541492Y-10678770D01*
X9541492Y-10678770D02*
X9446253Y-10697817D01*
X9617682Y-10754960D02*
X9636730Y-10764484D01*
X9636730Y-10764484D02*
X9674825Y-10764484D01*
X9674825Y-10764484D02*
X9693873Y-10754960D01*
X9693873Y-10754960D02*
X9703396Y-10735912D01*
X9703396Y-10735912D02*
X9703396Y-10726389D01*
X9703396Y-10726389D02*
X9693873Y-10707341D01*
X9693873Y-10707341D02*
X9674825Y-10697817D01*
X9674825Y-10697817D02*
X9646253Y-10697817D01*
X9646253Y-10697817D02*
X9627206Y-10688293D01*
X9627206Y-10688293D02*
X9617682Y-10669246D01*
X9617682Y-10669246D02*
X9617682Y-10659722D01*
X9617682Y-10659722D02*
X9627206Y-10640674D01*
X9627206Y-10640674D02*
X9646253Y-10631150D01*
X9646253Y-10631150D02*
X9674825Y-10631150D01*
X9674825Y-10631150D02*
X9693873Y-10640674D01*
X9770063Y-10840674D02*
X9779587Y-10831150D01*
X9779587Y-10831150D02*
X9798634Y-10802579D01*
X9798634Y-10802579D02*
X9808158Y-10783531D01*
X9808158Y-10783531D02*
X9817682Y-10754960D01*
X9817682Y-10754960D02*
X9827206Y-10707341D01*
X9827206Y-10707341D02*
X9827206Y-10669246D01*
X9827206Y-10669246D02*
X9817682Y-10621627D01*
X9817682Y-10621627D02*
X9808158Y-10593055D01*
X9808158Y-10593055D02*
X9798634Y-10574008D01*
X9798634Y-10574008D02*
X9779587Y-10545436D01*
X9779587Y-10545436D02*
X9770063Y-10535912D01*
D10*
X4980356Y-10972356D02*
X4980356Y-10901644D01*
X4909644Y-10901644D01*
X4909644Y-10972356D01*
X4980356Y-10972356D01*
D11*
X5360539Y-11028484D02*
X5246253Y-11028484D01*
X5303396Y-11028484D02*
X5303396Y-10828484D01*
X5303396Y-10828484D02*
X5284348Y-10857055D01*
X5284348Y-10857055D02*
X5265301Y-10876103D01*
X5265301Y-10876103D02*
X5246253Y-10885627D01*
X5455777Y-11018960D02*
X5455777Y-11028484D01*
X5455777Y-11028484D02*
X5446253Y-11047531D01*
X5446253Y-11047531D02*
X5436729Y-11057055D01*
X5579586Y-10828484D02*
X5598634Y-10828484D01*
X5598634Y-10828484D02*
X5617682Y-10838008D01*
X5617682Y-10838008D02*
X5627205Y-10847531D01*
X5627205Y-10847531D02*
X5636729Y-10866579D01*
X5636729Y-10866579D02*
X5646253Y-10904674D01*
X5646253Y-10904674D02*
X5646253Y-10952293D01*
X5646253Y-10952293D02*
X5636729Y-10990389D01*
X5636729Y-10990389D02*
X5627205Y-11009436D01*
X5627205Y-11009436D02*
X5617682Y-11018960D01*
X5617682Y-11018960D02*
X5598634Y-11028484D01*
X5598634Y-11028484D02*
X5579586Y-11028484D01*
X5579586Y-11028484D02*
X5560539Y-11018960D01*
X5560539Y-11018960D02*
X5551015Y-11009436D01*
X5551015Y-11009436D02*
X5541491Y-10990389D01*
X5541491Y-10990389D02*
X5531967Y-10952293D01*
X5531967Y-10952293D02*
X5531967Y-10904674D01*
X5531967Y-10904674D02*
X5541491Y-10866579D01*
X5541491Y-10866579D02*
X5551015Y-10847531D01*
X5551015Y-10847531D02*
X5560539Y-10838008D01*
X5560539Y-10838008D02*
X5579586Y-10828484D01*
X5770062Y-10828484D02*
X5789110Y-10828484D01*
X5789110Y-10828484D02*
X5808158Y-10838008D01*
X5808158Y-10838008D02*
X5817682Y-10847531D01*
X5817682Y-10847531D02*
X5827205Y-10866579D01*
X5827205Y-10866579D02*
X5836729Y-10904674D01*
X5836729Y-10904674D02*
X5836729Y-10952293D01*
X5836729Y-10952293D02*
X5827205Y-10990389D01*
X5827205Y-10990389D02*
X5817682Y-11009436D01*
X5817682Y-11009436D02*
X5808158Y-11018960D01*
X5808158Y-11018960D02*
X5789110Y-11028484D01*
X5789110Y-11028484D02*
X5770062Y-11028484D01*
X5770062Y-11028484D02*
X5751015Y-11018960D01*
X5751015Y-11018960D02*
X5741491Y-11009436D01*
X5741491Y-11009436D02*
X5731967Y-10990389D01*
X5731967Y-10990389D02*
X5722443Y-10952293D01*
X5722443Y-10952293D02*
X5722443Y-10904674D01*
X5722443Y-10904674D02*
X5731967Y-10866579D01*
X5731967Y-10866579D02*
X5741491Y-10847531D01*
X5741491Y-10847531D02*
X5751015Y-10838008D01*
X5751015Y-10838008D02*
X5770062Y-10828484D01*
X5960539Y-10828484D02*
X5979586Y-10828484D01*
X5979586Y-10828484D02*
X5998634Y-10838008D01*
X5998634Y-10838008D02*
X6008158Y-10847531D01*
X6008158Y-10847531D02*
X6017682Y-10866579D01*
X6017682Y-10866579D02*
X6027205Y-10904674D01*
X6027205Y-10904674D02*
X6027205Y-10952293D01*
X6027205Y-10952293D02*
X6017682Y-10990389D01*
X6017682Y-10990389D02*
X6008158Y-11009436D01*
X6008158Y-11009436D02*
X5998634Y-11018960D01*
X5998634Y-11018960D02*
X5979586Y-11028484D01*
X5979586Y-11028484D02*
X5960539Y-11028484D01*
X5960539Y-11028484D02*
X5941491Y-11018960D01*
X5941491Y-11018960D02*
X5931967Y-11009436D01*
X5931967Y-11009436D02*
X5922443Y-10990389D01*
X5922443Y-10990389D02*
X5912920Y-10952293D01*
X5912920Y-10952293D02*
X5912920Y-10904674D01*
X5912920Y-10904674D02*
X5922443Y-10866579D01*
X5922443Y-10866579D02*
X5931967Y-10847531D01*
X5931967Y-10847531D02*
X5941491Y-10838008D01*
X5941491Y-10838008D02*
X5960539Y-10828484D01*
X6112920Y-11028484D02*
X6112920Y-10895150D01*
X6112920Y-10914198D02*
X6122443Y-10904674D01*
X6122443Y-10904674D02*
X6141491Y-10895150D01*
X6141491Y-10895150D02*
X6170063Y-10895150D01*
X6170063Y-10895150D02*
X6189110Y-10904674D01*
X6189110Y-10904674D02*
X6198634Y-10923722D01*
X6198634Y-10923722D02*
X6198634Y-11028484D01*
X6198634Y-10923722D02*
X6208158Y-10904674D01*
X6208158Y-10904674D02*
X6227205Y-10895150D01*
X6227205Y-10895150D02*
X6255777Y-10895150D01*
X6255777Y-10895150D02*
X6274824Y-10904674D01*
X6274824Y-10904674D02*
X6284348Y-10923722D01*
X6284348Y-10923722D02*
X6284348Y-11028484D01*
X6379586Y-11028484D02*
X6379586Y-10895150D01*
X6379586Y-10914198D02*
X6389110Y-10904674D01*
X6389110Y-10904674D02*
X6408158Y-10895150D01*
X6408158Y-10895150D02*
X6436729Y-10895150D01*
X6436729Y-10895150D02*
X6455777Y-10904674D01*
X6455777Y-10904674D02*
X6465301Y-10923722D01*
X6465301Y-10923722D02*
X6465301Y-11028484D01*
X6465301Y-10923722D02*
X6474824Y-10904674D01*
X6474824Y-10904674D02*
X6493872Y-10895150D01*
X6493872Y-10895150D02*
X6522443Y-10895150D01*
X6522443Y-10895150D02*
X6541491Y-10904674D01*
X6541491Y-10904674D02*
X6551015Y-10923722D01*
X6551015Y-10923722D02*
X6551015Y-11028484D01*
X6941491Y-10818960D02*
X6770063Y-11076103D01*
X7198634Y-10828484D02*
X7217682Y-10828484D01*
X7217682Y-10828484D02*
X7236729Y-10838008D01*
X7236729Y-10838008D02*
X7246253Y-10847531D01*
X7246253Y-10847531D02*
X7255777Y-10866579D01*
X7255777Y-10866579D02*
X7265301Y-10904674D01*
X7265301Y-10904674D02*
X7265301Y-10952293D01*
X7265301Y-10952293D02*
X7255777Y-10990389D01*
X7255777Y-10990389D02*
X7246253Y-11009436D01*
X7246253Y-11009436D02*
X7236729Y-11018960D01*
X7236729Y-11018960D02*
X7217682Y-11028484D01*
X7217682Y-11028484D02*
X7198634Y-11028484D01*
X7198634Y-11028484D02*
X7179586Y-11018960D01*
X7179586Y-11018960D02*
X7170063Y-11009436D01*
X7170063Y-11009436D02*
X7160539Y-10990389D01*
X7160539Y-10990389D02*
X7151015Y-10952293D01*
X7151015Y-10952293D02*
X7151015Y-10904674D01*
X7151015Y-10904674D02*
X7160539Y-10866579D01*
X7160539Y-10866579D02*
X7170063Y-10847531D01*
X7170063Y-10847531D02*
X7179586Y-10838008D01*
X7179586Y-10838008D02*
X7198634Y-10828484D01*
X7360539Y-11018960D02*
X7360539Y-11028484D01*
X7360539Y-11028484D02*
X7351015Y-11047531D01*
X7351015Y-11047531D02*
X7341491Y-11057055D01*
X7484348Y-10828484D02*
X7503396Y-10828484D01*
X7503396Y-10828484D02*
X7522444Y-10838008D01*
X7522444Y-10838008D02*
X7531967Y-10847531D01*
X7531967Y-10847531D02*
X7541491Y-10866579D01*
X7541491Y-10866579D02*
X7551015Y-10904674D01*
X7551015Y-10904674D02*
X7551015Y-10952293D01*
X7551015Y-10952293D02*
X7541491Y-10990389D01*
X7541491Y-10990389D02*
X7531967Y-11009436D01*
X7531967Y-11009436D02*
X7522444Y-11018960D01*
X7522444Y-11018960D02*
X7503396Y-11028484D01*
X7503396Y-11028484D02*
X7484348Y-11028484D01*
X7484348Y-11028484D02*
X7465301Y-11018960D01*
X7465301Y-11018960D02*
X7455777Y-11009436D01*
X7455777Y-11009436D02*
X7446253Y-10990389D01*
X7446253Y-10990389D02*
X7436729Y-10952293D01*
X7436729Y-10952293D02*
X7436729Y-10904674D01*
X7436729Y-10904674D02*
X7446253Y-10866579D01*
X7446253Y-10866579D02*
X7455777Y-10847531D01*
X7455777Y-10847531D02*
X7465301Y-10838008D01*
X7465301Y-10838008D02*
X7484348Y-10828484D01*
X7617682Y-10828484D02*
X7741491Y-10828484D01*
X7741491Y-10828484D02*
X7674825Y-10904674D01*
X7674825Y-10904674D02*
X7703396Y-10904674D01*
X7703396Y-10904674D02*
X7722444Y-10914198D01*
X7722444Y-10914198D02*
X7731967Y-10923722D01*
X7731967Y-10923722D02*
X7741491Y-10942770D01*
X7741491Y-10942770D02*
X7741491Y-10990389D01*
X7741491Y-10990389D02*
X7731967Y-11009436D01*
X7731967Y-11009436D02*
X7722444Y-11018960D01*
X7722444Y-11018960D02*
X7703396Y-11028484D01*
X7703396Y-11028484D02*
X7646253Y-11028484D01*
X7646253Y-11028484D02*
X7627206Y-11018960D01*
X7627206Y-11018960D02*
X7617682Y-11009436D01*
X7836729Y-11028484D02*
X7874825Y-11028484D01*
X7874825Y-11028484D02*
X7893872Y-11018960D01*
X7893872Y-11018960D02*
X7903396Y-11009436D01*
X7903396Y-11009436D02*
X7922444Y-10980865D01*
X7922444Y-10980865D02*
X7931967Y-10942770D01*
X7931967Y-10942770D02*
X7931967Y-10866579D01*
X7931967Y-10866579D02*
X7922444Y-10847531D01*
X7922444Y-10847531D02*
X7912920Y-10838008D01*
X7912920Y-10838008D02*
X7893872Y-10828484D01*
X7893872Y-10828484D02*
X7855777Y-10828484D01*
X7855777Y-10828484D02*
X7836729Y-10838008D01*
X7836729Y-10838008D02*
X7827206Y-10847531D01*
X7827206Y-10847531D02*
X7817682Y-10866579D01*
X7817682Y-10866579D02*
X7817682Y-10914198D01*
X7817682Y-10914198D02*
X7827206Y-10933246D01*
X7827206Y-10933246D02*
X7836729Y-10942770D01*
X7836729Y-10942770D02*
X7855777Y-10952293D01*
X7855777Y-10952293D02*
X7893872Y-10952293D01*
X7893872Y-10952293D02*
X7912920Y-10942770D01*
X7912920Y-10942770D02*
X7922444Y-10933246D01*
X7922444Y-10933246D02*
X7931967Y-10914198D01*
X8103396Y-10895150D02*
X8103396Y-11028484D01*
X8055777Y-10818960D02*
X8008158Y-10961817D01*
X8008158Y-10961817D02*
X8131967Y-10961817D01*
X8198634Y-10828484D02*
X8198634Y-10866579D01*
X8274825Y-10828484D02*
X8274825Y-10866579D01*
X8570063Y-11104674D02*
X8560539Y-11095150D01*
X8560539Y-11095150D02*
X8541491Y-11066579D01*
X8541491Y-11066579D02*
X8531968Y-11047531D01*
X8531968Y-11047531D02*
X8522444Y-11018960D01*
X8522444Y-11018960D02*
X8512920Y-10971341D01*
X8512920Y-10971341D02*
X8512920Y-10933246D01*
X8512920Y-10933246D02*
X8522444Y-10885627D01*
X8522444Y-10885627D02*
X8531968Y-10857055D01*
X8531968Y-10857055D02*
X8541491Y-10838008D01*
X8541491Y-10838008D02*
X8560539Y-10809436D01*
X8560539Y-10809436D02*
X8570063Y-10799912D01*
X8655777Y-11028484D02*
X8693872Y-11028484D01*
X8693872Y-11028484D02*
X8712920Y-11018960D01*
X8712920Y-11018960D02*
X8722444Y-11009436D01*
X8722444Y-11009436D02*
X8741491Y-10980865D01*
X8741491Y-10980865D02*
X8751015Y-10942770D01*
X8751015Y-10942770D02*
X8751015Y-10866579D01*
X8751015Y-10866579D02*
X8741491Y-10847531D01*
X8741491Y-10847531D02*
X8731968Y-10838008D01*
X8731968Y-10838008D02*
X8712920Y-10828484D01*
X8712920Y-10828484D02*
X8674825Y-10828484D01*
X8674825Y-10828484D02*
X8655777Y-10838008D01*
X8655777Y-10838008D02*
X8646253Y-10847531D01*
X8646253Y-10847531D02*
X8636730Y-10866579D01*
X8636730Y-10866579D02*
X8636730Y-10914198D01*
X8636730Y-10914198D02*
X8646253Y-10933246D01*
X8646253Y-10933246D02*
X8655777Y-10942770D01*
X8655777Y-10942770D02*
X8674825Y-10952293D01*
X8674825Y-10952293D02*
X8712920Y-10952293D01*
X8712920Y-10952293D02*
X8731968Y-10942770D01*
X8731968Y-10942770D02*
X8741491Y-10933246D01*
X8741491Y-10933246D02*
X8751015Y-10914198D01*
X8989111Y-11028484D02*
X8989111Y-10828484D01*
X9074825Y-11028484D02*
X9074825Y-10923722D01*
X9074825Y-10923722D02*
X9065301Y-10904674D01*
X9065301Y-10904674D02*
X9046253Y-10895150D01*
X9046253Y-10895150D02*
X9017682Y-10895150D01*
X9017682Y-10895150D02*
X8998634Y-10904674D01*
X8998634Y-10904674D02*
X8989111Y-10914198D01*
X9198634Y-11028484D02*
X9179587Y-11018960D01*
X9179587Y-11018960D02*
X9170063Y-11009436D01*
X9170063Y-11009436D02*
X9160539Y-10990389D01*
X9160539Y-10990389D02*
X9160539Y-10933246D01*
X9160539Y-10933246D02*
X9170063Y-10914198D01*
X9170063Y-10914198D02*
X9179587Y-10904674D01*
X9179587Y-10904674D02*
X9198634Y-10895150D01*
X9198634Y-10895150D02*
X9227206Y-10895150D01*
X9227206Y-10895150D02*
X9246253Y-10904674D01*
X9246253Y-10904674D02*
X9255777Y-10914198D01*
X9255777Y-10914198D02*
X9265301Y-10933246D01*
X9265301Y-10933246D02*
X9265301Y-10990389D01*
X9265301Y-10990389D02*
X9255777Y-11009436D01*
X9255777Y-11009436D02*
X9246253Y-11018960D01*
X9246253Y-11018960D02*
X9227206Y-11028484D01*
X9227206Y-11028484D02*
X9198634Y-11028484D01*
X9379587Y-11028484D02*
X9360539Y-11018960D01*
X9360539Y-11018960D02*
X9351015Y-10999912D01*
X9351015Y-10999912D02*
X9351015Y-10828484D01*
X9531968Y-11018960D02*
X9512920Y-11028484D01*
X9512920Y-11028484D02*
X9474825Y-11028484D01*
X9474825Y-11028484D02*
X9455777Y-11018960D01*
X9455777Y-11018960D02*
X9446253Y-10999912D01*
X9446253Y-10999912D02*
X9446253Y-10923722D01*
X9446253Y-10923722D02*
X9455777Y-10904674D01*
X9455777Y-10904674D02*
X9474825Y-10895150D01*
X9474825Y-10895150D02*
X9512920Y-10895150D01*
X9512920Y-10895150D02*
X9531968Y-10904674D01*
X9531968Y-10904674D02*
X9541492Y-10923722D01*
X9541492Y-10923722D02*
X9541492Y-10942770D01*
X9541492Y-10942770D02*
X9446253Y-10961817D01*
X9617682Y-11018960D02*
X9636730Y-11028484D01*
X9636730Y-11028484D02*
X9674825Y-11028484D01*
X9674825Y-11028484D02*
X9693873Y-11018960D01*
X9693873Y-11018960D02*
X9703396Y-10999912D01*
X9703396Y-10999912D02*
X9703396Y-10990389D01*
X9703396Y-10990389D02*
X9693873Y-10971341D01*
X9693873Y-10971341D02*
X9674825Y-10961817D01*
X9674825Y-10961817D02*
X9646253Y-10961817D01*
X9646253Y-10961817D02*
X9627206Y-10952293D01*
X9627206Y-10952293D02*
X9617682Y-10933246D01*
X9617682Y-10933246D02*
X9617682Y-10923722D01*
X9617682Y-10923722D02*
X9627206Y-10904674D01*
X9627206Y-10904674D02*
X9646253Y-10895150D01*
X9646253Y-10895150D02*
X9674825Y-10895150D01*
X9674825Y-10895150D02*
X9693873Y-10904674D01*
X9770063Y-11104674D02*
X9779587Y-11095150D01*
X9779587Y-11095150D02*
X9798634Y-11066579D01*
X9798634Y-11066579D02*
X9808158Y-11047531D01*
X9808158Y-11047531D02*
X9817682Y-11018960D01*
X9817682Y-11018960D02*
X9827206Y-10971341D01*
X9827206Y-10971341D02*
X9827206Y-10933246D01*
X9827206Y-10933246D02*
X9817682Y-10885627D01*
X9817682Y-10885627D02*
X9808158Y-10857055D01*
X9808158Y-10857055D02*
X9798634Y-10838008D01*
X9798634Y-10838008D02*
X9779587Y-10809436D01*
X9779587Y-10809436D02*
X9770063Y-10799912D01*
D12*
X4944000Y-11252000D02*
X4995000Y-11201000D01*
X4944000Y-11150000D01*
X4893000Y-11201000D01*
X4944000Y-11252000D01*
D11*
X5360539Y-11292484D02*
X5246253Y-11292484D01*
X5303396Y-11292484D02*
X5303396Y-11092484D01*
X5303396Y-11092484D02*
X5284348Y-11121055D01*
X5284348Y-11121055D02*
X5265301Y-11140103D01*
X5265301Y-11140103D02*
X5246253Y-11149627D01*
X5455777Y-11282960D02*
X5455777Y-11292484D01*
X5455777Y-11292484D02*
X5446253Y-11311531D01*
X5446253Y-11311531D02*
X5436729Y-11321055D01*
X5579586Y-11092484D02*
X5598634Y-11092484D01*
X5598634Y-11092484D02*
X5617682Y-11102008D01*
X5617682Y-11102008D02*
X5627205Y-11111531D01*
X5627205Y-11111531D02*
X5636729Y-11130579D01*
X5636729Y-11130579D02*
X5646253Y-11168674D01*
X5646253Y-11168674D02*
X5646253Y-11216293D01*
X5646253Y-11216293D02*
X5636729Y-11254388D01*
X5636729Y-11254388D02*
X5627205Y-11273436D01*
X5627205Y-11273436D02*
X5617682Y-11282960D01*
X5617682Y-11282960D02*
X5598634Y-11292484D01*
X5598634Y-11292484D02*
X5579586Y-11292484D01*
X5579586Y-11292484D02*
X5560539Y-11282960D01*
X5560539Y-11282960D02*
X5551015Y-11273436D01*
X5551015Y-11273436D02*
X5541491Y-11254388D01*
X5541491Y-11254388D02*
X5531967Y-11216293D01*
X5531967Y-11216293D02*
X5531967Y-11168674D01*
X5531967Y-11168674D02*
X5541491Y-11130579D01*
X5541491Y-11130579D02*
X5551015Y-11111531D01*
X5551015Y-11111531D02*
X5560539Y-11102008D01*
X5560539Y-11102008D02*
X5579586Y-11092484D01*
X5722443Y-11111531D02*
X5731967Y-11102008D01*
X5731967Y-11102008D02*
X5751015Y-11092484D01*
X5751015Y-11092484D02*
X5798634Y-11092484D01*
X5798634Y-11092484D02*
X5817682Y-11102008D01*
X5817682Y-11102008D02*
X5827205Y-11111531D01*
X5827205Y-11111531D02*
X5836729Y-11130579D01*
X5836729Y-11130579D02*
X5836729Y-11149627D01*
X5836729Y-11149627D02*
X5827205Y-11178198D01*
X5827205Y-11178198D02*
X5712920Y-11292484D01*
X5712920Y-11292484D02*
X5836729Y-11292484D01*
X5960539Y-11092484D02*
X5979586Y-11092484D01*
X5979586Y-11092484D02*
X5998634Y-11102008D01*
X5998634Y-11102008D02*
X6008158Y-11111531D01*
X6008158Y-11111531D02*
X6017682Y-11130579D01*
X6017682Y-11130579D02*
X6027205Y-11168674D01*
X6027205Y-11168674D02*
X6027205Y-11216293D01*
X6027205Y-11216293D02*
X6017682Y-11254388D01*
X6017682Y-11254388D02*
X6008158Y-11273436D01*
X6008158Y-11273436D02*
X5998634Y-11282960D01*
X5998634Y-11282960D02*
X5979586Y-11292484D01*
X5979586Y-11292484D02*
X5960539Y-11292484D01*
X5960539Y-11292484D02*
X5941491Y-11282960D01*
X5941491Y-11282960D02*
X5931967Y-11273436D01*
X5931967Y-11273436D02*
X5922443Y-11254388D01*
X5922443Y-11254388D02*
X5912920Y-11216293D01*
X5912920Y-11216293D02*
X5912920Y-11168674D01*
X5912920Y-11168674D02*
X5922443Y-11130579D01*
X5922443Y-11130579D02*
X5931967Y-11111531D01*
X5931967Y-11111531D02*
X5941491Y-11102008D01*
X5941491Y-11102008D02*
X5960539Y-11092484D01*
X6112920Y-11292484D02*
X6112920Y-11159150D01*
X6112920Y-11178198D02*
X6122443Y-11168674D01*
X6122443Y-11168674D02*
X6141491Y-11159150D01*
X6141491Y-11159150D02*
X6170063Y-11159150D01*
X6170063Y-11159150D02*
X6189110Y-11168674D01*
X6189110Y-11168674D02*
X6198634Y-11187722D01*
X6198634Y-11187722D02*
X6198634Y-11292484D01*
X6198634Y-11187722D02*
X6208158Y-11168674D01*
X6208158Y-11168674D02*
X6227205Y-11159150D01*
X6227205Y-11159150D02*
X6255777Y-11159150D01*
X6255777Y-11159150D02*
X6274824Y-11168674D01*
X6274824Y-11168674D02*
X6284348Y-11187722D01*
X6284348Y-11187722D02*
X6284348Y-11292484D01*
X6379586Y-11292484D02*
X6379586Y-11159150D01*
X6379586Y-11178198D02*
X6389110Y-11168674D01*
X6389110Y-11168674D02*
X6408158Y-11159150D01*
X6408158Y-11159150D02*
X6436729Y-11159150D01*
X6436729Y-11159150D02*
X6455777Y-11168674D01*
X6455777Y-11168674D02*
X6465301Y-11187722D01*
X6465301Y-11187722D02*
X6465301Y-11292484D01*
X6465301Y-11187722D02*
X6474824Y-11168674D01*
X6474824Y-11168674D02*
X6493872Y-11159150D01*
X6493872Y-11159150D02*
X6522443Y-11159150D01*
X6522443Y-11159150D02*
X6541491Y-11168674D01*
X6541491Y-11168674D02*
X6551015Y-11187722D01*
X6551015Y-11187722D02*
X6551015Y-11292484D01*
X6941491Y-11082960D02*
X6770063Y-11340103D01*
X7198634Y-11092484D02*
X7217682Y-11092484D01*
X7217682Y-11092484D02*
X7236729Y-11102008D01*
X7236729Y-11102008D02*
X7246253Y-11111531D01*
X7246253Y-11111531D02*
X7255777Y-11130579D01*
X7255777Y-11130579D02*
X7265301Y-11168674D01*
X7265301Y-11168674D02*
X7265301Y-11216293D01*
X7265301Y-11216293D02*
X7255777Y-11254388D01*
X7255777Y-11254388D02*
X7246253Y-11273436D01*
X7246253Y-11273436D02*
X7236729Y-11282960D01*
X7236729Y-11282960D02*
X7217682Y-11292484D01*
X7217682Y-11292484D02*
X7198634Y-11292484D01*
X7198634Y-11292484D02*
X7179586Y-11282960D01*
X7179586Y-11282960D02*
X7170063Y-11273436D01*
X7170063Y-11273436D02*
X7160539Y-11254388D01*
X7160539Y-11254388D02*
X7151015Y-11216293D01*
X7151015Y-11216293D02*
X7151015Y-11168674D01*
X7151015Y-11168674D02*
X7160539Y-11130579D01*
X7160539Y-11130579D02*
X7170063Y-11111531D01*
X7170063Y-11111531D02*
X7179586Y-11102008D01*
X7179586Y-11102008D02*
X7198634Y-11092484D01*
X7360539Y-11282960D02*
X7360539Y-11292484D01*
X7360539Y-11292484D02*
X7351015Y-11311531D01*
X7351015Y-11311531D02*
X7341491Y-11321055D01*
X7484348Y-11092484D02*
X7503396Y-11092484D01*
X7503396Y-11092484D02*
X7522444Y-11102008D01*
X7522444Y-11102008D02*
X7531967Y-11111531D01*
X7531967Y-11111531D02*
X7541491Y-11130579D01*
X7541491Y-11130579D02*
X7551015Y-11168674D01*
X7551015Y-11168674D02*
X7551015Y-11216293D01*
X7551015Y-11216293D02*
X7541491Y-11254388D01*
X7541491Y-11254388D02*
X7531967Y-11273436D01*
X7531967Y-11273436D02*
X7522444Y-11282960D01*
X7522444Y-11282960D02*
X7503396Y-11292484D01*
X7503396Y-11292484D02*
X7484348Y-11292484D01*
X7484348Y-11292484D02*
X7465301Y-11282960D01*
X7465301Y-11282960D02*
X7455777Y-11273436D01*
X7455777Y-11273436D02*
X7446253Y-11254388D01*
X7446253Y-11254388D02*
X7436729Y-11216293D01*
X7436729Y-11216293D02*
X7436729Y-11168674D01*
X7436729Y-11168674D02*
X7446253Y-11130579D01*
X7446253Y-11130579D02*
X7455777Y-11111531D01*
X7455777Y-11111531D02*
X7465301Y-11102008D01*
X7465301Y-11102008D02*
X7484348Y-11092484D01*
X7722444Y-11159150D02*
X7722444Y-11292484D01*
X7674825Y-11082960D02*
X7627206Y-11225817D01*
X7627206Y-11225817D02*
X7751015Y-11225817D01*
X7865301Y-11092484D02*
X7884348Y-11092484D01*
X7884348Y-11092484D02*
X7903396Y-11102008D01*
X7903396Y-11102008D02*
X7912920Y-11111531D01*
X7912920Y-11111531D02*
X7922444Y-11130579D01*
X7922444Y-11130579D02*
X7931967Y-11168674D01*
X7931967Y-11168674D02*
X7931967Y-11216293D01*
X7931967Y-11216293D02*
X7922444Y-11254388D01*
X7922444Y-11254388D02*
X7912920Y-11273436D01*
X7912920Y-11273436D02*
X7903396Y-11282960D01*
X7903396Y-11282960D02*
X7884348Y-11292484D01*
X7884348Y-11292484D02*
X7865301Y-11292484D01*
X7865301Y-11292484D02*
X7846253Y-11282960D01*
X7846253Y-11282960D02*
X7836729Y-11273436D01*
X7836729Y-11273436D02*
X7827206Y-11254388D01*
X7827206Y-11254388D02*
X7817682Y-11216293D01*
X7817682Y-11216293D02*
X7817682Y-11168674D01*
X7817682Y-11168674D02*
X7827206Y-11130579D01*
X7827206Y-11130579D02*
X7836729Y-11111531D01*
X7836729Y-11111531D02*
X7846253Y-11102008D01*
X7846253Y-11102008D02*
X7865301Y-11092484D01*
X8008158Y-11111531D02*
X8017682Y-11102008D01*
X8017682Y-11102008D02*
X8036729Y-11092484D01*
X8036729Y-11092484D02*
X8084348Y-11092484D01*
X8084348Y-11092484D02*
X8103396Y-11102008D01*
X8103396Y-11102008D02*
X8112920Y-11111531D01*
X8112920Y-11111531D02*
X8122444Y-11130579D01*
X8122444Y-11130579D02*
X8122444Y-11149627D01*
X8122444Y-11149627D02*
X8112920Y-11178198D01*
X8112920Y-11178198D02*
X7998634Y-11292484D01*
X7998634Y-11292484D02*
X8122444Y-11292484D01*
X8198634Y-11092484D02*
X8198634Y-11130579D01*
X8274825Y-11092484D02*
X8274825Y-11130579D01*
X8570063Y-11368674D02*
X8560539Y-11359150D01*
X8560539Y-11359150D02*
X8541491Y-11330579D01*
X8541491Y-11330579D02*
X8531968Y-11311531D01*
X8531968Y-11311531D02*
X8522444Y-11282960D01*
X8522444Y-11282960D02*
X8512920Y-11235341D01*
X8512920Y-11235341D02*
X8512920Y-11197246D01*
X8512920Y-11197246D02*
X8522444Y-11149627D01*
X8522444Y-11149627D02*
X8531968Y-11121055D01*
X8531968Y-11121055D02*
X8541491Y-11102008D01*
X8541491Y-11102008D02*
X8560539Y-11073436D01*
X8560539Y-11073436D02*
X8570063Y-11063912D01*
X8674825Y-11178198D02*
X8655777Y-11168674D01*
X8655777Y-11168674D02*
X8646253Y-11159150D01*
X8646253Y-11159150D02*
X8636730Y-11140103D01*
X8636730Y-11140103D02*
X8636730Y-11130579D01*
X8636730Y-11130579D02*
X8646253Y-11111531D01*
X8646253Y-11111531D02*
X8655777Y-11102008D01*
X8655777Y-11102008D02*
X8674825Y-11092484D01*
X8674825Y-11092484D02*
X8712920Y-11092484D01*
X8712920Y-11092484D02*
X8731968Y-11102008D01*
X8731968Y-11102008D02*
X8741491Y-11111531D01*
X8741491Y-11111531D02*
X8751015Y-11130579D01*
X8751015Y-11130579D02*
X8751015Y-11140103D01*
X8751015Y-11140103D02*
X8741491Y-11159150D01*
X8741491Y-11159150D02*
X8731968Y-11168674D01*
X8731968Y-11168674D02*
X8712920Y-11178198D01*
X8712920Y-11178198D02*
X8674825Y-11178198D01*
X8674825Y-11178198D02*
X8655777Y-11187722D01*
X8655777Y-11187722D02*
X8646253Y-11197246D01*
X8646253Y-11197246D02*
X8636730Y-11216293D01*
X8636730Y-11216293D02*
X8636730Y-11254388D01*
X8636730Y-11254388D02*
X8646253Y-11273436D01*
X8646253Y-11273436D02*
X8655777Y-11282960D01*
X8655777Y-11282960D02*
X8674825Y-11292484D01*
X8674825Y-11292484D02*
X8712920Y-11292484D01*
X8712920Y-11292484D02*
X8731968Y-11282960D01*
X8731968Y-11282960D02*
X8741491Y-11273436D01*
X8741491Y-11273436D02*
X8751015Y-11254388D01*
X8751015Y-11254388D02*
X8751015Y-11216293D01*
X8751015Y-11216293D02*
X8741491Y-11197246D01*
X8741491Y-11197246D02*
X8731968Y-11187722D01*
X8731968Y-11187722D02*
X8712920Y-11178198D01*
X8989111Y-11292484D02*
X8989111Y-11092484D01*
X9074825Y-11292484D02*
X9074825Y-11187722D01*
X9074825Y-11187722D02*
X9065301Y-11168674D01*
X9065301Y-11168674D02*
X9046253Y-11159150D01*
X9046253Y-11159150D02*
X9017682Y-11159150D01*
X9017682Y-11159150D02*
X8998634Y-11168674D01*
X8998634Y-11168674D02*
X8989111Y-11178198D01*
X9198634Y-11292484D02*
X9179587Y-11282960D01*
X9179587Y-11282960D02*
X9170063Y-11273436D01*
X9170063Y-11273436D02*
X9160539Y-11254388D01*
X9160539Y-11254388D02*
X9160539Y-11197246D01*
X9160539Y-11197246D02*
X9170063Y-11178198D01*
X9170063Y-11178198D02*
X9179587Y-11168674D01*
X9179587Y-11168674D02*
X9198634Y-11159150D01*
X9198634Y-11159150D02*
X9227206Y-11159150D01*
X9227206Y-11159150D02*
X9246253Y-11168674D01*
X9246253Y-11168674D02*
X9255777Y-11178198D01*
X9255777Y-11178198D02*
X9265301Y-11197246D01*
X9265301Y-11197246D02*
X9265301Y-11254388D01*
X9265301Y-11254388D02*
X9255777Y-11273436D01*
X9255777Y-11273436D02*
X9246253Y-11282960D01*
X9246253Y-11282960D02*
X9227206Y-11292484D01*
X9227206Y-11292484D02*
X9198634Y-11292484D01*
X9379587Y-11292484D02*
X9360539Y-11282960D01*
X9360539Y-11282960D02*
X9351015Y-11263912D01*
X9351015Y-11263912D02*
X9351015Y-11092484D01*
X9531968Y-11282960D02*
X9512920Y-11292484D01*
X9512920Y-11292484D02*
X9474825Y-11292484D01*
X9474825Y-11292484D02*
X9455777Y-11282960D01*
X9455777Y-11282960D02*
X9446253Y-11263912D01*
X9446253Y-11263912D02*
X9446253Y-11187722D01*
X9446253Y-11187722D02*
X9455777Y-11168674D01*
X9455777Y-11168674D02*
X9474825Y-11159150D01*
X9474825Y-11159150D02*
X9512920Y-11159150D01*
X9512920Y-11159150D02*
X9531968Y-11168674D01*
X9531968Y-11168674D02*
X9541492Y-11187722D01*
X9541492Y-11187722D02*
X9541492Y-11206769D01*
X9541492Y-11206769D02*
X9446253Y-11225817D01*
X9617682Y-11282960D02*
X9636730Y-11292484D01*
X9636730Y-11292484D02*
X9674825Y-11292484D01*
X9674825Y-11292484D02*
X9693873Y-11282960D01*
X9693873Y-11282960D02*
X9703396Y-11263912D01*
X9703396Y-11263912D02*
X9703396Y-11254388D01*
X9703396Y-11254388D02*
X9693873Y-11235341D01*
X9693873Y-11235341D02*
X9674825Y-11225817D01*
X9674825Y-11225817D02*
X9646253Y-11225817D01*
X9646253Y-11225817D02*
X9627206Y-11216293D01*
X9627206Y-11216293D02*
X9617682Y-11197246D01*
X9617682Y-11197246D02*
X9617682Y-11187722D01*
X9617682Y-11187722D02*
X9627206Y-11168674D01*
X9627206Y-11168674D02*
X9646253Y-11159150D01*
X9646253Y-11159150D02*
X9674825Y-11159150D01*
X9674825Y-11159150D02*
X9693873Y-11168674D01*
X9770063Y-11368674D02*
X9779587Y-11359150D01*
X9779587Y-11359150D02*
X9798634Y-11330579D01*
X9798634Y-11330579D02*
X9808158Y-11311531D01*
X9808158Y-11311531D02*
X9817682Y-11282960D01*
X9817682Y-11282960D02*
X9827206Y-11235341D01*
X9827206Y-11235341D02*
X9827206Y-11197246D01*
X9827206Y-11197246D02*
X9817682Y-11149627D01*
X9817682Y-11149627D02*
X9808158Y-11121055D01*
X9808158Y-11121055D02*
X9798634Y-11102008D01*
X9798634Y-11102008D02*
X9779587Y-11073436D01*
X9779587Y-11073436D02*
X9770063Y-11063912D01*
X4795000Y-11365000D02*
X4995000Y-11565000D01*
X4995000Y-11365000D02*
X4795000Y-11565000D01*
X4995000Y-11465000D02*
G75*
G02*
X4795000Y-11465000I-100000J0D01*
G01*
X4795000Y-11465000D02*
G75*
G02*
X4995000Y-11465000I100000J0D01*
G01*
X5236729Y-11356484D02*
X5360539Y-11356484D01*
X5360539Y-11356484D02*
X5293872Y-11432674D01*
X5293872Y-11432674D02*
X5322444Y-11432674D01*
X5322444Y-11432674D02*
X5341491Y-11442198D01*
X5341491Y-11442198D02*
X5351015Y-11451722D01*
X5351015Y-11451722D02*
X5360539Y-11470769D01*
X5360539Y-11470769D02*
X5360539Y-11518388D01*
X5360539Y-11518388D02*
X5351015Y-11537436D01*
X5351015Y-11537436D02*
X5341491Y-11546960D01*
X5341491Y-11546960D02*
X5322444Y-11556484D01*
X5322444Y-11556484D02*
X5265301Y-11556484D01*
X5265301Y-11556484D02*
X5246253Y-11546960D01*
X5246253Y-11546960D02*
X5236729Y-11537436D01*
X5455777Y-11546960D02*
X5455777Y-11556484D01*
X5455777Y-11556484D02*
X5446253Y-11575531D01*
X5446253Y-11575531D02*
X5436729Y-11585055D01*
X5579586Y-11356484D02*
X5598634Y-11356484D01*
X5598634Y-11356484D02*
X5617682Y-11366008D01*
X5617682Y-11366008D02*
X5627205Y-11375531D01*
X5627205Y-11375531D02*
X5636729Y-11394579D01*
X5636729Y-11394579D02*
X5646253Y-11432674D01*
X5646253Y-11432674D02*
X5646253Y-11480293D01*
X5646253Y-11480293D02*
X5636729Y-11518388D01*
X5636729Y-11518388D02*
X5627205Y-11537436D01*
X5627205Y-11537436D02*
X5617682Y-11546960D01*
X5617682Y-11546960D02*
X5598634Y-11556484D01*
X5598634Y-11556484D02*
X5579586Y-11556484D01*
X5579586Y-11556484D02*
X5560539Y-11546960D01*
X5560539Y-11546960D02*
X5551015Y-11537436D01*
X5551015Y-11537436D02*
X5541491Y-11518388D01*
X5541491Y-11518388D02*
X5531967Y-11480293D01*
X5531967Y-11480293D02*
X5531967Y-11432674D01*
X5531967Y-11432674D02*
X5541491Y-11394579D01*
X5541491Y-11394579D02*
X5551015Y-11375531D01*
X5551015Y-11375531D02*
X5560539Y-11366008D01*
X5560539Y-11366008D02*
X5579586Y-11356484D01*
X5770062Y-11356484D02*
X5789110Y-11356484D01*
X5789110Y-11356484D02*
X5808158Y-11366008D01*
X5808158Y-11366008D02*
X5817682Y-11375531D01*
X5817682Y-11375531D02*
X5827205Y-11394579D01*
X5827205Y-11394579D02*
X5836729Y-11432674D01*
X5836729Y-11432674D02*
X5836729Y-11480293D01*
X5836729Y-11480293D02*
X5827205Y-11518388D01*
X5827205Y-11518388D02*
X5817682Y-11537436D01*
X5817682Y-11537436D02*
X5808158Y-11546960D01*
X5808158Y-11546960D02*
X5789110Y-11556484D01*
X5789110Y-11556484D02*
X5770062Y-11556484D01*
X5770062Y-11556484D02*
X5751015Y-11546960D01*
X5751015Y-11546960D02*
X5741491Y-11537436D01*
X5741491Y-11537436D02*
X5731967Y-11518388D01*
X5731967Y-11518388D02*
X5722443Y-11480293D01*
X5722443Y-11480293D02*
X5722443Y-11432674D01*
X5722443Y-11432674D02*
X5731967Y-11394579D01*
X5731967Y-11394579D02*
X5741491Y-11375531D01*
X5741491Y-11375531D02*
X5751015Y-11366008D01*
X5751015Y-11366008D02*
X5770062Y-11356484D01*
X5960539Y-11356484D02*
X5979586Y-11356484D01*
X5979586Y-11356484D02*
X5998634Y-11366008D01*
X5998634Y-11366008D02*
X6008158Y-11375531D01*
X6008158Y-11375531D02*
X6017682Y-11394579D01*
X6017682Y-11394579D02*
X6027205Y-11432674D01*
X6027205Y-11432674D02*
X6027205Y-11480293D01*
X6027205Y-11480293D02*
X6017682Y-11518388D01*
X6017682Y-11518388D02*
X6008158Y-11537436D01*
X6008158Y-11537436D02*
X5998634Y-11546960D01*
X5998634Y-11546960D02*
X5979586Y-11556484D01*
X5979586Y-11556484D02*
X5960539Y-11556484D01*
X5960539Y-11556484D02*
X5941491Y-11546960D01*
X5941491Y-11546960D02*
X5931967Y-11537436D01*
X5931967Y-11537436D02*
X5922443Y-11518388D01*
X5922443Y-11518388D02*
X5912920Y-11480293D01*
X5912920Y-11480293D02*
X5912920Y-11432674D01*
X5912920Y-11432674D02*
X5922443Y-11394579D01*
X5922443Y-11394579D02*
X5931967Y-11375531D01*
X5931967Y-11375531D02*
X5941491Y-11366008D01*
X5941491Y-11366008D02*
X5960539Y-11356484D01*
X6112920Y-11556484D02*
X6112920Y-11423150D01*
X6112920Y-11442198D02*
X6122443Y-11432674D01*
X6122443Y-11432674D02*
X6141491Y-11423150D01*
X6141491Y-11423150D02*
X6170063Y-11423150D01*
X6170063Y-11423150D02*
X6189110Y-11432674D01*
X6189110Y-11432674D02*
X6198634Y-11451722D01*
X6198634Y-11451722D02*
X6198634Y-11556484D01*
X6198634Y-11451722D02*
X6208158Y-11432674D01*
X6208158Y-11432674D02*
X6227205Y-11423150D01*
X6227205Y-11423150D02*
X6255777Y-11423150D01*
X6255777Y-11423150D02*
X6274824Y-11432674D01*
X6274824Y-11432674D02*
X6284348Y-11451722D01*
X6284348Y-11451722D02*
X6284348Y-11556484D01*
X6379586Y-11556484D02*
X6379586Y-11423150D01*
X6379586Y-11442198D02*
X6389110Y-11432674D01*
X6389110Y-11432674D02*
X6408158Y-11423150D01*
X6408158Y-11423150D02*
X6436729Y-11423150D01*
X6436729Y-11423150D02*
X6455777Y-11432674D01*
X6455777Y-11432674D02*
X6465301Y-11451722D01*
X6465301Y-11451722D02*
X6465301Y-11556484D01*
X6465301Y-11451722D02*
X6474824Y-11432674D01*
X6474824Y-11432674D02*
X6493872Y-11423150D01*
X6493872Y-11423150D02*
X6522443Y-11423150D01*
X6522443Y-11423150D02*
X6541491Y-11432674D01*
X6541491Y-11432674D02*
X6551015Y-11451722D01*
X6551015Y-11451722D02*
X6551015Y-11556484D01*
X6941491Y-11346960D02*
X6770063Y-11604103D01*
X7198634Y-11356484D02*
X7217682Y-11356484D01*
X7217682Y-11356484D02*
X7236729Y-11366008D01*
X7236729Y-11366008D02*
X7246253Y-11375531D01*
X7246253Y-11375531D02*
X7255777Y-11394579D01*
X7255777Y-11394579D02*
X7265301Y-11432674D01*
X7265301Y-11432674D02*
X7265301Y-11480293D01*
X7265301Y-11480293D02*
X7255777Y-11518388D01*
X7255777Y-11518388D02*
X7246253Y-11537436D01*
X7246253Y-11537436D02*
X7236729Y-11546960D01*
X7236729Y-11546960D02*
X7217682Y-11556484D01*
X7217682Y-11556484D02*
X7198634Y-11556484D01*
X7198634Y-11556484D02*
X7179586Y-11546960D01*
X7179586Y-11546960D02*
X7170063Y-11537436D01*
X7170063Y-11537436D02*
X7160539Y-11518388D01*
X7160539Y-11518388D02*
X7151015Y-11480293D01*
X7151015Y-11480293D02*
X7151015Y-11432674D01*
X7151015Y-11432674D02*
X7160539Y-11394579D01*
X7160539Y-11394579D02*
X7170063Y-11375531D01*
X7170063Y-11375531D02*
X7179586Y-11366008D01*
X7179586Y-11366008D02*
X7198634Y-11356484D01*
X7360539Y-11546960D02*
X7360539Y-11556484D01*
X7360539Y-11556484D02*
X7351015Y-11575531D01*
X7351015Y-11575531D02*
X7341491Y-11585055D01*
X7551015Y-11556484D02*
X7436729Y-11556484D01*
X7493872Y-11556484D02*
X7493872Y-11356484D01*
X7493872Y-11356484D02*
X7474825Y-11385055D01*
X7474825Y-11385055D02*
X7455777Y-11404103D01*
X7455777Y-11404103D02*
X7436729Y-11413627D01*
X7741491Y-11556484D02*
X7627206Y-11556484D01*
X7684348Y-11556484D02*
X7684348Y-11356484D01*
X7684348Y-11356484D02*
X7665301Y-11385055D01*
X7665301Y-11385055D02*
X7646253Y-11404103D01*
X7646253Y-11404103D02*
X7627206Y-11413627D01*
X7855777Y-11442198D02*
X7836729Y-11432674D01*
X7836729Y-11432674D02*
X7827206Y-11423150D01*
X7827206Y-11423150D02*
X7817682Y-11404103D01*
X7817682Y-11404103D02*
X7817682Y-11394579D01*
X7817682Y-11394579D02*
X7827206Y-11375531D01*
X7827206Y-11375531D02*
X7836729Y-11366008D01*
X7836729Y-11366008D02*
X7855777Y-11356484D01*
X7855777Y-11356484D02*
X7893872Y-11356484D01*
X7893872Y-11356484D02*
X7912920Y-11366008D01*
X7912920Y-11366008D02*
X7922444Y-11375531D01*
X7922444Y-11375531D02*
X7931967Y-11394579D01*
X7931967Y-11394579D02*
X7931967Y-11404103D01*
X7931967Y-11404103D02*
X7922444Y-11423150D01*
X7922444Y-11423150D02*
X7912920Y-11432674D01*
X7912920Y-11432674D02*
X7893872Y-11442198D01*
X7893872Y-11442198D02*
X7855777Y-11442198D01*
X7855777Y-11442198D02*
X7836729Y-11451722D01*
X7836729Y-11451722D02*
X7827206Y-11461246D01*
X7827206Y-11461246D02*
X7817682Y-11480293D01*
X7817682Y-11480293D02*
X7817682Y-11518388D01*
X7817682Y-11518388D02*
X7827206Y-11537436D01*
X7827206Y-11537436D02*
X7836729Y-11546960D01*
X7836729Y-11546960D02*
X7855777Y-11556484D01*
X7855777Y-11556484D02*
X7893872Y-11556484D01*
X7893872Y-11556484D02*
X7912920Y-11546960D01*
X7912920Y-11546960D02*
X7922444Y-11537436D01*
X7922444Y-11537436D02*
X7931967Y-11518388D01*
X7931967Y-11518388D02*
X7931967Y-11480293D01*
X7931967Y-11480293D02*
X7922444Y-11461246D01*
X7922444Y-11461246D02*
X7912920Y-11451722D01*
X7912920Y-11451722D02*
X7893872Y-11442198D01*
X8122444Y-11556484D02*
X8008158Y-11556484D01*
X8065301Y-11556484D02*
X8065301Y-11356484D01*
X8065301Y-11356484D02*
X8046253Y-11385055D01*
X8046253Y-11385055D02*
X8027206Y-11404103D01*
X8027206Y-11404103D02*
X8008158Y-11413627D01*
X8198634Y-11356484D02*
X8198634Y-11394579D01*
X8274825Y-11356484D02*
X8274825Y-11394579D01*
X8570063Y-11632674D02*
X8560539Y-11623150D01*
X8560539Y-11623150D02*
X8541491Y-11594579D01*
X8541491Y-11594579D02*
X8531968Y-11575531D01*
X8531968Y-11575531D02*
X8522444Y-11546960D01*
X8522444Y-11546960D02*
X8512920Y-11499341D01*
X8512920Y-11499341D02*
X8512920Y-11461246D01*
X8512920Y-11461246D02*
X8522444Y-11413627D01*
X8522444Y-11413627D02*
X8531968Y-11385055D01*
X8531968Y-11385055D02*
X8541491Y-11366008D01*
X8541491Y-11366008D02*
X8560539Y-11337436D01*
X8560539Y-11337436D02*
X8570063Y-11327912D01*
X8636730Y-11375531D02*
X8646253Y-11366008D01*
X8646253Y-11366008D02*
X8665301Y-11356484D01*
X8665301Y-11356484D02*
X8712920Y-11356484D01*
X8712920Y-11356484D02*
X8731968Y-11366008D01*
X8731968Y-11366008D02*
X8741491Y-11375531D01*
X8741491Y-11375531D02*
X8751015Y-11394579D01*
X8751015Y-11394579D02*
X8751015Y-11413627D01*
X8751015Y-11413627D02*
X8741491Y-11442198D01*
X8741491Y-11442198D02*
X8627206Y-11556484D01*
X8627206Y-11556484D02*
X8751015Y-11556484D01*
X8989111Y-11556484D02*
X8989111Y-11356484D01*
X9074825Y-11556484D02*
X9074825Y-11451722D01*
X9074825Y-11451722D02*
X9065301Y-11432674D01*
X9065301Y-11432674D02*
X9046253Y-11423150D01*
X9046253Y-11423150D02*
X9017682Y-11423150D01*
X9017682Y-11423150D02*
X8998634Y-11432674D01*
X8998634Y-11432674D02*
X8989111Y-11442198D01*
X9198634Y-11556484D02*
X9179587Y-11546960D01*
X9179587Y-11546960D02*
X9170063Y-11537436D01*
X9170063Y-11537436D02*
X9160539Y-11518388D01*
X9160539Y-11518388D02*
X9160539Y-11461246D01*
X9160539Y-11461246D02*
X9170063Y-11442198D01*
X9170063Y-11442198D02*
X9179587Y-11432674D01*
X9179587Y-11432674D02*
X9198634Y-11423150D01*
X9198634Y-11423150D02*
X9227206Y-11423150D01*
X9227206Y-11423150D02*
X9246253Y-11432674D01*
X9246253Y-11432674D02*
X9255777Y-11442198D01*
X9255777Y-11442198D02*
X9265301Y-11461246D01*
X9265301Y-11461246D02*
X9265301Y-11518388D01*
X9265301Y-11518388D02*
X9255777Y-11537436D01*
X9255777Y-11537436D02*
X9246253Y-11546960D01*
X9246253Y-11546960D02*
X9227206Y-11556484D01*
X9227206Y-11556484D02*
X9198634Y-11556484D01*
X9379587Y-11556484D02*
X9360539Y-11546960D01*
X9360539Y-11546960D02*
X9351015Y-11527912D01*
X9351015Y-11527912D02*
X9351015Y-11356484D01*
X9531968Y-11546960D02*
X9512920Y-11556484D01*
X9512920Y-11556484D02*
X9474825Y-11556484D01*
X9474825Y-11556484D02*
X9455777Y-11546960D01*
X9455777Y-11546960D02*
X9446253Y-11527912D01*
X9446253Y-11527912D02*
X9446253Y-11451722D01*
X9446253Y-11451722D02*
X9455777Y-11432674D01*
X9455777Y-11432674D02*
X9474825Y-11423150D01*
X9474825Y-11423150D02*
X9512920Y-11423150D01*
X9512920Y-11423150D02*
X9531968Y-11432674D01*
X9531968Y-11432674D02*
X9541492Y-11451722D01*
X9541492Y-11451722D02*
X9541492Y-11470769D01*
X9541492Y-11470769D02*
X9446253Y-11489817D01*
X9617682Y-11546960D02*
X9636730Y-11556484D01*
X9636730Y-11556484D02*
X9674825Y-11556484D01*
X9674825Y-11556484D02*
X9693873Y-11546960D01*
X9693873Y-11546960D02*
X9703396Y-11527912D01*
X9703396Y-11527912D02*
X9703396Y-11518388D01*
X9703396Y-11518388D02*
X9693873Y-11499341D01*
X9693873Y-11499341D02*
X9674825Y-11489817D01*
X9674825Y-11489817D02*
X9646253Y-11489817D01*
X9646253Y-11489817D02*
X9627206Y-11480293D01*
X9627206Y-11480293D02*
X9617682Y-11461246D01*
X9617682Y-11461246D02*
X9617682Y-11451722D01*
X9617682Y-11451722D02*
X9627206Y-11432674D01*
X9627206Y-11432674D02*
X9646253Y-11423150D01*
X9646253Y-11423150D02*
X9674825Y-11423150D01*
X9674825Y-11423150D02*
X9693873Y-11432674D01*
X9770063Y-11632674D02*
X9779587Y-11623150D01*
X9779587Y-11623150D02*
X9798634Y-11594579D01*
X9798634Y-11594579D02*
X9808158Y-11575531D01*
X9808158Y-11575531D02*
X9817682Y-11546960D01*
X9817682Y-11546960D02*
X9827206Y-11499341D01*
X9827206Y-11499341D02*
X9827206Y-11461246D01*
X9827206Y-11461246D02*
X9817682Y-11413627D01*
X9817682Y-11413627D02*
X9808158Y-11385055D01*
X9808158Y-11385055D02*
X9798634Y-11366008D01*
X9798634Y-11366008D02*
X9779587Y-11337436D01*
X9779587Y-11337436D02*
X9770063Y-11327912D01*
X10131968Y-11632674D02*
X10122444Y-11623150D01*
X10122444Y-11623150D02*
X10103396Y-11594579D01*
X10103396Y-11594579D02*
X10093873Y-11575531D01*
X10093873Y-11575531D02*
X10084349Y-11546960D01*
X10084349Y-11546960D02*
X10074825Y-11499341D01*
X10074825Y-11499341D02*
X10074825Y-11461246D01*
X10074825Y-11461246D02*
X10084349Y-11413627D01*
X10084349Y-11413627D02*
X10093873Y-11385055D01*
X10093873Y-11385055D02*
X10103396Y-11366008D01*
X10103396Y-11366008D02*
X10122444Y-11337436D01*
X10122444Y-11337436D02*
X10131968Y-11327912D01*
X10208158Y-11423150D02*
X10208158Y-11556484D01*
X10208158Y-11442198D02*
X10217682Y-11432674D01*
X10217682Y-11432674D02*
X10236730Y-11423150D01*
X10236730Y-11423150D02*
X10265301Y-11423150D01*
X10265301Y-11423150D02*
X10284349Y-11432674D01*
X10284349Y-11432674D02*
X10293873Y-11451722D01*
X10293873Y-11451722D02*
X10293873Y-11556484D01*
X10417682Y-11556484D02*
X10398634Y-11546960D01*
X10398634Y-11546960D02*
X10389111Y-11537436D01*
X10389111Y-11537436D02*
X10379587Y-11518388D01*
X10379587Y-11518388D02*
X10379587Y-11461246D01*
X10379587Y-11461246D02*
X10389111Y-11442198D01*
X10389111Y-11442198D02*
X10398634Y-11432674D01*
X10398634Y-11432674D02*
X10417682Y-11423150D01*
X10417682Y-11423150D02*
X10446254Y-11423150D01*
X10446254Y-11423150D02*
X10465301Y-11432674D01*
X10465301Y-11432674D02*
X10474825Y-11442198D01*
X10474825Y-11442198D02*
X10484349Y-11461246D01*
X10484349Y-11461246D02*
X10484349Y-11518388D01*
X10484349Y-11518388D02*
X10474825Y-11537436D01*
X10474825Y-11537436D02*
X10465301Y-11546960D01*
X10465301Y-11546960D02*
X10446254Y-11556484D01*
X10446254Y-11556484D02*
X10417682Y-11556484D01*
X10541492Y-11423150D02*
X10617682Y-11423150D01*
X10570063Y-11356484D02*
X10570063Y-11527912D01*
X10570063Y-11527912D02*
X10579587Y-11546960D01*
X10579587Y-11546960D02*
X10598634Y-11556484D01*
X10598634Y-11556484D02*
X10617682Y-11556484D01*
X10836730Y-11423150D02*
X10836730Y-11623150D01*
X10836730Y-11432674D02*
X10855777Y-11423150D01*
X10855777Y-11423150D02*
X10893873Y-11423150D01*
X10893873Y-11423150D02*
X10912920Y-11432674D01*
X10912920Y-11432674D02*
X10922444Y-11442198D01*
X10922444Y-11442198D02*
X10931968Y-11461246D01*
X10931968Y-11461246D02*
X10931968Y-11518388D01*
X10931968Y-11518388D02*
X10922444Y-11537436D01*
X10922444Y-11537436D02*
X10912920Y-11546960D01*
X10912920Y-11546960D02*
X10893873Y-11556484D01*
X10893873Y-11556484D02*
X10855777Y-11556484D01*
X10855777Y-11556484D02*
X10836730Y-11546960D01*
X11046254Y-11556484D02*
X11027206Y-11546960D01*
X11027206Y-11546960D02*
X11017682Y-11527912D01*
X11017682Y-11527912D02*
X11017682Y-11356484D01*
X11208158Y-11556484D02*
X11208158Y-11451722D01*
X11208158Y-11451722D02*
X11198634Y-11432674D01*
X11198634Y-11432674D02*
X11179587Y-11423150D01*
X11179587Y-11423150D02*
X11141492Y-11423150D01*
X11141492Y-11423150D02*
X11122444Y-11432674D01*
X11208158Y-11546960D02*
X11189111Y-11556484D01*
X11189111Y-11556484D02*
X11141492Y-11556484D01*
X11141492Y-11556484D02*
X11122444Y-11546960D01*
X11122444Y-11546960D02*
X11112920Y-11527912D01*
X11112920Y-11527912D02*
X11112920Y-11508865D01*
X11112920Y-11508865D02*
X11122444Y-11489817D01*
X11122444Y-11489817D02*
X11141492Y-11480293D01*
X11141492Y-11480293D02*
X11189111Y-11480293D01*
X11189111Y-11480293D02*
X11208158Y-11470769D01*
X11274825Y-11423150D02*
X11351015Y-11423150D01*
X11303396Y-11356484D02*
X11303396Y-11527912D01*
X11303396Y-11527912D02*
X11312920Y-11546960D01*
X11312920Y-11546960D02*
X11331968Y-11556484D01*
X11331968Y-11556484D02*
X11351015Y-11556484D01*
X11493873Y-11546960D02*
X11474825Y-11556484D01*
X11474825Y-11556484D02*
X11436730Y-11556484D01*
X11436730Y-11556484D02*
X11417682Y-11546960D01*
X11417682Y-11546960D02*
X11408158Y-11527912D01*
X11408158Y-11527912D02*
X11408158Y-11451722D01*
X11408158Y-11451722D02*
X11417682Y-11432674D01*
X11417682Y-11432674D02*
X11436730Y-11423150D01*
X11436730Y-11423150D02*
X11474825Y-11423150D01*
X11474825Y-11423150D02*
X11493873Y-11432674D01*
X11493873Y-11432674D02*
X11503396Y-11451722D01*
X11503396Y-11451722D02*
X11503396Y-11470769D01*
X11503396Y-11470769D02*
X11408158Y-11489817D01*
X11674825Y-11556484D02*
X11674825Y-11356484D01*
X11674825Y-11546960D02*
X11655777Y-11556484D01*
X11655777Y-11556484D02*
X11617682Y-11556484D01*
X11617682Y-11556484D02*
X11598634Y-11546960D01*
X11598634Y-11546960D02*
X11589111Y-11537436D01*
X11589111Y-11537436D02*
X11579587Y-11518388D01*
X11579587Y-11518388D02*
X11579587Y-11461246D01*
X11579587Y-11461246D02*
X11589111Y-11442198D01*
X11589111Y-11442198D02*
X11598634Y-11432674D01*
X11598634Y-11432674D02*
X11617682Y-11423150D01*
X11617682Y-11423150D02*
X11655777Y-11423150D01*
X11655777Y-11423150D02*
X11674825Y-11432674D01*
X11751015Y-11632674D02*
X11760539Y-11623150D01*
X11760539Y-11623150D02*
X11779587Y-11594579D01*
X11779587Y-11594579D02*
X11789111Y-11575531D01*
X11789111Y-11575531D02*
X11798634Y-11546960D01*
X11798634Y-11546960D02*
X11808158Y-11499341D01*
X11808158Y-11499341D02*
X11808158Y-11461246D01*
X11808158Y-11461246D02*
X11798634Y-11413627D01*
X11798634Y-11413627D02*
X11789111Y-11385055D01*
X11789111Y-11385055D02*
X11779587Y-11366008D01*
X11779587Y-11366008D02*
X11760539Y-11337436D01*
X11760539Y-11337436D02*
X11751015Y-11327912D01*
X4795000Y-11685000D02*
X4995000Y-11885000D01*
X4995000Y-11685000D02*
X4795000Y-11885000D01*
X4895000Y-11685000D02*
X4895000Y-11885000D01*
X4795000Y-11785000D02*
X4995000Y-11785000D01*
X5236729Y-11676484D02*
X5360539Y-11676484D01*
X5360539Y-11676484D02*
X5293872Y-11752674D01*
X5293872Y-11752674D02*
X5322444Y-11752674D01*
X5322444Y-11752674D02*
X5341491Y-11762198D01*
X5341491Y-11762198D02*
X5351015Y-11771722D01*
X5351015Y-11771722D02*
X5360539Y-11790769D01*
X5360539Y-11790769D02*
X5360539Y-11838388D01*
X5360539Y-11838388D02*
X5351015Y-11857436D01*
X5351015Y-11857436D02*
X5341491Y-11866960D01*
X5341491Y-11866960D02*
X5322444Y-11876484D01*
X5322444Y-11876484D02*
X5265301Y-11876484D01*
X5265301Y-11876484D02*
X5246253Y-11866960D01*
X5246253Y-11866960D02*
X5236729Y-11857436D01*
X5455777Y-11866960D02*
X5455777Y-11876484D01*
X5455777Y-11876484D02*
X5446253Y-11895531D01*
X5446253Y-11895531D02*
X5436729Y-11905055D01*
X5531967Y-11695531D02*
X5541491Y-11686008D01*
X5541491Y-11686008D02*
X5560539Y-11676484D01*
X5560539Y-11676484D02*
X5608158Y-11676484D01*
X5608158Y-11676484D02*
X5627205Y-11686008D01*
X5627205Y-11686008D02*
X5636729Y-11695531D01*
X5636729Y-11695531D02*
X5646253Y-11714579D01*
X5646253Y-11714579D02*
X5646253Y-11733627D01*
X5646253Y-11733627D02*
X5636729Y-11762198D01*
X5636729Y-11762198D02*
X5522444Y-11876484D01*
X5522444Y-11876484D02*
X5646253Y-11876484D01*
X5770062Y-11676484D02*
X5789110Y-11676484D01*
X5789110Y-11676484D02*
X5808158Y-11686008D01*
X5808158Y-11686008D02*
X5817682Y-11695531D01*
X5817682Y-11695531D02*
X5827205Y-11714579D01*
X5827205Y-11714579D02*
X5836729Y-11752674D01*
X5836729Y-11752674D02*
X5836729Y-11800293D01*
X5836729Y-11800293D02*
X5827205Y-11838388D01*
X5827205Y-11838388D02*
X5817682Y-11857436D01*
X5817682Y-11857436D02*
X5808158Y-11866960D01*
X5808158Y-11866960D02*
X5789110Y-11876484D01*
X5789110Y-11876484D02*
X5770062Y-11876484D01*
X5770062Y-11876484D02*
X5751015Y-11866960D01*
X5751015Y-11866960D02*
X5741491Y-11857436D01*
X5741491Y-11857436D02*
X5731967Y-11838388D01*
X5731967Y-11838388D02*
X5722443Y-11800293D01*
X5722443Y-11800293D02*
X5722443Y-11752674D01*
X5722443Y-11752674D02*
X5731967Y-11714579D01*
X5731967Y-11714579D02*
X5741491Y-11695531D01*
X5741491Y-11695531D02*
X5751015Y-11686008D01*
X5751015Y-11686008D02*
X5770062Y-11676484D01*
X5960539Y-11676484D02*
X5979586Y-11676484D01*
X5979586Y-11676484D02*
X5998634Y-11686008D01*
X5998634Y-11686008D02*
X6008158Y-11695531D01*
X6008158Y-11695531D02*
X6017682Y-11714579D01*
X6017682Y-11714579D02*
X6027205Y-11752674D01*
X6027205Y-11752674D02*
X6027205Y-11800293D01*
X6027205Y-11800293D02*
X6017682Y-11838388D01*
X6017682Y-11838388D02*
X6008158Y-11857436D01*
X6008158Y-11857436D02*
X5998634Y-11866960D01*
X5998634Y-11866960D02*
X5979586Y-11876484D01*
X5979586Y-11876484D02*
X5960539Y-11876484D01*
X5960539Y-11876484D02*
X5941491Y-11866960D01*
X5941491Y-11866960D02*
X5931967Y-11857436D01*
X5931967Y-11857436D02*
X5922443Y-11838388D01*
X5922443Y-11838388D02*
X5912920Y-11800293D01*
X5912920Y-11800293D02*
X5912920Y-11752674D01*
X5912920Y-11752674D02*
X5922443Y-11714579D01*
X5922443Y-11714579D02*
X5931967Y-11695531D01*
X5931967Y-11695531D02*
X5941491Y-11686008D01*
X5941491Y-11686008D02*
X5960539Y-11676484D01*
X6112920Y-11876484D02*
X6112920Y-11743150D01*
X6112920Y-11762198D02*
X6122443Y-11752674D01*
X6122443Y-11752674D02*
X6141491Y-11743150D01*
X6141491Y-11743150D02*
X6170063Y-11743150D01*
X6170063Y-11743150D02*
X6189110Y-11752674D01*
X6189110Y-11752674D02*
X6198634Y-11771722D01*
X6198634Y-11771722D02*
X6198634Y-11876484D01*
X6198634Y-11771722D02*
X6208158Y-11752674D01*
X6208158Y-11752674D02*
X6227205Y-11743150D01*
X6227205Y-11743150D02*
X6255777Y-11743150D01*
X6255777Y-11743150D02*
X6274824Y-11752674D01*
X6274824Y-11752674D02*
X6284348Y-11771722D01*
X6284348Y-11771722D02*
X6284348Y-11876484D01*
X6379586Y-11876484D02*
X6379586Y-11743150D01*
X6379586Y-11762198D02*
X6389110Y-11752674D01*
X6389110Y-11752674D02*
X6408158Y-11743150D01*
X6408158Y-11743150D02*
X6436729Y-11743150D01*
X6436729Y-11743150D02*
X6455777Y-11752674D01*
X6455777Y-11752674D02*
X6465301Y-11771722D01*
X6465301Y-11771722D02*
X6465301Y-11876484D01*
X6465301Y-11771722D02*
X6474824Y-11752674D01*
X6474824Y-11752674D02*
X6493872Y-11743150D01*
X6493872Y-11743150D02*
X6522443Y-11743150D01*
X6522443Y-11743150D02*
X6541491Y-11752674D01*
X6541491Y-11752674D02*
X6551015Y-11771722D01*
X6551015Y-11771722D02*
X6551015Y-11876484D01*
X6941491Y-11666960D02*
X6770063Y-11924103D01*
X7198634Y-11676484D02*
X7217682Y-11676484D01*
X7217682Y-11676484D02*
X7236729Y-11686008D01*
X7236729Y-11686008D02*
X7246253Y-11695531D01*
X7246253Y-11695531D02*
X7255777Y-11714579D01*
X7255777Y-11714579D02*
X7265301Y-11752674D01*
X7265301Y-11752674D02*
X7265301Y-11800293D01*
X7265301Y-11800293D02*
X7255777Y-11838388D01*
X7255777Y-11838388D02*
X7246253Y-11857436D01*
X7246253Y-11857436D02*
X7236729Y-11866960D01*
X7236729Y-11866960D02*
X7217682Y-11876484D01*
X7217682Y-11876484D02*
X7198634Y-11876484D01*
X7198634Y-11876484D02*
X7179586Y-11866960D01*
X7179586Y-11866960D02*
X7170063Y-11857436D01*
X7170063Y-11857436D02*
X7160539Y-11838388D01*
X7160539Y-11838388D02*
X7151015Y-11800293D01*
X7151015Y-11800293D02*
X7151015Y-11752674D01*
X7151015Y-11752674D02*
X7160539Y-11714579D01*
X7160539Y-11714579D02*
X7170063Y-11695531D01*
X7170063Y-11695531D02*
X7179586Y-11686008D01*
X7179586Y-11686008D02*
X7198634Y-11676484D01*
X7360539Y-11866960D02*
X7360539Y-11876484D01*
X7360539Y-11876484D02*
X7351015Y-11895531D01*
X7351015Y-11895531D02*
X7341491Y-11905055D01*
X7551015Y-11876484D02*
X7436729Y-11876484D01*
X7493872Y-11876484D02*
X7493872Y-11676484D01*
X7493872Y-11676484D02*
X7474825Y-11705055D01*
X7474825Y-11705055D02*
X7455777Y-11724103D01*
X7455777Y-11724103D02*
X7436729Y-11733627D01*
X7627206Y-11695531D02*
X7636729Y-11686008D01*
X7636729Y-11686008D02*
X7655777Y-11676484D01*
X7655777Y-11676484D02*
X7703396Y-11676484D01*
X7703396Y-11676484D02*
X7722444Y-11686008D01*
X7722444Y-11686008D02*
X7731967Y-11695531D01*
X7731967Y-11695531D02*
X7741491Y-11714579D01*
X7741491Y-11714579D02*
X7741491Y-11733627D01*
X7741491Y-11733627D02*
X7731967Y-11762198D01*
X7731967Y-11762198D02*
X7617682Y-11876484D01*
X7617682Y-11876484D02*
X7741491Y-11876484D01*
X7912920Y-11676484D02*
X7874825Y-11676484D01*
X7874825Y-11676484D02*
X7855777Y-11686008D01*
X7855777Y-11686008D02*
X7846253Y-11695531D01*
X7846253Y-11695531D02*
X7827206Y-11724103D01*
X7827206Y-11724103D02*
X7817682Y-11762198D01*
X7817682Y-11762198D02*
X7817682Y-11838388D01*
X7817682Y-11838388D02*
X7827206Y-11857436D01*
X7827206Y-11857436D02*
X7836729Y-11866960D01*
X7836729Y-11866960D02*
X7855777Y-11876484D01*
X7855777Y-11876484D02*
X7893872Y-11876484D01*
X7893872Y-11876484D02*
X7912920Y-11866960D01*
X7912920Y-11866960D02*
X7922444Y-11857436D01*
X7922444Y-11857436D02*
X7931967Y-11838388D01*
X7931967Y-11838388D02*
X7931967Y-11790769D01*
X7931967Y-11790769D02*
X7922444Y-11771722D01*
X7922444Y-11771722D02*
X7912920Y-11762198D01*
X7912920Y-11762198D02*
X7893872Y-11752674D01*
X7893872Y-11752674D02*
X7855777Y-11752674D01*
X7855777Y-11752674D02*
X7836729Y-11762198D01*
X7836729Y-11762198D02*
X7827206Y-11771722D01*
X7827206Y-11771722D02*
X7817682Y-11790769D01*
X8055777Y-11676484D02*
X8074825Y-11676484D01*
X8074825Y-11676484D02*
X8093872Y-11686008D01*
X8093872Y-11686008D02*
X8103396Y-11695531D01*
X8103396Y-11695531D02*
X8112920Y-11714579D01*
X8112920Y-11714579D02*
X8122444Y-11752674D01*
X8122444Y-11752674D02*
X8122444Y-11800293D01*
X8122444Y-11800293D02*
X8112920Y-11838388D01*
X8112920Y-11838388D02*
X8103396Y-11857436D01*
X8103396Y-11857436D02*
X8093872Y-11866960D01*
X8093872Y-11866960D02*
X8074825Y-11876484D01*
X8074825Y-11876484D02*
X8055777Y-11876484D01*
X8055777Y-11876484D02*
X8036729Y-11866960D01*
X8036729Y-11866960D02*
X8027206Y-11857436D01*
X8027206Y-11857436D02*
X8017682Y-11838388D01*
X8017682Y-11838388D02*
X8008158Y-11800293D01*
X8008158Y-11800293D02*
X8008158Y-11752674D01*
X8008158Y-11752674D02*
X8017682Y-11714579D01*
X8017682Y-11714579D02*
X8027206Y-11695531D01*
X8027206Y-11695531D02*
X8036729Y-11686008D01*
X8036729Y-11686008D02*
X8055777Y-11676484D01*
X8198634Y-11676484D02*
X8198634Y-11714579D01*
X8274825Y-11676484D02*
X8274825Y-11714579D01*
X8570063Y-11952674D02*
X8560539Y-11943150D01*
X8560539Y-11943150D02*
X8541491Y-11914579D01*
X8541491Y-11914579D02*
X8531968Y-11895531D01*
X8531968Y-11895531D02*
X8522444Y-11866960D01*
X8522444Y-11866960D02*
X8512920Y-11819341D01*
X8512920Y-11819341D02*
X8512920Y-11781246D01*
X8512920Y-11781246D02*
X8522444Y-11733627D01*
X8522444Y-11733627D02*
X8531968Y-11705055D01*
X8531968Y-11705055D02*
X8541491Y-11686008D01*
X8541491Y-11686008D02*
X8560539Y-11657436D01*
X8560539Y-11657436D02*
X8570063Y-11647912D01*
X8731968Y-11743150D02*
X8731968Y-11876484D01*
X8684349Y-11666960D02*
X8636730Y-11809817D01*
X8636730Y-11809817D02*
X8760539Y-11809817D01*
X8989111Y-11876484D02*
X8989111Y-11676484D01*
X9074825Y-11876484D02*
X9074825Y-11771722D01*
X9074825Y-11771722D02*
X9065301Y-11752674D01*
X9065301Y-11752674D02*
X9046253Y-11743150D01*
X9046253Y-11743150D02*
X9017682Y-11743150D01*
X9017682Y-11743150D02*
X8998634Y-11752674D01*
X8998634Y-11752674D02*
X8989111Y-11762198D01*
X9198634Y-11876484D02*
X9179587Y-11866960D01*
X9179587Y-11866960D02*
X9170063Y-11857436D01*
X9170063Y-11857436D02*
X9160539Y-11838388D01*
X9160539Y-11838388D02*
X9160539Y-11781246D01*
X9160539Y-11781246D02*
X9170063Y-11762198D01*
X9170063Y-11762198D02*
X9179587Y-11752674D01*
X9179587Y-11752674D02*
X9198634Y-11743150D01*
X9198634Y-11743150D02*
X9227206Y-11743150D01*
X9227206Y-11743150D02*
X9246253Y-11752674D01*
X9246253Y-11752674D02*
X9255777Y-11762198D01*
X9255777Y-11762198D02*
X9265301Y-11781246D01*
X9265301Y-11781246D02*
X9265301Y-11838388D01*
X9265301Y-11838388D02*
X9255777Y-11857436D01*
X9255777Y-11857436D02*
X9246253Y-11866960D01*
X9246253Y-11866960D02*
X9227206Y-11876484D01*
X9227206Y-11876484D02*
X9198634Y-11876484D01*
X9379587Y-11876484D02*
X9360539Y-11866960D01*
X9360539Y-11866960D02*
X9351015Y-11847912D01*
X9351015Y-11847912D02*
X9351015Y-11676484D01*
X9531968Y-11866960D02*
X9512920Y-11876484D01*
X9512920Y-11876484D02*
X9474825Y-11876484D01*
X9474825Y-11876484D02*
X9455777Y-11866960D01*
X9455777Y-11866960D02*
X9446253Y-11847912D01*
X9446253Y-11847912D02*
X9446253Y-11771722D01*
X9446253Y-11771722D02*
X9455777Y-11752674D01*
X9455777Y-11752674D02*
X9474825Y-11743150D01*
X9474825Y-11743150D02*
X9512920Y-11743150D01*
X9512920Y-11743150D02*
X9531968Y-11752674D01*
X9531968Y-11752674D02*
X9541492Y-11771722D01*
X9541492Y-11771722D02*
X9541492Y-11790769D01*
X9541492Y-11790769D02*
X9446253Y-11809817D01*
X9617682Y-11866960D02*
X9636730Y-11876484D01*
X9636730Y-11876484D02*
X9674825Y-11876484D01*
X9674825Y-11876484D02*
X9693873Y-11866960D01*
X9693873Y-11866960D02*
X9703396Y-11847912D01*
X9703396Y-11847912D02*
X9703396Y-11838388D01*
X9703396Y-11838388D02*
X9693873Y-11819341D01*
X9693873Y-11819341D02*
X9674825Y-11809817D01*
X9674825Y-11809817D02*
X9646253Y-11809817D01*
X9646253Y-11809817D02*
X9627206Y-11800293D01*
X9627206Y-11800293D02*
X9617682Y-11781246D01*
X9617682Y-11781246D02*
X9617682Y-11771722D01*
X9617682Y-11771722D02*
X9627206Y-11752674D01*
X9627206Y-11752674D02*
X9646253Y-11743150D01*
X9646253Y-11743150D02*
X9674825Y-11743150D01*
X9674825Y-11743150D02*
X9693873Y-11752674D01*
X9770063Y-11952674D02*
X9779587Y-11943150D01*
X9779587Y-11943150D02*
X9798634Y-11914579D01*
X9798634Y-11914579D02*
X9808158Y-11895531D01*
X9808158Y-11895531D02*
X9817682Y-11866960D01*
X9817682Y-11866960D02*
X9827206Y-11819341D01*
X9827206Y-11819341D02*
X9827206Y-11781246D01*
X9827206Y-11781246D02*
X9817682Y-11733627D01*
X9817682Y-11733627D02*
X9808158Y-11705055D01*
X9808158Y-11705055D02*
X9798634Y-11686008D01*
X9798634Y-11686008D02*
X9779587Y-11657436D01*
X9779587Y-11657436D02*
X9770063Y-11647912D01*
X10131968Y-11952674D02*
X10122444Y-11943150D01*
X10122444Y-11943150D02*
X10103396Y-11914579D01*
X10103396Y-11914579D02*
X10093873Y-11895531D01*
X10093873Y-11895531D02*
X10084349Y-11866960D01*
X10084349Y-11866960D02*
X10074825Y-11819341D01*
X10074825Y-11819341D02*
X10074825Y-11781246D01*
X10074825Y-11781246D02*
X10084349Y-11733627D01*
X10084349Y-11733627D02*
X10093873Y-11705055D01*
X10093873Y-11705055D02*
X10103396Y-11686008D01*
X10103396Y-11686008D02*
X10122444Y-11657436D01*
X10122444Y-11657436D02*
X10131968Y-11647912D01*
X10208158Y-11743150D02*
X10208158Y-11876484D01*
X10208158Y-11762198D02*
X10217682Y-11752674D01*
X10217682Y-11752674D02*
X10236730Y-11743150D01*
X10236730Y-11743150D02*
X10265301Y-11743150D01*
X10265301Y-11743150D02*
X10284349Y-11752674D01*
X10284349Y-11752674D02*
X10293873Y-11771722D01*
X10293873Y-11771722D02*
X10293873Y-11876484D01*
X10417682Y-11876484D02*
X10398634Y-11866960D01*
X10398634Y-11866960D02*
X10389111Y-11857436D01*
X10389111Y-11857436D02*
X10379587Y-11838388D01*
X10379587Y-11838388D02*
X10379587Y-11781246D01*
X10379587Y-11781246D02*
X10389111Y-11762198D01*
X10389111Y-11762198D02*
X10398634Y-11752674D01*
X10398634Y-11752674D02*
X10417682Y-11743150D01*
X10417682Y-11743150D02*
X10446254Y-11743150D01*
X10446254Y-11743150D02*
X10465301Y-11752674D01*
X10465301Y-11752674D02*
X10474825Y-11762198D01*
X10474825Y-11762198D02*
X10484349Y-11781246D01*
X10484349Y-11781246D02*
X10484349Y-11838388D01*
X10484349Y-11838388D02*
X10474825Y-11857436D01*
X10474825Y-11857436D02*
X10465301Y-11866960D01*
X10465301Y-11866960D02*
X10446254Y-11876484D01*
X10446254Y-11876484D02*
X10417682Y-11876484D01*
X10541492Y-11743150D02*
X10617682Y-11743150D01*
X10570063Y-11676484D02*
X10570063Y-11847912D01*
X10570063Y-11847912D02*
X10579587Y-11866960D01*
X10579587Y-11866960D02*
X10598634Y-11876484D01*
X10598634Y-11876484D02*
X10617682Y-11876484D01*
X10836730Y-11743150D02*
X10836730Y-11943150D01*
X10836730Y-11752674D02*
X10855777Y-11743150D01*
X10855777Y-11743150D02*
X10893873Y-11743150D01*
X10893873Y-11743150D02*
X10912920Y-11752674D01*
X10912920Y-11752674D02*
X10922444Y-11762198D01*
X10922444Y-11762198D02*
X10931968Y-11781246D01*
X10931968Y-11781246D02*
X10931968Y-11838388D01*
X10931968Y-11838388D02*
X10922444Y-11857436D01*
X10922444Y-11857436D02*
X10912920Y-11866960D01*
X10912920Y-11866960D02*
X10893873Y-11876484D01*
X10893873Y-11876484D02*
X10855777Y-11876484D01*
X10855777Y-11876484D02*
X10836730Y-11866960D01*
X11046254Y-11876484D02*
X11027206Y-11866960D01*
X11027206Y-11866960D02*
X11017682Y-11847912D01*
X11017682Y-11847912D02*
X11017682Y-11676484D01*
X11208158Y-11876484D02*
X11208158Y-11771722D01*
X11208158Y-11771722D02*
X11198634Y-11752674D01*
X11198634Y-11752674D02*
X11179587Y-11743150D01*
X11179587Y-11743150D02*
X11141492Y-11743150D01*
X11141492Y-11743150D02*
X11122444Y-11752674D01*
X11208158Y-11866960D02*
X11189111Y-11876484D01*
X11189111Y-11876484D02*
X11141492Y-11876484D01*
X11141492Y-11876484D02*
X11122444Y-11866960D01*
X11122444Y-11866960D02*
X11112920Y-11847912D01*
X11112920Y-11847912D02*
X11112920Y-11828865D01*
X11112920Y-11828865D02*
X11122444Y-11809817D01*
X11122444Y-11809817D02*
X11141492Y-11800293D01*
X11141492Y-11800293D02*
X11189111Y-11800293D01*
X11189111Y-11800293D02*
X11208158Y-11790769D01*
X11274825Y-11743150D02*
X11351015Y-11743150D01*
X11303396Y-11676484D02*
X11303396Y-11847912D01*
X11303396Y-11847912D02*
X11312920Y-11866960D01*
X11312920Y-11866960D02*
X11331968Y-11876484D01*
X11331968Y-11876484D02*
X11351015Y-11876484D01*
X11493873Y-11866960D02*
X11474825Y-11876484D01*
X11474825Y-11876484D02*
X11436730Y-11876484D01*
X11436730Y-11876484D02*
X11417682Y-11866960D01*
X11417682Y-11866960D02*
X11408158Y-11847912D01*
X11408158Y-11847912D02*
X11408158Y-11771722D01*
X11408158Y-11771722D02*
X11417682Y-11752674D01*
X11417682Y-11752674D02*
X11436730Y-11743150D01*
X11436730Y-11743150D02*
X11474825Y-11743150D01*
X11474825Y-11743150D02*
X11493873Y-11752674D01*
X11493873Y-11752674D02*
X11503396Y-11771722D01*
X11503396Y-11771722D02*
X11503396Y-11790769D01*
X11503396Y-11790769D02*
X11408158Y-11809817D01*
X11674825Y-11876484D02*
X11674825Y-11676484D01*
X11674825Y-11866960D02*
X11655777Y-11876484D01*
X11655777Y-11876484D02*
X11617682Y-11876484D01*
X11617682Y-11876484D02*
X11598634Y-11866960D01*
X11598634Y-11866960D02*
X11589111Y-11857436D01*
X11589111Y-11857436D02*
X11579587Y-11838388D01*
X11579587Y-11838388D02*
X11579587Y-11781246D01*
X11579587Y-11781246D02*
X11589111Y-11762198D01*
X11589111Y-11762198D02*
X11598634Y-11752674D01*
X11598634Y-11752674D02*
X11617682Y-11743150D01*
X11617682Y-11743150D02*
X11655777Y-11743150D01*
X11655777Y-11743150D02*
X11674825Y-11752674D01*
X11751015Y-11952674D02*
X11760539Y-11943150D01*
X11760539Y-11943150D02*
X11779587Y-11914579D01*
X11779587Y-11914579D02*
X11789111Y-11895531D01*
X11789111Y-11895531D02*
X11798634Y-11866960D01*
X11798634Y-11866960D02*
X11808158Y-11819341D01*
X11808158Y-11819341D02*
X11808158Y-11781246D01*
X11808158Y-11781246D02*
X11798634Y-11733627D01*
X11798634Y-11733627D02*
X11789111Y-11705055D01*
X11789111Y-11705055D02*
X11779587Y-11686008D01*
X11779587Y-11686008D02*
X11760539Y-11657436D01*
X11760539Y-11657436D02*
X11751015Y-11647912D01*
M02*
