%TF.GenerationSoftware,KiCad,Pcbnew,10.0.5*%
%TF.CreationDate,2026-08-09T16:09:25+02:00*%
%TF.ProjectId,canfuel,63616e66-7565-46c2-9e6b-696361645f70,rev?*%
%TF.SameCoordinates,Original*%
%TF.FileFunction,Copper,L1,Top*%
%TF.FilePolarity,Positive*%
%FSLAX46Y46*%
G04 Gerber Fmt 4.6, Leading zero omitted, Abs format (unit mm)*
G04 Created by KiCad (PCBNEW 10.0.5) date 2026-08-09 16:09:25*
%MOMM*%
%LPD*%
G01*
G04 APERTURE LIST*
G04 Aperture macros list*
%AMRoundRect*
0 Rectangle with rounded corners*
0 $1 Rounding radius*
0 $2 $3 $4 $5 $6 $7 $8 $9 X,Y pos of 4 corners*
0 Add a 4 corners polygon primitive as box body*
4,1,4,$2,$3,$4,$5,$6,$7,$8,$9,$2,$3,0*
0 Add four circle primitives for the rounded corners*
1,1,$1+$1,$2,$3*
1,1,$1+$1,$4,$5*
1,1,$1+$1,$6,$7*
1,1,$1+$1,$8,$9*
0 Add four rect primitives between the rounded corners*
20,1,$1+$1,$2,$3,$4,$5,0*
20,1,$1+$1,$4,$5,$6,$7,0*
20,1,$1+$1,$6,$7,$8,$9,0*
20,1,$1+$1,$8,$9,$2,$3,0*%
G04 Aperture macros list end*
%TA.AperFunction,ComponentPad*%
%ADD10RoundRect,0.250001X0.499999X0.499999X-0.499999X0.499999X-0.499999X-0.499999X0.499999X-0.499999X0*%
%TD*%
%TA.AperFunction,ComponentPad*%
%ADD11C,1.500000*%
%TD*%
%TA.AperFunction,ComponentPad*%
%ADD12C,1.600000*%
%TD*%
%TA.AperFunction,ComponentPad*%
%ADD13R,1.800000X1.800000*%
%TD*%
%TA.AperFunction,ComponentPad*%
%ADD14C,1.800000*%
%TD*%
%TA.AperFunction,ComponentPad*%
%ADD15RoundRect,0.250000X-0.550000X-0.550000X0.550000X-0.550000X0.550000X0.550000X-0.550000X0.550000X0*%
%TD*%
%TA.AperFunction,ComponentPad*%
%ADD16RoundRect,0.250000X-0.550000X0.550000X-0.550000X-0.550000X0.550000X-0.550000X0.550000X0.550000X0*%
%TD*%
%TA.AperFunction,ComponentPad*%
%ADD17R,1.700000X1.700000*%
%TD*%
%TA.AperFunction,ComponentPad*%
%ADD18C,1.700000*%
%TD*%
%TA.AperFunction,ViaPad*%
%ADD19C,0.600000*%
%TD*%
%TA.AperFunction,Conductor*%
%ADD20C,0.800000*%
%TD*%
%TA.AperFunction,Conductor*%
%ADD21C,0.400000*%
%TD*%
%TA.AperFunction,Conductor*%
%ADD22C,0.250000*%
%TD*%
G04 APERTURE END LIST*
D10*
%TO.P,J2,1*%
%TO.N,+5V*%
X76600000Y-85200000D03*
D11*
%TO.P,J2,2*%
%TO.N,SGND*%
X73600000Y-85200000D03*
%TO.P,J2,3*%
%TO.N,CANH*%
X76600000Y-82200000D03*
%TO.P,J2,4*%
%TO.N,CANL*%
X73600000Y-82200000D03*
%TD*%
D12*
%TO.P,C4,1*%
%TO.N,+5V*%
X80200000Y-78000000D03*
%TO.P,C4,2*%
%TO.N,SGND*%
X75200000Y-78000000D03*
%TD*%
%TO.P,R2,1*%
%TO.N,DBG_EN*%
X66000000Y-52600000D03*
%TO.P,R2,2*%
%TO.N,SGND*%
X68540000Y-52600000D03*
%TD*%
D13*
%TO.P,D2,1*%
%TO.N,SGND*%
X51700000Y-74500000D03*
D14*
%TO.P,D2,2*%
%TO.N,LED_CAN_A*%
X54240000Y-74500000D03*
%TD*%
D12*
%TO.P,C3,1*%
%TO.N,+5V*%
X70000000Y-73800000D03*
%TO.P,C3,2*%
%TO.N,SGND*%
X75000000Y-73800000D03*
%TD*%
%TO.P,C2,1*%
%TO.N,OSC2*%
X67500000Y-60300000D03*
%TO.P,C2,2*%
%TO.N,SGND*%
X67500000Y-55300000D03*
%TD*%
%TO.P,R3,1*%
%TO.N,LED_PWR*%
X51900000Y-59500000D03*
%TO.P,R3,2*%
%TO.N,LED_PWR_A*%
X54440000Y-59500000D03*
%TD*%
D15*
%TO.P,C6,1*%
%TO.N,+5V*%
X52150000Y-81000000D03*
D12*
%TO.P,C6,2*%
%TO.N,SGND*%
X54150000Y-81000000D03*
%TD*%
%TO.P,C1,1*%
%TO.N,OSC1*%
X83000000Y-60300000D03*
%TO.P,C1,2*%
%TO.N,SGND*%
X83000000Y-55300000D03*
%TD*%
%TO.P,R1,1*%
%TO.N,+5V*%
X89020000Y-59800000D03*
%TO.P,R1,2*%
%TO.N,MCLR_RC*%
X91560000Y-59800000D03*
%TD*%
%TO.P,R5,1*%
%TO.N,CANH*%
X85520000Y-91500000D03*
%TO.P,R5,2*%
%TO.N,CANL*%
X88060000Y-91500000D03*
%TD*%
%TO.P,C5,1*%
%TO.N,+5V*%
X82000000Y-88000000D03*
%TO.P,C5,2*%
%TO.N,SGND*%
X87000000Y-88000000D03*
%TD*%
D16*
%TO.P,U1,1*%
%TO.N,~{MCLR}*%
X95020000Y-63000000D03*
D12*
%TO.P,U1,2*%
%TO.N,DBG_EN*%
X92480000Y-63000000D03*
%TO.P,U1,3*%
%TO.N,unconnected-(U1-RA1{slash}AN1-Pad3)*%
X89940000Y-63000000D03*
%TO.P,U1,4*%
%TO.N,unconnected-(U1-RA2{slash}Vref-{slash}AN2-Pad4)*%
X87400000Y-63000000D03*
%TO.P,U1,5*%
%TO.N,unconnected-(U1-RA3{slash}Vref+{slash}AN3-Pad5)*%
X84860000Y-63000000D03*
%TO.P,U1,6*%
%TO.N,VCAP*%
X82320000Y-63000000D03*
%TO.P,U1,7*%
%TO.N,unconnected-(U1-RA5{slash}AN4-Pad7)*%
X79780000Y-63000000D03*
%TO.P,U1,8*%
%TO.N,SGND*%
X77240000Y-63000000D03*
%TO.P,U1,9*%
%TO.N,OSC1*%
X74700000Y-63000000D03*
%TO.P,U1,10*%
%TO.N,OSC2*%
X72160000Y-63000000D03*
%TO.P,U1,11*%
%TO.N,LED_PWR*%
X69620000Y-63000000D03*
%TO.P,U1,12*%
%TO.N,LED_CAN*%
X67080000Y-63000000D03*
%TO.P,U1,13*%
%TO.N,unconnected-(U1-CCP2{slash}RC2-Pad13)*%
X64540000Y-63000000D03*
%TO.P,U1,14*%
%TO.N,unconnected-(U1-SCL{slash}SCK{slash}RC3-Pad14)*%
X62000000Y-63000000D03*
%TO.P,U1,15*%
%TO.N,unconnected-(U1-SDA{slash}SDI{slash}RC4-Pad15)*%
X62000000Y-70620000D03*
%TO.P,U1,16*%
%TO.N,unconnected-(U1-SDO{slash}RC5-Pad16)*%
X64540000Y-70620000D03*
%TO.P,U1,17*%
%TO.N,unconnected-(U1-CANTX{slash}TX1{slash}CCP3{slash}RC6-Pad17)*%
X67080000Y-70620000D03*
%TO.P,U1,18*%
%TO.N,unconnected-(U1-CANRX{slash}RX1{slash}CCP4{slash}RC7-Pad18)*%
X69620000Y-70620000D03*
%TO.P,U1,19*%
%TO.N,SGND*%
X72160000Y-70620000D03*
%TO.P,U1,20*%
%TO.N,+5V*%
X74700000Y-70620000D03*
%TO.P,U1,21*%
%TO.N,unconnected-(U1-AN10{slash}INT0{slash}RB0-Pad21)*%
X77240000Y-70620000D03*
%TO.P,U1,22*%
%TO.N,unconnected-(U1-AN8{slash}INT1{slash}RB1-Pad22)*%
X79780000Y-70620000D03*
%TO.P,U1,23*%
%TO.N,CAN_TX*%
X82320000Y-70620000D03*
%TO.P,U1,24*%
%TO.N,CAN_RX*%
X84860000Y-70620000D03*
%TO.P,U1,25*%
%TO.N,unconnected-(U1-AN9{slash}ECCP1{slash}RB4-Pad25)*%
X87400000Y-70620000D03*
%TO.P,U1,26*%
%TO.N,unconnected-(U1-CCP5{slash}RB5-Pad26)*%
X89940000Y-70620000D03*
%TO.P,U1,27*%
%TO.N,PGC*%
X92480000Y-70620000D03*
%TO.P,U1,28*%
%TO.N,PGD*%
X95020000Y-70620000D03*
%TD*%
%TO.P,R6,1*%
%TO.N,MCLR_RC*%
X99020000Y-61400000D03*
%TO.P,R6,2*%
%TO.N,~{MCLR}*%
X99020000Y-58860000D03*
%TD*%
%TO.P,R4,1*%
%TO.N,LED_CAN*%
X51900000Y-69500000D03*
%TO.P,R4,2*%
%TO.N,LED_CAN_A*%
X54440000Y-69500000D03*
%TD*%
D17*
%TO.P,JP1,1*%
%TO.N,+5V*%
X60000000Y-53000000D03*
D18*
%TO.P,JP1,2*%
%TO.N,DBG_EN*%
X62540000Y-53000000D03*
%TD*%
D17*
%TO.P,J3,1*%
%TO.N,~{MCLR}*%
X61000000Y-78500000D03*
D18*
%TO.P,J3,2*%
%TO.N,+5V*%
X63540000Y-78500000D03*
%TO.P,J3,3*%
%TO.N,SGND*%
X66080000Y-78500000D03*
%TO.P,J3,4*%
%TO.N,PGD*%
X68620000Y-78500000D03*
%TO.P,J3,5*%
%TO.N,PGC*%
X71160000Y-78500000D03*
%TD*%
D16*
%TO.P,U2,1*%
%TO.N,CAN_TX*%
X90600000Y-76000000D03*
D12*
%TO.P,U2,2*%
%TO.N,SGND*%
X88060000Y-76000000D03*
%TO.P,U2,3*%
%TO.N,+5V*%
X85520000Y-76000000D03*
%TO.P,U2,4*%
%TO.N,CAN_RX*%
X82980000Y-76000000D03*
%TO.P,U2,5*%
%TO.N,+5V*%
X82980000Y-83620000D03*
%TO.P,U2,6*%
%TO.N,CANL*%
X85520000Y-83620000D03*
%TO.P,U2,7*%
%TO.N,CANH*%
X88060000Y-83620000D03*
%TO.P,U2,8*%
%TO.N,SGND*%
X90600000Y-83620000D03*
%TD*%
D11*
%TO.P,Y1,1*%
%TO.N,OSC1*%
X77500000Y-58500000D03*
%TO.P,Y1,2*%
%TO.N,OSC2*%
X72620000Y-58500000D03*
%TD*%
D17*
%TO.P,JP2,1*%
%TO.N,MCLR_RC*%
X98620000Y-65400000D03*
D18*
%TO.P,JP2,2*%
%TO.N,MCLR_C*%
X98620000Y-67940000D03*
%TD*%
D10*
%TO.P,J1,1*%
%TO.N,+5V*%
X64900000Y-85200000D03*
D11*
%TO.P,J1,2*%
%TO.N,SGND*%
X61900000Y-85200000D03*
%TO.P,J1,3*%
%TO.N,CANH*%
X64900000Y-82200000D03*
%TO.P,J1,4*%
%TO.N,CANL*%
X61900000Y-82200000D03*
%TD*%
D13*
%TO.P,D1,1*%
%TO.N,SGND*%
X51700000Y-64500000D03*
D14*
%TO.P,D1,2*%
%TO.N,LED_PWR_A*%
X54240000Y-64500000D03*
%TD*%
D12*
%TO.P,C8,1*%
%TO.N,MCLR_C*%
X95420000Y-59800000D03*
%TO.P,C8,2*%
%TO.N,SGND*%
X95420000Y-57300000D03*
%TD*%
D19*
%TO.N,LED_PWR*%
X59200000Y-69000000D03*
X68600000Y-63600000D03*
X67400000Y-65200000D03*
%TO.N,~{MCLR}*%
X93800000Y-75600000D03*
%TO.N,LED_CAN*%
X66200000Y-65200000D03*
%TO.N,PGD*%
X92200000Y-75600000D03*
%TD*%
%TO.N,+5V*%
D20*
X72000000Y-73800000D02*
X73800000Y-72000000D01*
X92200000Y-82200000D02*
X92200000Y-90200000D01*
X62600000Y-80000000D02*
X62600000Y-79400000D01*
X63600000Y-80600000D02*
X63400000Y-80800000D01*
X84600000Y-77400000D02*
X84600000Y-77000000D01*
X65000000Y-69000000D02*
X60400000Y-64400000D01*
X74800000Y-70200000D02*
X73600000Y-69000000D01*
X76600000Y-74400000D02*
X80200000Y-78000000D01*
X60400000Y-53400000D02*
X60000000Y-53000000D01*
X84600000Y-77000000D02*
X85600000Y-76000000D01*
X63600000Y-77800000D02*
X64599999Y-76800000D01*
X64599999Y-76800000D02*
X67000000Y-76800000D01*
X52800000Y-79400000D02*
X58800000Y-79400000D01*
X92200000Y-90200000D02*
X89400000Y-93000000D01*
X74800000Y-70600000D02*
X74800000Y-70200000D01*
X79400000Y-88000000D02*
X76600000Y-85200000D01*
X59600000Y-80200000D02*
X62400000Y-80200000D01*
X80200000Y-78000000D02*
X88000000Y-78000000D01*
X84000000Y-84600000D02*
X83000000Y-83600000D01*
X73800000Y-71600000D02*
X74800000Y-70600000D01*
X88000000Y-78000000D02*
X92200000Y-82200000D01*
X67000000Y-76800000D02*
X70000000Y-73800000D01*
X73600000Y-69000000D02*
X65000000Y-69000000D01*
X73800000Y-72000000D02*
X73800000Y-71600000D01*
X52200000Y-81000000D02*
X52200000Y-80000000D01*
X83000000Y-87000000D02*
X82000000Y-88000000D01*
X80200000Y-78000000D02*
X84000000Y-78000000D01*
X76400000Y-72200000D02*
X76600000Y-72400000D01*
X74800000Y-71200000D02*
X75800000Y-72200000D01*
X63600000Y-78400000D02*
X63600000Y-77800000D01*
X82000000Y-88000000D02*
X79400000Y-88000000D01*
X84000000Y-92800000D02*
X84000000Y-84600000D01*
X89400000Y-93000000D02*
X84200000Y-93000000D01*
X63400000Y-83600000D02*
X65000000Y-85200000D01*
X63400000Y-80800000D02*
X63400000Y-83600000D01*
X83000000Y-83600000D02*
X83000000Y-87000000D01*
X63600000Y-78400000D02*
X63600000Y-80600000D01*
X62600000Y-79400000D02*
X63600000Y-78400000D01*
X76600000Y-72400000D02*
X76600000Y-74400000D01*
X62400000Y-80200000D02*
X62600000Y-80000000D01*
X84200000Y-93000000D02*
X84000000Y-92800000D01*
X74800000Y-70600000D02*
X74800000Y-71200000D01*
X58800000Y-79400000D02*
X59600000Y-80200000D01*
X60400000Y-64400000D02*
X60400000Y-53400000D01*
X52200000Y-80000000D02*
X52800000Y-79400000D01*
X75800000Y-72200000D02*
X76400000Y-72200000D01*
X70000000Y-73800000D02*
X72000000Y-73800000D01*
X84000000Y-78000000D02*
X84600000Y-77400000D01*
%TO.N,CANH*%
D21*
X86800000Y-82200000D02*
X87000000Y-82400000D01*
X88000000Y-84400000D02*
X85600000Y-86800000D01*
X87000000Y-82600000D02*
X88000000Y-83600000D01*
X88000000Y-83600000D02*
X88000000Y-84400000D01*
X87000000Y-82400000D02*
X87000000Y-82600000D01*
X75200000Y-80800000D02*
X76600000Y-82200000D01*
X71000000Y-82200000D02*
X72400000Y-80800000D01*
X65000000Y-82200000D02*
X71000000Y-82200000D01*
X76600000Y-82200000D02*
X86800000Y-82200000D01*
X72400000Y-80800000D02*
X75200000Y-80800000D01*
X85600000Y-86800000D02*
X85600000Y-91600000D01*
%TO.N,LED_CAN_A*%
D22*
X54200000Y-69800000D02*
X54400000Y-69600000D01*
X54200000Y-74400000D02*
X54200000Y-69800000D01*
%TO.N,OSC2*%
X67600000Y-60200000D02*
X69400000Y-60200000D01*
X69400000Y-60200000D02*
X72200000Y-63000000D01*
X72200000Y-58800000D02*
X72600000Y-58400000D01*
X72200000Y-63000000D02*
X72200000Y-58800000D01*
%TO.N,LED_PWR*%
X52000000Y-59600000D02*
X55600000Y-63200000D01*
X67400000Y-65200000D02*
X68400000Y-64200000D01*
X68400000Y-64200000D02*
X68400000Y-63800000D01*
X51800000Y-59600000D02*
X52000000Y-59600000D01*
X55600000Y-65400000D02*
X59200000Y-69000000D01*
X55600000Y-63200000D02*
X55600000Y-65400000D01*
X68400000Y-63800000D02*
X68600000Y-63600000D01*
%TO.N,OSC1*%
X74800000Y-63000000D02*
X74800000Y-61200000D01*
X74800000Y-61200000D02*
X77600000Y-58400000D01*
X81200000Y-58400000D02*
X83000000Y-60200000D01*
X77600000Y-58400000D02*
X81200000Y-58400000D01*
%TO.N,MCLR_RC*%
X99000000Y-61400000D02*
X99000000Y-65000000D01*
X94200000Y-56000000D02*
X96600000Y-56000000D01*
X96800000Y-59200000D02*
X99000000Y-61400000D01*
X91560000Y-59800000D02*
X92800000Y-58560000D01*
X96600000Y-56000000D02*
X96800000Y-56200000D01*
X92800000Y-57400000D02*
X94200000Y-56000000D01*
X99000000Y-65000000D02*
X98600000Y-65400000D01*
X92800000Y-58560000D02*
X92800000Y-57400000D01*
X96800000Y-56200000D02*
X96800000Y-59200000D01*
%TO.N,~{MCLR}*%
X99200000Y-58600000D02*
X99000000Y-58800000D01*
X96400000Y-69000000D02*
X95800000Y-68400000D01*
X100000000Y-69200000D02*
X100000000Y-63000000D01*
X97400000Y-69400000D02*
X99800000Y-69400000D01*
X95800000Y-68400000D02*
X95800000Y-63800000D01*
X96400000Y-71800000D02*
X96400000Y-69000000D01*
X95600000Y-72600000D02*
X96400000Y-71800000D01*
X95600000Y-73800000D02*
X95600000Y-72600000D01*
X100400000Y-59600000D02*
X99400000Y-58600000D01*
X95800000Y-63800000D02*
X95000000Y-63000000D01*
X96600000Y-68600000D02*
X97400000Y-69400000D01*
X93800000Y-75600000D02*
X95600000Y-73800000D01*
X100400000Y-62600000D02*
X100400000Y-59600000D01*
X99800000Y-69400000D02*
X100000000Y-69200000D01*
X95000000Y-63000000D02*
X95000000Y-67600000D01*
X99400000Y-58600000D02*
X99200000Y-58600000D01*
X100000000Y-63000000D02*
X100400000Y-62600000D01*
X95000000Y-67600000D02*
X96000000Y-68600000D01*
X96000000Y-68600000D02*
X96600000Y-68600000D01*
%TO.N,LED_CAN*%
X66200000Y-63800000D02*
X67000000Y-63000000D01*
X66200000Y-65200000D02*
X66200000Y-63800000D01*
%TO.N,CAN_TX*%
X83800000Y-72000000D02*
X86600000Y-72000000D01*
X82400000Y-70600000D02*
X83800000Y-72000000D01*
X86600000Y-72000000D02*
X90600000Y-76000000D01*
%TO.N,PGD*%
X92200000Y-73400000D02*
X95000000Y-70600000D01*
X92200000Y-75600000D02*
X92200000Y-73400000D01*
%TO.N,MCLR_C*%
X95400000Y-59800000D02*
X95400000Y-60800000D01*
X95400000Y-60800000D02*
X96400000Y-61800000D01*
X96400000Y-61800000D02*
X96400000Y-65800000D01*
X96400000Y-65800000D02*
X98600000Y-68000000D01*
%TD*%
%TA.AperFunction,Conductor*%
%TO.N,SGND*%
G36*
X74647614Y-72055446D02*
G01*
X74694044Y-72084702D01*
X75097661Y-72488319D01*
X75131146Y-72549642D01*
X75126162Y-72619334D01*
X75084290Y-72675267D01*
X75018826Y-72699684D01*
X75009980Y-72700000D01*
X74913429Y-72700000D01*
X74742414Y-72727086D01*
X74742411Y-72727086D01*
X74577749Y-72780588D01*
X74577746Y-72780589D01*
X74463212Y-72838948D01*
X75024264Y-73400000D01*
X74947339Y-73400000D01*
X74845606Y-73427259D01*
X74754394Y-73479920D01*
X74679920Y-73554394D01*
X74627259Y-73645606D01*
X74600000Y-73747339D01*
X74600000Y-73852661D01*
X74627259Y-73954394D01*
X74679920Y-74045606D01*
X74754394Y-74120080D01*
X74845606Y-74172741D01*
X74947339Y-74200000D01*
X75052661Y-74200000D01*
X75154394Y-74172741D01*
X75245606Y-74120080D01*
X75320080Y-74045606D01*
X75372741Y-73954394D01*
X75400000Y-73852661D01*
X75400000Y-73775736D01*
X75863181Y-74238917D01*
X75896666Y-74300240D01*
X75899500Y-74326598D01*
X75899500Y-74331006D01*
X75899500Y-74468994D01*
X75899500Y-74468996D01*
X75899499Y-74468996D01*
X75926418Y-74604322D01*
X75926421Y-74604332D01*
X75979222Y-74731807D01*
X76055887Y-74846545D01*
X76055888Y-74846546D01*
X79063181Y-77853838D01*
X79096666Y-77915161D01*
X79099500Y-77941519D01*
X79099500Y-78086610D01*
X79126579Y-78257585D01*
X79126598Y-78257701D01*
X79180127Y-78422445D01*
X79258768Y-78576788D01*
X79360586Y-78716928D01*
X79483072Y-78839414D01*
X79623212Y-78941232D01*
X79777555Y-79019873D01*
X79942299Y-79073402D01*
X80113389Y-79100500D01*
X80113390Y-79100500D01*
X80286610Y-79100500D01*
X80286611Y-79100500D01*
X80457701Y-79073402D01*
X80622445Y-79019873D01*
X80776788Y-78941232D01*
X80916928Y-78839414D01*
X81019524Y-78736818D01*
X81080847Y-78703334D01*
X81107205Y-78700500D01*
X83931006Y-78700500D01*
X84068994Y-78700500D01*
X87658481Y-78700500D01*
X87725520Y-78720185D01*
X87746162Y-78736819D01*
X91463181Y-82453838D01*
X91496666Y-82515161D01*
X91499500Y-82541519D01*
X91499500Y-83093402D01*
X91479815Y-83160441D01*
X91463181Y-83181083D01*
X91024264Y-83620000D01*
X91463181Y-84058917D01*
X91496666Y-84120240D01*
X91499500Y-84146598D01*
X91499500Y-89858481D01*
X91479815Y-89925520D01*
X91463181Y-89946162D01*
X89210636Y-92198706D01*
X89149313Y-92232191D01*
X89079621Y-92227207D01*
X89023688Y-92185335D01*
X88999271Y-92119871D01*
X89012469Y-92054733D01*
X89079873Y-91922445D01*
X89133402Y-91757701D01*
X89160500Y-91586611D01*
X89160500Y-91413389D01*
X89133402Y-91242299D01*
X89079873Y-91077555D01*
X89001232Y-90923212D01*
X88899414Y-90783072D01*
X88776928Y-90660586D01*
X88636788Y-90558768D01*
X88518078Y-90498283D01*
X88482447Y-90480128D01*
X88482446Y-90480127D01*
X88482445Y-90480127D01*
X88317701Y-90426598D01*
X88317699Y-90426597D01*
X88317698Y-90426597D01*
X88177056Y-90404322D01*
X88146611Y-90399500D01*
X87973389Y-90399500D01*
X87942944Y-90404322D01*
X87802302Y-90426597D01*
X87637552Y-90480128D01*
X87483211Y-90558768D01*
X87428388Y-90598600D01*
X87343072Y-90660586D01*
X87343070Y-90660588D01*
X87343069Y-90660588D01*
X87220588Y-90783069D01*
X87220588Y-90783070D01*
X87220586Y-90783072D01*
X87180016Y-90838911D01*
X87118768Y-90923211D01*
X87040128Y-91077552D01*
X86986597Y-91242302D01*
X86959500Y-91413389D01*
X86959500Y-91586611D01*
X86986598Y-91757701D01*
X87006909Y-91820212D01*
X87040128Y-91922447D01*
X87118768Y-92076788D01*
X87137532Y-92102614D01*
X87161012Y-92168420D01*
X87145187Y-92236474D01*
X87095081Y-92285169D01*
X87037214Y-92299500D01*
X86542786Y-92299500D01*
X86475747Y-92279815D01*
X86429992Y-92227011D01*
X86420048Y-92157853D01*
X86442468Y-92102614D01*
X86461232Y-92076788D01*
X86539873Y-91922445D01*
X86593402Y-91757701D01*
X86620500Y-91586611D01*
X86620500Y-91413389D01*
X86593402Y-91242299D01*
X86539873Y-91077555D01*
X86461232Y-90923212D01*
X86359414Y-90783072D01*
X86236928Y-90660586D01*
X86217604Y-90646546D01*
X86151614Y-90598600D01*
X86108948Y-90543270D01*
X86100500Y-90498283D01*
X86100500Y-88961050D01*
X86463211Y-88961050D01*
X86577742Y-89019408D01*
X86742415Y-89072914D01*
X86913429Y-89100000D01*
X87086571Y-89100000D01*
X87257584Y-89072914D01*
X87422254Y-89019408D01*
X87536787Y-88961050D01*
X87000001Y-88424264D01*
X87000000Y-88424264D01*
X86463211Y-88961050D01*
X86100500Y-88961050D01*
X86100500Y-88526598D01*
X86120185Y-88459559D01*
X86136819Y-88438917D01*
X86600000Y-87975736D01*
X86600000Y-88052661D01*
X86627259Y-88154394D01*
X86679920Y-88245606D01*
X86754394Y-88320080D01*
X86845606Y-88372741D01*
X86947339Y-88400000D01*
X87052661Y-88400000D01*
X87154394Y-88372741D01*
X87245606Y-88320080D01*
X87320080Y-88245606D01*
X87372741Y-88154394D01*
X87400000Y-88052661D01*
X87400000Y-87999999D01*
X87424264Y-87999999D01*
X87424264Y-88000001D01*
X87961050Y-88536787D01*
X88019408Y-88422254D01*
X88072914Y-88257584D01*
X88100000Y-88086571D01*
X88100000Y-87913428D01*
X88072914Y-87742415D01*
X88019408Y-87577742D01*
X87961050Y-87463211D01*
X87424264Y-87999999D01*
X87400000Y-87999999D01*
X87400000Y-87947339D01*
X87372741Y-87845606D01*
X87320080Y-87754394D01*
X87245606Y-87679920D01*
X87154394Y-87627259D01*
X87052661Y-87600000D01*
X86975735Y-87600000D01*
X87536786Y-87038948D01*
X87422250Y-86980588D01*
X87257587Y-86927086D01*
X87086571Y-86900000D01*
X86913429Y-86900000D01*
X86742415Y-86927085D01*
X86577742Y-86980591D01*
X86423472Y-87059197D01*
X86327333Y-87129045D01*
X86261527Y-87152524D01*
X86193473Y-87136698D01*
X86144779Y-87086591D01*
X86130904Y-87018113D01*
X86156254Y-86953004D01*
X86166760Y-86941053D01*
X88400500Y-84707314D01*
X88405703Y-84698300D01*
X88456265Y-84650084D01*
X88474781Y-84642363D01*
X88482445Y-84639873D01*
X88597893Y-84581050D01*
X90063211Y-84581050D01*
X90177742Y-84639408D01*
X90342415Y-84692914D01*
X90513429Y-84720000D01*
X90686571Y-84720000D01*
X90857584Y-84692914D01*
X91022254Y-84639408D01*
X91136787Y-84581050D01*
X90600001Y-84044264D01*
X90600000Y-84044264D01*
X90063211Y-84581050D01*
X88597893Y-84581050D01*
X88636788Y-84561232D01*
X88776928Y-84459414D01*
X88899414Y-84336928D01*
X89001232Y-84196788D01*
X89079873Y-84042445D01*
X89133402Y-83877701D01*
X89160500Y-83706611D01*
X89160500Y-83533428D01*
X89500000Y-83533428D01*
X89500000Y-83706571D01*
X89527086Y-83877585D01*
X89527086Y-83877588D01*
X89580588Y-84042250D01*
X89638947Y-84156786D01*
X90175736Y-83620000D01*
X90123075Y-83567339D01*
X90200000Y-83567339D01*
X90200000Y-83672661D01*
X90227259Y-83774394D01*
X90279920Y-83865606D01*
X90354394Y-83940080D01*
X90445606Y-83992741D01*
X90547339Y-84020000D01*
X90652661Y-84020000D01*
X90754394Y-83992741D01*
X90845606Y-83940080D01*
X90920080Y-83865606D01*
X90972741Y-83774394D01*
X91000000Y-83672661D01*
X91000000Y-83567339D01*
X90972741Y-83465606D01*
X90920080Y-83374394D01*
X90845606Y-83299920D01*
X90754394Y-83247259D01*
X90652661Y-83220000D01*
X90547339Y-83220000D01*
X90445606Y-83247259D01*
X90354394Y-83299920D01*
X90279920Y-83374394D01*
X90227259Y-83465606D01*
X90200000Y-83567339D01*
X90123075Y-83567339D01*
X89638948Y-83083212D01*
X89580589Y-83197746D01*
X89580588Y-83197749D01*
X89527086Y-83362411D01*
X89527086Y-83362414D01*
X89500000Y-83533428D01*
X89160500Y-83533428D01*
X89160500Y-83533389D01*
X89133402Y-83362299D01*
X89079873Y-83197555D01*
X89001232Y-83043212D01*
X88899414Y-82903072D01*
X88776928Y-82780586D01*
X88636788Y-82678768D01*
X88597889Y-82658948D01*
X90063212Y-82658948D01*
X90600000Y-83195736D01*
X90600001Y-83195736D01*
X91136787Y-82658948D01*
X91022250Y-82600588D01*
X90857587Y-82547086D01*
X90686571Y-82520000D01*
X90513429Y-82520000D01*
X90342414Y-82547086D01*
X90342411Y-82547086D01*
X90177749Y-82600588D01*
X90177746Y-82600589D01*
X90063212Y-82658948D01*
X88597889Y-82658948D01*
X88482445Y-82600127D01*
X88317701Y-82546598D01*
X88317699Y-82546597D01*
X88317698Y-82546597D01*
X88186271Y-82525781D01*
X88146611Y-82519500D01*
X87973389Y-82519500D01*
X87916359Y-82528532D01*
X87802297Y-82546598D01*
X87762943Y-82559384D01*
X87693102Y-82561377D01*
X87636947Y-82529133D01*
X87536819Y-82429005D01*
X87503334Y-82367682D01*
X87500500Y-82341324D01*
X87500500Y-82334110D01*
X87500500Y-82334108D01*
X87466392Y-82206814D01*
X87400500Y-82092686D01*
X87307314Y-81999500D01*
X87107314Y-81799500D01*
X87050250Y-81766554D01*
X86993187Y-81733608D01*
X86929539Y-81716554D01*
X86865892Y-81699500D01*
X86865891Y-81699500D01*
X77595281Y-81699500D01*
X77528242Y-81679815D01*
X77492180Y-81644392D01*
X77415977Y-81530345D01*
X77415975Y-81530342D01*
X77269657Y-81384024D01*
X77152636Y-81305834D01*
X77097598Y-81269059D01*
X76906420Y-81189870D01*
X76906412Y-81189868D01*
X76703469Y-81149500D01*
X76703465Y-81149500D01*
X76496535Y-81149500D01*
X76496530Y-81149500D01*
X76362008Y-81176258D01*
X76292416Y-81170031D01*
X76250136Y-81142322D01*
X75507316Y-80399502D01*
X75507314Y-80399500D01*
X75450250Y-80366554D01*
X75393187Y-80333608D01*
X75329539Y-80316554D01*
X75265892Y-80299500D01*
X72465892Y-80299500D01*
X72334108Y-80299500D01*
X72206812Y-80333608D01*
X72092686Y-80399500D01*
X72092683Y-80399502D01*
X70829005Y-81663181D01*
X70767682Y-81696666D01*
X70741324Y-81699500D01*
X65895281Y-81699500D01*
X65828242Y-81679815D01*
X65792180Y-81644392D01*
X65715977Y-81530345D01*
X65715975Y-81530342D01*
X65569657Y-81384024D01*
X65452636Y-81305834D01*
X65397598Y-81269059D01*
X65206420Y-81189870D01*
X65206412Y-81189868D01*
X65003469Y-81149500D01*
X65003465Y-81149500D01*
X64796535Y-81149500D01*
X64796530Y-81149500D01*
X64593587Y-81189868D01*
X64593579Y-81189870D01*
X64402403Y-81269058D01*
X64293390Y-81341898D01*
X64226713Y-81362775D01*
X64159333Y-81344290D01*
X64112643Y-81292311D01*
X64100500Y-81238795D01*
X64100500Y-81141519D01*
X64120185Y-81074480D01*
X64136823Y-81053834D01*
X64144112Y-81046545D01*
X64144114Y-81046543D01*
X64220775Y-80931811D01*
X64228390Y-80913428D01*
X64261224Y-80834158D01*
X64273580Y-80804328D01*
X64283513Y-80754394D01*
X64300500Y-80668996D01*
X64300500Y-79417916D01*
X64320185Y-79350877D01*
X64336819Y-79330235D01*
X64417553Y-79249501D01*
X64523996Y-79102994D01*
X64606211Y-78941639D01*
X64662171Y-78769409D01*
X64687780Y-78607720D01*
X64717709Y-78544585D01*
X64777021Y-78507654D01*
X64846883Y-78508652D01*
X64905116Y-78547262D01*
X64932726Y-78607720D01*
X64958317Y-78769293D01*
X65014251Y-78941444D01*
X65014252Y-78941447D01*
X65081772Y-79073961D01*
X65582094Y-78573641D01*
X65614075Y-78692993D01*
X65679901Y-78807007D01*
X65772993Y-78900099D01*
X65887007Y-78965925D01*
X66006357Y-78997905D01*
X65506036Y-79498225D01*
X65638555Y-79565748D01*
X65810706Y-79621682D01*
X65989494Y-79650000D01*
X66170506Y-79650000D01*
X66349293Y-79621682D01*
X66521441Y-79565749D01*
X66653962Y-79498225D01*
X66153642Y-78997905D01*
X66272993Y-78965925D01*
X66387007Y-78900099D01*
X66480099Y-78807007D01*
X66545925Y-78692993D01*
X66577905Y-78573642D01*
X67078225Y-79073962D01*
X67145749Y-78941441D01*
X67201683Y-78769292D01*
X67227273Y-78607721D01*
X67257202Y-78544586D01*
X67316513Y-78507654D01*
X67386376Y-78508652D01*
X67444609Y-78547261D01*
X67472219Y-78607720D01*
X67497828Y-78769410D01*
X67553787Y-78941636D01*
X67553788Y-78941639D01*
X67593650Y-79019871D01*
X67634733Y-79100500D01*
X67636006Y-79102997D01*
X67742441Y-79249494D01*
X67742445Y-79249499D01*
X67870500Y-79377554D01*
X67870505Y-79377558D01*
X67926054Y-79417916D01*
X68017006Y-79483996D01*
X68122484Y-79537740D01*
X68178360Y-79566211D01*
X68178363Y-79566212D01*
X68264476Y-79594191D01*
X68350591Y-79622171D01*
X68433429Y-79635291D01*
X68529449Y-79650500D01*
X68529454Y-79650500D01*
X68710551Y-79650500D01*
X68797259Y-79636765D01*
X68889409Y-79622171D01*
X69061639Y-79566211D01*
X69222994Y-79483996D01*
X69369501Y-79377553D01*
X69497553Y-79249501D01*
X69603996Y-79102994D01*
X69686211Y-78941639D01*
X69742171Y-78769409D01*
X69756422Y-78679425D01*
X69767527Y-78609321D01*
X69797456Y-78546186D01*
X69856768Y-78509255D01*
X69926630Y-78510253D01*
X69984863Y-78548863D01*
X70012473Y-78609321D01*
X70037829Y-78769410D01*
X70093787Y-78941636D01*
X70093788Y-78941639D01*
X70133650Y-79019871D01*
X70174733Y-79100500D01*
X70176006Y-79102997D01*
X70282441Y-79249494D01*
X70282445Y-79249499D01*
X70410500Y-79377554D01*
X70410505Y-79377558D01*
X70466054Y-79417916D01*
X70557006Y-79483996D01*
X70662484Y-79537740D01*
X70718360Y-79566211D01*
X70718363Y-79566212D01*
X70804476Y-79594191D01*
X70890591Y-79622171D01*
X70973429Y-79635291D01*
X71069449Y-79650500D01*
X71069454Y-79650500D01*
X71250551Y-79650500D01*
X71337259Y-79636765D01*
X71429409Y-79622171D01*
X71601639Y-79566211D01*
X71762994Y-79483996D01*
X71909501Y-79377553D01*
X72037553Y-79249501D01*
X72143996Y-79102994D01*
X72216321Y-78961050D01*
X74663211Y-78961050D01*
X74777742Y-79019408D01*
X74942415Y-79072914D01*
X75113429Y-79100000D01*
X75286571Y-79100000D01*
X75457584Y-79072914D01*
X75622254Y-79019408D01*
X75736787Y-78961050D01*
X75200001Y-78424264D01*
X75200000Y-78424264D01*
X74663211Y-78961050D01*
X72216321Y-78961050D01*
X72226211Y-78941639D01*
X72282171Y-78769409D01*
X72310500Y-78590551D01*
X72310500Y-78409448D01*
X72294019Y-78305397D01*
X72282171Y-78230591D01*
X72235377Y-78086571D01*
X72226212Y-78058363D01*
X72226211Y-78058360D01*
X72178565Y-77964851D01*
X72169642Y-77947339D01*
X72152363Y-77913428D01*
X74100000Y-77913428D01*
X74100000Y-78086571D01*
X74127086Y-78257585D01*
X74127086Y-78257588D01*
X74180588Y-78422250D01*
X74238947Y-78536786D01*
X74775736Y-78000000D01*
X74723075Y-77947339D01*
X74800000Y-77947339D01*
X74800000Y-78052661D01*
X74827259Y-78154394D01*
X74879920Y-78245606D01*
X74954394Y-78320080D01*
X75045606Y-78372741D01*
X75147339Y-78400000D01*
X75252661Y-78400000D01*
X75354394Y-78372741D01*
X75445606Y-78320080D01*
X75520080Y-78245606D01*
X75572741Y-78154394D01*
X75600000Y-78052661D01*
X75600000Y-77999999D01*
X75624264Y-77999999D01*
X75624264Y-78000000D01*
X76161050Y-78536787D01*
X76219408Y-78422254D01*
X76272914Y-78257584D01*
X76300000Y-78086571D01*
X76300000Y-77913428D01*
X76272914Y-77742415D01*
X76219408Y-77577742D01*
X76161050Y-77463211D01*
X75624264Y-77999999D01*
X75600000Y-77999999D01*
X75600000Y-77947339D01*
X75572741Y-77845606D01*
X75520080Y-77754394D01*
X75445606Y-77679920D01*
X75354394Y-77627259D01*
X75252661Y-77600000D01*
X75147339Y-77600000D01*
X75045606Y-77627259D01*
X74954394Y-77679920D01*
X74879920Y-77754394D01*
X74827259Y-77845606D01*
X74800000Y-77947339D01*
X74723075Y-77947339D01*
X74238948Y-77463212D01*
X74180589Y-77577746D01*
X74180588Y-77577749D01*
X74127086Y-77742411D01*
X74127086Y-77742414D01*
X74100000Y-77913428D01*
X72152363Y-77913428D01*
X72143996Y-77897006D01*
X72040383Y-77754394D01*
X72037558Y-77750505D01*
X72037554Y-77750500D01*
X71909499Y-77622445D01*
X71909494Y-77622441D01*
X71762997Y-77516006D01*
X71762996Y-77516005D01*
X71762994Y-77516004D01*
X71686906Y-77477235D01*
X71601639Y-77433788D01*
X71601636Y-77433787D01*
X71429410Y-77377829D01*
X71250551Y-77349500D01*
X71250546Y-77349500D01*
X71069454Y-77349500D01*
X71069449Y-77349500D01*
X70890589Y-77377829D01*
X70718363Y-77433787D01*
X70718360Y-77433788D01*
X70557002Y-77516006D01*
X70410505Y-77622441D01*
X70410500Y-77622445D01*
X70282445Y-77750500D01*
X70282441Y-77750505D01*
X70176006Y-77897002D01*
X70093788Y-78058360D01*
X70093787Y-78058363D01*
X70037829Y-78230589D01*
X70012473Y-78390678D01*
X69982544Y-78453813D01*
X69923232Y-78490744D01*
X69853369Y-78489746D01*
X69795137Y-78451136D01*
X69767527Y-78390678D01*
X69753740Y-78303639D01*
X69742171Y-78230591D01*
X69695377Y-78086571D01*
X69686212Y-78058363D01*
X69686211Y-78058360D01*
X69638565Y-77964851D01*
X69603996Y-77897006D01*
X69500383Y-77754394D01*
X69497558Y-77750505D01*
X69497554Y-77750500D01*
X69369499Y-77622445D01*
X69369494Y-77622441D01*
X69222997Y-77516006D01*
X69222996Y-77516005D01*
X69222994Y-77516004D01*
X69146906Y-77477235D01*
X69061639Y-77433788D01*
X69061636Y-77433787D01*
X68889410Y-77377829D01*
X68710551Y-77349500D01*
X68710546Y-77349500D01*
X68529454Y-77349500D01*
X68529449Y-77349500D01*
X68350589Y-77377829D01*
X68178363Y-77433787D01*
X68178360Y-77433788D01*
X68017002Y-77516006D01*
X67870505Y-77622441D01*
X67870500Y-77622445D01*
X67742445Y-77750500D01*
X67742441Y-77750505D01*
X67636006Y-77897002D01*
X67553788Y-78058360D01*
X67553787Y-78058363D01*
X67497829Y-78230589D01*
X67472219Y-78392280D01*
X67442289Y-78455414D01*
X67382978Y-78492345D01*
X67313115Y-78491347D01*
X67254883Y-78452737D01*
X67227273Y-78392279D01*
X67201682Y-78230706D01*
X67145748Y-78058555D01*
X67078225Y-77926036D01*
X66577905Y-78426357D01*
X66545925Y-78307007D01*
X66480099Y-78192993D01*
X66387007Y-78099901D01*
X66272993Y-78034075D01*
X66153642Y-78002094D01*
X66618917Y-77536819D01*
X66680240Y-77503334D01*
X66706598Y-77500500D01*
X67068996Y-77500500D01*
X67185958Y-77477234D01*
X67204328Y-77473580D01*
X67300390Y-77433790D01*
X67331807Y-77420777D01*
X67331808Y-77420776D01*
X67331811Y-77420775D01*
X67446543Y-77344114D01*
X67576526Y-77214131D01*
X67751710Y-77038948D01*
X74663212Y-77038948D01*
X75200000Y-77575736D01*
X75200001Y-77575736D01*
X75736787Y-77038948D01*
X75622250Y-76980588D01*
X75457587Y-76927086D01*
X75286571Y-76900000D01*
X75113429Y-76900000D01*
X74942414Y-76927086D01*
X74942411Y-76927086D01*
X74777749Y-76980588D01*
X74777746Y-76980589D01*
X74663212Y-77038948D01*
X67751710Y-77038948D01*
X67796386Y-76994272D01*
X69853837Y-74936819D01*
X69915160Y-74903334D01*
X69941518Y-74900500D01*
X70086610Y-74900500D01*
X70086611Y-74900500D01*
X70257701Y-74873402D01*
X70422445Y-74819873D01*
X70537893Y-74761050D01*
X74463211Y-74761050D01*
X74577742Y-74819408D01*
X74742415Y-74872914D01*
X74913429Y-74900000D01*
X75086571Y-74900000D01*
X75257584Y-74872914D01*
X75422254Y-74819408D01*
X75536787Y-74761050D01*
X75000001Y-74224264D01*
X75000000Y-74224264D01*
X74463211Y-74761050D01*
X70537893Y-74761050D01*
X70576788Y-74741232D01*
X70716928Y-74639414D01*
X70819524Y-74536818D01*
X70880848Y-74503334D01*
X70907205Y-74500500D01*
X72068996Y-74500500D01*
X72160040Y-74482389D01*
X72204328Y-74473580D01*
X72268069Y-74447177D01*
X72331807Y-74420777D01*
X72331808Y-74420776D01*
X72331811Y-74420775D01*
X72446543Y-74344114D01*
X73077229Y-73713428D01*
X73900000Y-73713428D01*
X73900000Y-73886571D01*
X73927086Y-74057585D01*
X73927086Y-74057588D01*
X73980588Y-74222250D01*
X74038947Y-74336786D01*
X74575736Y-73800000D01*
X74038948Y-73263212D01*
X73980589Y-73377746D01*
X73980588Y-73377749D01*
X73927086Y-73542411D01*
X73927086Y-73542414D01*
X73900000Y-73713428D01*
X73077229Y-73713428D01*
X73400826Y-73389831D01*
X74046542Y-72744114D01*
X74344113Y-72446543D01*
X74372321Y-72404328D01*
X74377550Y-72396503D01*
X74397050Y-72367317D01*
X74420775Y-72331811D01*
X74451707Y-72257134D01*
X74473580Y-72204329D01*
X74484746Y-72148190D01*
X74517130Y-72086282D01*
X74577845Y-72051707D01*
X74647614Y-72055446D01*
G37*
%TD.AperFunction*%
%TA.AperFunction,Conductor*%
G36*
X65520441Y-77520185D02*
G01*
X65541083Y-77536819D01*
X66006358Y-78002094D01*
X65887007Y-78034075D01*
X65772993Y-78099901D01*
X65679901Y-78192993D01*
X65614075Y-78307007D01*
X65582094Y-78426358D01*
X65081773Y-77926037D01*
X65014252Y-78058552D01*
X65014251Y-78058555D01*
X64958317Y-78230706D01*
X64932726Y-78392279D01*
X64902797Y-78455414D01*
X64843485Y-78492345D01*
X64773622Y-78491347D01*
X64715390Y-78452737D01*
X64687780Y-78392279D01*
X64679955Y-78342875D01*
X64662171Y-78230591D01*
X64615377Y-78086571D01*
X64606212Y-78058363D01*
X64606211Y-78058360D01*
X64554653Y-77957173D01*
X64541757Y-77888504D01*
X64568033Y-77823763D01*
X64577439Y-77813216D01*
X64853838Y-77536816D01*
X64915160Y-77503334D01*
X64941518Y-77500500D01*
X65453402Y-77500500D01*
X65520441Y-77520185D01*
G37*
%TD.AperFunction*%
%TA.AperFunction,Conductor*%
G36*
X103004418Y-50300816D02*
G01*
X103233024Y-50317165D01*
X103250525Y-50319682D01*
X103470143Y-50367456D01*
X103487102Y-50372435D01*
X103697698Y-50450984D01*
X103713778Y-50458328D01*
X103911036Y-50566039D01*
X103925919Y-50575604D01*
X104105836Y-50710288D01*
X104119207Y-50721874D01*
X104278125Y-50880792D01*
X104289711Y-50894163D01*
X104424395Y-51074080D01*
X104433960Y-51088963D01*
X104541668Y-51286215D01*
X104549018Y-51302308D01*
X104627561Y-51512889D01*
X104632545Y-51529865D01*
X104680316Y-51749468D01*
X104682834Y-51766980D01*
X104699184Y-51995581D01*
X104699500Y-52004427D01*
X104699500Y-92995572D01*
X104699184Y-93004418D01*
X104682834Y-93233019D01*
X104680316Y-93250531D01*
X104632545Y-93470134D01*
X104627561Y-93487110D01*
X104549018Y-93697691D01*
X104541668Y-93713784D01*
X104433960Y-93911036D01*
X104424395Y-93925919D01*
X104289711Y-94105836D01*
X104278125Y-94119207D01*
X104119207Y-94278125D01*
X104105836Y-94289711D01*
X103925919Y-94424395D01*
X103911036Y-94433960D01*
X103713784Y-94541668D01*
X103697691Y-94549018D01*
X103487110Y-94627561D01*
X103470134Y-94632545D01*
X103250531Y-94680316D01*
X103233019Y-94682834D01*
X103004418Y-94699184D01*
X102995572Y-94699500D01*
X52004428Y-94699500D01*
X51995582Y-94699184D01*
X51766980Y-94682834D01*
X51749468Y-94680316D01*
X51529865Y-94632545D01*
X51512889Y-94627561D01*
X51302308Y-94549018D01*
X51286215Y-94541668D01*
X51088963Y-94433960D01*
X51074080Y-94424395D01*
X50894163Y-94289711D01*
X50880792Y-94278125D01*
X50721874Y-94119207D01*
X50710288Y-94105836D01*
X50575604Y-93925919D01*
X50566039Y-93911036D01*
X50458331Y-93713784D01*
X50450984Y-93697698D01*
X50372435Y-93487102D01*
X50367456Y-93470143D01*
X50319682Y-93250525D01*
X50317165Y-93233019D01*
X50300816Y-93004418D01*
X50300500Y-92995572D01*
X50300500Y-90878711D01*
X52149500Y-90878711D01*
X52149500Y-91121288D01*
X52181161Y-91361785D01*
X52243947Y-91596104D01*
X52310883Y-91757701D01*
X52336776Y-91820212D01*
X52458064Y-92030289D01*
X52458066Y-92030292D01*
X52458067Y-92030293D01*
X52605733Y-92222736D01*
X52605739Y-92222743D01*
X52777256Y-92394260D01*
X52777262Y-92394265D01*
X52969711Y-92541936D01*
X53179788Y-92663224D01*
X53403900Y-92756054D01*
X53638211Y-92818838D01*
X53818586Y-92842584D01*
X53878711Y-92850500D01*
X53878712Y-92850500D01*
X54121289Y-92850500D01*
X54169388Y-92844167D01*
X54361789Y-92818838D01*
X54596100Y-92756054D01*
X54820212Y-92663224D01*
X55030289Y-92541936D01*
X55222738Y-92394265D01*
X55394265Y-92222738D01*
X55541936Y-92030289D01*
X55663224Y-91820212D01*
X55756054Y-91596100D01*
X55818838Y-91361789D01*
X55850500Y-91121288D01*
X55850500Y-90878712D01*
X55818838Y-90638211D01*
X55756054Y-90403900D01*
X55754231Y-90399500D01*
X55663226Y-90179794D01*
X55663224Y-90179788D01*
X55541936Y-89969711D01*
X55394265Y-89777262D01*
X55394260Y-89777256D01*
X55222743Y-89605739D01*
X55222736Y-89605733D01*
X55084398Y-89499583D01*
X55030293Y-89458067D01*
X55030292Y-89458066D01*
X55030289Y-89458064D01*
X54938826Y-89405258D01*
X61649500Y-89405258D01*
X61649500Y-89634741D01*
X61674446Y-89824215D01*
X61679452Y-89862238D01*
X61701939Y-89946162D01*
X61738842Y-90083887D01*
X61826650Y-90295876D01*
X61826657Y-90295890D01*
X61941392Y-90494617D01*
X62081081Y-90676661D01*
X62081089Y-90676670D01*
X62243330Y-90838911D01*
X62243338Y-90838918D01*
X62425382Y-90978607D01*
X62425385Y-90978608D01*
X62425388Y-90978611D01*
X62624112Y-91093344D01*
X62624117Y-91093346D01*
X62624123Y-91093349D01*
X62715480Y-91131190D01*
X62836113Y-91181158D01*
X63057762Y-91240548D01*
X63285266Y-91270500D01*
X63285273Y-91270500D01*
X63514727Y-91270500D01*
X63514734Y-91270500D01*
X63742238Y-91240548D01*
X63963887Y-91181158D01*
X64175888Y-91093344D01*
X64374612Y-90978611D01*
X64556661Y-90838919D01*
X64556665Y-90838914D01*
X64556670Y-90838911D01*
X64718911Y-90676670D01*
X64718914Y-90676665D01*
X64718919Y-90676661D01*
X64858611Y-90494612D01*
X64973344Y-90295888D01*
X65061158Y-90083887D01*
X65120548Y-89862238D01*
X65150500Y-89634734D01*
X65150500Y-89405266D01*
X65150499Y-89405258D01*
X73349500Y-89405258D01*
X73349500Y-89634741D01*
X73374446Y-89824215D01*
X73379452Y-89862238D01*
X73401939Y-89946162D01*
X73438842Y-90083887D01*
X73526650Y-90295876D01*
X73526657Y-90295890D01*
X73641392Y-90494617D01*
X73781081Y-90676661D01*
X73781089Y-90676670D01*
X73943330Y-90838911D01*
X73943338Y-90838918D01*
X74125382Y-90978607D01*
X74125385Y-90978608D01*
X74125388Y-90978611D01*
X74324112Y-91093344D01*
X74324117Y-91093346D01*
X74324123Y-91093349D01*
X74415480Y-91131190D01*
X74536113Y-91181158D01*
X74757762Y-91240548D01*
X74985266Y-91270500D01*
X74985273Y-91270500D01*
X75214727Y-91270500D01*
X75214734Y-91270500D01*
X75442238Y-91240548D01*
X75663887Y-91181158D01*
X75875888Y-91093344D01*
X76074612Y-90978611D01*
X76256661Y-90838919D01*
X76256665Y-90838914D01*
X76256670Y-90838911D01*
X76418911Y-90676670D01*
X76418914Y-90676665D01*
X76418919Y-90676661D01*
X76558611Y-90494612D01*
X76673344Y-90295888D01*
X76761158Y-90083887D01*
X76820548Y-89862238D01*
X76850500Y-89634734D01*
X76850500Y-89405266D01*
X76820548Y-89177762D01*
X76761158Y-88956113D01*
X76673344Y-88744112D01*
X76558611Y-88545388D01*
X76558608Y-88545385D01*
X76558607Y-88545382D01*
X76418918Y-88363338D01*
X76418911Y-88363330D01*
X76256670Y-88201089D01*
X76256661Y-88201081D01*
X76074617Y-88061392D01*
X76059494Y-88052661D01*
X75875888Y-87946656D01*
X75875876Y-87946650D01*
X75663887Y-87858842D01*
X75614489Y-87845606D01*
X75442238Y-87799452D01*
X75404215Y-87794446D01*
X75214741Y-87769500D01*
X75214734Y-87769500D01*
X74985266Y-87769500D01*
X74985258Y-87769500D01*
X74768715Y-87798009D01*
X74757762Y-87799452D01*
X74664076Y-87824554D01*
X74536112Y-87858842D01*
X74324123Y-87946650D01*
X74324109Y-87946657D01*
X74125382Y-88061392D01*
X73943338Y-88201081D01*
X73781081Y-88363338D01*
X73641392Y-88545382D01*
X73526657Y-88744109D01*
X73526650Y-88744123D01*
X73438842Y-88956112D01*
X73379453Y-89177759D01*
X73379451Y-89177770D01*
X73349500Y-89405258D01*
X65150499Y-89405258D01*
X65120548Y-89177762D01*
X65061158Y-88956113D01*
X64973344Y-88744112D01*
X64858611Y-88545388D01*
X64858608Y-88545385D01*
X64858607Y-88545382D01*
X64718918Y-88363338D01*
X64718911Y-88363330D01*
X64556670Y-88201089D01*
X64556661Y-88201081D01*
X64374617Y-88061392D01*
X64359494Y-88052661D01*
X64175888Y-87946656D01*
X64175876Y-87946650D01*
X63963887Y-87858842D01*
X63914489Y-87845606D01*
X63742238Y-87799452D01*
X63704215Y-87794446D01*
X63514741Y-87769500D01*
X63514734Y-87769500D01*
X63285266Y-87769500D01*
X63285258Y-87769500D01*
X63068715Y-87798009D01*
X63057762Y-87799452D01*
X62964076Y-87824554D01*
X62836112Y-87858842D01*
X62624123Y-87946650D01*
X62624109Y-87946657D01*
X62425382Y-88061392D01*
X62243338Y-88201081D01*
X62081081Y-88363338D01*
X61941392Y-88545382D01*
X61826657Y-88744109D01*
X61826650Y-88744123D01*
X61738842Y-88956112D01*
X61679453Y-89177759D01*
X61679451Y-89177770D01*
X61649500Y-89405258D01*
X54938826Y-89405258D01*
X54820212Y-89336776D01*
X54820205Y-89336773D01*
X54596104Y-89243947D01*
X54361785Y-89181161D01*
X54121289Y-89149500D01*
X54121288Y-89149500D01*
X53878712Y-89149500D01*
X53878711Y-89149500D01*
X53638214Y-89181161D01*
X53403895Y-89243947D01*
X53179794Y-89336773D01*
X53179785Y-89336777D01*
X52969706Y-89458067D01*
X52777263Y-89605733D01*
X52777256Y-89605739D01*
X52605739Y-89777256D01*
X52605733Y-89777263D01*
X52458067Y-89969706D01*
X52336777Y-90179785D01*
X52336773Y-90179794D01*
X52243947Y-90403895D01*
X52181161Y-90638214D01*
X52149500Y-90878711D01*
X50300500Y-90878711D01*
X50300500Y-85096579D01*
X60850000Y-85096579D01*
X60850000Y-85303420D01*
X60890348Y-85506266D01*
X60890350Y-85506274D01*
X60969502Y-85697361D01*
X60973055Y-85702680D01*
X61393929Y-85281806D01*
X61424755Y-85396853D01*
X61491898Y-85513147D01*
X61586853Y-85608102D01*
X61703147Y-85675245D01*
X61818192Y-85706070D01*
X61397318Y-86126943D01*
X61402639Y-86130499D01*
X61593725Y-86209649D01*
X61593733Y-86209651D01*
X61796579Y-86249999D01*
X61796583Y-86250000D01*
X62003417Y-86250000D01*
X62003420Y-86249999D01*
X62206266Y-86209651D01*
X62206274Y-86209649D01*
X62397363Y-86130497D01*
X62397365Y-86130496D01*
X62402680Y-86126944D01*
X61981807Y-85706070D01*
X62096853Y-85675245D01*
X62213147Y-85608102D01*
X62308102Y-85513147D01*
X62375245Y-85396853D01*
X62406070Y-85281806D01*
X62826944Y-85702680D01*
X62830496Y-85697365D01*
X62830497Y-85697363D01*
X62909649Y-85506274D01*
X62909651Y-85506266D01*
X62949999Y-85303420D01*
X62950000Y-85303417D01*
X62950000Y-85096583D01*
X62949999Y-85096579D01*
X62909651Y-84893733D01*
X62909649Y-84893725D01*
X62830499Y-84702639D01*
X62826943Y-84697319D01*
X62826943Y-84697318D01*
X62406070Y-85118192D01*
X62375245Y-85003147D01*
X62308102Y-84886853D01*
X62213147Y-84791898D01*
X62096853Y-84724755D01*
X61981807Y-84693929D01*
X62402680Y-84273055D01*
X62397361Y-84269502D01*
X62206274Y-84190350D01*
X62206266Y-84190348D01*
X62003420Y-84150000D01*
X61796579Y-84150000D01*
X61593733Y-84190348D01*
X61593725Y-84190350D01*
X61402637Y-84269502D01*
X61402636Y-84269503D01*
X61397319Y-84273055D01*
X61818193Y-84693929D01*
X61703147Y-84724755D01*
X61586853Y-84791898D01*
X61491898Y-84886853D01*
X61424755Y-85003147D01*
X61393929Y-85118193D01*
X60973055Y-84697319D01*
X60969503Y-84702636D01*
X60969502Y-84702637D01*
X60890350Y-84893725D01*
X60890348Y-84893733D01*
X60850000Y-85096579D01*
X50300500Y-85096579D01*
X50300500Y-80406898D01*
X51049500Y-80406898D01*
X51049500Y-81593102D01*
X51055126Y-81639954D01*
X51060122Y-81681561D01*
X51060122Y-81681563D01*
X51060123Y-81681564D01*
X51068341Y-81702403D01*
X51115639Y-81822343D01*
X51207077Y-81942922D01*
X51327656Y-82034360D01*
X51327657Y-82034360D01*
X51327658Y-82034361D01*
X51468436Y-82089877D01*
X51556898Y-82100500D01*
X51556903Y-82100500D01*
X52743097Y-82100500D01*
X52743102Y-82100500D01*
X52831564Y-82089877D01*
X52972342Y-82034361D01*
X53069017Y-81961050D01*
X53613211Y-81961050D01*
X53727742Y-82019408D01*
X53892415Y-82072914D01*
X54063429Y-82100000D01*
X54236571Y-82100000D01*
X54407584Y-82072914D01*
X54572254Y-82019408D01*
X54686787Y-81961050D01*
X54150001Y-81424264D01*
X54150000Y-81424264D01*
X53613211Y-81961050D01*
X53069017Y-81961050D01*
X53092922Y-81942922D01*
X53130334Y-81893587D01*
X53168605Y-81843120D01*
X53184360Y-81822343D01*
X53184359Y-81822343D01*
X53184361Y-81822342D01*
X53239877Y-81681564D01*
X53250500Y-81593102D01*
X53250500Y-81526598D01*
X53270185Y-81459559D01*
X53286819Y-81438917D01*
X53750000Y-80975736D01*
X53750000Y-81052661D01*
X53777259Y-81154394D01*
X53829920Y-81245606D01*
X53904394Y-81320080D01*
X53995606Y-81372741D01*
X54097339Y-81400000D01*
X54202661Y-81400000D01*
X54304394Y-81372741D01*
X54395606Y-81320080D01*
X54470080Y-81245606D01*
X54522741Y-81154394D01*
X54550000Y-81052661D01*
X54550000Y-80999999D01*
X54574264Y-80999999D01*
X54574264Y-81000001D01*
X55111050Y-81536787D01*
X55169408Y-81422254D01*
X55222914Y-81257584D01*
X55250000Y-81086571D01*
X55250000Y-80913428D01*
X55222914Y-80742415D01*
X55169408Y-80577742D01*
X55111050Y-80463211D01*
X54574264Y-80999999D01*
X54550000Y-80999999D01*
X54550000Y-80947339D01*
X54522741Y-80845606D01*
X54470080Y-80754394D01*
X54395606Y-80679920D01*
X54304394Y-80627259D01*
X54202661Y-80600000D01*
X54125736Y-80600000D01*
X54588917Y-80136819D01*
X54650240Y-80103334D01*
X54676598Y-80100500D01*
X58458481Y-80100500D01*
X58525520Y-80120185D01*
X58546162Y-80136819D01*
X59153453Y-80744111D01*
X59153454Y-80744112D01*
X59268192Y-80820777D01*
X59395667Y-80873578D01*
X59395672Y-80873580D01*
X59395676Y-80873580D01*
X59395677Y-80873581D01*
X59531003Y-80900500D01*
X59531006Y-80900500D01*
X62468995Y-80900500D01*
X62487479Y-80896822D01*
X62551309Y-80884126D01*
X62620899Y-80890353D01*
X62676077Y-80933215D01*
X62699322Y-80999104D01*
X62699500Y-81005743D01*
X62699500Y-81238795D01*
X62679815Y-81305834D01*
X62627011Y-81351589D01*
X62557853Y-81361533D01*
X62506610Y-81341898D01*
X62452636Y-81305834D01*
X62397598Y-81269059D01*
X62206420Y-81189870D01*
X62206412Y-81189868D01*
X62003469Y-81149500D01*
X62003465Y-81149500D01*
X61796535Y-81149500D01*
X61796530Y-81149500D01*
X61593587Y-81189868D01*
X61593579Y-81189870D01*
X61402403Y-81269058D01*
X61230342Y-81384024D01*
X61084024Y-81530342D01*
X60969058Y-81702403D01*
X60889870Y-81893579D01*
X60889868Y-81893587D01*
X60849500Y-82096530D01*
X60849500Y-82303469D01*
X60889868Y-82506412D01*
X60889870Y-82506420D01*
X60956132Y-82666391D01*
X60969059Y-82697598D01*
X60970998Y-82700500D01*
X61084024Y-82869657D01*
X61230342Y-83015975D01*
X61230345Y-83015977D01*
X61402402Y-83130941D01*
X61593580Y-83210130D01*
X61780241Y-83247259D01*
X61796530Y-83250499D01*
X61796534Y-83250500D01*
X61796535Y-83250500D01*
X62003466Y-83250500D01*
X62003467Y-83250499D01*
X62206420Y-83210130D01*
X62397598Y-83130941D01*
X62506610Y-83058101D01*
X62573287Y-83037224D01*
X62640667Y-83055709D01*
X62687357Y-83107687D01*
X62699500Y-83161204D01*
X62699500Y-83531006D01*
X62699500Y-83668994D01*
X62699500Y-83668996D01*
X62699499Y-83668996D01*
X62726418Y-83804322D01*
X62726421Y-83804332D01*
X62779222Y-83931807D01*
X62855887Y-84046545D01*
X62855888Y-84046546D01*
X63813181Y-85003838D01*
X63846666Y-85065161D01*
X63849500Y-85091519D01*
X63849500Y-85743091D01*
X63860123Y-85831562D01*
X63915639Y-85972342D01*
X63915640Y-85972344D01*
X64007077Y-86092922D01*
X64127655Y-86184359D01*
X64127658Y-86184361D01*
X64268436Y-86239876D01*
X64356901Y-86250500D01*
X65443098Y-86250499D01*
X65531564Y-86239876D01*
X65672342Y-86184361D01*
X65792922Y-86092922D01*
X65884361Y-85972342D01*
X65939876Y-85831564D01*
X65950500Y-85743099D01*
X65950499Y-85096579D01*
X72550000Y-85096579D01*
X72550000Y-85303420D01*
X72590348Y-85506266D01*
X72590350Y-85506274D01*
X72669502Y-85697361D01*
X72673055Y-85702680D01*
X73093929Y-85281806D01*
X73124755Y-85396853D01*
X73191898Y-85513147D01*
X73286853Y-85608102D01*
X73403147Y-85675245D01*
X73518192Y-85706070D01*
X73097318Y-86126943D01*
X73102639Y-86130499D01*
X73293725Y-86209649D01*
X73293733Y-86209651D01*
X73496579Y-86249999D01*
X73496583Y-86250000D01*
X73703417Y-86250000D01*
X73703420Y-86249999D01*
X73906266Y-86209651D01*
X73906274Y-86209649D01*
X74097363Y-86130497D01*
X74097365Y-86130496D01*
X74102680Y-86126944D01*
X73681807Y-85706070D01*
X73796853Y-85675245D01*
X73913147Y-85608102D01*
X74008102Y-85513147D01*
X74075245Y-85396853D01*
X74106070Y-85281806D01*
X74526944Y-85702680D01*
X74530496Y-85697365D01*
X74530497Y-85697363D01*
X74609649Y-85506274D01*
X74609651Y-85506266D01*
X74649999Y-85303420D01*
X74650000Y-85303417D01*
X74650000Y-85096583D01*
X74649999Y-85096579D01*
X74609651Y-84893733D01*
X74609649Y-84893725D01*
X74530499Y-84702639D01*
X74526943Y-84697319D01*
X74526943Y-84697318D01*
X74106070Y-85118192D01*
X74075245Y-85003147D01*
X74008102Y-84886853D01*
X73913147Y-84791898D01*
X73796853Y-84724755D01*
X73681807Y-84693929D01*
X74102680Y-84273055D01*
X74097361Y-84269502D01*
X73906274Y-84190350D01*
X73906266Y-84190348D01*
X73703420Y-84150000D01*
X73496579Y-84150000D01*
X73293733Y-84190348D01*
X73293725Y-84190350D01*
X73102637Y-84269502D01*
X73102636Y-84269503D01*
X73097319Y-84273055D01*
X73518193Y-84693929D01*
X73403147Y-84724755D01*
X73286853Y-84791898D01*
X73191898Y-84886853D01*
X73124755Y-85003147D01*
X73093929Y-85118193D01*
X72673055Y-84697319D01*
X72669503Y-84702636D01*
X72669502Y-84702637D01*
X72590350Y-84893725D01*
X72590348Y-84893733D01*
X72550000Y-85096579D01*
X65950499Y-85096579D01*
X65950499Y-84656902D01*
X65939876Y-84568436D01*
X65884361Y-84427658D01*
X65815559Y-84336929D01*
X65792922Y-84307077D01*
X65672344Y-84215640D01*
X65672342Y-84215639D01*
X65531564Y-84160124D01*
X65531561Y-84160123D01*
X65443099Y-84149500D01*
X64991519Y-84149500D01*
X64924480Y-84129815D01*
X64903838Y-84113181D01*
X64136819Y-83346162D01*
X64103334Y-83284839D01*
X64100500Y-83258481D01*
X64100500Y-83161204D01*
X64120185Y-83094165D01*
X64172989Y-83048410D01*
X64242147Y-83038466D01*
X64293388Y-83058101D01*
X64402402Y-83130941D01*
X64593580Y-83210130D01*
X64780241Y-83247259D01*
X64796530Y-83250499D01*
X64796534Y-83250500D01*
X64796535Y-83250500D01*
X65003466Y-83250500D01*
X65003467Y-83250499D01*
X65206420Y-83210130D01*
X65397598Y-83130941D01*
X65569655Y-83015977D01*
X65715977Y-82869655D01*
X65792180Y-82755608D01*
X65845790Y-82710805D01*
X65895281Y-82700500D01*
X71065890Y-82700500D01*
X71065892Y-82700500D01*
X71193186Y-82666392D01*
X71307314Y-82600500D01*
X72570995Y-81336819D01*
X72632318Y-81303334D01*
X72658676Y-81300500D01*
X72714505Y-81300500D01*
X72781544Y-81320185D01*
X72827299Y-81372989D01*
X72837243Y-81442147D01*
X72808218Y-81505703D01*
X72802186Y-81512181D01*
X72784025Y-81530341D01*
X72784024Y-81530342D01*
X72669058Y-81702403D01*
X72589870Y-81893579D01*
X72589868Y-81893587D01*
X72549500Y-82096530D01*
X72549500Y-82303469D01*
X72589868Y-82506412D01*
X72589870Y-82506420D01*
X72656132Y-82666391D01*
X72669059Y-82697598D01*
X72670998Y-82700500D01*
X72784024Y-82869657D01*
X72930342Y-83015975D01*
X72930345Y-83015977D01*
X73102402Y-83130941D01*
X73293580Y-83210130D01*
X73480241Y-83247259D01*
X73496530Y-83250499D01*
X73496534Y-83250500D01*
X73496535Y-83250500D01*
X73703466Y-83250500D01*
X73703467Y-83250499D01*
X73906420Y-83210130D01*
X74097598Y-83130941D01*
X74269655Y-83015977D01*
X74415977Y-82869655D01*
X74530941Y-82697598D01*
X74610130Y-82506420D01*
X74650500Y-82303465D01*
X74650500Y-82096535D01*
X74610130Y-81893580D01*
X74530941Y-81702402D01*
X74415977Y-81530345D01*
X74415975Y-81530342D01*
X74397814Y-81512181D01*
X74364329Y-81450858D01*
X74369313Y-81381166D01*
X74411185Y-81325233D01*
X74476649Y-81300816D01*
X74485495Y-81300500D01*
X74941324Y-81300500D01*
X75008363Y-81320185D01*
X75029005Y-81336819D01*
X75542322Y-81850136D01*
X75575807Y-81911459D01*
X75576258Y-81962008D01*
X75549500Y-82096530D01*
X75549500Y-82303469D01*
X75589868Y-82506412D01*
X75589870Y-82506420D01*
X75656132Y-82666391D01*
X75669059Y-82697598D01*
X75670998Y-82700500D01*
X75784024Y-82869657D01*
X75930342Y-83015975D01*
X75930345Y-83015977D01*
X76102402Y-83130941D01*
X76293580Y-83210130D01*
X76480241Y-83247259D01*
X76496530Y-83250499D01*
X76496534Y-83250500D01*
X76496535Y-83250500D01*
X76703466Y-83250500D01*
X76703467Y-83250499D01*
X76906420Y-83210130D01*
X77097598Y-83130941D01*
X77269655Y-83015977D01*
X77415977Y-82869655D01*
X77492180Y-82755608D01*
X77545790Y-82710805D01*
X77595281Y-82700500D01*
X82044622Y-82700500D01*
X82111661Y-82720185D01*
X82157416Y-82772989D01*
X82167360Y-82842147D01*
X82142046Y-82898111D01*
X82143450Y-82899131D01*
X82140588Y-82903069D01*
X82140586Y-82903072D01*
X82092587Y-82969135D01*
X82038768Y-83043211D01*
X81960128Y-83197552D01*
X81906597Y-83362302D01*
X81904682Y-83374394D01*
X81879500Y-83533389D01*
X81879500Y-83706611D01*
X81887677Y-83758239D01*
X81906579Y-83877585D01*
X81906598Y-83877701D01*
X81960127Y-84042445D01*
X82038768Y-84196788D01*
X82140586Y-84336928D01*
X82140588Y-84336930D01*
X82263181Y-84459523D01*
X82296666Y-84520846D01*
X82299500Y-84547204D01*
X82299500Y-86658480D01*
X82279815Y-86725519D01*
X82263181Y-86746161D01*
X82146161Y-86863181D01*
X82084838Y-86896666D01*
X82058480Y-86899500D01*
X81913389Y-86899500D01*
X81893337Y-86902676D01*
X81742302Y-86926597D01*
X81577552Y-86980128D01*
X81423211Y-87058768D01*
X81283073Y-87160585D01*
X81180476Y-87263182D01*
X81119153Y-87296666D01*
X81092795Y-87299500D01*
X79741519Y-87299500D01*
X79674480Y-87279815D01*
X79653838Y-87263181D01*
X77686818Y-85296161D01*
X77653333Y-85234838D01*
X77650499Y-85208480D01*
X77650499Y-84656908D01*
X77650499Y-84656902D01*
X77639876Y-84568436D01*
X77584361Y-84427658D01*
X77566621Y-84404264D01*
X77492922Y-84307077D01*
X77372344Y-84215640D01*
X77372342Y-84215639D01*
X77231564Y-84160124D01*
X77231561Y-84160123D01*
X77143099Y-84149500D01*
X76056908Y-84149500D01*
X75968437Y-84160123D01*
X75827657Y-84215639D01*
X75827655Y-84215640D01*
X75707077Y-84307077D01*
X75615640Y-84427655D01*
X75615639Y-84427658D01*
X75562965Y-84561233D01*
X75560124Y-84568437D01*
X75560123Y-84568438D01*
X75549500Y-84656900D01*
X75549500Y-85743091D01*
X75560123Y-85831562D01*
X75615639Y-85972342D01*
X75615640Y-85972344D01*
X75707077Y-86092922D01*
X75827655Y-86184359D01*
X75827658Y-86184361D01*
X75968436Y-86239876D01*
X76056901Y-86250500D01*
X76608480Y-86250499D01*
X76675519Y-86270183D01*
X76696161Y-86286818D01*
X78953453Y-88544111D01*
X78953454Y-88544112D01*
X79068192Y-88620777D01*
X79195667Y-88673578D01*
X79195672Y-88673580D01*
X79195676Y-88673580D01*
X79195677Y-88673581D01*
X79331003Y-88700500D01*
X79331006Y-88700500D01*
X79331007Y-88700500D01*
X81092795Y-88700500D01*
X81159834Y-88720185D01*
X81180476Y-88736818D01*
X81283072Y-88839414D01*
X81423212Y-88941232D01*
X81577555Y-89019873D01*
X81742299Y-89073402D01*
X81913389Y-89100500D01*
X81913390Y-89100500D01*
X82086610Y-89100500D01*
X82086611Y-89100500D01*
X82257701Y-89073402D01*
X82422445Y-89019873D01*
X82576788Y-88941232D01*
X82716928Y-88839414D01*
X82839414Y-88716928D01*
X82941232Y-88576788D01*
X83019873Y-88422445D01*
X83057569Y-88306426D01*
X83097007Y-88248752D01*
X83161365Y-88221554D01*
X83230212Y-88233469D01*
X83281687Y-88280713D01*
X83299500Y-88344746D01*
X83299500Y-92731006D01*
X83299500Y-92868994D01*
X83299500Y-92868996D01*
X83299499Y-92868996D01*
X83326418Y-93004322D01*
X83326421Y-93004332D01*
X83379222Y-93131807D01*
X83455887Y-93246545D01*
X83753454Y-93544112D01*
X83868192Y-93620777D01*
X83995667Y-93673578D01*
X83995672Y-93673580D01*
X83995676Y-93673580D01*
X83995677Y-93673581D01*
X84131003Y-93700500D01*
X84131006Y-93700500D01*
X89468996Y-93700500D01*
X89560040Y-93682389D01*
X89604328Y-93673580D01*
X89668069Y-93647177D01*
X89731807Y-93620777D01*
X89731808Y-93620776D01*
X89731811Y-93620775D01*
X89846543Y-93544114D01*
X91222237Y-92168420D01*
X92511947Y-90878711D01*
X99149500Y-90878711D01*
X99149500Y-91121288D01*
X99181161Y-91361785D01*
X99243947Y-91596104D01*
X99310883Y-91757701D01*
X99336776Y-91820212D01*
X99458064Y-92030289D01*
X99458066Y-92030292D01*
X99458067Y-92030293D01*
X99605733Y-92222736D01*
X99605739Y-92222743D01*
X99777256Y-92394260D01*
X99777262Y-92394265D01*
X99969711Y-92541936D01*
X100179788Y-92663224D01*
X100403900Y-92756054D01*
X100638211Y-92818838D01*
X100818586Y-92842584D01*
X100878711Y-92850500D01*
X100878712Y-92850500D01*
X101121289Y-92850500D01*
X101169388Y-92844167D01*
X101361789Y-92818838D01*
X101596100Y-92756054D01*
X101820212Y-92663224D01*
X102030289Y-92541936D01*
X102222738Y-92394265D01*
X102394265Y-92222738D01*
X102541936Y-92030289D01*
X102663224Y-91820212D01*
X102756054Y-91596100D01*
X102818838Y-91361789D01*
X102850500Y-91121288D01*
X102850500Y-90878712D01*
X102818838Y-90638211D01*
X102756054Y-90403900D01*
X102754231Y-90399500D01*
X102663226Y-90179794D01*
X102663224Y-90179788D01*
X102541936Y-89969711D01*
X102394265Y-89777262D01*
X102394260Y-89777256D01*
X102222743Y-89605739D01*
X102222736Y-89605733D01*
X102030293Y-89458067D01*
X102030292Y-89458066D01*
X102030289Y-89458064D01*
X101820212Y-89336776D01*
X101820205Y-89336773D01*
X101596104Y-89243947D01*
X101361785Y-89181161D01*
X101121289Y-89149500D01*
X101121288Y-89149500D01*
X100878712Y-89149500D01*
X100878711Y-89149500D01*
X100638214Y-89181161D01*
X100403895Y-89243947D01*
X100179794Y-89336773D01*
X100179785Y-89336777D01*
X99969706Y-89458067D01*
X99777263Y-89605733D01*
X99777256Y-89605739D01*
X99605739Y-89777256D01*
X99605733Y-89777263D01*
X99458067Y-89969706D01*
X99336777Y-90179785D01*
X99336773Y-90179794D01*
X99243947Y-90403895D01*
X99181161Y-90638214D01*
X99149500Y-90878711D01*
X92511947Y-90878711D01*
X92603686Y-90786972D01*
X92744111Y-90646546D01*
X92744112Y-90646545D01*
X92744114Y-90646543D01*
X92820775Y-90531811D01*
X92873580Y-90404328D01*
X92895150Y-90295890D01*
X92900500Y-90268996D01*
X92900500Y-82131006D01*
X92892877Y-82092687D01*
X92892877Y-82092684D01*
X92873581Y-81995679D01*
X92873580Y-81995672D01*
X92859239Y-81961050D01*
X92820777Y-81868192D01*
X92744112Y-81753454D01*
X88446545Y-77455887D01*
X88389177Y-77417555D01*
X88331811Y-77379225D01*
X88269601Y-77353457D01*
X88199128Y-77324266D01*
X88144725Y-77280425D01*
X88122660Y-77214131D01*
X88139939Y-77146432D01*
X88191076Y-77098821D01*
X88227183Y-77087232D01*
X88317585Y-77072913D01*
X88482254Y-77019408D01*
X88596787Y-76961050D01*
X88060001Y-76424264D01*
X88060000Y-76424264D01*
X87523211Y-76961050D01*
X87637744Y-77019408D01*
X87755188Y-77057569D01*
X87812864Y-77097007D01*
X87840062Y-77161365D01*
X87828147Y-77230212D01*
X87780903Y-77281687D01*
X87716870Y-77299500D01*
X85864747Y-77299500D01*
X85797708Y-77279815D01*
X85751953Y-77227011D01*
X85742009Y-77157853D01*
X85771034Y-77094297D01*
X85826428Y-77057569D01*
X85942445Y-77019873D01*
X86096788Y-76941232D01*
X86236928Y-76839414D01*
X86359414Y-76716928D01*
X86461232Y-76576788D01*
X86539873Y-76422445D01*
X86593402Y-76257701D01*
X86620500Y-76086611D01*
X86620500Y-75913428D01*
X86960000Y-75913428D01*
X86960000Y-76086571D01*
X86987086Y-76257585D01*
X86987086Y-76257588D01*
X87040588Y-76422250D01*
X87098947Y-76536786D01*
X87635736Y-76000000D01*
X87583075Y-75947339D01*
X87660000Y-75947339D01*
X87660000Y-76052661D01*
X87687259Y-76154394D01*
X87739920Y-76245606D01*
X87814394Y-76320080D01*
X87905606Y-76372741D01*
X88007339Y-76400000D01*
X88112661Y-76400000D01*
X88214394Y-76372741D01*
X88305606Y-76320080D01*
X88380080Y-76245606D01*
X88432741Y-76154394D01*
X88460000Y-76052661D01*
X88460000Y-75999999D01*
X88484264Y-75999999D01*
X88484264Y-76000001D01*
X89021050Y-76536787D01*
X89079408Y-76422254D01*
X89132914Y-76257584D01*
X89160000Y-76086571D01*
X89160000Y-75913428D01*
X89132914Y-75742415D01*
X89079408Y-75577742D01*
X89021050Y-75463211D01*
X88484264Y-75999999D01*
X88460000Y-75999999D01*
X88460000Y-75947339D01*
X88432741Y-75845606D01*
X88380080Y-75754394D01*
X88305606Y-75679920D01*
X88214394Y-75627259D01*
X88112661Y-75600000D01*
X88007339Y-75600000D01*
X87905606Y-75627259D01*
X87814394Y-75679920D01*
X87739920Y-75754394D01*
X87687259Y-75845606D01*
X87660000Y-75947339D01*
X87583075Y-75947339D01*
X87098948Y-75463212D01*
X87040589Y-75577746D01*
X87040588Y-75577749D01*
X86987086Y-75742411D01*
X86987086Y-75742414D01*
X86960000Y-75913428D01*
X86620500Y-75913428D01*
X86620500Y-75913389D01*
X86593402Y-75742299D01*
X86539873Y-75577555D01*
X86461232Y-75423212D01*
X86359414Y-75283072D01*
X86236928Y-75160586D01*
X86096788Y-75058768D01*
X86057889Y-75038948D01*
X87523212Y-75038948D01*
X88060000Y-75575736D01*
X88060001Y-75575736D01*
X88596787Y-75038948D01*
X88482250Y-74980588D01*
X88317587Y-74927086D01*
X88146571Y-74900000D01*
X87973429Y-74900000D01*
X87802414Y-74927086D01*
X87802411Y-74927086D01*
X87637749Y-74980588D01*
X87637746Y-74980589D01*
X87523212Y-75038948D01*
X86057889Y-75038948D01*
X85942445Y-74980127D01*
X85777701Y-74926598D01*
X85777699Y-74926597D01*
X85777698Y-74926597D01*
X85630818Y-74903334D01*
X85606611Y-74899500D01*
X85433389Y-74899500D01*
X85409182Y-74903334D01*
X85262302Y-74926597D01*
X85097552Y-74980128D01*
X84943211Y-75058768D01*
X84903755Y-75087435D01*
X84803072Y-75160586D01*
X84803070Y-75160588D01*
X84803069Y-75160588D01*
X84680588Y-75283069D01*
X84680588Y-75283070D01*
X84680586Y-75283072D01*
X84670381Y-75297118D01*
X84578768Y-75423211D01*
X84500128Y-75577552D01*
X84446597Y-75742302D01*
X84419500Y-75913389D01*
X84419500Y-76086611D01*
X84423731Y-76113327D01*
X84414775Y-76182620D01*
X84388939Y-76220402D01*
X84307725Y-76301616D01*
X84267130Y-76342212D01*
X84205807Y-76375696D01*
X84136115Y-76370712D01*
X84080182Y-76328840D01*
X84055765Y-76263376D01*
X84056975Y-76235137D01*
X84080500Y-76086611D01*
X84080500Y-75913389D01*
X84053402Y-75742299D01*
X83999873Y-75577555D01*
X83921232Y-75423212D01*
X83819414Y-75283072D01*
X83696928Y-75160586D01*
X83556788Y-75058768D01*
X83402445Y-74980127D01*
X83237701Y-74926598D01*
X83237699Y-74926597D01*
X83237698Y-74926597D01*
X83090818Y-74903334D01*
X83066611Y-74899500D01*
X82893389Y-74899500D01*
X82869182Y-74903334D01*
X82722302Y-74926597D01*
X82557552Y-74980128D01*
X82403211Y-75058768D01*
X82363755Y-75087435D01*
X82263072Y-75160586D01*
X82263070Y-75160588D01*
X82263069Y-75160588D01*
X82140588Y-75283069D01*
X82140588Y-75283070D01*
X82140586Y-75283072D01*
X82130381Y-75297118D01*
X82038768Y-75423211D01*
X81960128Y-75577552D01*
X81906597Y-75742302D01*
X81904682Y-75754394D01*
X81879500Y-75913389D01*
X81879500Y-76086611D01*
X81882728Y-76106991D01*
X81906579Y-76257585D01*
X81906598Y-76257701D01*
X81960127Y-76422445D01*
X82038768Y-76576788D01*
X82140586Y-76716928D01*
X82263072Y-76839414D01*
X82403212Y-76941232D01*
X82557555Y-77019873D01*
X82673571Y-77057569D01*
X82731247Y-77097007D01*
X82758445Y-77161365D01*
X82746530Y-77230212D01*
X82699286Y-77281687D01*
X82635253Y-77299500D01*
X81107205Y-77299500D01*
X81040166Y-77279815D01*
X81019524Y-77263182D01*
X80970473Y-77214131D01*
X80916928Y-77160586D01*
X80776788Y-77058768D01*
X80622445Y-76980127D01*
X80457701Y-76926598D01*
X80457699Y-76926597D01*
X80457698Y-76926597D01*
X80306663Y-76902676D01*
X80286611Y-76899500D01*
X80141519Y-76899500D01*
X80074480Y-76879815D01*
X80053838Y-76863181D01*
X77336819Y-74146162D01*
X77303334Y-74084839D01*
X77300500Y-74058481D01*
X77300500Y-72331004D01*
X77273581Y-72195677D01*
X77273580Y-72195676D01*
X77273580Y-72195672D01*
X77220775Y-72068189D01*
X77172321Y-71995672D01*
X77144114Y-71953457D01*
X77144111Y-71953453D01*
X77122839Y-71932181D01*
X77089354Y-71870858D01*
X77094338Y-71801166D01*
X77136210Y-71745233D01*
X77201674Y-71720816D01*
X77210520Y-71720500D01*
X77326610Y-71720500D01*
X77326611Y-71720500D01*
X77497701Y-71693402D01*
X77662445Y-71639873D01*
X77816788Y-71561232D01*
X77956928Y-71459414D01*
X78079414Y-71336928D01*
X78181232Y-71196788D01*
X78259873Y-71042445D01*
X78313402Y-70877701D01*
X78340500Y-70706611D01*
X78340500Y-70533389D01*
X78679500Y-70533389D01*
X78679500Y-70706610D01*
X78706597Y-70877697D01*
X78706597Y-70877699D01*
X78706598Y-70877701D01*
X78760127Y-71042445D01*
X78838768Y-71196788D01*
X78940586Y-71336928D01*
X79063072Y-71459414D01*
X79203212Y-71561232D01*
X79357555Y-71639873D01*
X79522299Y-71693402D01*
X79693389Y-71720500D01*
X79693390Y-71720500D01*
X79866610Y-71720500D01*
X79866611Y-71720500D01*
X80037701Y-71693402D01*
X80202445Y-71639873D01*
X80356788Y-71561232D01*
X80496928Y-71459414D01*
X80619414Y-71336928D01*
X80721232Y-71196788D01*
X80799873Y-71042445D01*
X80853402Y-70877701D01*
X80880500Y-70706611D01*
X80880500Y-70533389D01*
X81219500Y-70533389D01*
X81219500Y-70706610D01*
X81246597Y-70877697D01*
X81246597Y-70877699D01*
X81246598Y-70877701D01*
X81300127Y-71042445D01*
X81378768Y-71196788D01*
X81480586Y-71336928D01*
X81603072Y-71459414D01*
X81743212Y-71561232D01*
X81897555Y-71639873D01*
X82062299Y-71693402D01*
X82233389Y-71720500D01*
X82233390Y-71720500D01*
X82406610Y-71720500D01*
X82406611Y-71720500D01*
X82577701Y-71693402D01*
X82742396Y-71639888D01*
X82812232Y-71637894D01*
X82868391Y-71670139D01*
X83538737Y-72340485D01*
X83635763Y-72396503D01*
X83743982Y-72425500D01*
X83856018Y-72425500D01*
X86372390Y-72425500D01*
X86439429Y-72445185D01*
X86460071Y-72461819D01*
X89463181Y-75464928D01*
X89496666Y-75526251D01*
X89499500Y-75552609D01*
X89499500Y-76593102D01*
X89505126Y-76639954D01*
X89510122Y-76681561D01*
X89565639Y-76822343D01*
X89657077Y-76942922D01*
X89777656Y-77034360D01*
X89777657Y-77034360D01*
X89777658Y-77034361D01*
X89918436Y-77089877D01*
X90006898Y-77100500D01*
X90006903Y-77100500D01*
X91193097Y-77100500D01*
X91193102Y-77100500D01*
X91281564Y-77089877D01*
X91422342Y-77034361D01*
X91542922Y-76942922D01*
X91634361Y-76822342D01*
X91689877Y-76681564D01*
X91700500Y-76593102D01*
X91700500Y-76219785D01*
X91720185Y-76152746D01*
X91772989Y-76106991D01*
X91842147Y-76097047D01*
X91886497Y-76112396D01*
X91968216Y-76159577D01*
X92120943Y-76200500D01*
X92120945Y-76200500D01*
X92279055Y-76200500D01*
X92279057Y-76200500D01*
X92431784Y-76159577D01*
X92568716Y-76080520D01*
X92680520Y-75968716D01*
X92759577Y-75831784D01*
X92800500Y-75679057D01*
X92800500Y-75520943D01*
X92759577Y-75368216D01*
X92710420Y-75283072D01*
X92680524Y-75231290D01*
X92680518Y-75231282D01*
X92661819Y-75212583D01*
X92628334Y-75151260D01*
X92625500Y-75124902D01*
X92625500Y-73627609D01*
X92645185Y-73560570D01*
X92661814Y-73539933D01*
X94516895Y-71684851D01*
X94578216Y-71651368D01*
X94642888Y-71654602D01*
X94762299Y-71693402D01*
X94933389Y-71720500D01*
X94933390Y-71720500D01*
X95106610Y-71720500D01*
X95106611Y-71720500D01*
X95277701Y-71693402D01*
X95442445Y-71639873D01*
X95596788Y-71561232D01*
X95736928Y-71459414D01*
X95762819Y-71433523D01*
X95824142Y-71400038D01*
X95893834Y-71405022D01*
X95949767Y-71446894D01*
X95974184Y-71512358D01*
X95974500Y-71521204D01*
X95974500Y-71572390D01*
X95954815Y-71639429D01*
X95938181Y-71660071D01*
X95259517Y-72338734D01*
X95259513Y-72338740D01*
X95203498Y-72435760D01*
X95203497Y-72435763D01*
X95174500Y-72543982D01*
X95174500Y-73572390D01*
X95154815Y-73639429D01*
X95138181Y-73660071D01*
X93835071Y-74963181D01*
X93773748Y-74996666D01*
X93747390Y-74999500D01*
X93720943Y-74999500D01*
X93568216Y-75040423D01*
X93568209Y-75040426D01*
X93431290Y-75119475D01*
X93431282Y-75119481D01*
X93319481Y-75231282D01*
X93319475Y-75231290D01*
X93240426Y-75368209D01*
X93240423Y-75368216D01*
X93199500Y-75520943D01*
X93199500Y-75679057D01*
X93219687Y-75754394D01*
X93240423Y-75831783D01*
X93240426Y-75831790D01*
X93319475Y-75968709D01*
X93319479Y-75968714D01*
X93319480Y-75968716D01*
X93431284Y-76080520D01*
X93431286Y-76080521D01*
X93431290Y-76080524D01*
X93556384Y-76152746D01*
X93568216Y-76159577D01*
X93720943Y-76200500D01*
X93720945Y-76200500D01*
X93879055Y-76200500D01*
X93879057Y-76200500D01*
X94031784Y-76159577D01*
X94168716Y-76080520D01*
X94280520Y-75968716D01*
X94359577Y-75831784D01*
X94400500Y-75679057D01*
X94400500Y-75652610D01*
X94420185Y-75585571D01*
X94436819Y-75564929D01*
X95182340Y-74819408D01*
X95940484Y-74061264D01*
X95942542Y-74057701D01*
X95996503Y-73964237D01*
X96022023Y-73868994D01*
X96025500Y-73856019D01*
X96025500Y-73743982D01*
X96025500Y-72827610D01*
X96045185Y-72760571D01*
X96061819Y-72739929D01*
X96397421Y-72404327D01*
X96740485Y-72061263D01*
X96796503Y-71964237D01*
X96825500Y-71856018D01*
X96825500Y-71743981D01*
X96825500Y-69726610D01*
X96845185Y-69659571D01*
X96897989Y-69613816D01*
X96967147Y-69603872D01*
X97030703Y-69632897D01*
X97037181Y-69638929D01*
X97138737Y-69740485D01*
X97235763Y-69796503D01*
X97343982Y-69825500D01*
X97343984Y-69825500D01*
X99856016Y-69825500D01*
X99856018Y-69825500D01*
X99964237Y-69796503D01*
X100061263Y-69740485D01*
X100340485Y-69461263D01*
X100396503Y-69364237D01*
X100425500Y-69256018D01*
X100425500Y-69143981D01*
X100425500Y-63227610D01*
X100445185Y-63160571D01*
X100461819Y-63139929D01*
X100580601Y-63021147D01*
X100740484Y-62861264D01*
X100796503Y-62764237D01*
X100825500Y-62656019D01*
X100825500Y-62543982D01*
X100825500Y-59543982D01*
X100796503Y-59435763D01*
X100740485Y-59338737D01*
X100661263Y-59259515D01*
X100138706Y-58736958D01*
X100105221Y-58675635D01*
X100103920Y-58668713D01*
X100093402Y-58602299D01*
X100039873Y-58437555D01*
X100039871Y-58437552D01*
X100039871Y-58437550D01*
X99986289Y-58332389D01*
X99961232Y-58283212D01*
X99859414Y-58143072D01*
X99736928Y-58020586D01*
X99596788Y-57918768D01*
X99442445Y-57840127D01*
X99277701Y-57786598D01*
X99277699Y-57786597D01*
X99277698Y-57786597D01*
X99146271Y-57765781D01*
X99106611Y-57759500D01*
X98933389Y-57759500D01*
X98893728Y-57765781D01*
X98762302Y-57786597D01*
X98762299Y-57786598D01*
X98607838Y-57836786D01*
X98597552Y-57840128D01*
X98443211Y-57918768D01*
X98366504Y-57974500D01*
X98303072Y-58020586D01*
X98303070Y-58020588D01*
X98303069Y-58020588D01*
X98180588Y-58143069D01*
X98180588Y-58143070D01*
X98180586Y-58143072D01*
X98143890Y-58193579D01*
X98078768Y-58283211D01*
X98000128Y-58437552D01*
X97946597Y-58602302D01*
X97919500Y-58773389D01*
X97919500Y-58946611D01*
X97946598Y-59117701D01*
X98000127Y-59282445D01*
X98078768Y-59436788D01*
X98180586Y-59576928D01*
X98303072Y-59699414D01*
X98443212Y-59801232D01*
X98597555Y-59879873D01*
X98762299Y-59933402D01*
X98933389Y-59960500D01*
X98933390Y-59960500D01*
X99106610Y-59960500D01*
X99106611Y-59960500D01*
X99277701Y-59933402D01*
X99442445Y-59879873D01*
X99596788Y-59801232D01*
X99736928Y-59699414D01*
X99736930Y-59699411D01*
X99740869Y-59696550D01*
X99741578Y-59697526D01*
X99800192Y-59671245D01*
X99869281Y-59681666D01*
X99904673Y-59706421D01*
X99938181Y-59739929D01*
X99971666Y-59801252D01*
X99974500Y-59827610D01*
X99974500Y-60498796D01*
X99954815Y-60565835D01*
X99902011Y-60611590D01*
X99832853Y-60621534D01*
X99769297Y-60592509D01*
X99762819Y-60586477D01*
X99736930Y-60560588D01*
X99736928Y-60560586D01*
X99596788Y-60458768D01*
X99442445Y-60380127D01*
X99277701Y-60326598D01*
X99277699Y-60326597D01*
X99277698Y-60326597D01*
X99146271Y-60305781D01*
X99106611Y-60299500D01*
X98933389Y-60299500D01*
X98901192Y-60304599D01*
X98762301Y-60326597D01*
X98657988Y-60360491D01*
X98588147Y-60362486D01*
X98531989Y-60330241D01*
X97261819Y-59060071D01*
X97228334Y-58998748D01*
X97225500Y-58972390D01*
X97225500Y-56143984D01*
X97225500Y-56143982D01*
X97196503Y-56035763D01*
X97140485Y-55938737D01*
X97061263Y-55859515D01*
X96861263Y-55659515D01*
X96764237Y-55603497D01*
X96656018Y-55574500D01*
X94256018Y-55574500D01*
X94143982Y-55574500D01*
X94035763Y-55603497D01*
X94035760Y-55603498D01*
X93938740Y-55659513D01*
X93938734Y-55659517D01*
X92459517Y-57138734D01*
X92459513Y-57138740D01*
X92403498Y-57235760D01*
X92403497Y-57235763D01*
X92374500Y-57343982D01*
X92374500Y-58332389D01*
X92354815Y-58399428D01*
X92338181Y-58420070D01*
X92032915Y-58725335D01*
X91971592Y-58758820D01*
X91906916Y-58755585D01*
X91817704Y-58726598D01*
X91689383Y-58706274D01*
X91646611Y-58699500D01*
X91473389Y-58699500D01*
X91433728Y-58705781D01*
X91302302Y-58726597D01*
X91137552Y-58780128D01*
X90983211Y-58858768D01*
X90928118Y-58898796D01*
X90843072Y-58960586D01*
X90843070Y-58960588D01*
X90843069Y-58960588D01*
X90720588Y-59083069D01*
X90720588Y-59083070D01*
X90720586Y-59083072D01*
X90689782Y-59125470D01*
X90618768Y-59223211D01*
X90540128Y-59377552D01*
X90540127Y-59377554D01*
X90540127Y-59377555D01*
X90528484Y-59413389D01*
X90486597Y-59542302D01*
X90459500Y-59713389D01*
X90459500Y-59886610D01*
X90484158Y-60042299D01*
X90486598Y-60057701D01*
X90540127Y-60222445D01*
X90618768Y-60376788D01*
X90720586Y-60516928D01*
X90843072Y-60639414D01*
X90983212Y-60741232D01*
X91137555Y-60819873D01*
X91302299Y-60873402D01*
X91473389Y-60900500D01*
X91473390Y-60900500D01*
X91646610Y-60900500D01*
X91646611Y-60900500D01*
X91817701Y-60873402D01*
X91982445Y-60819873D01*
X92136788Y-60741232D01*
X92276928Y-60639414D01*
X92399414Y-60516928D01*
X92501232Y-60376788D01*
X92579873Y-60222445D01*
X92633402Y-60057701D01*
X92660500Y-59886611D01*
X92660500Y-59713389D01*
X92633402Y-59542299D01*
X92604412Y-59453081D01*
X92602418Y-59383241D01*
X92634661Y-59327085D01*
X93140485Y-58821263D01*
X93196503Y-58724237D01*
X93225500Y-58616018D01*
X93225500Y-58503981D01*
X93225500Y-58261050D01*
X94883211Y-58261050D01*
X94997742Y-58319408D01*
X95162415Y-58372914D01*
X95333429Y-58400000D01*
X95506571Y-58400000D01*
X95677584Y-58372914D01*
X95842254Y-58319408D01*
X95956787Y-58261050D01*
X95420001Y-57724264D01*
X95420000Y-57724264D01*
X94883211Y-58261050D01*
X93225500Y-58261050D01*
X93225500Y-57627610D01*
X93245185Y-57560571D01*
X93261819Y-57539929D01*
X94339929Y-56461819D01*
X94401252Y-56428334D01*
X94427610Y-56425500D01*
X94452323Y-56425500D01*
X94519362Y-56445185D01*
X94565117Y-56497989D01*
X94575061Y-56567147D01*
X94552641Y-56622385D01*
X94479198Y-56723471D01*
X94400591Y-56877742D01*
X94347085Y-57042415D01*
X94320000Y-57213428D01*
X94320000Y-57386571D01*
X94347086Y-57557585D01*
X94347086Y-57557588D01*
X94400588Y-57722250D01*
X94458948Y-57836786D01*
X95020000Y-57275734D01*
X95020000Y-57352661D01*
X95047259Y-57454394D01*
X95099920Y-57545606D01*
X95174394Y-57620080D01*
X95265606Y-57672741D01*
X95367339Y-57700000D01*
X95472661Y-57700000D01*
X95574394Y-57672741D01*
X95665606Y-57620080D01*
X95740080Y-57545606D01*
X95792741Y-57454394D01*
X95820000Y-57352661D01*
X95820000Y-57275736D01*
X96338181Y-57793917D01*
X96371666Y-57855240D01*
X96374500Y-57881598D01*
X96374500Y-58898796D01*
X96354815Y-58965835D01*
X96302011Y-59011590D01*
X96232853Y-59021534D01*
X96169297Y-58992509D01*
X96162819Y-58986477D01*
X96136930Y-58960588D01*
X96136928Y-58960586D01*
X95996788Y-58858768D01*
X95842445Y-58780127D01*
X95677701Y-58726598D01*
X95677699Y-58726597D01*
X95677698Y-58726597D01*
X95546271Y-58705781D01*
X95506611Y-58699500D01*
X95333389Y-58699500D01*
X95293728Y-58705781D01*
X95162302Y-58726597D01*
X94997552Y-58780128D01*
X94843211Y-58858768D01*
X94788118Y-58898796D01*
X94703072Y-58960586D01*
X94703070Y-58960588D01*
X94703069Y-58960588D01*
X94580588Y-59083069D01*
X94580588Y-59083070D01*
X94580586Y-59083072D01*
X94549782Y-59125470D01*
X94478768Y-59223211D01*
X94400128Y-59377552D01*
X94400127Y-59377554D01*
X94400127Y-59377555D01*
X94388484Y-59413389D01*
X94346597Y-59542302D01*
X94319500Y-59713389D01*
X94319500Y-59886610D01*
X94344158Y-60042299D01*
X94346598Y-60057701D01*
X94400127Y-60222445D01*
X94478768Y-60376788D01*
X94580586Y-60516928D01*
X94703072Y-60639414D01*
X94733910Y-60661819D01*
X94843207Y-60741229D01*
X94843208Y-60741229D01*
X94843212Y-60741232D01*
X94910447Y-60775489D01*
X94961242Y-60823461D01*
X94973927Y-60853879D01*
X95003497Y-60964238D01*
X95003498Y-60964239D01*
X95059515Y-61061263D01*
X95059517Y-61061265D01*
X95686071Y-61687819D01*
X95719556Y-61749142D01*
X95714572Y-61818834D01*
X95672700Y-61874767D01*
X95607236Y-61899184D01*
X95598390Y-61899500D01*
X94426898Y-61899500D01*
X94387853Y-61904188D01*
X94338438Y-61910122D01*
X94197656Y-61965639D01*
X94077077Y-62057077D01*
X93985639Y-62177656D01*
X93930122Y-62318438D01*
X93924188Y-62367853D01*
X93919500Y-62406898D01*
X93919500Y-63593102D01*
X93921133Y-63606699D01*
X93930122Y-63681561D01*
X93985639Y-63822343D01*
X94077077Y-63942922D01*
X94197656Y-64034360D01*
X94197657Y-64034360D01*
X94197658Y-64034361D01*
X94338436Y-64089877D01*
X94426898Y-64100500D01*
X94450500Y-64100500D01*
X94517539Y-64120185D01*
X94563294Y-64172989D01*
X94574500Y-64224500D01*
X94574500Y-67543982D01*
X94574500Y-67656018D01*
X94603497Y-67764237D01*
X94659515Y-67861263D01*
X94659517Y-67861265D01*
X95938181Y-69139929D01*
X95971666Y-69201252D01*
X95974500Y-69227610D01*
X95974500Y-69718796D01*
X95954815Y-69785835D01*
X95902011Y-69831590D01*
X95832853Y-69841534D01*
X95769297Y-69812509D01*
X95762819Y-69806477D01*
X95736930Y-69780588D01*
X95736928Y-69780586D01*
X95596788Y-69678768D01*
X95442445Y-69600127D01*
X95277701Y-69546598D01*
X95277699Y-69546597D01*
X95277698Y-69546597D01*
X95146271Y-69525781D01*
X95106611Y-69519500D01*
X94933389Y-69519500D01*
X94893728Y-69525781D01*
X94762302Y-69546597D01*
X94597552Y-69600128D01*
X94443211Y-69678768D01*
X94377363Y-69726610D01*
X94303072Y-69780586D01*
X94303070Y-69780588D01*
X94303069Y-69780588D01*
X94180588Y-69903069D01*
X94180588Y-69903070D01*
X94180586Y-69903072D01*
X94136859Y-69963256D01*
X94078768Y-70043211D01*
X94000128Y-70197552D01*
X93946597Y-70362302D01*
X93919500Y-70533389D01*
X93919500Y-70706610D01*
X93946597Y-70877698D01*
X93946598Y-70877702D01*
X93965776Y-70936726D01*
X93967771Y-71006567D01*
X93935526Y-71062724D01*
X93525097Y-71473153D01*
X93463774Y-71506638D01*
X93394082Y-71501654D01*
X93338149Y-71459782D01*
X93313732Y-71394318D01*
X93328584Y-71326045D01*
X93337095Y-71312591D01*
X93421232Y-71196788D01*
X93499873Y-71042445D01*
X93553402Y-70877701D01*
X93580500Y-70706611D01*
X93580500Y-70533389D01*
X93553402Y-70362299D01*
X93499873Y-70197555D01*
X93421232Y-70043212D01*
X93319414Y-69903072D01*
X93196928Y-69780586D01*
X93056788Y-69678768D01*
X92902445Y-69600127D01*
X92737701Y-69546598D01*
X92737699Y-69546597D01*
X92737698Y-69546597D01*
X92606271Y-69525781D01*
X92566611Y-69519500D01*
X92393389Y-69519500D01*
X92353728Y-69525781D01*
X92222302Y-69546597D01*
X92057552Y-69600128D01*
X91903211Y-69678768D01*
X91837363Y-69726610D01*
X91763072Y-69780586D01*
X91763070Y-69780588D01*
X91763069Y-69780588D01*
X91640588Y-69903069D01*
X91640588Y-69903070D01*
X91640586Y-69903072D01*
X91596859Y-69963256D01*
X91538768Y-70043211D01*
X91460128Y-70197552D01*
X91406597Y-70362302D01*
X91379500Y-70533389D01*
X91379500Y-70706610D01*
X91406597Y-70877697D01*
X91406597Y-70877699D01*
X91406598Y-70877701D01*
X91460127Y-71042445D01*
X91538768Y-71196788D01*
X91640586Y-71336928D01*
X91763072Y-71459414D01*
X91903212Y-71561232D01*
X92057555Y-71639873D01*
X92222299Y-71693402D01*
X92393389Y-71720500D01*
X92393390Y-71720500D01*
X92566610Y-71720500D01*
X92566611Y-71720500D01*
X92737701Y-71693402D01*
X92902445Y-71639873D01*
X93056788Y-71561232D01*
X93172589Y-71477097D01*
X93238393Y-71453618D01*
X93306447Y-71469443D01*
X93355142Y-71519549D01*
X93369018Y-71588027D01*
X93343669Y-71653136D01*
X93333154Y-71665097D01*
X91938737Y-73059515D01*
X91859517Y-73138734D01*
X91859513Y-73138740D01*
X91803498Y-73235760D01*
X91803497Y-73235763D01*
X91774500Y-73343982D01*
X91774500Y-74993722D01*
X91754815Y-75060761D01*
X91702011Y-75106516D01*
X91632853Y-75116460D01*
X91569297Y-75087435D01*
X91551697Y-75068649D01*
X91545715Y-75060761D01*
X91542922Y-75057078D01*
X91542921Y-75057077D01*
X91422343Y-74965639D01*
X91281561Y-74910122D01*
X91235926Y-74904642D01*
X91193102Y-74899500D01*
X91193097Y-74899500D01*
X90152609Y-74899500D01*
X90085570Y-74879815D01*
X90064928Y-74863181D01*
X87118493Y-71916745D01*
X87085008Y-71855422D01*
X87089992Y-71785730D01*
X87131864Y-71729797D01*
X87197328Y-71705380D01*
X87225570Y-71706590D01*
X87313389Y-71720500D01*
X87313390Y-71720500D01*
X87486610Y-71720500D01*
X87486611Y-71720500D01*
X87657701Y-71693402D01*
X87822445Y-71639873D01*
X87976788Y-71561232D01*
X88116928Y-71459414D01*
X88239414Y-71336928D01*
X88341232Y-71196788D01*
X88419873Y-71042445D01*
X88473402Y-70877701D01*
X88500500Y-70706611D01*
X88500500Y-70533389D01*
X88839500Y-70533389D01*
X88839500Y-70706610D01*
X88866597Y-70877697D01*
X88866597Y-70877699D01*
X88866598Y-70877701D01*
X88920127Y-71042445D01*
X88998768Y-71196788D01*
X89100586Y-71336928D01*
X89223072Y-71459414D01*
X89363212Y-71561232D01*
X89517555Y-71639873D01*
X89682299Y-71693402D01*
X89853389Y-71720500D01*
X89853390Y-71720500D01*
X90026610Y-71720500D01*
X90026611Y-71720500D01*
X90197701Y-71693402D01*
X90362445Y-71639873D01*
X90516788Y-71561232D01*
X90656928Y-71459414D01*
X90779414Y-71336928D01*
X90881232Y-71196788D01*
X90959873Y-71042445D01*
X91013402Y-70877701D01*
X91040500Y-70706611D01*
X91040500Y-70533389D01*
X91013402Y-70362299D01*
X90959873Y-70197555D01*
X90881232Y-70043212D01*
X90779414Y-69903072D01*
X90656928Y-69780586D01*
X90516788Y-69678768D01*
X90362445Y-69600127D01*
X90197701Y-69546598D01*
X90197699Y-69546597D01*
X90197698Y-69546597D01*
X90066271Y-69525781D01*
X90026611Y-69519500D01*
X89853389Y-69519500D01*
X89813728Y-69525781D01*
X89682302Y-69546597D01*
X89517552Y-69600128D01*
X89363211Y-69678768D01*
X89297363Y-69726610D01*
X89223072Y-69780586D01*
X89223070Y-69780588D01*
X89223069Y-69780588D01*
X89100588Y-69903069D01*
X89100588Y-69903070D01*
X89100586Y-69903072D01*
X89056859Y-69963256D01*
X88998768Y-70043211D01*
X88920128Y-70197552D01*
X88866597Y-70362302D01*
X88839500Y-70533389D01*
X88500500Y-70533389D01*
X88473402Y-70362299D01*
X88419873Y-70197555D01*
X88341232Y-70043212D01*
X88239414Y-69903072D01*
X88116928Y-69780586D01*
X87976788Y-69678768D01*
X87822445Y-69600127D01*
X87657701Y-69546598D01*
X87657699Y-69546597D01*
X87657698Y-69546597D01*
X87526271Y-69525781D01*
X87486611Y-69519500D01*
X87313389Y-69519500D01*
X87273728Y-69525781D01*
X87142302Y-69546597D01*
X86977552Y-69600128D01*
X86823211Y-69678768D01*
X86757363Y-69726610D01*
X86683072Y-69780586D01*
X86683070Y-69780588D01*
X86683069Y-69780588D01*
X86560588Y-69903069D01*
X86560588Y-69903070D01*
X86560586Y-69903072D01*
X86516859Y-69963256D01*
X86458768Y-70043211D01*
X86380128Y-70197552D01*
X86326597Y-70362302D01*
X86299500Y-70533389D01*
X86299500Y-70706610D01*
X86326597Y-70877697D01*
X86326597Y-70877699D01*
X86326598Y-70877701D01*
X86380127Y-71042445D01*
X86458768Y-71196788D01*
X86560586Y-71336928D01*
X86560588Y-71336930D01*
X86586477Y-71362819D01*
X86619962Y-71424142D01*
X86614978Y-71493834D01*
X86573106Y-71549767D01*
X86507642Y-71574184D01*
X86498796Y-71574500D01*
X85761204Y-71574500D01*
X85694165Y-71554815D01*
X85648410Y-71502011D01*
X85638466Y-71432853D01*
X85667491Y-71369297D01*
X85673523Y-71362819D01*
X85699414Y-71336928D01*
X85801232Y-71196788D01*
X85879873Y-71042445D01*
X85933402Y-70877701D01*
X85960500Y-70706611D01*
X85960500Y-70533389D01*
X85933402Y-70362299D01*
X85879873Y-70197555D01*
X85801232Y-70043212D01*
X85699414Y-69903072D01*
X85576928Y-69780586D01*
X85436788Y-69678768D01*
X85282445Y-69600127D01*
X85117701Y-69546598D01*
X85117699Y-69546597D01*
X85117698Y-69546597D01*
X84986271Y-69525781D01*
X84946611Y-69519500D01*
X84773389Y-69519500D01*
X84733728Y-69525781D01*
X84602302Y-69546597D01*
X84437552Y-69600128D01*
X84283211Y-69678768D01*
X84217363Y-69726610D01*
X84143072Y-69780586D01*
X84143070Y-69780588D01*
X84143069Y-69780588D01*
X84020588Y-69903069D01*
X84020588Y-69903070D01*
X84020586Y-69903072D01*
X83976859Y-69963256D01*
X83918768Y-70043211D01*
X83840128Y-70197552D01*
X83786597Y-70362302D01*
X83759500Y-70533389D01*
X83759500Y-70706610D01*
X83786597Y-70877697D01*
X83786597Y-70877699D01*
X83786598Y-70877701D01*
X83828469Y-71006567D01*
X83840129Y-71042450D01*
X83896007Y-71152118D01*
X83908903Y-71220787D01*
X83882626Y-71285527D01*
X83825520Y-71325784D01*
X83755714Y-71328776D01*
X83697841Y-71296093D01*
X83419187Y-71017439D01*
X83385702Y-70956116D01*
X83388937Y-70891439D01*
X83393402Y-70877701D01*
X83420500Y-70706611D01*
X83420500Y-70533389D01*
X83393402Y-70362299D01*
X83339873Y-70197555D01*
X83261232Y-70043212D01*
X83159414Y-69903072D01*
X83036928Y-69780586D01*
X82896788Y-69678768D01*
X82742445Y-69600127D01*
X82577701Y-69546598D01*
X82577699Y-69546597D01*
X82577698Y-69546597D01*
X82446271Y-69525781D01*
X82406611Y-69519500D01*
X82233389Y-69519500D01*
X82193728Y-69525781D01*
X82062302Y-69546597D01*
X81897552Y-69600128D01*
X81743211Y-69678768D01*
X81677363Y-69726610D01*
X81603072Y-69780586D01*
X81603070Y-69780588D01*
X81603069Y-69780588D01*
X81480588Y-69903069D01*
X81480588Y-69903070D01*
X81480586Y-69903072D01*
X81436859Y-69963256D01*
X81378768Y-70043211D01*
X81300128Y-70197552D01*
X81246597Y-70362302D01*
X81219500Y-70533389D01*
X80880500Y-70533389D01*
X80853402Y-70362299D01*
X80799873Y-70197555D01*
X80721232Y-70043212D01*
X80619414Y-69903072D01*
X80496928Y-69780586D01*
X80356788Y-69678768D01*
X80202445Y-69600127D01*
X80037701Y-69546598D01*
X80037699Y-69546597D01*
X80037698Y-69546597D01*
X79906271Y-69525781D01*
X79866611Y-69519500D01*
X79693389Y-69519500D01*
X79653728Y-69525781D01*
X79522302Y-69546597D01*
X79357552Y-69600128D01*
X79203211Y-69678768D01*
X79137363Y-69726610D01*
X79063072Y-69780586D01*
X79063070Y-69780588D01*
X79063069Y-69780588D01*
X78940588Y-69903069D01*
X78940588Y-69903070D01*
X78940586Y-69903072D01*
X78896859Y-69963256D01*
X78838768Y-70043211D01*
X78760128Y-70197552D01*
X78706597Y-70362302D01*
X78679500Y-70533389D01*
X78340500Y-70533389D01*
X78313402Y-70362299D01*
X78259873Y-70197555D01*
X78181232Y-70043212D01*
X78079414Y-69903072D01*
X77956928Y-69780586D01*
X77816788Y-69678768D01*
X77662445Y-69600127D01*
X77497701Y-69546598D01*
X77497699Y-69546597D01*
X77497698Y-69546597D01*
X77366271Y-69525781D01*
X77326611Y-69519500D01*
X77153389Y-69519500D01*
X77113728Y-69525781D01*
X76982302Y-69546597D01*
X76817552Y-69600128D01*
X76663211Y-69678768D01*
X76597363Y-69726610D01*
X76523072Y-69780586D01*
X76523070Y-69780588D01*
X76523069Y-69780588D01*
X76400588Y-69903069D01*
X76400588Y-69903070D01*
X76400586Y-69903072D01*
X76356859Y-69963256D01*
X76298768Y-70043211D01*
X76220128Y-70197552D01*
X76166597Y-70362302D01*
X76139500Y-70533389D01*
X76139500Y-70706610D01*
X76166597Y-70877697D01*
X76166597Y-70877699D01*
X76166598Y-70877701D01*
X76220127Y-71042445D01*
X76298768Y-71196788D01*
X76375656Y-71302615D01*
X76399136Y-71368420D01*
X76383311Y-71436474D01*
X76333205Y-71485169D01*
X76275338Y-71499500D01*
X76141519Y-71499500D01*
X76074480Y-71479815D01*
X76053838Y-71463181D01*
X75752324Y-71161667D01*
X75718839Y-71100344D01*
X75722073Y-71035671D01*
X75773402Y-70877701D01*
X75800500Y-70706611D01*
X75800500Y-70533389D01*
X75773402Y-70362299D01*
X75719873Y-70197555D01*
X75641232Y-70043212D01*
X75539414Y-69903072D01*
X75416928Y-69780586D01*
X75276788Y-69678768D01*
X75276787Y-69678767D01*
X75276781Y-69678763D01*
X75272636Y-69676223D01*
X75273063Y-69675524D01*
X75247887Y-69657230D01*
X74046546Y-68455888D01*
X74046545Y-68455887D01*
X73931807Y-68379222D01*
X73804332Y-68326421D01*
X73804322Y-68326418D01*
X73668996Y-68299500D01*
X73668994Y-68299500D01*
X73668993Y-68299500D01*
X65341518Y-68299500D01*
X65274479Y-68279815D01*
X65253837Y-68263181D01*
X62191154Y-65200497D01*
X62111600Y-65120943D01*
X65599500Y-65120943D01*
X65599500Y-65279057D01*
X65639398Y-65427956D01*
X65640423Y-65431783D01*
X65640426Y-65431790D01*
X65719475Y-65568709D01*
X65719479Y-65568714D01*
X65719480Y-65568716D01*
X65831284Y-65680520D01*
X65831286Y-65680521D01*
X65831290Y-65680524D01*
X65968209Y-65759573D01*
X65968216Y-65759577D01*
X66120943Y-65800500D01*
X66120945Y-65800500D01*
X66279055Y-65800500D01*
X66279057Y-65800500D01*
X66431784Y-65759577D01*
X66568716Y-65680520D01*
X66680520Y-65568716D01*
X66692612Y-65547772D01*
X66743178Y-65499555D01*
X66811785Y-65486331D01*
X66876650Y-65512298D01*
X66907388Y-65547772D01*
X66919477Y-65568712D01*
X66919479Y-65568715D01*
X66919480Y-65568716D01*
X67031284Y-65680520D01*
X67031286Y-65680521D01*
X67031290Y-65680524D01*
X67168209Y-65759573D01*
X67168216Y-65759577D01*
X67320943Y-65800500D01*
X67320945Y-65800500D01*
X67479055Y-65800500D01*
X67479057Y-65800500D01*
X67631784Y-65759577D01*
X67768716Y-65680520D01*
X67880520Y-65568716D01*
X67959577Y-65431784D01*
X68000500Y-65279057D01*
X68000500Y-65252610D01*
X68020185Y-65185571D01*
X68036819Y-65164929D01*
X68370466Y-64831282D01*
X68740485Y-64461263D01*
X68796503Y-64364237D01*
X68825500Y-64256018D01*
X68825500Y-64234796D01*
X68845185Y-64167757D01*
X68887498Y-64127410D01*
X68968716Y-64080520D01*
X69022430Y-64026806D01*
X69083753Y-63993321D01*
X69153445Y-63998305D01*
X69166407Y-64004002D01*
X69197555Y-64019873D01*
X69362299Y-64073402D01*
X69533389Y-64100500D01*
X69533390Y-64100500D01*
X69706610Y-64100500D01*
X69706611Y-64100500D01*
X69877701Y-64073402D01*
X70042445Y-64019873D01*
X70196788Y-63941232D01*
X70336928Y-63839414D01*
X70459414Y-63716928D01*
X70561232Y-63576788D01*
X70639873Y-63422445D01*
X70693402Y-63257701D01*
X70720500Y-63086611D01*
X70720500Y-62913389D01*
X70693402Y-62742299D01*
X70639873Y-62577555D01*
X70561232Y-62423212D01*
X70459414Y-62283072D01*
X70336928Y-62160586D01*
X70196788Y-62058768D01*
X70042445Y-61980127D01*
X69877701Y-61926598D01*
X69877699Y-61926597D01*
X69877698Y-61926597D01*
X69746271Y-61905781D01*
X69706611Y-61899500D01*
X69533389Y-61899500D01*
X69493728Y-61905781D01*
X69362302Y-61926597D01*
X69197552Y-61980128D01*
X69043211Y-62058768D01*
X68975815Y-62107735D01*
X68903072Y-62160586D01*
X68903070Y-62160588D01*
X68903069Y-62160588D01*
X68780588Y-62283069D01*
X68780588Y-62283070D01*
X68780586Y-62283072D01*
X68754891Y-62318438D01*
X68678768Y-62423211D01*
X68600128Y-62577552D01*
X68546597Y-62742302D01*
X68519499Y-62913390D01*
X68519421Y-62914392D01*
X68519284Y-62914749D01*
X68518738Y-62918201D01*
X68518012Y-62918086D01*
X68494533Y-62979679D01*
X68438300Y-63021147D01*
X68427899Y-63024430D01*
X68368220Y-63040421D01*
X68368213Y-63040424D01*
X68366494Y-63041417D01*
X68364860Y-63041813D01*
X68360706Y-63043534D01*
X68360437Y-63042885D01*
X68298592Y-63057885D01*
X68232567Y-63035029D01*
X68189380Y-62980105D01*
X68180500Y-62934026D01*
X68180500Y-62913389D01*
X68153402Y-62742299D01*
X68099873Y-62577555D01*
X68021232Y-62423212D01*
X67919414Y-62283072D01*
X67796928Y-62160586D01*
X67656788Y-62058768D01*
X67502445Y-61980127D01*
X67337701Y-61926598D01*
X67337699Y-61926597D01*
X67337698Y-61926597D01*
X67206271Y-61905781D01*
X67166611Y-61899500D01*
X66993389Y-61899500D01*
X66953728Y-61905781D01*
X66822302Y-61926597D01*
X66657552Y-61980128D01*
X66503211Y-62058768D01*
X66435815Y-62107735D01*
X66363072Y-62160586D01*
X66363070Y-62160588D01*
X66363069Y-62160588D01*
X66240588Y-62283069D01*
X66240588Y-62283070D01*
X66240586Y-62283072D01*
X66214891Y-62318438D01*
X66138768Y-62423211D01*
X66060128Y-62577552D01*
X66006597Y-62742302D01*
X65979500Y-62913389D01*
X65979500Y-63086610D01*
X66006598Y-63257702D01*
X66006598Y-63257705D01*
X66015966Y-63286535D01*
X66017961Y-63356376D01*
X65985717Y-63412533D01*
X65938737Y-63459514D01*
X65938737Y-63459515D01*
X65859514Y-63538738D01*
X65859513Y-63538740D01*
X65803498Y-63635760D01*
X65803497Y-63635763D01*
X65774500Y-63743982D01*
X65774500Y-64724902D01*
X65754815Y-64791941D01*
X65738181Y-64812583D01*
X65719481Y-64831282D01*
X65719475Y-64831290D01*
X65640426Y-64968209D01*
X65640423Y-64968216D01*
X65599500Y-65120943D01*
X62111600Y-65120943D01*
X61136819Y-64146162D01*
X61103334Y-64084839D01*
X61100500Y-64058481D01*
X61100500Y-63950131D01*
X61120185Y-63883092D01*
X61172989Y-63837337D01*
X61242147Y-63827393D01*
X61297383Y-63849812D01*
X61423212Y-63941232D01*
X61577555Y-64019873D01*
X61742299Y-64073402D01*
X61913389Y-64100500D01*
X61913390Y-64100500D01*
X62086610Y-64100500D01*
X62086611Y-64100500D01*
X62257701Y-64073402D01*
X62422445Y-64019873D01*
X62576788Y-63941232D01*
X62716928Y-63839414D01*
X62839414Y-63716928D01*
X62941232Y-63576788D01*
X63019873Y-63422445D01*
X63073402Y-63257701D01*
X63100500Y-63086611D01*
X63100500Y-62913389D01*
X63439500Y-62913389D01*
X63439500Y-63086610D01*
X63466579Y-63257585D01*
X63466598Y-63257701D01*
X63520127Y-63422445D01*
X63598768Y-63576788D01*
X63700586Y-63716928D01*
X63823072Y-63839414D01*
X63963212Y-63941232D01*
X64117555Y-64019873D01*
X64282299Y-64073402D01*
X64453389Y-64100500D01*
X64453390Y-64100500D01*
X64626610Y-64100500D01*
X64626611Y-64100500D01*
X64797701Y-64073402D01*
X64962445Y-64019873D01*
X65116788Y-63941232D01*
X65256928Y-63839414D01*
X65379414Y-63716928D01*
X65481232Y-63576788D01*
X65559873Y-63422445D01*
X65613402Y-63257701D01*
X65640500Y-63086611D01*
X65640500Y-62913389D01*
X65613402Y-62742299D01*
X65559873Y-62577555D01*
X65481232Y-62423212D01*
X65379414Y-62283072D01*
X65256928Y-62160586D01*
X65116788Y-62058768D01*
X64962445Y-61980127D01*
X64797701Y-61926598D01*
X64797699Y-61926597D01*
X64797698Y-61926597D01*
X64666271Y-61905781D01*
X64626611Y-61899500D01*
X64453389Y-61899500D01*
X64413728Y-61905781D01*
X64282302Y-61926597D01*
X64117552Y-61980128D01*
X63963211Y-62058768D01*
X63895815Y-62107735D01*
X63823072Y-62160586D01*
X63823070Y-62160588D01*
X63823069Y-62160588D01*
X63700588Y-62283069D01*
X63700588Y-62283070D01*
X63700586Y-62283072D01*
X63674891Y-62318438D01*
X63598768Y-62423211D01*
X63520128Y-62577552D01*
X63466597Y-62742302D01*
X63439500Y-62913389D01*
X63100500Y-62913389D01*
X63073402Y-62742299D01*
X63019873Y-62577555D01*
X62941232Y-62423212D01*
X62839414Y-62283072D01*
X62716928Y-62160586D01*
X62576788Y-62058768D01*
X62422445Y-61980127D01*
X62257701Y-61926598D01*
X62257699Y-61926597D01*
X62257698Y-61926597D01*
X62126271Y-61905781D01*
X62086611Y-61899500D01*
X61913389Y-61899500D01*
X61873728Y-61905781D01*
X61742302Y-61926597D01*
X61577552Y-61980128D01*
X61423208Y-62058770D01*
X61297385Y-62150186D01*
X61231579Y-62173666D01*
X61163525Y-62157841D01*
X61114830Y-62107735D01*
X61100500Y-62049868D01*
X61100500Y-60213389D01*
X66399500Y-60213389D01*
X66399500Y-60386610D01*
X66420606Y-60519873D01*
X66426598Y-60557701D01*
X66480127Y-60722445D01*
X66558768Y-60876788D01*
X66660586Y-61016928D01*
X66783072Y-61139414D01*
X66923212Y-61241232D01*
X67077555Y-61319873D01*
X67242299Y-61373402D01*
X67413389Y-61400500D01*
X67413390Y-61400500D01*
X67586610Y-61400500D01*
X67586611Y-61400500D01*
X67757701Y-61373402D01*
X67922445Y-61319873D01*
X68076788Y-61241232D01*
X68216928Y-61139414D01*
X68339414Y-61016928D01*
X68441232Y-60876788D01*
X68519873Y-60722445D01*
X68523532Y-60711181D01*
X68562968Y-60653508D01*
X68627326Y-60626308D01*
X68641463Y-60625500D01*
X69172390Y-60625500D01*
X69239429Y-60645185D01*
X69260071Y-60661819D01*
X71095145Y-62496893D01*
X71128630Y-62558216D01*
X71125395Y-62622891D01*
X71086598Y-62742297D01*
X71086597Y-62742301D01*
X71059500Y-62913389D01*
X71059500Y-63086610D01*
X71086579Y-63257585D01*
X71086598Y-63257701D01*
X71140127Y-63422445D01*
X71218768Y-63576788D01*
X71320586Y-63716928D01*
X71443072Y-63839414D01*
X71583212Y-63941232D01*
X71737555Y-64019873D01*
X71902299Y-64073402D01*
X72073389Y-64100500D01*
X72073390Y-64100500D01*
X72246610Y-64100500D01*
X72246611Y-64100500D01*
X72417701Y-64073402D01*
X72582445Y-64019873D01*
X72736788Y-63941232D01*
X72876928Y-63839414D01*
X72999414Y-63716928D01*
X73101232Y-63576788D01*
X73179873Y-63422445D01*
X73233402Y-63257701D01*
X73260500Y-63086611D01*
X73260500Y-62913389D01*
X73599500Y-62913389D01*
X73599500Y-63086610D01*
X73626579Y-63257585D01*
X73626598Y-63257701D01*
X73680127Y-63422445D01*
X73758768Y-63576788D01*
X73860586Y-63716928D01*
X73983072Y-63839414D01*
X74123212Y-63941232D01*
X74277555Y-64019873D01*
X74442299Y-64073402D01*
X74613389Y-64100500D01*
X74613390Y-64100500D01*
X74786610Y-64100500D01*
X74786611Y-64100500D01*
X74957701Y-64073402D01*
X75122445Y-64019873D01*
X75237893Y-63961050D01*
X76703211Y-63961050D01*
X76817742Y-64019408D01*
X76982415Y-64072914D01*
X77153429Y-64100000D01*
X77326571Y-64100000D01*
X77497584Y-64072914D01*
X77662254Y-64019408D01*
X77776787Y-63961050D01*
X77240001Y-63424264D01*
X77240000Y-63424264D01*
X76703211Y-63961050D01*
X75237893Y-63961050D01*
X75276788Y-63941232D01*
X75416928Y-63839414D01*
X75539414Y-63716928D01*
X75641232Y-63576788D01*
X75719873Y-63422445D01*
X75773402Y-63257701D01*
X75800500Y-63086611D01*
X75800500Y-62913428D01*
X76140000Y-62913428D01*
X76140000Y-63086571D01*
X76167086Y-63257585D01*
X76167086Y-63257588D01*
X76220588Y-63422250D01*
X76278947Y-63536786D01*
X76815736Y-63000000D01*
X76763075Y-62947339D01*
X76840000Y-62947339D01*
X76840000Y-63052661D01*
X76867259Y-63154394D01*
X76919920Y-63245606D01*
X76994394Y-63320080D01*
X77085606Y-63372741D01*
X77187339Y-63400000D01*
X77292661Y-63400000D01*
X77394394Y-63372741D01*
X77485606Y-63320080D01*
X77560080Y-63245606D01*
X77612741Y-63154394D01*
X77640000Y-63052661D01*
X77640000Y-62999999D01*
X77664264Y-62999999D01*
X77664264Y-63000001D01*
X78201050Y-63536787D01*
X78259408Y-63422254D01*
X78312914Y-63257584D01*
X78340000Y-63086571D01*
X78340000Y-62913428D01*
X78339994Y-62913389D01*
X78679500Y-62913389D01*
X78679500Y-63086610D01*
X78706579Y-63257585D01*
X78706598Y-63257701D01*
X78760127Y-63422445D01*
X78838768Y-63576788D01*
X78940586Y-63716928D01*
X79063072Y-63839414D01*
X79203212Y-63941232D01*
X79357555Y-64019873D01*
X79522299Y-64073402D01*
X79693389Y-64100500D01*
X79693390Y-64100500D01*
X79866610Y-64100500D01*
X79866611Y-64100500D01*
X80037701Y-64073402D01*
X80202445Y-64019873D01*
X80356788Y-63941232D01*
X80496928Y-63839414D01*
X80619414Y-63716928D01*
X80721232Y-63576788D01*
X80799873Y-63422445D01*
X80853402Y-63257701D01*
X80880500Y-63086611D01*
X80880500Y-62913389D01*
X81219500Y-62913389D01*
X81219500Y-63086610D01*
X81246579Y-63257585D01*
X81246598Y-63257701D01*
X81300127Y-63422445D01*
X81378768Y-63576788D01*
X81480586Y-63716928D01*
X81603072Y-63839414D01*
X81743212Y-63941232D01*
X81897555Y-64019873D01*
X82062299Y-64073402D01*
X82233389Y-64100500D01*
X82233390Y-64100500D01*
X82406610Y-64100500D01*
X82406611Y-64100500D01*
X82577701Y-64073402D01*
X82742445Y-64019873D01*
X82896788Y-63941232D01*
X83036928Y-63839414D01*
X83159414Y-63716928D01*
X83261232Y-63576788D01*
X83339873Y-63422445D01*
X83393402Y-63257701D01*
X83420500Y-63086611D01*
X83420500Y-62913389D01*
X83759500Y-62913389D01*
X83759500Y-63086610D01*
X83786579Y-63257585D01*
X83786598Y-63257701D01*
X83840127Y-63422445D01*
X83918768Y-63576788D01*
X84020586Y-63716928D01*
X84143072Y-63839414D01*
X84283212Y-63941232D01*
X84437555Y-64019873D01*
X84602299Y-64073402D01*
X84773389Y-64100500D01*
X84773390Y-64100500D01*
X84946610Y-64100500D01*
X84946611Y-64100500D01*
X85117701Y-64073402D01*
X85282445Y-64019873D01*
X85436788Y-63941232D01*
X85576928Y-63839414D01*
X85699414Y-63716928D01*
X85801232Y-63576788D01*
X85879873Y-63422445D01*
X85933402Y-63257701D01*
X85960500Y-63086611D01*
X85960500Y-62913389D01*
X86299500Y-62913389D01*
X86299500Y-63086610D01*
X86326579Y-63257585D01*
X86326598Y-63257701D01*
X86380127Y-63422445D01*
X86458768Y-63576788D01*
X86560586Y-63716928D01*
X86683072Y-63839414D01*
X86823212Y-63941232D01*
X86977555Y-64019873D01*
X87142299Y-64073402D01*
X87313389Y-64100500D01*
X87313390Y-64100500D01*
X87486610Y-64100500D01*
X87486611Y-64100500D01*
X87657701Y-64073402D01*
X87822445Y-64019873D01*
X87976788Y-63941232D01*
X88116928Y-63839414D01*
X88239414Y-63716928D01*
X88341232Y-63576788D01*
X88419873Y-63422445D01*
X88473402Y-63257701D01*
X88500500Y-63086611D01*
X88500500Y-62913389D01*
X88839500Y-62913389D01*
X88839500Y-63086610D01*
X88866579Y-63257585D01*
X88866598Y-63257701D01*
X88920127Y-63422445D01*
X88998768Y-63576788D01*
X89100586Y-63716928D01*
X89223072Y-63839414D01*
X89363212Y-63941232D01*
X89517555Y-64019873D01*
X89682299Y-64073402D01*
X89853389Y-64100500D01*
X89853390Y-64100500D01*
X90026610Y-64100500D01*
X90026611Y-64100500D01*
X90197701Y-64073402D01*
X90362445Y-64019873D01*
X90516788Y-63941232D01*
X90656928Y-63839414D01*
X90779414Y-63716928D01*
X90881232Y-63576788D01*
X90959873Y-63422445D01*
X91013402Y-63257701D01*
X91040500Y-63086611D01*
X91040500Y-62913389D01*
X91379500Y-62913389D01*
X91379500Y-63086610D01*
X91406579Y-63257585D01*
X91406598Y-63257701D01*
X91460127Y-63422445D01*
X91538768Y-63576788D01*
X91640586Y-63716928D01*
X91763072Y-63839414D01*
X91903212Y-63941232D01*
X92057555Y-64019873D01*
X92222299Y-64073402D01*
X92393389Y-64100500D01*
X92393390Y-64100500D01*
X92566610Y-64100500D01*
X92566611Y-64100500D01*
X92737701Y-64073402D01*
X92902445Y-64019873D01*
X93056788Y-63941232D01*
X93196928Y-63839414D01*
X93319414Y-63716928D01*
X93421232Y-63576788D01*
X93499873Y-63422445D01*
X93553402Y-63257701D01*
X93580500Y-63086611D01*
X93580500Y-62913389D01*
X93553402Y-62742299D01*
X93499873Y-62577555D01*
X93421232Y-62423212D01*
X93319414Y-62283072D01*
X93196928Y-62160586D01*
X93056788Y-62058768D01*
X92902445Y-61980127D01*
X92737701Y-61926598D01*
X92737699Y-61926597D01*
X92737698Y-61926597D01*
X92606271Y-61905781D01*
X92566611Y-61899500D01*
X92393389Y-61899500D01*
X92353728Y-61905781D01*
X92222302Y-61926597D01*
X92057552Y-61980128D01*
X91903211Y-62058768D01*
X91835815Y-62107735D01*
X91763072Y-62160586D01*
X91763070Y-62160588D01*
X91763069Y-62160588D01*
X91640588Y-62283069D01*
X91640588Y-62283070D01*
X91640586Y-62283072D01*
X91614891Y-62318438D01*
X91538768Y-62423211D01*
X91460128Y-62577552D01*
X91406597Y-62742302D01*
X91379500Y-62913389D01*
X91040500Y-62913389D01*
X91013402Y-62742299D01*
X90959873Y-62577555D01*
X90881232Y-62423212D01*
X90779414Y-62283072D01*
X90656928Y-62160586D01*
X90516788Y-62058768D01*
X90362445Y-61980127D01*
X90197701Y-61926598D01*
X90197699Y-61926597D01*
X90197698Y-61926597D01*
X90066271Y-61905781D01*
X90026611Y-61899500D01*
X89853389Y-61899500D01*
X89813728Y-61905781D01*
X89682302Y-61926597D01*
X89517552Y-61980128D01*
X89363211Y-62058768D01*
X89295815Y-62107735D01*
X89223072Y-62160586D01*
X89223070Y-62160588D01*
X89223069Y-62160588D01*
X89100588Y-62283069D01*
X89100588Y-62283070D01*
X89100586Y-62283072D01*
X89074891Y-62318438D01*
X88998768Y-62423211D01*
X88920128Y-62577552D01*
X88866597Y-62742302D01*
X88839500Y-62913389D01*
X88500500Y-62913389D01*
X88473402Y-62742299D01*
X88419873Y-62577555D01*
X88341232Y-62423212D01*
X88239414Y-62283072D01*
X88116928Y-62160586D01*
X87976788Y-62058768D01*
X87822445Y-61980127D01*
X87657701Y-61926598D01*
X87657699Y-61926597D01*
X87657698Y-61926597D01*
X87526271Y-61905781D01*
X87486611Y-61899500D01*
X87313389Y-61899500D01*
X87273728Y-61905781D01*
X87142302Y-61926597D01*
X86977552Y-61980128D01*
X86823211Y-62058768D01*
X86755815Y-62107735D01*
X86683072Y-62160586D01*
X86683070Y-62160588D01*
X86683069Y-62160588D01*
X86560588Y-62283069D01*
X86560588Y-62283070D01*
X86560586Y-62283072D01*
X86534891Y-62318438D01*
X86458768Y-62423211D01*
X86380128Y-62577552D01*
X86326597Y-62742302D01*
X86299500Y-62913389D01*
X85960500Y-62913389D01*
X85933402Y-62742299D01*
X85879873Y-62577555D01*
X85801232Y-62423212D01*
X85699414Y-62283072D01*
X85576928Y-62160586D01*
X85436788Y-62058768D01*
X85282445Y-61980127D01*
X85117701Y-61926598D01*
X85117699Y-61926597D01*
X85117698Y-61926597D01*
X84986271Y-61905781D01*
X84946611Y-61899500D01*
X84773389Y-61899500D01*
X84733728Y-61905781D01*
X84602302Y-61926597D01*
X84437552Y-61980128D01*
X84283211Y-62058768D01*
X84215815Y-62107735D01*
X84143072Y-62160586D01*
X84143070Y-62160588D01*
X84143069Y-62160588D01*
X84020588Y-62283069D01*
X84020588Y-62283070D01*
X84020586Y-62283072D01*
X83994891Y-62318438D01*
X83918768Y-62423211D01*
X83840128Y-62577552D01*
X83786597Y-62742302D01*
X83759500Y-62913389D01*
X83420500Y-62913389D01*
X83393402Y-62742299D01*
X83339873Y-62577555D01*
X83261232Y-62423212D01*
X83159414Y-62283072D01*
X83036928Y-62160586D01*
X82896788Y-62058768D01*
X82742445Y-61980127D01*
X82577701Y-61926598D01*
X82577699Y-61926597D01*
X82577698Y-61926597D01*
X82446271Y-61905781D01*
X82406611Y-61899500D01*
X82233389Y-61899500D01*
X82193728Y-61905781D01*
X82062302Y-61926597D01*
X81897552Y-61980128D01*
X81743211Y-62058768D01*
X81675815Y-62107735D01*
X81603072Y-62160586D01*
X81603070Y-62160588D01*
X81603069Y-62160588D01*
X81480588Y-62283069D01*
X81480588Y-62283070D01*
X81480586Y-62283072D01*
X81454891Y-62318438D01*
X81378768Y-62423211D01*
X81300128Y-62577552D01*
X81246597Y-62742302D01*
X81219500Y-62913389D01*
X80880500Y-62913389D01*
X80853402Y-62742299D01*
X80799873Y-62577555D01*
X80721232Y-62423212D01*
X80619414Y-62283072D01*
X80496928Y-62160586D01*
X80356788Y-62058768D01*
X80202445Y-61980127D01*
X80037701Y-61926598D01*
X80037699Y-61926597D01*
X80037698Y-61926597D01*
X79906271Y-61905781D01*
X79866611Y-61899500D01*
X79693389Y-61899500D01*
X79653728Y-61905781D01*
X79522302Y-61926597D01*
X79357552Y-61980128D01*
X79203211Y-62058768D01*
X79135815Y-62107735D01*
X79063072Y-62160586D01*
X79063070Y-62160588D01*
X79063069Y-62160588D01*
X78940588Y-62283069D01*
X78940588Y-62283070D01*
X78940586Y-62283072D01*
X78914891Y-62318438D01*
X78838768Y-62423211D01*
X78760128Y-62577552D01*
X78706597Y-62742302D01*
X78679500Y-62913389D01*
X78339994Y-62913389D01*
X78312914Y-62742415D01*
X78259408Y-62577742D01*
X78201050Y-62463211D01*
X77664264Y-62999999D01*
X77640000Y-62999999D01*
X77640000Y-62947339D01*
X77612741Y-62845606D01*
X77560080Y-62754394D01*
X77485606Y-62679920D01*
X77394394Y-62627259D01*
X77292661Y-62600000D01*
X77187339Y-62600000D01*
X77085606Y-62627259D01*
X76994394Y-62679920D01*
X76919920Y-62754394D01*
X76867259Y-62845606D01*
X76840000Y-62947339D01*
X76763075Y-62947339D01*
X76278948Y-62463212D01*
X76220589Y-62577746D01*
X76220588Y-62577749D01*
X76167086Y-62742411D01*
X76167086Y-62742414D01*
X76140000Y-62913428D01*
X75800500Y-62913428D01*
X75800500Y-62913389D01*
X75773402Y-62742299D01*
X75719873Y-62577555D01*
X75641232Y-62423212D01*
X75539414Y-62283072D01*
X75416928Y-62160586D01*
X75276788Y-62058768D01*
X75276679Y-62058712D01*
X75274902Y-62057374D01*
X75261191Y-62038948D01*
X76703212Y-62038948D01*
X77240000Y-62575736D01*
X77240001Y-62575736D01*
X77776787Y-62038948D01*
X77662250Y-61980588D01*
X77497587Y-61927086D01*
X77326571Y-61900000D01*
X77153429Y-61900000D01*
X76982414Y-61927086D01*
X76982411Y-61927086D01*
X76817749Y-61980588D01*
X76817746Y-61980589D01*
X76703212Y-62038948D01*
X75261191Y-62038948D01*
X75254645Y-62030151D01*
X75233949Y-62003310D01*
X75233704Y-62002007D01*
X75233193Y-62001320D01*
X75232973Y-61998113D01*
X75225500Y-61958323D01*
X75225500Y-61427609D01*
X75245185Y-61360570D01*
X75261814Y-61339933D01*
X77062896Y-59538850D01*
X77124217Y-59505367D01*
X77187288Y-59509877D01*
X77187749Y-59508361D01*
X77193572Y-59510126D01*
X77193580Y-59510130D01*
X77337976Y-59538852D01*
X77396530Y-59550499D01*
X77396534Y-59550500D01*
X77396535Y-59550500D01*
X77603466Y-59550500D01*
X77603467Y-59550499D01*
X77806420Y-59510130D01*
X77997598Y-59430941D01*
X78169655Y-59315977D01*
X78315977Y-59169655D01*
X78430941Y-58997598D01*
X78461754Y-58923211D01*
X78470520Y-58902047D01*
X78514361Y-58847644D01*
X78580655Y-58825579D01*
X78585081Y-58825500D01*
X80972390Y-58825500D01*
X81039429Y-58845185D01*
X81060071Y-58861819D01*
X81949859Y-59751607D01*
X81983344Y-59812930D01*
X81980109Y-59877605D01*
X81926598Y-60042297D01*
X81926597Y-60042301D01*
X81899500Y-60213389D01*
X81899500Y-60386610D01*
X81920606Y-60519873D01*
X81926598Y-60557701D01*
X81980127Y-60722445D01*
X82058768Y-60876788D01*
X82160586Y-61016928D01*
X82283072Y-61139414D01*
X82423212Y-61241232D01*
X82577555Y-61319873D01*
X82742299Y-61373402D01*
X82913389Y-61400500D01*
X82913390Y-61400500D01*
X83086610Y-61400500D01*
X83086611Y-61400500D01*
X83257701Y-61373402D01*
X83422445Y-61319873D01*
X83576788Y-61241232D01*
X83716928Y-61139414D01*
X83839414Y-61016928D01*
X83941232Y-60876788D01*
X84019873Y-60722445D01*
X84073402Y-60557701D01*
X84100500Y-60386611D01*
X84100500Y-60213389D01*
X84073402Y-60042299D01*
X84019873Y-59877555D01*
X83941232Y-59723212D01*
X83934095Y-59713389D01*
X87919500Y-59713389D01*
X87919500Y-59886610D01*
X87944158Y-60042299D01*
X87946598Y-60057701D01*
X88000127Y-60222445D01*
X88078768Y-60376788D01*
X88180586Y-60516928D01*
X88303072Y-60639414D01*
X88443212Y-60741232D01*
X88597555Y-60819873D01*
X88762299Y-60873402D01*
X88933389Y-60900500D01*
X88933390Y-60900500D01*
X89106610Y-60900500D01*
X89106611Y-60900500D01*
X89277701Y-60873402D01*
X89442445Y-60819873D01*
X89596788Y-60741232D01*
X89736928Y-60639414D01*
X89859414Y-60516928D01*
X89961232Y-60376788D01*
X90039873Y-60222445D01*
X90093402Y-60057701D01*
X90120500Y-59886611D01*
X90120500Y-59713389D01*
X90093402Y-59542299D01*
X90039873Y-59377555D01*
X89961232Y-59223212D01*
X89859414Y-59083072D01*
X89736928Y-58960586D01*
X89596788Y-58858768D01*
X89442445Y-58780127D01*
X89277701Y-58726598D01*
X89277699Y-58726597D01*
X89277698Y-58726597D01*
X89146271Y-58705781D01*
X89106611Y-58699500D01*
X88933389Y-58699500D01*
X88893728Y-58705781D01*
X88762302Y-58726597D01*
X88597552Y-58780128D01*
X88443211Y-58858768D01*
X88388118Y-58898796D01*
X88303072Y-58960586D01*
X88303070Y-58960588D01*
X88303069Y-58960588D01*
X88180588Y-59083069D01*
X88180588Y-59083070D01*
X88180586Y-59083072D01*
X88149782Y-59125470D01*
X88078768Y-59223211D01*
X88000128Y-59377552D01*
X88000127Y-59377554D01*
X88000127Y-59377555D01*
X87988484Y-59413389D01*
X87946597Y-59542302D01*
X87919500Y-59713389D01*
X83934095Y-59713389D01*
X83839414Y-59583072D01*
X83716928Y-59460586D01*
X83576788Y-59358768D01*
X83422447Y-59280128D01*
X83422446Y-59280127D01*
X83422445Y-59280127D01*
X83257701Y-59226598D01*
X83257699Y-59226597D01*
X83257698Y-59226597D01*
X83126271Y-59205781D01*
X83086611Y-59199500D01*
X82913389Y-59199500D01*
X82856359Y-59208532D01*
X82742297Y-59226598D01*
X82728559Y-59231062D01*
X82658717Y-59233057D01*
X82602560Y-59200812D01*
X81461265Y-58059517D01*
X81461263Y-58059515D01*
X81364237Y-58003497D01*
X81256018Y-57974500D01*
X81256017Y-57974500D01*
X78478578Y-57974500D01*
X78411539Y-57954815D01*
X78375476Y-57919391D01*
X78315977Y-57830345D01*
X78315974Y-57830341D01*
X78169657Y-57684024D01*
X78008357Y-57576248D01*
X77997598Y-57569059D01*
X77977106Y-57560571D01*
X77806420Y-57489870D01*
X77806412Y-57489868D01*
X77603469Y-57449500D01*
X77603465Y-57449500D01*
X77396535Y-57449500D01*
X77396530Y-57449500D01*
X77193587Y-57489868D01*
X77193579Y-57489870D01*
X77002403Y-57569058D01*
X76830342Y-57684024D01*
X76684024Y-57830342D01*
X76569058Y-58002403D01*
X76489870Y-58193579D01*
X76489868Y-58193587D01*
X76449500Y-58396530D01*
X76449500Y-58603469D01*
X76489868Y-58806412D01*
X76491638Y-58812247D01*
X76489225Y-58812978D01*
X76495480Y-58871523D01*
X76464162Y-58933981D01*
X76461146Y-58937104D01*
X74538737Y-60859515D01*
X74459517Y-60938734D01*
X74459513Y-60938740D01*
X74403498Y-61035760D01*
X74403497Y-61035763D01*
X74374500Y-61143982D01*
X74374500Y-61858536D01*
X74354815Y-61925575D01*
X74302011Y-61971330D01*
X74288823Y-61976465D01*
X74277555Y-61980126D01*
X74123211Y-62058768D01*
X74055815Y-62107735D01*
X73983072Y-62160586D01*
X73983070Y-62160588D01*
X73983069Y-62160588D01*
X73860588Y-62283069D01*
X73860588Y-62283070D01*
X73860586Y-62283072D01*
X73834891Y-62318438D01*
X73758768Y-62423211D01*
X73680128Y-62577552D01*
X73626597Y-62742302D01*
X73599500Y-62913389D01*
X73260500Y-62913389D01*
X73233402Y-62742299D01*
X73179873Y-62577555D01*
X73101232Y-62423212D01*
X72999414Y-62283072D01*
X72876928Y-62160586D01*
X72736788Y-62058768D01*
X72736787Y-62058767D01*
X72736785Y-62058766D01*
X72693204Y-62036560D01*
X72642409Y-61988586D01*
X72625500Y-61926076D01*
X72625500Y-59671750D01*
X72645185Y-59604711D01*
X72697989Y-59558956D01*
X72725307Y-59550133D01*
X72926420Y-59510130D01*
X73117598Y-59430941D01*
X73289655Y-59315977D01*
X73435977Y-59169655D01*
X73550941Y-58997598D01*
X73630130Y-58806420D01*
X73670500Y-58603465D01*
X73670500Y-58396535D01*
X73630130Y-58193580D01*
X73550941Y-58002402D01*
X73435977Y-57830345D01*
X73435975Y-57830342D01*
X73289657Y-57684024D01*
X73128357Y-57576248D01*
X73117598Y-57569059D01*
X73097106Y-57560571D01*
X72926420Y-57489870D01*
X72926412Y-57489868D01*
X72723469Y-57449500D01*
X72723465Y-57449500D01*
X72516535Y-57449500D01*
X72516530Y-57449500D01*
X72313587Y-57489868D01*
X72313579Y-57489870D01*
X72122403Y-57569058D01*
X71950342Y-57684024D01*
X71804024Y-57830342D01*
X71689058Y-58002403D01*
X71609870Y-58193579D01*
X71609868Y-58193587D01*
X71569500Y-58396530D01*
X71569500Y-58603469D01*
X71609868Y-58806412D01*
X71609870Y-58806420D01*
X71689057Y-58997595D01*
X71689062Y-58997604D01*
X71753602Y-59094194D01*
X71774480Y-59160871D01*
X71774500Y-59163085D01*
X71774500Y-61673390D01*
X71754815Y-61740429D01*
X71702011Y-61786184D01*
X71632853Y-61796128D01*
X71569297Y-61767103D01*
X71562819Y-61761071D01*
X69661265Y-59859517D01*
X69661263Y-59859515D01*
X69582723Y-59814170D01*
X69564239Y-59803498D01*
X69564238Y-59803497D01*
X69564237Y-59803497D01*
X69456018Y-59774500D01*
X69456017Y-59774500D01*
X68541676Y-59774500D01*
X68474637Y-59754815D01*
X68441358Y-59723386D01*
X68434095Y-59713389D01*
X68339414Y-59583072D01*
X68216928Y-59460586D01*
X68076788Y-59358768D01*
X67922447Y-59280128D01*
X67922446Y-59280127D01*
X67922445Y-59280127D01*
X67757701Y-59226598D01*
X67757699Y-59226597D01*
X67757698Y-59226597D01*
X67626271Y-59205781D01*
X67586611Y-59199500D01*
X67413389Y-59199500D01*
X67373728Y-59205781D01*
X67242302Y-59226597D01*
X67077552Y-59280128D01*
X66923211Y-59358768D01*
X66848033Y-59413389D01*
X66783072Y-59460586D01*
X66783070Y-59460588D01*
X66783069Y-59460588D01*
X66660588Y-59583069D01*
X66660588Y-59583070D01*
X66660586Y-59583072D01*
X66634450Y-59619045D01*
X66558768Y-59723211D01*
X66480128Y-59877552D01*
X66480127Y-59877554D01*
X66480127Y-59877555D01*
X66479374Y-59879873D01*
X66426597Y-60042302D01*
X66399500Y-60213389D01*
X61100500Y-60213389D01*
X61100500Y-56261050D01*
X66963211Y-56261050D01*
X67077742Y-56319408D01*
X67242415Y-56372914D01*
X67413429Y-56400000D01*
X67586571Y-56400000D01*
X67757584Y-56372914D01*
X67922254Y-56319408D01*
X68036787Y-56261050D01*
X82463211Y-56261050D01*
X82577742Y-56319408D01*
X82742415Y-56372914D01*
X82913429Y-56400000D01*
X83086571Y-56400000D01*
X83257584Y-56372914D01*
X83422254Y-56319408D01*
X83536787Y-56261050D01*
X83000001Y-55724264D01*
X83000000Y-55724264D01*
X82463211Y-56261050D01*
X68036787Y-56261050D01*
X67500001Y-55724264D01*
X67500000Y-55724264D01*
X66963211Y-56261050D01*
X61100500Y-56261050D01*
X61100500Y-55213428D01*
X66400000Y-55213428D01*
X66400000Y-55386571D01*
X66427086Y-55557585D01*
X66427086Y-55557588D01*
X66480588Y-55722250D01*
X66538947Y-55836786D01*
X67075736Y-55300000D01*
X67023075Y-55247339D01*
X67100000Y-55247339D01*
X67100000Y-55352661D01*
X67127259Y-55454394D01*
X67179920Y-55545606D01*
X67254394Y-55620080D01*
X67345606Y-55672741D01*
X67447339Y-55700000D01*
X67552661Y-55700000D01*
X67654394Y-55672741D01*
X67745606Y-55620080D01*
X67820080Y-55545606D01*
X67872741Y-55454394D01*
X67900000Y-55352661D01*
X67900000Y-55299999D01*
X67924264Y-55299999D01*
X67924264Y-55300001D01*
X68461050Y-55836787D01*
X68519408Y-55722254D01*
X68572914Y-55557584D01*
X68600000Y-55386571D01*
X68600000Y-55213428D01*
X81900000Y-55213428D01*
X81900000Y-55386571D01*
X81927086Y-55557585D01*
X81927086Y-55557588D01*
X81980588Y-55722250D01*
X82038947Y-55836786D01*
X82575736Y-55300000D01*
X82523075Y-55247339D01*
X82600000Y-55247339D01*
X82600000Y-55352661D01*
X82627259Y-55454394D01*
X82679920Y-55545606D01*
X82754394Y-55620080D01*
X82845606Y-55672741D01*
X82947339Y-55700000D01*
X83052661Y-55700000D01*
X83154394Y-55672741D01*
X83245606Y-55620080D01*
X83320080Y-55545606D01*
X83372741Y-55454394D01*
X83400000Y-55352661D01*
X83400000Y-55299999D01*
X83424264Y-55299999D01*
X83424264Y-55300000D01*
X83961050Y-55836787D01*
X84019408Y-55722254D01*
X84072914Y-55557584D01*
X84100000Y-55386571D01*
X84100000Y-55213428D01*
X84072914Y-55042415D01*
X84019408Y-54877742D01*
X83961050Y-54763211D01*
X83424264Y-55299999D01*
X83400000Y-55299999D01*
X83400000Y-55247339D01*
X83372741Y-55145606D01*
X83320080Y-55054394D01*
X83245606Y-54979920D01*
X83154394Y-54927259D01*
X83052661Y-54900000D01*
X82947339Y-54900000D01*
X82845606Y-54927259D01*
X82754394Y-54979920D01*
X82679920Y-55054394D01*
X82627259Y-55145606D01*
X82600000Y-55247339D01*
X82523075Y-55247339D01*
X82038948Y-54763212D01*
X81980589Y-54877746D01*
X81980588Y-54877749D01*
X81927086Y-55042411D01*
X81927086Y-55042414D01*
X81900000Y-55213428D01*
X68600000Y-55213428D01*
X68572914Y-55042415D01*
X68519408Y-54877742D01*
X68461050Y-54763211D01*
X67924264Y-55299999D01*
X67900000Y-55299999D01*
X67900000Y-55247339D01*
X67872741Y-55145606D01*
X67820080Y-55054394D01*
X67745606Y-54979920D01*
X67654394Y-54927259D01*
X67552661Y-54900000D01*
X67447339Y-54900000D01*
X67345606Y-54927259D01*
X67254394Y-54979920D01*
X67179920Y-55054394D01*
X67127259Y-55145606D01*
X67100000Y-55247339D01*
X67023075Y-55247339D01*
X66538948Y-54763212D01*
X66480589Y-54877746D01*
X66480588Y-54877749D01*
X66427086Y-55042411D01*
X66427086Y-55042414D01*
X66400000Y-55213428D01*
X61100500Y-55213428D01*
X61100500Y-54338948D01*
X66963212Y-54338948D01*
X67500000Y-54875736D01*
X67500001Y-54875736D01*
X68036787Y-54338948D01*
X82463212Y-54338948D01*
X83000000Y-54875736D01*
X83000001Y-54875736D01*
X83536787Y-54338948D01*
X83422250Y-54280588D01*
X83257587Y-54227086D01*
X83086571Y-54200000D01*
X82913429Y-54200000D01*
X82742414Y-54227086D01*
X82742411Y-54227086D01*
X82577749Y-54280588D01*
X82577746Y-54280589D01*
X82463212Y-54338948D01*
X68036787Y-54338948D01*
X67922250Y-54280588D01*
X67757587Y-54227086D01*
X67586571Y-54200000D01*
X67413429Y-54200000D01*
X67242414Y-54227086D01*
X67242411Y-54227086D01*
X67077749Y-54280588D01*
X67077746Y-54280589D01*
X66963212Y-54338948D01*
X61100500Y-54338948D01*
X61100500Y-54052785D01*
X61111066Y-54002698D01*
X61147584Y-53919993D01*
X61147585Y-53919991D01*
X61150500Y-53894865D01*
X61150499Y-53157125D01*
X61170183Y-53090089D01*
X61222987Y-53044334D01*
X61292146Y-53034390D01*
X61355702Y-53063415D01*
X61393476Y-53122193D01*
X61396972Y-53137729D01*
X61417829Y-53269410D01*
X61473787Y-53441636D01*
X61473788Y-53441639D01*
X61556006Y-53602997D01*
X61662441Y-53749494D01*
X61662445Y-53749499D01*
X61790500Y-53877554D01*
X61790505Y-53877558D01*
X61918287Y-53970396D01*
X61937006Y-53983996D01*
X62042484Y-54037740D01*
X62098360Y-54066211D01*
X62098363Y-54066212D01*
X62184476Y-54094191D01*
X62270591Y-54122171D01*
X62353429Y-54135291D01*
X62449449Y-54150500D01*
X62449454Y-54150500D01*
X62630551Y-54150500D01*
X62717259Y-54136765D01*
X62809409Y-54122171D01*
X62981639Y-54066211D01*
X63142994Y-53983996D01*
X63287907Y-53878711D01*
X99149500Y-53878711D01*
X99149500Y-54121288D01*
X99181161Y-54361785D01*
X99243947Y-54596104D01*
X99313165Y-54763211D01*
X99336776Y-54820212D01*
X99458064Y-55030289D01*
X99458066Y-55030292D01*
X99458067Y-55030293D01*
X99605733Y-55222736D01*
X99605739Y-55222743D01*
X99777256Y-55394260D01*
X99777262Y-55394265D01*
X99969711Y-55541936D01*
X100179788Y-55663224D01*
X100403900Y-55756054D01*
X100638211Y-55818838D01*
X100774550Y-55836787D01*
X100878711Y-55850500D01*
X100878712Y-55850500D01*
X101121289Y-55850500D01*
X101169388Y-55844167D01*
X101361789Y-55818838D01*
X101596100Y-55756054D01*
X101820212Y-55663224D01*
X102030289Y-55541936D01*
X102222738Y-55394265D01*
X102394265Y-55222738D01*
X102541936Y-55030289D01*
X102663224Y-54820212D01*
X102756054Y-54596100D01*
X102818838Y-54361789D01*
X102850500Y-54121288D01*
X102850500Y-53878712D01*
X102850347Y-53877553D01*
X102827038Y-53700500D01*
X102818838Y-53638211D01*
X102756054Y-53403900D01*
X102663224Y-53179788D01*
X102541936Y-52969711D01*
X102394265Y-52777262D01*
X102394260Y-52777256D01*
X102222743Y-52605739D01*
X102222736Y-52605733D01*
X102030293Y-52458067D01*
X102030292Y-52458066D01*
X102030289Y-52458064D01*
X101829979Y-52342415D01*
X101820214Y-52336777D01*
X101820205Y-52336773D01*
X101596104Y-52243947D01*
X101361785Y-52181161D01*
X101121289Y-52149500D01*
X101121288Y-52149500D01*
X100878712Y-52149500D01*
X100878711Y-52149500D01*
X100638214Y-52181161D01*
X100403895Y-52243947D01*
X100179794Y-52336773D01*
X100179785Y-52336777D01*
X99969706Y-52458067D01*
X99777263Y-52605733D01*
X99777256Y-52605739D01*
X99605739Y-52777256D01*
X99605733Y-52777263D01*
X99458067Y-52969706D01*
X99336777Y-53179785D01*
X99336773Y-53179794D01*
X99243947Y-53403895D01*
X99181161Y-53638214D01*
X99149500Y-53878711D01*
X63287907Y-53878711D01*
X63289501Y-53877553D01*
X63417553Y-53749501D01*
X63523996Y-53602994D01*
X63606211Y-53441639D01*
X63662171Y-53269409D01*
X63676841Y-53176788D01*
X63690500Y-53090551D01*
X63690500Y-52909448D01*
X63665941Y-52754394D01*
X63662171Y-52730591D01*
X63606211Y-52558361D01*
X63583296Y-52513389D01*
X64899500Y-52513389D01*
X64899500Y-52686610D01*
X64926579Y-52857585D01*
X64926598Y-52857701D01*
X64980127Y-53022445D01*
X65058768Y-53176788D01*
X65160586Y-53316928D01*
X65283072Y-53439414D01*
X65423212Y-53541232D01*
X65577555Y-53619873D01*
X65742299Y-53673402D01*
X65913389Y-53700500D01*
X65913390Y-53700500D01*
X66086610Y-53700500D01*
X66086611Y-53700500D01*
X66257701Y-53673402D01*
X66422445Y-53619873D01*
X66537893Y-53561050D01*
X68003211Y-53561050D01*
X68117742Y-53619408D01*
X68282415Y-53672914D01*
X68453429Y-53700000D01*
X68626571Y-53700000D01*
X68797584Y-53672914D01*
X68962254Y-53619408D01*
X69076787Y-53561050D01*
X68540001Y-53024264D01*
X68540000Y-53024264D01*
X68003211Y-53561050D01*
X66537893Y-53561050D01*
X66576788Y-53541232D01*
X66716928Y-53439414D01*
X66839414Y-53316928D01*
X66941232Y-53176788D01*
X67019873Y-53022445D01*
X67073402Y-52857701D01*
X67100500Y-52686611D01*
X67100500Y-52513428D01*
X67440000Y-52513428D01*
X67440000Y-52686571D01*
X67467086Y-52857585D01*
X67467086Y-52857588D01*
X67520588Y-53022250D01*
X67578947Y-53136786D01*
X68115736Y-52600000D01*
X68063075Y-52547339D01*
X68140000Y-52547339D01*
X68140000Y-52652661D01*
X68167259Y-52754394D01*
X68219920Y-52845606D01*
X68294394Y-52920080D01*
X68385606Y-52972741D01*
X68487339Y-53000000D01*
X68592661Y-53000000D01*
X68694394Y-52972741D01*
X68785606Y-52920080D01*
X68860080Y-52845606D01*
X68912741Y-52754394D01*
X68940000Y-52652661D01*
X68940000Y-52599999D01*
X68964264Y-52599999D01*
X68964264Y-52600000D01*
X69501050Y-53136787D01*
X69559408Y-53022254D01*
X69612914Y-52857584D01*
X69640000Y-52686571D01*
X69640000Y-52513428D01*
X69612914Y-52342415D01*
X69559408Y-52177742D01*
X69501050Y-52063211D01*
X68964264Y-52599999D01*
X68940000Y-52599999D01*
X68940000Y-52547339D01*
X68912741Y-52445606D01*
X68860080Y-52354394D01*
X68785606Y-52279920D01*
X68694394Y-52227259D01*
X68592661Y-52200000D01*
X68487339Y-52200000D01*
X68385606Y-52227259D01*
X68294394Y-52279920D01*
X68219920Y-52354394D01*
X68167259Y-52445606D01*
X68140000Y-52547339D01*
X68063075Y-52547339D01*
X67578948Y-52063212D01*
X67520589Y-52177746D01*
X67520588Y-52177749D01*
X67467086Y-52342411D01*
X67467086Y-52342414D01*
X67440000Y-52513428D01*
X67100500Y-52513428D01*
X67100500Y-52513389D01*
X67073402Y-52342299D01*
X67019873Y-52177555D01*
X66941232Y-52023212D01*
X66839414Y-51883072D01*
X66716928Y-51760586D01*
X66576788Y-51658768D01*
X66537889Y-51638948D01*
X68003212Y-51638948D01*
X68540000Y-52175736D01*
X68540001Y-52175736D01*
X69076787Y-51638948D01*
X68962250Y-51580588D01*
X68797587Y-51527086D01*
X68626571Y-51500000D01*
X68453429Y-51500000D01*
X68282414Y-51527086D01*
X68282411Y-51527086D01*
X68117749Y-51580588D01*
X68117746Y-51580589D01*
X68003212Y-51638948D01*
X66537889Y-51638948D01*
X66422445Y-51580127D01*
X66257701Y-51526598D01*
X66257699Y-51526597D01*
X66257698Y-51526597D01*
X66126271Y-51505781D01*
X66086611Y-51499500D01*
X65913389Y-51499500D01*
X65873728Y-51505781D01*
X65742302Y-51526597D01*
X65577552Y-51580128D01*
X65423211Y-51658768D01*
X65343256Y-51716859D01*
X65283072Y-51760586D01*
X65283070Y-51760588D01*
X65283069Y-51760588D01*
X65160588Y-51883069D01*
X65160588Y-51883070D01*
X65160586Y-51883072D01*
X65149891Y-51897793D01*
X65058768Y-52023211D01*
X64980128Y-52177552D01*
X64926597Y-52342302D01*
X64899500Y-52513389D01*
X63583296Y-52513389D01*
X63523996Y-52397006D01*
X63484331Y-52342411D01*
X63417558Y-52250505D01*
X63417554Y-52250500D01*
X63289499Y-52122445D01*
X63289494Y-52122441D01*
X63142997Y-52016006D01*
X63142996Y-52016005D01*
X63142994Y-52016004D01*
X63066906Y-51977235D01*
X62981639Y-51933788D01*
X62981636Y-51933787D01*
X62809410Y-51877829D01*
X62630551Y-51849500D01*
X62630546Y-51849500D01*
X62449454Y-51849500D01*
X62449449Y-51849500D01*
X62270589Y-51877829D01*
X62098363Y-51933787D01*
X62098360Y-51933788D01*
X61937002Y-52016006D01*
X61790505Y-52122441D01*
X61790500Y-52122445D01*
X61662445Y-52250500D01*
X61662441Y-52250505D01*
X61556006Y-52397002D01*
X61473788Y-52558360D01*
X61473787Y-52558363D01*
X61417829Y-52730589D01*
X61396972Y-52862271D01*
X61367042Y-52925405D01*
X61307731Y-52962336D01*
X61237868Y-52961338D01*
X61179636Y-52922728D01*
X61151522Y-52858764D01*
X61150499Y-52842872D01*
X61150499Y-52105143D01*
X61150499Y-52105136D01*
X61150497Y-52105117D01*
X61147586Y-52080012D01*
X61147585Y-52080010D01*
X61147585Y-52080009D01*
X61102206Y-51977235D01*
X61022765Y-51897794D01*
X60989423Y-51883072D01*
X60919992Y-51852415D01*
X60894865Y-51849500D01*
X59105143Y-51849500D01*
X59105117Y-51849502D01*
X59080012Y-51852413D01*
X59080008Y-51852415D01*
X58977235Y-51897793D01*
X58897794Y-51977234D01*
X58852415Y-52080006D01*
X58852415Y-52080008D01*
X58849500Y-52105131D01*
X58849500Y-53894856D01*
X58849502Y-53894882D01*
X58852413Y-53919987D01*
X58852415Y-53919991D01*
X58897793Y-54022764D01*
X58897794Y-54022765D01*
X58977235Y-54102206D01*
X59080009Y-54147585D01*
X59105135Y-54150500D01*
X59575500Y-54150499D01*
X59642539Y-54170183D01*
X59688294Y-54222987D01*
X59699500Y-54274499D01*
X59699500Y-64331006D01*
X59699500Y-64468994D01*
X59699500Y-64468996D01*
X59699499Y-64468996D01*
X59726418Y-64604322D01*
X59726421Y-64604332D01*
X59779222Y-64731807D01*
X59855887Y-64846545D01*
X59855888Y-64846546D01*
X64346443Y-69337099D01*
X64379928Y-69398422D01*
X64374944Y-69468114D01*
X64333072Y-69524047D01*
X64286615Y-69543696D01*
X64287039Y-69545460D01*
X64282302Y-69546597D01*
X64117552Y-69600128D01*
X63963211Y-69678768D01*
X63897363Y-69726610D01*
X63823072Y-69780586D01*
X63823070Y-69780588D01*
X63823069Y-69780588D01*
X63700588Y-69903069D01*
X63700588Y-69903070D01*
X63700586Y-69903072D01*
X63656859Y-69963256D01*
X63598768Y-70043211D01*
X63520128Y-70197552D01*
X63466597Y-70362302D01*
X63439500Y-70533389D01*
X63439500Y-70706610D01*
X63466597Y-70877697D01*
X63466597Y-70877699D01*
X63466598Y-70877701D01*
X63520127Y-71042445D01*
X63598768Y-71196788D01*
X63700586Y-71336928D01*
X63823072Y-71459414D01*
X63963212Y-71561232D01*
X64117555Y-71639873D01*
X64282299Y-71693402D01*
X64453389Y-71720500D01*
X64453390Y-71720500D01*
X64626610Y-71720500D01*
X64626611Y-71720500D01*
X64797701Y-71693402D01*
X64962445Y-71639873D01*
X65116788Y-71561232D01*
X65256928Y-71459414D01*
X65379414Y-71336928D01*
X65481232Y-71196788D01*
X65559873Y-71042445D01*
X65613402Y-70877701D01*
X65640500Y-70706611D01*
X65640500Y-70533389D01*
X65613402Y-70362299D01*
X65559873Y-70197555D01*
X65481232Y-70043212D01*
X65379414Y-69903072D01*
X65379411Y-69903069D01*
X65376550Y-69899131D01*
X65377975Y-69898094D01*
X65352515Y-69841255D01*
X65362961Y-69772171D01*
X65409098Y-69719700D01*
X65475378Y-69700500D01*
X66144622Y-69700500D01*
X66211661Y-69720185D01*
X66257416Y-69772989D01*
X66267360Y-69842147D01*
X66242046Y-69898111D01*
X66243450Y-69899131D01*
X66240588Y-69903069D01*
X66240586Y-69903072D01*
X66192587Y-69969135D01*
X66138768Y-70043211D01*
X66060128Y-70197552D01*
X66006597Y-70362302D01*
X65979500Y-70533389D01*
X65979500Y-70706610D01*
X66006597Y-70877697D01*
X66006597Y-70877699D01*
X66006598Y-70877701D01*
X66060127Y-71042445D01*
X66138768Y-71196788D01*
X66240586Y-71336928D01*
X66363072Y-71459414D01*
X66503212Y-71561232D01*
X66657555Y-71639873D01*
X66822299Y-71693402D01*
X66993389Y-71720500D01*
X66993390Y-71720500D01*
X67166610Y-71720500D01*
X67166611Y-71720500D01*
X67337701Y-71693402D01*
X67502445Y-71639873D01*
X67656788Y-71561232D01*
X67796928Y-71459414D01*
X67919414Y-71336928D01*
X68021232Y-71196788D01*
X68099873Y-71042445D01*
X68153402Y-70877701D01*
X68180500Y-70706611D01*
X68180500Y-70533389D01*
X68153402Y-70362299D01*
X68099873Y-70197555D01*
X68021232Y-70043212D01*
X67919414Y-69903072D01*
X67919411Y-69903069D01*
X67916550Y-69899131D01*
X67917975Y-69898094D01*
X67892515Y-69841255D01*
X67902961Y-69772171D01*
X67949098Y-69719700D01*
X68015378Y-69700500D01*
X68684622Y-69700500D01*
X68751661Y-69720185D01*
X68797416Y-69772989D01*
X68807360Y-69842147D01*
X68782046Y-69898111D01*
X68783450Y-69899131D01*
X68780588Y-69903069D01*
X68780586Y-69903072D01*
X68732587Y-69969135D01*
X68678768Y-70043211D01*
X68600128Y-70197552D01*
X68546597Y-70362302D01*
X68519500Y-70533389D01*
X68519500Y-70706610D01*
X68546597Y-70877697D01*
X68546597Y-70877699D01*
X68546598Y-70877701D01*
X68600127Y-71042445D01*
X68678768Y-71196788D01*
X68780586Y-71336928D01*
X68903072Y-71459414D01*
X69043212Y-71561232D01*
X69197555Y-71639873D01*
X69362299Y-71693402D01*
X69533389Y-71720500D01*
X69533390Y-71720500D01*
X69706610Y-71720500D01*
X69706611Y-71720500D01*
X69877701Y-71693402D01*
X70042445Y-71639873D01*
X70157893Y-71581050D01*
X71623211Y-71581050D01*
X71737742Y-71639408D01*
X71902415Y-71692914D01*
X72073429Y-71720000D01*
X72246571Y-71720000D01*
X72417584Y-71692914D01*
X72582254Y-71639408D01*
X72696787Y-71581050D01*
X72160001Y-71044264D01*
X72160000Y-71044264D01*
X71623211Y-71581050D01*
X70157893Y-71581050D01*
X70196788Y-71561232D01*
X70336928Y-71459414D01*
X70459414Y-71336928D01*
X70561232Y-71196788D01*
X70639873Y-71042445D01*
X70693402Y-70877701D01*
X70720500Y-70706611D01*
X70720500Y-70533428D01*
X71060000Y-70533428D01*
X71060000Y-70706571D01*
X71087086Y-70877585D01*
X71087086Y-70877588D01*
X71140588Y-71042250D01*
X71198947Y-71156786D01*
X71735736Y-70620000D01*
X71683075Y-70567339D01*
X71760000Y-70567339D01*
X71760000Y-70672661D01*
X71787259Y-70774394D01*
X71839920Y-70865606D01*
X71914394Y-70940080D01*
X72005606Y-70992741D01*
X72107339Y-71020000D01*
X72212661Y-71020000D01*
X72314394Y-70992741D01*
X72405606Y-70940080D01*
X72480080Y-70865606D01*
X72532741Y-70774394D01*
X72560000Y-70672661D01*
X72560000Y-70567339D01*
X72532741Y-70465606D01*
X72480080Y-70374394D01*
X72405606Y-70299920D01*
X72314394Y-70247259D01*
X72212661Y-70220000D01*
X72107339Y-70220000D01*
X72005606Y-70247259D01*
X71914394Y-70299920D01*
X71839920Y-70374394D01*
X71787259Y-70465606D01*
X71760000Y-70567339D01*
X71683075Y-70567339D01*
X71198948Y-70083212D01*
X71140589Y-70197746D01*
X71140588Y-70197749D01*
X71087086Y-70362411D01*
X71087086Y-70362414D01*
X71060000Y-70533428D01*
X70720500Y-70533428D01*
X70720500Y-70533389D01*
X70693402Y-70362299D01*
X70639873Y-70197555D01*
X70561232Y-70043212D01*
X70459414Y-69903072D01*
X70459411Y-69903069D01*
X70456550Y-69899131D01*
X70457975Y-69898094D01*
X70432515Y-69841255D01*
X70442961Y-69772171D01*
X70489098Y-69719700D01*
X70555378Y-69700500D01*
X71613402Y-69700500D01*
X71680441Y-69720185D01*
X71701083Y-69736819D01*
X72160000Y-70195736D01*
X72618917Y-69736819D01*
X72680240Y-69703334D01*
X72706598Y-69700500D01*
X73258481Y-69700500D01*
X73325520Y-69720185D01*
X73346162Y-69736819D01*
X73659212Y-70049869D01*
X73692697Y-70111192D01*
X73687713Y-70180884D01*
X73682022Y-70193832D01*
X73680131Y-70197543D01*
X73680129Y-70197547D01*
X73626597Y-70362302D01*
X73599500Y-70533389D01*
X73599500Y-70706616D01*
X73603730Y-70733325D01*
X73594775Y-70802618D01*
X73568938Y-70840403D01*
X73446528Y-70962813D01*
X73385205Y-70996298D01*
X73315513Y-70991314D01*
X73259580Y-70949442D01*
X73235163Y-70883978D01*
X73236374Y-70855733D01*
X73260000Y-70706569D01*
X73260000Y-70533428D01*
X73232914Y-70362415D01*
X73179408Y-70197742D01*
X73121050Y-70083211D01*
X72584264Y-70619999D01*
X72584264Y-70620001D01*
X73136227Y-71171964D01*
X73169712Y-71233287D01*
X73164728Y-71302979D01*
X73163108Y-71307096D01*
X73126420Y-71395672D01*
X73126418Y-71395677D01*
X73099500Y-71531004D01*
X73099500Y-71658481D01*
X73079815Y-71725520D01*
X73063181Y-71746162D01*
X71746162Y-73063181D01*
X71684839Y-73096666D01*
X71658481Y-73099500D01*
X70907205Y-73099500D01*
X70840166Y-73079815D01*
X70819524Y-73063182D01*
X70815857Y-73059515D01*
X70716928Y-72960586D01*
X70576788Y-72858768D01*
X70422445Y-72780127D01*
X70257701Y-72726598D01*
X70257699Y-72726597D01*
X70257698Y-72726597D01*
X70126271Y-72705781D01*
X70086611Y-72699500D01*
X69913389Y-72699500D01*
X69873728Y-72705781D01*
X69742302Y-72726597D01*
X69577552Y-72780128D01*
X69423211Y-72858768D01*
X69365773Y-72900500D01*
X69283072Y-72960586D01*
X69283070Y-72960588D01*
X69283069Y-72960588D01*
X69160588Y-73083069D01*
X69160588Y-73083070D01*
X69160586Y-73083072D01*
X69120145Y-73138734D01*
X69058768Y-73223211D01*
X68980128Y-73377552D01*
X68926597Y-73542302D01*
X68899500Y-73713389D01*
X68899500Y-73858480D01*
X68879815Y-73925519D01*
X68863181Y-73946161D01*
X66746162Y-76063181D01*
X66684839Y-76096666D01*
X66658481Y-76099500D01*
X64531003Y-76099500D01*
X64395675Y-76126418D01*
X64395669Y-76126420D01*
X64268189Y-76179224D01*
X64153453Y-76255887D01*
X64153452Y-76255888D01*
X63055888Y-77353453D01*
X63055885Y-77353456D01*
X63002209Y-77433790D01*
X62979226Y-77468185D01*
X62977648Y-77471139D01*
X62976282Y-77472592D01*
X62975841Y-77473253D01*
X62975730Y-77473179D01*
X62939740Y-77511480D01*
X62940947Y-77513142D01*
X62937011Y-77516001D01*
X62937006Y-77516004D01*
X62852025Y-77577746D01*
X62790498Y-77622447D01*
X62662445Y-77750500D01*
X62662441Y-77750505D01*
X62556006Y-77897002D01*
X62473788Y-78058360D01*
X62473787Y-78058363D01*
X62417829Y-78230589D01*
X62396972Y-78362273D01*
X62367043Y-78425408D01*
X62307731Y-78462339D01*
X62237868Y-78461341D01*
X62179636Y-78422731D01*
X62151522Y-78358767D01*
X62150499Y-78342875D01*
X62150499Y-77605143D01*
X62150499Y-77605136D01*
X62150497Y-77605117D01*
X62147586Y-77580012D01*
X62147585Y-77580010D01*
X62147585Y-77580009D01*
X62102206Y-77477235D01*
X62022765Y-77397794D01*
X61980708Y-77379224D01*
X61919992Y-77352415D01*
X61894865Y-77349500D01*
X60105143Y-77349500D01*
X60105117Y-77349502D01*
X60080012Y-77352413D01*
X60080008Y-77352415D01*
X59977235Y-77397793D01*
X59897794Y-77477234D01*
X59852415Y-77580006D01*
X59852415Y-77580008D01*
X59849500Y-77605131D01*
X59849500Y-79159481D01*
X59829815Y-79226520D01*
X59777011Y-79272275D01*
X59707853Y-79282219D01*
X59644297Y-79253194D01*
X59637819Y-79247162D01*
X59246546Y-78855888D01*
X59246545Y-78855887D01*
X59131807Y-78779222D01*
X59004332Y-78726421D01*
X59004322Y-78726418D01*
X58868996Y-78699500D01*
X58868994Y-78699500D01*
X58868993Y-78699500D01*
X52731007Y-78699500D01*
X52731003Y-78699500D01*
X52622590Y-78721065D01*
X52622589Y-78721065D01*
X52595681Y-78726418D01*
X52595671Y-78726420D01*
X52468190Y-78779224D01*
X52353454Y-78855887D01*
X51655890Y-79553451D01*
X51655884Y-79553458D01*
X51621895Y-79604328D01*
X51621895Y-79604329D01*
X51600560Y-79636259D01*
X51579225Y-79668188D01*
X51579221Y-79668195D01*
X51526420Y-79795669D01*
X51526418Y-79795675D01*
X51519848Y-79828707D01*
X51487462Y-79890618D01*
X51443722Y-79919868D01*
X51327658Y-79965638D01*
X51207077Y-80057077D01*
X51115639Y-80177656D01*
X51060122Y-80318438D01*
X51058301Y-80333608D01*
X51049500Y-80406898D01*
X50300500Y-80406898D01*
X50300500Y-75599285D01*
X50320185Y-75532246D01*
X50372989Y-75486491D01*
X50442147Y-75476547D01*
X50505703Y-75505572D01*
X50537935Y-75549201D01*
X50548210Y-75572473D01*
X50548214Y-75572479D01*
X50627520Y-75651785D01*
X50627525Y-75651788D01*
X50730123Y-75697089D01*
X50755206Y-75699999D01*
X51399999Y-75699999D01*
X51400000Y-75699998D01*
X51400000Y-74836396D01*
X51423694Y-74860090D01*
X51526306Y-74919333D01*
X51640756Y-74950000D01*
X51759244Y-74950000D01*
X51873694Y-74919333D01*
X51976306Y-74860090D01*
X52000000Y-74836396D01*
X52000000Y-75699999D01*
X52644786Y-75699999D01*
X52644808Y-75699997D01*
X52669869Y-75697091D01*
X52669873Y-75697090D01*
X52772474Y-75651788D01*
X52772479Y-75651785D01*
X52851785Y-75572479D01*
X52851788Y-75572474D01*
X52897089Y-75469877D01*
X52897089Y-75469875D01*
X52899999Y-75444794D01*
X52899999Y-75030927D01*
X52919683Y-74963888D01*
X52972487Y-74918133D01*
X53041646Y-74908189D01*
X53105202Y-74937214D01*
X53134484Y-74974632D01*
X53177354Y-75058768D01*
X53213240Y-75129199D01*
X53324310Y-75282073D01*
X53457927Y-75415690D01*
X53610801Y-75526760D01*
X53661533Y-75552609D01*
X53779163Y-75612545D01*
X53779165Y-75612545D01*
X53779168Y-75612547D01*
X53824447Y-75627259D01*
X53958881Y-75670940D01*
X54145514Y-75700500D01*
X54145519Y-75700500D01*
X54334486Y-75700500D01*
X54521118Y-75670940D01*
X54700832Y-75612547D01*
X54869199Y-75526760D01*
X55022073Y-75415690D01*
X55155690Y-75282073D01*
X55266760Y-75129199D01*
X55352547Y-74960832D01*
X55410940Y-74781118D01*
X55411702Y-74776306D01*
X55440500Y-74594486D01*
X55440500Y-74405513D01*
X55410940Y-74218881D01*
X55370025Y-74092959D01*
X55352547Y-74039168D01*
X55352545Y-74039165D01*
X55352545Y-74039163D01*
X55285034Y-73906666D01*
X55266760Y-73870801D01*
X55155690Y-73717927D01*
X55022073Y-73584310D01*
X54940031Y-73524703D01*
X54869197Y-73473238D01*
X54705499Y-73389831D01*
X54700832Y-73387453D01*
X54700830Y-73387452D01*
X54696492Y-73385242D01*
X54697125Y-73383998D01*
X54647627Y-73344091D01*
X54625578Y-73277792D01*
X54625500Y-73273395D01*
X54625500Y-70686953D01*
X54645185Y-70619914D01*
X54697989Y-70574159D01*
X54711181Y-70569022D01*
X54716361Y-70567339D01*
X54820847Y-70533389D01*
X60899500Y-70533389D01*
X60899500Y-70706610D01*
X60926597Y-70877697D01*
X60926597Y-70877699D01*
X60926598Y-70877701D01*
X60980127Y-71042445D01*
X61058768Y-71196788D01*
X61160586Y-71336928D01*
X61283072Y-71459414D01*
X61423212Y-71561232D01*
X61577555Y-71639873D01*
X61742299Y-71693402D01*
X61913389Y-71720500D01*
X61913390Y-71720500D01*
X62086610Y-71720500D01*
X62086611Y-71720500D01*
X62257701Y-71693402D01*
X62422445Y-71639873D01*
X62576788Y-71561232D01*
X62716928Y-71459414D01*
X62839414Y-71336928D01*
X62941232Y-71196788D01*
X63019873Y-71042445D01*
X63073402Y-70877701D01*
X63100500Y-70706611D01*
X63100500Y-70533389D01*
X63073402Y-70362299D01*
X63019873Y-70197555D01*
X62941232Y-70043212D01*
X62839414Y-69903072D01*
X62716928Y-69780586D01*
X62576788Y-69678768D01*
X62422445Y-69600127D01*
X62257701Y-69546598D01*
X62257699Y-69546597D01*
X62257698Y-69546597D01*
X62126271Y-69525781D01*
X62086611Y-69519500D01*
X61913389Y-69519500D01*
X61873728Y-69525781D01*
X61742302Y-69546597D01*
X61577552Y-69600128D01*
X61423211Y-69678768D01*
X61357363Y-69726610D01*
X61283072Y-69780586D01*
X61283070Y-69780588D01*
X61283069Y-69780588D01*
X61160588Y-69903069D01*
X61160588Y-69903070D01*
X61160586Y-69903072D01*
X61116859Y-69963256D01*
X61058768Y-70043211D01*
X60980128Y-70197552D01*
X60926597Y-70362302D01*
X60899500Y-70533389D01*
X54820847Y-70533389D01*
X54862445Y-70519873D01*
X55016788Y-70441232D01*
X55156928Y-70339414D01*
X55279414Y-70216928D01*
X55381232Y-70076788D01*
X55459873Y-69922445D01*
X55513402Y-69757701D01*
X55540500Y-69586611D01*
X55540500Y-69413389D01*
X55513402Y-69242299D01*
X55459873Y-69077555D01*
X55381232Y-68923212D01*
X55279414Y-68783072D01*
X55156928Y-68660586D01*
X55016788Y-68558768D01*
X54862445Y-68480127D01*
X54697701Y-68426598D01*
X54697699Y-68426597D01*
X54697698Y-68426597D01*
X54566271Y-68405781D01*
X54526611Y-68399500D01*
X54353389Y-68399500D01*
X54313728Y-68405781D01*
X54182302Y-68426597D01*
X54017552Y-68480128D01*
X53863211Y-68558768D01*
X53829046Y-68583591D01*
X53723072Y-68660586D01*
X53723070Y-68660588D01*
X53723069Y-68660588D01*
X53600588Y-68783069D01*
X53600588Y-68783070D01*
X53600586Y-68783072D01*
X53575534Y-68817553D01*
X53498768Y-68923211D01*
X53420128Y-69077552D01*
X53366597Y-69242302D01*
X53339500Y-69413389D01*
X53339500Y-69586610D01*
X53363870Y-69740482D01*
X53366598Y-69757701D01*
X53420127Y-69922445D01*
X53498768Y-70076788D01*
X53600586Y-70216928D01*
X53723072Y-70339414D01*
X53723374Y-70339633D01*
X53723461Y-70339746D01*
X53726779Y-70342580D01*
X53726184Y-70343276D01*
X53766046Y-70394958D01*
X53774500Y-70439959D01*
X53774500Y-73313843D01*
X53754815Y-73380882D01*
X53706795Y-73424327D01*
X53610805Y-73473236D01*
X53532499Y-73530130D01*
X53457927Y-73584310D01*
X53457925Y-73584312D01*
X53457924Y-73584312D01*
X53324312Y-73717924D01*
X53324312Y-73717925D01*
X53324310Y-73717927D01*
X53305380Y-73743982D01*
X53213240Y-73870800D01*
X53134484Y-74025368D01*
X53086509Y-74076164D01*
X53018688Y-74092959D01*
X52952553Y-74070422D01*
X52909102Y-74015706D01*
X52899999Y-73969073D01*
X52899999Y-73555214D01*
X52899997Y-73555191D01*
X52897091Y-73530130D01*
X52897090Y-73530126D01*
X52851788Y-73427525D01*
X52851785Y-73427520D01*
X52772479Y-73348214D01*
X52772474Y-73348211D01*
X52669876Y-73302910D01*
X52644794Y-73300000D01*
X52000000Y-73300000D01*
X52000000Y-74163604D01*
X51976306Y-74139910D01*
X51873694Y-74080667D01*
X51759244Y-74050000D01*
X51640756Y-74050000D01*
X51526306Y-74080667D01*
X51423694Y-74139910D01*
X51400000Y-74163604D01*
X51400000Y-73300000D01*
X50755214Y-73300000D01*
X50755191Y-73300002D01*
X50730130Y-73302908D01*
X50730126Y-73302909D01*
X50627525Y-73348211D01*
X50627520Y-73348214D01*
X50548214Y-73427520D01*
X50548210Y-73427526D01*
X50537934Y-73450800D01*
X50492848Y-73504176D01*
X50426062Y-73524703D01*
X50358780Y-73505865D01*
X50312363Y-73453641D01*
X50300500Y-73400713D01*
X50300500Y-69413389D01*
X50799500Y-69413389D01*
X50799500Y-69586610D01*
X50823870Y-69740482D01*
X50826598Y-69757701D01*
X50880127Y-69922445D01*
X50958768Y-70076788D01*
X51060586Y-70216928D01*
X51183072Y-70339414D01*
X51323212Y-70441232D01*
X51477555Y-70519873D01*
X51642299Y-70573402D01*
X51813389Y-70600500D01*
X51813390Y-70600500D01*
X51986610Y-70600500D01*
X51986611Y-70600500D01*
X52157701Y-70573402D01*
X52322445Y-70519873D01*
X52476788Y-70441232D01*
X52616928Y-70339414D01*
X52739414Y-70216928D01*
X52841232Y-70076788D01*
X52919873Y-69922445D01*
X52973402Y-69757701D01*
X53000500Y-69586611D01*
X53000500Y-69413389D01*
X52973402Y-69242299D01*
X52919873Y-69077555D01*
X52841232Y-68923212D01*
X52739414Y-68783072D01*
X52616928Y-68660586D01*
X52476788Y-68558768D01*
X52322445Y-68480127D01*
X52157701Y-68426598D01*
X52157699Y-68426597D01*
X52157698Y-68426597D01*
X52026271Y-68405781D01*
X51986611Y-68399500D01*
X51813389Y-68399500D01*
X51773728Y-68405781D01*
X51642302Y-68426597D01*
X51477552Y-68480128D01*
X51323211Y-68558768D01*
X51289046Y-68583591D01*
X51183072Y-68660586D01*
X51183070Y-68660588D01*
X51183069Y-68660588D01*
X51060588Y-68783069D01*
X51060588Y-68783070D01*
X51060586Y-68783072D01*
X51035534Y-68817553D01*
X50958768Y-68923211D01*
X50880128Y-69077552D01*
X50826597Y-69242302D01*
X50799500Y-69413389D01*
X50300500Y-69413389D01*
X50300500Y-65599285D01*
X50320185Y-65532246D01*
X50372989Y-65486491D01*
X50442147Y-65476547D01*
X50505703Y-65505572D01*
X50537935Y-65549201D01*
X50548210Y-65572473D01*
X50548214Y-65572479D01*
X50627520Y-65651785D01*
X50627525Y-65651788D01*
X50730123Y-65697089D01*
X50755206Y-65699999D01*
X51399999Y-65699999D01*
X51400000Y-65699998D01*
X51400000Y-64836396D01*
X51423694Y-64860090D01*
X51526306Y-64919333D01*
X51640756Y-64950000D01*
X51759244Y-64950000D01*
X51873694Y-64919333D01*
X51976306Y-64860090D01*
X52000000Y-64836396D01*
X52000000Y-65699999D01*
X52644786Y-65699999D01*
X52644808Y-65699997D01*
X52669869Y-65697091D01*
X52669873Y-65697090D01*
X52772474Y-65651788D01*
X52772479Y-65651785D01*
X52851785Y-65572479D01*
X52851788Y-65572474D01*
X52897089Y-65469877D01*
X52897089Y-65469875D01*
X52899999Y-65444794D01*
X52899999Y-65030927D01*
X52919683Y-64963888D01*
X52972487Y-64918133D01*
X53041646Y-64908189D01*
X53105202Y-64937214D01*
X53134484Y-64974632D01*
X53213240Y-65129199D01*
X53324310Y-65282073D01*
X53457927Y-65415690D01*
X53610801Y-65526760D01*
X53684352Y-65564236D01*
X53779163Y-65612545D01*
X53779165Y-65612545D01*
X53779168Y-65612547D01*
X53875497Y-65643846D01*
X53958881Y-65670940D01*
X54145514Y-65700500D01*
X54145519Y-65700500D01*
X54334486Y-65700500D01*
X54521118Y-65670940D01*
X54550894Y-65661265D01*
X54700832Y-65612547D01*
X54869199Y-65526760D01*
X54994653Y-65435611D01*
X55060458Y-65412131D01*
X55128512Y-65427956D01*
X55177207Y-65478061D01*
X55187312Y-65503833D01*
X55199468Y-65549201D01*
X55203497Y-65564236D01*
X55203498Y-65564239D01*
X55222169Y-65596579D01*
X55259515Y-65661263D01*
X55259517Y-65661265D01*
X58563181Y-68964929D01*
X58596666Y-69026252D01*
X58599500Y-69052610D01*
X58599500Y-69079057D01*
X58616897Y-69143981D01*
X58640423Y-69231783D01*
X58640426Y-69231790D01*
X58719475Y-69368709D01*
X58719479Y-69368714D01*
X58719480Y-69368716D01*
X58831284Y-69480520D01*
X58831286Y-69480521D01*
X58831290Y-69480524D01*
X58968209Y-69559573D01*
X58968216Y-69559577D01*
X59120943Y-69600500D01*
X59120945Y-69600500D01*
X59279055Y-69600500D01*
X59279057Y-69600500D01*
X59431784Y-69559577D01*
X59568716Y-69480520D01*
X59680520Y-69368716D01*
X59759577Y-69231784D01*
X59800500Y-69079057D01*
X59800500Y-68920943D01*
X59759577Y-68768216D01*
X59756461Y-68762819D01*
X59680524Y-68631290D01*
X59680518Y-68631282D01*
X59568717Y-68519481D01*
X59568709Y-68519475D01*
X59431790Y-68440426D01*
X59431786Y-68440424D01*
X59431784Y-68440423D01*
X59279057Y-68399500D01*
X59279056Y-68399500D01*
X59252610Y-68399500D01*
X59185571Y-68379815D01*
X59164929Y-68363181D01*
X56061819Y-65260071D01*
X56028334Y-65198748D01*
X56025500Y-65172390D01*
X56025500Y-63143984D01*
X56025500Y-63143982D01*
X55996503Y-63035763D01*
X55940485Y-62938737D01*
X55861263Y-62859515D01*
X52974663Y-59972915D01*
X52941178Y-59911592D01*
X52944412Y-59846918D01*
X52973402Y-59757701D01*
X53000500Y-59586611D01*
X53000500Y-59413389D01*
X53339500Y-59413389D01*
X53339500Y-59586610D01*
X53365632Y-59751607D01*
X53366598Y-59757701D01*
X53420127Y-59922445D01*
X53498768Y-60076788D01*
X53600586Y-60216928D01*
X53723072Y-60339414D01*
X53863212Y-60441232D01*
X54017555Y-60519873D01*
X54182299Y-60573402D01*
X54353389Y-60600500D01*
X54353390Y-60600500D01*
X54526610Y-60600500D01*
X54526611Y-60600500D01*
X54697701Y-60573402D01*
X54862445Y-60519873D01*
X55016788Y-60441232D01*
X55156928Y-60339414D01*
X55279414Y-60216928D01*
X55381232Y-60076788D01*
X55459873Y-59922445D01*
X55513402Y-59757701D01*
X55540500Y-59586611D01*
X55540500Y-59413389D01*
X55513402Y-59242299D01*
X55459873Y-59077555D01*
X55381232Y-58923212D01*
X55279414Y-58783072D01*
X55156928Y-58660586D01*
X55016788Y-58558768D01*
X54862445Y-58480127D01*
X54697701Y-58426598D01*
X54697699Y-58426597D01*
X54697698Y-58426597D01*
X54566271Y-58405781D01*
X54526611Y-58399500D01*
X54353389Y-58399500D01*
X54313728Y-58405781D01*
X54182302Y-58426597D01*
X54017552Y-58480128D01*
X53863211Y-58558768D01*
X53784417Y-58616016D01*
X53723072Y-58660586D01*
X53723070Y-58660588D01*
X53723069Y-58660588D01*
X53600588Y-58783069D01*
X53600588Y-58783070D01*
X53600586Y-58783072D01*
X53572839Y-58821263D01*
X53498768Y-58923211D01*
X53420128Y-59077552D01*
X53366597Y-59242302D01*
X53339500Y-59413389D01*
X53000500Y-59413389D01*
X52973402Y-59242299D01*
X52919873Y-59077555D01*
X52841232Y-58923212D01*
X52739414Y-58783072D01*
X52616928Y-58660586D01*
X52476788Y-58558768D01*
X52322445Y-58480127D01*
X52157701Y-58426598D01*
X52157699Y-58426597D01*
X52157698Y-58426597D01*
X52026271Y-58405781D01*
X51986611Y-58399500D01*
X51813389Y-58399500D01*
X51773728Y-58405781D01*
X51642302Y-58426597D01*
X51477552Y-58480128D01*
X51323211Y-58558768D01*
X51244417Y-58616016D01*
X51183072Y-58660586D01*
X51183070Y-58660588D01*
X51183069Y-58660588D01*
X51060588Y-58783069D01*
X51060588Y-58783070D01*
X51060586Y-58783072D01*
X51032839Y-58821263D01*
X50958768Y-58923211D01*
X50880128Y-59077552D01*
X50826597Y-59242302D01*
X50799500Y-59413389D01*
X50799500Y-59586610D01*
X50825632Y-59751607D01*
X50826598Y-59757701D01*
X50880127Y-59922445D01*
X50958768Y-60076788D01*
X51060586Y-60216928D01*
X51183072Y-60339414D01*
X51323212Y-60441232D01*
X51477555Y-60519873D01*
X51642299Y-60573402D01*
X51813389Y-60600500D01*
X51813390Y-60600500D01*
X51986610Y-60600500D01*
X51986611Y-60600500D01*
X52157701Y-60573402D01*
X52246918Y-60544412D01*
X52316756Y-60542418D01*
X52372915Y-60574663D01*
X55138181Y-63339929D01*
X55171666Y-63401252D01*
X55174500Y-63427610D01*
X55174500Y-63451690D01*
X55154815Y-63518729D01*
X55102011Y-63564484D01*
X55032853Y-63574428D01*
X54977615Y-63552008D01*
X54869202Y-63473242D01*
X54869201Y-63473241D01*
X54869199Y-63473240D01*
X54779645Y-63427610D01*
X54700836Y-63387454D01*
X54521118Y-63329059D01*
X54334486Y-63299500D01*
X54334481Y-63299500D01*
X54145519Y-63299500D01*
X54145514Y-63299500D01*
X53958881Y-63329059D01*
X53779163Y-63387454D01*
X53610800Y-63473240D01*
X53532499Y-63530130D01*
X53457927Y-63584310D01*
X53457925Y-63584312D01*
X53457924Y-63584312D01*
X53324312Y-63717924D01*
X53324312Y-63717925D01*
X53324310Y-63717927D01*
X53305380Y-63743982D01*
X53213240Y-63870800D01*
X53134484Y-64025368D01*
X53086509Y-64076164D01*
X53018688Y-64092959D01*
X52952553Y-64070422D01*
X52909102Y-64015706D01*
X52899999Y-63969073D01*
X52899999Y-63555214D01*
X52899997Y-63555191D01*
X52897091Y-63530130D01*
X52897090Y-63530126D01*
X52851788Y-63427525D01*
X52851785Y-63427520D01*
X52772479Y-63348214D01*
X52772474Y-63348211D01*
X52669876Y-63302910D01*
X52644794Y-63300000D01*
X52000000Y-63300000D01*
X52000000Y-64163604D01*
X51976306Y-64139910D01*
X51873694Y-64080667D01*
X51759244Y-64050000D01*
X51640756Y-64050000D01*
X51526306Y-64080667D01*
X51423694Y-64139910D01*
X51400000Y-64163604D01*
X51400000Y-63300000D01*
X50755214Y-63300000D01*
X50755191Y-63300002D01*
X50730130Y-63302908D01*
X50730126Y-63302909D01*
X50627525Y-63348211D01*
X50627520Y-63348214D01*
X50548214Y-63427520D01*
X50548210Y-63427526D01*
X50537934Y-63450800D01*
X50492848Y-63504176D01*
X50426062Y-63524703D01*
X50358780Y-63505865D01*
X50312363Y-63453641D01*
X50300500Y-63400713D01*
X50300500Y-53878711D01*
X52149500Y-53878711D01*
X52149500Y-54121288D01*
X52181161Y-54361785D01*
X52243947Y-54596104D01*
X52313165Y-54763211D01*
X52336776Y-54820212D01*
X52458064Y-55030289D01*
X52458066Y-55030292D01*
X52458067Y-55030293D01*
X52605733Y-55222736D01*
X52605739Y-55222743D01*
X52777256Y-55394260D01*
X52777262Y-55394265D01*
X52969711Y-55541936D01*
X53179788Y-55663224D01*
X53403900Y-55756054D01*
X53638211Y-55818838D01*
X53774550Y-55836787D01*
X53878711Y-55850500D01*
X53878712Y-55850500D01*
X54121289Y-55850500D01*
X54169388Y-55844167D01*
X54361789Y-55818838D01*
X54596100Y-55756054D01*
X54820212Y-55663224D01*
X55030289Y-55541936D01*
X55222738Y-55394265D01*
X55394265Y-55222738D01*
X55541936Y-55030289D01*
X55663224Y-54820212D01*
X55756054Y-54596100D01*
X55818838Y-54361789D01*
X55850500Y-54121288D01*
X55850500Y-53878712D01*
X55850347Y-53877553D01*
X55827038Y-53700500D01*
X55818838Y-53638211D01*
X55756054Y-53403900D01*
X55663224Y-53179788D01*
X55541936Y-52969711D01*
X55394265Y-52777262D01*
X55394260Y-52777256D01*
X55222743Y-52605739D01*
X55222736Y-52605733D01*
X55030293Y-52458067D01*
X55030292Y-52458066D01*
X55030289Y-52458064D01*
X54829979Y-52342415D01*
X54820214Y-52336777D01*
X54820205Y-52336773D01*
X54596104Y-52243947D01*
X54361785Y-52181161D01*
X54121289Y-52149500D01*
X54121288Y-52149500D01*
X53878712Y-52149500D01*
X53878711Y-52149500D01*
X53638214Y-52181161D01*
X53403895Y-52243947D01*
X53179794Y-52336773D01*
X53179785Y-52336777D01*
X52969706Y-52458067D01*
X52777263Y-52605733D01*
X52777256Y-52605739D01*
X52605739Y-52777256D01*
X52605733Y-52777263D01*
X52458067Y-52969706D01*
X52336777Y-53179785D01*
X52336773Y-53179794D01*
X52243947Y-53403895D01*
X52181161Y-53638214D01*
X52149500Y-53878711D01*
X50300500Y-53878711D01*
X50300500Y-52004427D01*
X50300816Y-51995581D01*
X50305235Y-51933788D01*
X50317165Y-51766973D01*
X50319681Y-51749476D01*
X50367457Y-51529852D01*
X50372434Y-51512901D01*
X50450986Y-51302295D01*
X50458325Y-51286226D01*
X50566043Y-51088955D01*
X50575599Y-51074086D01*
X50710293Y-50894156D01*
X50721867Y-50880799D01*
X50880799Y-50721867D01*
X50894156Y-50710293D01*
X51074086Y-50575599D01*
X51088955Y-50566043D01*
X51286226Y-50458325D01*
X51302295Y-50450986D01*
X51512901Y-50372434D01*
X51529852Y-50367457D01*
X51749476Y-50319681D01*
X51766973Y-50317165D01*
X51995582Y-50300816D01*
X52004428Y-50300500D01*
X52047594Y-50300500D01*
X102952406Y-50300500D01*
X102995572Y-50300500D01*
X103004418Y-50300816D01*
G37*
%TD.AperFunction*%
%TD*%
M02*
