%TF.GenerationSoftware,KiCad,Pcbnew,10.0.5*%
%TF.CreationDate,2026-08-09T17:19:29+02:00*%
%TF.ProjectId,canfuel,63616e66-7565-46c2-9e6b-696361645f70,rev?*%
%TF.SameCoordinates,Original*%
%TF.FileFunction,Soldermask,Bot*%
%TF.FilePolarity,Negative*%
%FSLAX46Y46*%
G04 Gerber Fmt 4.6, Leading zero omitted, Abs format (unit mm)*
G04 Created by KiCad (PCBNEW 10.0.5) date 2026-08-09 17:19:29*
%MOMM*%
%LPD*%
G01*
G04 APERTURE LIST*
G04 Aperture macros list*
%AMRoundRect*
0 Rectangle with rounded corners*
0 $1 Rounding radius*
0 $2 $3 $4 $5 $6 $7 $8 $9 X,Y pos of 4 corners*
0 Add a 4 corners polygon primitive as box body*
4,1,4,$2,$3,$4,$5,$6,$7,$8,$9,$2,$3,0*
0 Add four circle primitives for the rounded corners*
1,1,$1+$1,$2,$3*
1,1,$1+$1,$4,$5*
1,1,$1+$1,$6,$7*
1,1,$1+$1,$8,$9*
0 Add four rect primitives between the rounded corners*
20,1,$1+$1,$2,$3,$4,$5,0*
20,1,$1+$1,$4,$5,$6,$7,0*
20,1,$1+$1,$6,$7,$8,$9,0*
20,1,$1+$1,$8,$9,$2,$3,0*%
G04 Aperture macros list end*
%ADD10C,3.000000*%
%ADD11RoundRect,0.250001X0.499999X0.499999X-0.499999X0.499999X-0.499999X-0.499999X0.499999X-0.499999X0*%
%ADD12C,1.500000*%
%ADD13C,1.600000*%
%ADD14R,1.800000X1.800000*%
%ADD15C,1.800000*%
%ADD16C,3.200000*%
%ADD17RoundRect,0.250000X-0.550000X-0.550000X0.550000X-0.550000X0.550000X0.550000X-0.550000X0.550000X0*%
%ADD18RoundRect,0.250000X-0.550000X0.550000X-0.550000X-0.550000X0.550000X-0.550000X0.550000X0.550000X0*%
%ADD19R,1.700000X1.700000*%
%ADD20C,1.700000*%
%ADD21RoundRect,0.250000X-1.100000X0.412500X-1.100000X-0.412500X1.100000X-0.412500X1.100000X0.412500X0*%
G04 APERTURE END LIST*
D10*
%TO.C,J2*%
X75100000Y-89520000D03*
D11*
X76600000Y-85200000D03*
D12*
X73600000Y-85200000D03*
X76600000Y-82200000D03*
X73600000Y-82200000D03*
%TD*%
D13*
%TO.C,C4*%
X80200000Y-78000000D03*
X75200000Y-78000000D03*
%TD*%
%TO.C,R2*%
X66000000Y-52600000D03*
X68540000Y-52600000D03*
%TD*%
D14*
%TO.C,D2*%
X51700000Y-74500000D03*
D15*
X54240000Y-74500000D03*
%TD*%
D16*
%TO.C,H2*%
X101000000Y-54000000D03*
%TD*%
%TO.C,H1*%
X54000000Y-54000000D03*
%TD*%
D13*
%TO.C,C3*%
X70000000Y-73800000D03*
X75000000Y-73800000D03*
%TD*%
%TO.C,C2*%
X67500000Y-60300000D03*
X67500000Y-55300000D03*
%TD*%
%TO.C,R3*%
X51900000Y-59500000D03*
X54440000Y-59500000D03*
%TD*%
D17*
%TO.C,C6*%
X52150000Y-81000000D03*
D13*
X54150000Y-81000000D03*
%TD*%
%TO.C,C1*%
X83000000Y-60300000D03*
X83000000Y-55300000D03*
%TD*%
%TO.C,R1*%
X89020000Y-59800000D03*
X91560000Y-59800000D03*
%TD*%
%TO.C,R5*%
X85520000Y-91500000D03*
X88060000Y-91500000D03*
%TD*%
%TO.C,C5*%
X82000000Y-88000000D03*
X87000000Y-88000000D03*
%TD*%
D18*
%TO.C,U1*%
X95020000Y-63000000D03*
D13*
X92480000Y-63000000D03*
X89940000Y-63000000D03*
X87400000Y-63000000D03*
X84860000Y-63000000D03*
X82320000Y-63000000D03*
X79780000Y-63000000D03*
X77240000Y-63000000D03*
X74700000Y-63000000D03*
X72160000Y-63000000D03*
X69620000Y-63000000D03*
X67080000Y-63000000D03*
X64540000Y-63000000D03*
X62000000Y-63000000D03*
X62000000Y-70620000D03*
X64540000Y-70620000D03*
X67080000Y-70620000D03*
X69620000Y-70620000D03*
X72160000Y-70620000D03*
X74700000Y-70620000D03*
X77240000Y-70620000D03*
X79780000Y-70620000D03*
X82320000Y-70620000D03*
X84860000Y-70620000D03*
X87400000Y-70620000D03*
X89940000Y-70620000D03*
X92480000Y-70620000D03*
X95020000Y-70620000D03*
%TD*%
%TO.C,R6*%
X99020000Y-61400000D03*
X99020000Y-58860000D03*
%TD*%
%TO.C,R4*%
X51900000Y-69500000D03*
X54440000Y-69500000D03*
%TD*%
D19*
%TO.C,JP1*%
X60000000Y-53000000D03*
D20*
X62540000Y-53000000D03*
%TD*%
D19*
%TO.C,J3*%
X61000000Y-78500000D03*
D20*
X63540000Y-78500000D03*
X66080000Y-78500000D03*
X68620000Y-78500000D03*
X71160000Y-78500000D03*
%TD*%
D18*
%TO.C,U2*%
X90600000Y-76000000D03*
D13*
X88060000Y-76000000D03*
X85520000Y-76000000D03*
X82980000Y-76000000D03*
X82980000Y-83620000D03*
X85520000Y-83620000D03*
X88060000Y-83620000D03*
X90600000Y-83620000D03*
%TD*%
D12*
%TO.C,Y1*%
X77500000Y-58500000D03*
X72620000Y-58500000D03*
%TD*%
D19*
%TO.C,JP2*%
X98620000Y-65400000D03*
D20*
X98620000Y-67940000D03*
%TD*%
D16*
%TO.C,H4*%
X101000000Y-91000000D03*
%TD*%
%TO.C,H3*%
X54000000Y-91000000D03*
%TD*%
D10*
%TO.C,J1*%
X63400000Y-89520000D03*
D11*
X64900000Y-85200000D03*
D12*
X61900000Y-85200000D03*
X64900000Y-82200000D03*
X61900000Y-82200000D03*
%TD*%
D14*
%TO.C,D1*%
X51700000Y-64500000D03*
D15*
X54240000Y-64500000D03*
%TD*%
D13*
%TO.C,C8*%
X95420000Y-59800000D03*
X95420000Y-57300000D03*
%TD*%
D21*
%TO.C,C7*%
X82320000Y-65247500D03*
X82320000Y-68372500D03*
%TD*%
M02*
