%TF.GenerationSoftware,KiCad,Pcbnew,10.0.5*%
%TF.CreationDate,2026-08-09T16:09:25+02:00*%
%TF.ProjectId,canfuel,63616e66-7565-46c2-9e6b-696361645f70,rev?*%
%TF.SameCoordinates,Original*%
%TF.FileFunction,Legend,Top*%
%TF.FilePolarity,Positive*%
%FSLAX46Y46*%
G04 Gerber Fmt 4.6, Leading zero omitted, Abs format (unit mm)*
G04 Created by KiCad (PCBNEW 10.0.5) date 2026-08-09 16:09:25*
%MOMM*%
%LPD*%
G01*
G04 APERTURE LIST*
%ADD10C,0.150000*%
%ADD11C,0.120000*%
G04 APERTURE END LIST*
D10*
X90199999Y-91954819D02*
X89628571Y-91954819D01*
X89914285Y-91954819D02*
X89914285Y-90954819D01*
X89914285Y-90954819D02*
X89819047Y-91097676D01*
X89819047Y-91097676D02*
X89723809Y-91192914D01*
X89723809Y-91192914D02*
X89628571Y-91240533D01*
X90580952Y-91050057D02*
X90628571Y-91002438D01*
X90628571Y-91002438D02*
X90723809Y-90954819D01*
X90723809Y-90954819D02*
X90961904Y-90954819D01*
X90961904Y-90954819D02*
X91057142Y-91002438D01*
X91057142Y-91002438D02*
X91104761Y-91050057D01*
X91104761Y-91050057D02*
X91152380Y-91145295D01*
X91152380Y-91145295D02*
X91152380Y-91240533D01*
X91152380Y-91240533D02*
X91104761Y-91383390D01*
X91104761Y-91383390D02*
X90533333Y-91954819D01*
X90533333Y-91954819D02*
X91152380Y-91954819D01*
X91771428Y-90954819D02*
X91866666Y-90954819D01*
X91866666Y-90954819D02*
X91961904Y-91002438D01*
X91961904Y-91002438D02*
X92009523Y-91050057D01*
X92009523Y-91050057D02*
X92057142Y-91145295D01*
X92057142Y-91145295D02*
X92104761Y-91335771D01*
X92104761Y-91335771D02*
X92104761Y-91573866D01*
X92104761Y-91573866D02*
X92057142Y-91764342D01*
X92057142Y-91764342D02*
X92009523Y-91859580D01*
X92009523Y-91859580D02*
X91961904Y-91907200D01*
X91961904Y-91907200D02*
X91866666Y-91954819D01*
X91866666Y-91954819D02*
X91771428Y-91954819D01*
X91771428Y-91954819D02*
X91676190Y-91907200D01*
X91676190Y-91907200D02*
X91628571Y-91859580D01*
X91628571Y-91859580D02*
X91580952Y-91764342D01*
X91580952Y-91764342D02*
X91533333Y-91573866D01*
X91533333Y-91573866D02*
X91533333Y-91335771D01*
X91533333Y-91335771D02*
X91580952Y-91145295D01*
X91580952Y-91145295D02*
X91628571Y-91050057D01*
X91628571Y-91050057D02*
X91676190Y-91002438D01*
X91676190Y-91002438D02*
X91771428Y-90954819D01*
X93104761Y-91954819D02*
X92771428Y-91478628D01*
X92533333Y-91954819D02*
X92533333Y-90954819D01*
X92533333Y-90954819D02*
X92914285Y-90954819D01*
X92914285Y-90954819D02*
X93009523Y-91002438D01*
X93009523Y-91002438D02*
X93057142Y-91050057D01*
X93057142Y-91050057D02*
X93104761Y-91145295D01*
X93104761Y-91145295D02*
X93104761Y-91288152D01*
X93104761Y-91288152D02*
X93057142Y-91383390D01*
X93057142Y-91383390D02*
X93009523Y-91431009D01*
X93009523Y-91431009D02*
X92914285Y-91478628D01*
X92914285Y-91478628D02*
X92533333Y-91478628D01*
X94295238Y-91954819D02*
X94295238Y-90954819D01*
X94295238Y-90954819D02*
X94533333Y-90954819D01*
X94533333Y-90954819D02*
X94676190Y-91002438D01*
X94676190Y-91002438D02*
X94771428Y-91097676D01*
X94771428Y-91097676D02*
X94819047Y-91192914D01*
X94819047Y-91192914D02*
X94866666Y-91383390D01*
X94866666Y-91383390D02*
X94866666Y-91526247D01*
X94866666Y-91526247D02*
X94819047Y-91716723D01*
X94819047Y-91716723D02*
X94771428Y-91811961D01*
X94771428Y-91811961D02*
X94676190Y-91907200D01*
X94676190Y-91907200D02*
X94533333Y-91954819D01*
X94533333Y-91954819D02*
X94295238Y-91954819D01*
X95295238Y-91954819D02*
X95295238Y-90954819D01*
X95295238Y-90954819D02*
X95866666Y-91954819D01*
X95866666Y-91954819D02*
X95866666Y-90954819D01*
X96676190Y-91431009D02*
X96342857Y-91431009D01*
X96342857Y-91954819D02*
X96342857Y-90954819D01*
X96342857Y-90954819D02*
X96819047Y-90954819D01*
X81527380Y-90839818D02*
X81527380Y-91554103D01*
X81527380Y-91554103D02*
X81479761Y-91696960D01*
X81479761Y-91696960D02*
X81384523Y-91792199D01*
X81384523Y-91792199D02*
X81241666Y-91839818D01*
X81241666Y-91839818D02*
X81146428Y-91839818D01*
X81955952Y-90935056D02*
X82003571Y-90887437D01*
X82003571Y-90887437D02*
X82098809Y-90839818D01*
X82098809Y-90839818D02*
X82336904Y-90839818D01*
X82336904Y-90839818D02*
X82432142Y-90887437D01*
X82432142Y-90887437D02*
X82479761Y-90935056D01*
X82479761Y-90935056D02*
X82527380Y-91030294D01*
X82527380Y-91030294D02*
X82527380Y-91125532D01*
X82527380Y-91125532D02*
X82479761Y-91268389D01*
X82479761Y-91268389D02*
X81908333Y-91839818D01*
X81908333Y-91839818D02*
X82527380Y-91839818D01*
X77533333Y-75785980D02*
X77485714Y-75833600D01*
X77485714Y-75833600D02*
X77342857Y-75881219D01*
X77342857Y-75881219D02*
X77247619Y-75881219D01*
X77247619Y-75881219D02*
X77104762Y-75833600D01*
X77104762Y-75833600D02*
X77009524Y-75738361D01*
X77009524Y-75738361D02*
X76961905Y-75643123D01*
X76961905Y-75643123D02*
X76914286Y-75452647D01*
X76914286Y-75452647D02*
X76914286Y-75309790D01*
X76914286Y-75309790D02*
X76961905Y-75119314D01*
X76961905Y-75119314D02*
X77009524Y-75024076D01*
X77009524Y-75024076D02*
X77104762Y-74928838D01*
X77104762Y-74928838D02*
X77247619Y-74881219D01*
X77247619Y-74881219D02*
X77342857Y-74881219D01*
X77342857Y-74881219D02*
X77485714Y-74928838D01*
X77485714Y-74928838D02*
X77533333Y-74976457D01*
X78390476Y-75214552D02*
X78390476Y-75881219D01*
X78152381Y-74833600D02*
X77914286Y-75547885D01*
X77914286Y-75547885D02*
X78533333Y-75547885D01*
X70699285Y-53054819D02*
X70365952Y-52578628D01*
X70127857Y-53054819D02*
X70127857Y-52054819D01*
X70127857Y-52054819D02*
X70508809Y-52054819D01*
X70508809Y-52054819D02*
X70604047Y-52102438D01*
X70604047Y-52102438D02*
X70651666Y-52150057D01*
X70651666Y-52150057D02*
X70699285Y-52245295D01*
X70699285Y-52245295D02*
X70699285Y-52388152D01*
X70699285Y-52388152D02*
X70651666Y-52483390D01*
X70651666Y-52483390D02*
X70604047Y-52531009D01*
X70604047Y-52531009D02*
X70508809Y-52578628D01*
X70508809Y-52578628D02*
X70127857Y-52578628D01*
X71080238Y-52150057D02*
X71127857Y-52102438D01*
X71127857Y-52102438D02*
X71223095Y-52054819D01*
X71223095Y-52054819D02*
X71461190Y-52054819D01*
X71461190Y-52054819D02*
X71556428Y-52102438D01*
X71556428Y-52102438D02*
X71604047Y-52150057D01*
X71604047Y-52150057D02*
X71651666Y-52245295D01*
X71651666Y-52245295D02*
X71651666Y-52340533D01*
X71651666Y-52340533D02*
X71604047Y-52483390D01*
X71604047Y-52483390D02*
X71032619Y-53054819D01*
X71032619Y-53054819D02*
X71651666Y-53054819D01*
X55927857Y-74954819D02*
X55927857Y-73954819D01*
X55927857Y-73954819D02*
X56165952Y-73954819D01*
X56165952Y-73954819D02*
X56308809Y-74002438D01*
X56308809Y-74002438D02*
X56404047Y-74097676D01*
X56404047Y-74097676D02*
X56451666Y-74192914D01*
X56451666Y-74192914D02*
X56499285Y-74383390D01*
X56499285Y-74383390D02*
X56499285Y-74526247D01*
X56499285Y-74526247D02*
X56451666Y-74716723D01*
X56451666Y-74716723D02*
X56404047Y-74811961D01*
X56404047Y-74811961D02*
X56308809Y-74907200D01*
X56308809Y-74907200D02*
X56165952Y-74954819D01*
X56165952Y-74954819D02*
X55927857Y-74954819D01*
X56880238Y-74050057D02*
X56927857Y-74002438D01*
X56927857Y-74002438D02*
X57023095Y-73954819D01*
X57023095Y-73954819D02*
X57261190Y-73954819D01*
X57261190Y-73954819D02*
X57356428Y-74002438D01*
X57356428Y-74002438D02*
X57404047Y-74050057D01*
X57404047Y-74050057D02*
X57451666Y-74145295D01*
X57451666Y-74145295D02*
X57451666Y-74240533D01*
X57451666Y-74240533D02*
X57404047Y-74383390D01*
X57404047Y-74383390D02*
X56832619Y-74954819D01*
X56832619Y-74954819D02*
X57451666Y-74954819D01*
X67507380Y-74159580D02*
X67459761Y-74207200D01*
X67459761Y-74207200D02*
X67316904Y-74254819D01*
X67316904Y-74254819D02*
X67221666Y-74254819D01*
X67221666Y-74254819D02*
X67078809Y-74207200D01*
X67078809Y-74207200D02*
X66983571Y-74111961D01*
X66983571Y-74111961D02*
X66935952Y-74016723D01*
X66935952Y-74016723D02*
X66888333Y-73826247D01*
X66888333Y-73826247D02*
X66888333Y-73683390D01*
X66888333Y-73683390D02*
X66935952Y-73492914D01*
X66935952Y-73492914D02*
X66983571Y-73397676D01*
X66983571Y-73397676D02*
X67078809Y-73302438D01*
X67078809Y-73302438D02*
X67221666Y-73254819D01*
X67221666Y-73254819D02*
X67316904Y-73254819D01*
X67316904Y-73254819D02*
X67459761Y-73302438D01*
X67459761Y-73302438D02*
X67507380Y-73350057D01*
X67840714Y-73254819D02*
X68459761Y-73254819D01*
X68459761Y-73254819D02*
X68126428Y-73635771D01*
X68126428Y-73635771D02*
X68269285Y-73635771D01*
X68269285Y-73635771D02*
X68364523Y-73683390D01*
X68364523Y-73683390D02*
X68412142Y-73731009D01*
X68412142Y-73731009D02*
X68459761Y-73826247D01*
X68459761Y-73826247D02*
X68459761Y-74064342D01*
X68459761Y-74064342D02*
X68412142Y-74159580D01*
X68412142Y-74159580D02*
X68364523Y-74207200D01*
X68364523Y-74207200D02*
X68269285Y-74254819D01*
X68269285Y-74254819D02*
X67983571Y-74254819D01*
X67983571Y-74254819D02*
X67888333Y-74207200D01*
X67888333Y-74207200D02*
X67840714Y-74159580D01*
X64557380Y-58159580D02*
X64509761Y-58207200D01*
X64509761Y-58207200D02*
X64366904Y-58254819D01*
X64366904Y-58254819D02*
X64271666Y-58254819D01*
X64271666Y-58254819D02*
X64128809Y-58207200D01*
X64128809Y-58207200D02*
X64033571Y-58111961D01*
X64033571Y-58111961D02*
X63985952Y-58016723D01*
X63985952Y-58016723D02*
X63938333Y-57826247D01*
X63938333Y-57826247D02*
X63938333Y-57683390D01*
X63938333Y-57683390D02*
X63985952Y-57492914D01*
X63985952Y-57492914D02*
X64033571Y-57397676D01*
X64033571Y-57397676D02*
X64128809Y-57302438D01*
X64128809Y-57302438D02*
X64271666Y-57254819D01*
X64271666Y-57254819D02*
X64366904Y-57254819D01*
X64366904Y-57254819D02*
X64509761Y-57302438D01*
X64509761Y-57302438D02*
X64557380Y-57350057D01*
X64938333Y-57350057D02*
X64985952Y-57302438D01*
X64985952Y-57302438D02*
X65081190Y-57254819D01*
X65081190Y-57254819D02*
X65319285Y-57254819D01*
X65319285Y-57254819D02*
X65414523Y-57302438D01*
X65414523Y-57302438D02*
X65462142Y-57350057D01*
X65462142Y-57350057D02*
X65509761Y-57445295D01*
X65509761Y-57445295D02*
X65509761Y-57540533D01*
X65509761Y-57540533D02*
X65462142Y-57683390D01*
X65462142Y-57683390D02*
X64890714Y-58254819D01*
X64890714Y-58254819D02*
X65509761Y-58254819D01*
X56599285Y-59954819D02*
X56265952Y-59478628D01*
X56027857Y-59954819D02*
X56027857Y-58954819D01*
X56027857Y-58954819D02*
X56408809Y-58954819D01*
X56408809Y-58954819D02*
X56504047Y-59002438D01*
X56504047Y-59002438D02*
X56551666Y-59050057D01*
X56551666Y-59050057D02*
X56599285Y-59145295D01*
X56599285Y-59145295D02*
X56599285Y-59288152D01*
X56599285Y-59288152D02*
X56551666Y-59383390D01*
X56551666Y-59383390D02*
X56504047Y-59431009D01*
X56504047Y-59431009D02*
X56408809Y-59478628D01*
X56408809Y-59478628D02*
X56027857Y-59478628D01*
X56932619Y-58954819D02*
X57551666Y-58954819D01*
X57551666Y-58954819D02*
X57218333Y-59335771D01*
X57218333Y-59335771D02*
X57361190Y-59335771D01*
X57361190Y-59335771D02*
X57456428Y-59383390D01*
X57456428Y-59383390D02*
X57504047Y-59431009D01*
X57504047Y-59431009D02*
X57551666Y-59526247D01*
X57551666Y-59526247D02*
X57551666Y-59764342D01*
X57551666Y-59764342D02*
X57504047Y-59859580D01*
X57504047Y-59859580D02*
X57456428Y-59907200D01*
X57456428Y-59907200D02*
X57361190Y-59954819D01*
X57361190Y-59954819D02*
X57075476Y-59954819D01*
X57075476Y-59954819D02*
X56980238Y-59907200D01*
X56980238Y-59907200D02*
X56932619Y-59859580D01*
X52984587Y-85180671D02*
X52936968Y-85228291D01*
X52936968Y-85228291D02*
X52794111Y-85275910D01*
X52794111Y-85275910D02*
X52698873Y-85275910D01*
X52698873Y-85275910D02*
X52556016Y-85228291D01*
X52556016Y-85228291D02*
X52460778Y-85133052D01*
X52460778Y-85133052D02*
X52413159Y-85037814D01*
X52413159Y-85037814D02*
X52365540Y-84847338D01*
X52365540Y-84847338D02*
X52365540Y-84704481D01*
X52365540Y-84704481D02*
X52413159Y-84514005D01*
X52413159Y-84514005D02*
X52460778Y-84418767D01*
X52460778Y-84418767D02*
X52556016Y-84323529D01*
X52556016Y-84323529D02*
X52698873Y-84275910D01*
X52698873Y-84275910D02*
X52794111Y-84275910D01*
X52794111Y-84275910D02*
X52936968Y-84323529D01*
X52936968Y-84323529D02*
X52984587Y-84371148D01*
X53841730Y-84275910D02*
X53651254Y-84275910D01*
X53651254Y-84275910D02*
X53556016Y-84323529D01*
X53556016Y-84323529D02*
X53508397Y-84371148D01*
X53508397Y-84371148D02*
X53413159Y-84514005D01*
X53413159Y-84514005D02*
X53365540Y-84704481D01*
X53365540Y-84704481D02*
X53365540Y-85085433D01*
X53365540Y-85085433D02*
X53413159Y-85180671D01*
X53413159Y-85180671D02*
X53460778Y-85228291D01*
X53460778Y-85228291D02*
X53556016Y-85275910D01*
X53556016Y-85275910D02*
X53746492Y-85275910D01*
X53746492Y-85275910D02*
X53841730Y-85228291D01*
X53841730Y-85228291D02*
X53889349Y-85180671D01*
X53889349Y-85180671D02*
X53936968Y-85085433D01*
X53936968Y-85085433D02*
X53936968Y-84847338D01*
X53936968Y-84847338D02*
X53889349Y-84752100D01*
X53889349Y-84752100D02*
X53841730Y-84704481D01*
X53841730Y-84704481D02*
X53746492Y-84656862D01*
X53746492Y-84656862D02*
X53556016Y-84656862D01*
X53556016Y-84656862D02*
X53460778Y-84704481D01*
X53460778Y-84704481D02*
X53413159Y-84752100D01*
X53413159Y-84752100D02*
X53365540Y-84847338D01*
X82833333Y-53535979D02*
X82785714Y-53583599D01*
X82785714Y-53583599D02*
X82642857Y-53631218D01*
X82642857Y-53631218D02*
X82547619Y-53631218D01*
X82547619Y-53631218D02*
X82404762Y-53583599D01*
X82404762Y-53583599D02*
X82309524Y-53488360D01*
X82309524Y-53488360D02*
X82261905Y-53393122D01*
X82261905Y-53393122D02*
X82214286Y-53202646D01*
X82214286Y-53202646D02*
X82214286Y-53059789D01*
X82214286Y-53059789D02*
X82261905Y-52869313D01*
X82261905Y-52869313D02*
X82309524Y-52774075D01*
X82309524Y-52774075D02*
X82404762Y-52678837D01*
X82404762Y-52678837D02*
X82547619Y-52631218D01*
X82547619Y-52631218D02*
X82642857Y-52631218D01*
X82642857Y-52631218D02*
X82785714Y-52678837D01*
X82785714Y-52678837D02*
X82833333Y-52726456D01*
X83785714Y-53631218D02*
X83214286Y-53631218D01*
X83500000Y-53631218D02*
X83500000Y-52631218D01*
X83500000Y-52631218D02*
X83404762Y-52774075D01*
X83404762Y-52774075D02*
X83309524Y-52869313D01*
X83309524Y-52869313D02*
X83214286Y-52916932D01*
X89898333Y-57681219D02*
X89565000Y-57205028D01*
X89326905Y-57681219D02*
X89326905Y-56681219D01*
X89326905Y-56681219D02*
X89707857Y-56681219D01*
X89707857Y-56681219D02*
X89803095Y-56728838D01*
X89803095Y-56728838D02*
X89850714Y-56776457D01*
X89850714Y-56776457D02*
X89898333Y-56871695D01*
X89898333Y-56871695D02*
X89898333Y-57014552D01*
X89898333Y-57014552D02*
X89850714Y-57109790D01*
X89850714Y-57109790D02*
X89803095Y-57157409D01*
X89803095Y-57157409D02*
X89707857Y-57205028D01*
X89707857Y-57205028D02*
X89326905Y-57205028D01*
X90850714Y-57681219D02*
X90279286Y-57681219D01*
X90565000Y-57681219D02*
X90565000Y-56681219D01*
X90565000Y-56681219D02*
X90469762Y-56824076D01*
X90469762Y-56824076D02*
X90374524Y-56919314D01*
X90374524Y-56919314D02*
X90279286Y-56966933D01*
X86398333Y-94528419D02*
X86065000Y-94052228D01*
X85826905Y-94528419D02*
X85826905Y-93528419D01*
X85826905Y-93528419D02*
X86207857Y-93528419D01*
X86207857Y-93528419D02*
X86303095Y-93576038D01*
X86303095Y-93576038D02*
X86350714Y-93623657D01*
X86350714Y-93623657D02*
X86398333Y-93718895D01*
X86398333Y-93718895D02*
X86398333Y-93861752D01*
X86398333Y-93861752D02*
X86350714Y-93956990D01*
X86350714Y-93956990D02*
X86303095Y-94004609D01*
X86303095Y-94004609D02*
X86207857Y-94052228D01*
X86207857Y-94052228D02*
X85826905Y-94052228D01*
X87303095Y-93528419D02*
X86826905Y-93528419D01*
X86826905Y-93528419D02*
X86779286Y-94004609D01*
X86779286Y-94004609D02*
X86826905Y-93956990D01*
X86826905Y-93956990D02*
X86922143Y-93909371D01*
X86922143Y-93909371D02*
X87160238Y-93909371D01*
X87160238Y-93909371D02*
X87255476Y-93956990D01*
X87255476Y-93956990D02*
X87303095Y-94004609D01*
X87303095Y-94004609D02*
X87350714Y-94099847D01*
X87350714Y-94099847D02*
X87350714Y-94337942D01*
X87350714Y-94337942D02*
X87303095Y-94433180D01*
X87303095Y-94433180D02*
X87255476Y-94480800D01*
X87255476Y-94480800D02*
X87160238Y-94528419D01*
X87160238Y-94528419D02*
X86922143Y-94528419D01*
X86922143Y-94528419D02*
X86826905Y-94480800D01*
X86826905Y-94480800D02*
X86779286Y-94433180D01*
X89159285Y-88359580D02*
X89111666Y-88407200D01*
X89111666Y-88407200D02*
X88968809Y-88454819D01*
X88968809Y-88454819D02*
X88873571Y-88454819D01*
X88873571Y-88454819D02*
X88730714Y-88407200D01*
X88730714Y-88407200D02*
X88635476Y-88311961D01*
X88635476Y-88311961D02*
X88587857Y-88216723D01*
X88587857Y-88216723D02*
X88540238Y-88026247D01*
X88540238Y-88026247D02*
X88540238Y-87883390D01*
X88540238Y-87883390D02*
X88587857Y-87692914D01*
X88587857Y-87692914D02*
X88635476Y-87597676D01*
X88635476Y-87597676D02*
X88730714Y-87502438D01*
X88730714Y-87502438D02*
X88873571Y-87454819D01*
X88873571Y-87454819D02*
X88968809Y-87454819D01*
X88968809Y-87454819D02*
X89111666Y-87502438D01*
X89111666Y-87502438D02*
X89159285Y-87550057D01*
X90064047Y-87454819D02*
X89587857Y-87454819D01*
X89587857Y-87454819D02*
X89540238Y-87931009D01*
X89540238Y-87931009D02*
X89587857Y-87883390D01*
X89587857Y-87883390D02*
X89683095Y-87835771D01*
X89683095Y-87835771D02*
X89921190Y-87835771D01*
X89921190Y-87835771D02*
X90016428Y-87883390D01*
X90016428Y-87883390D02*
X90064047Y-87931009D01*
X90064047Y-87931009D02*
X90111666Y-88026247D01*
X90111666Y-88026247D02*
X90111666Y-88264342D01*
X90111666Y-88264342D02*
X90064047Y-88359580D01*
X90064047Y-88359580D02*
X90016428Y-88407200D01*
X90016428Y-88407200D02*
X89921190Y-88454819D01*
X89921190Y-88454819D02*
X89683095Y-88454819D01*
X89683095Y-88454819D02*
X89587857Y-88407200D01*
X89587857Y-88407200D02*
X89540238Y-88359580D01*
X77748095Y-72668419D02*
X77748095Y-73477942D01*
X77748095Y-73477942D02*
X77795714Y-73573180D01*
X77795714Y-73573180D02*
X77843333Y-73620800D01*
X77843333Y-73620800D02*
X77938571Y-73668419D01*
X77938571Y-73668419D02*
X78129047Y-73668419D01*
X78129047Y-73668419D02*
X78224285Y-73620800D01*
X78224285Y-73620800D02*
X78271904Y-73573180D01*
X78271904Y-73573180D02*
X78319523Y-73477942D01*
X78319523Y-73477942D02*
X78319523Y-72668419D01*
X79319523Y-73668419D02*
X78748095Y-73668419D01*
X79033809Y-73668419D02*
X79033809Y-72668419D01*
X79033809Y-72668419D02*
X78938571Y-72811276D01*
X78938571Y-72811276D02*
X78843333Y-72906514D01*
X78843333Y-72906514D02*
X78748095Y-72954133D01*
X101629285Y-60809819D02*
X101295952Y-60333628D01*
X101057857Y-60809819D02*
X101057857Y-59809819D01*
X101057857Y-59809819D02*
X101438809Y-59809819D01*
X101438809Y-59809819D02*
X101534047Y-59857438D01*
X101534047Y-59857438D02*
X101581666Y-59905057D01*
X101581666Y-59905057D02*
X101629285Y-60000295D01*
X101629285Y-60000295D02*
X101629285Y-60143152D01*
X101629285Y-60143152D02*
X101581666Y-60238390D01*
X101581666Y-60238390D02*
X101534047Y-60286009D01*
X101534047Y-60286009D02*
X101438809Y-60333628D01*
X101438809Y-60333628D02*
X101057857Y-60333628D01*
X102486428Y-59809819D02*
X102295952Y-59809819D01*
X102295952Y-59809819D02*
X102200714Y-59857438D01*
X102200714Y-59857438D02*
X102153095Y-59905057D01*
X102153095Y-59905057D02*
X102057857Y-60047914D01*
X102057857Y-60047914D02*
X102010238Y-60238390D01*
X102010238Y-60238390D02*
X102010238Y-60619342D01*
X102010238Y-60619342D02*
X102057857Y-60714580D01*
X102057857Y-60714580D02*
X102105476Y-60762200D01*
X102105476Y-60762200D02*
X102200714Y-60809819D01*
X102200714Y-60809819D02*
X102391190Y-60809819D01*
X102391190Y-60809819D02*
X102486428Y-60762200D01*
X102486428Y-60762200D02*
X102534047Y-60714580D01*
X102534047Y-60714580D02*
X102581666Y-60619342D01*
X102581666Y-60619342D02*
X102581666Y-60381247D01*
X102581666Y-60381247D02*
X102534047Y-60286009D01*
X102534047Y-60286009D02*
X102486428Y-60238390D01*
X102486428Y-60238390D02*
X102391190Y-60190771D01*
X102391190Y-60190771D02*
X102200714Y-60190771D01*
X102200714Y-60190771D02*
X102105476Y-60238390D01*
X102105476Y-60238390D02*
X102057857Y-60286009D01*
X102057857Y-60286009D02*
X102010238Y-60381247D01*
X56599285Y-69954819D02*
X56265952Y-69478628D01*
X56027857Y-69954819D02*
X56027857Y-68954819D01*
X56027857Y-68954819D02*
X56408809Y-68954819D01*
X56408809Y-68954819D02*
X56504047Y-69002438D01*
X56504047Y-69002438D02*
X56551666Y-69050057D01*
X56551666Y-69050057D02*
X56599285Y-69145295D01*
X56599285Y-69145295D02*
X56599285Y-69288152D01*
X56599285Y-69288152D02*
X56551666Y-69383390D01*
X56551666Y-69383390D02*
X56504047Y-69431009D01*
X56504047Y-69431009D02*
X56408809Y-69478628D01*
X56408809Y-69478628D02*
X56027857Y-69478628D01*
X57456428Y-69288152D02*
X57456428Y-69954819D01*
X57218333Y-68907200D02*
X56980238Y-69621485D01*
X56980238Y-69621485D02*
X57599285Y-69621485D01*
X60441666Y-55298419D02*
X60441666Y-56012704D01*
X60441666Y-56012704D02*
X60394047Y-56155561D01*
X60394047Y-56155561D02*
X60298809Y-56250800D01*
X60298809Y-56250800D02*
X60155952Y-56298419D01*
X60155952Y-56298419D02*
X60060714Y-56298419D01*
X60917857Y-56298419D02*
X60917857Y-55298419D01*
X60917857Y-55298419D02*
X61298809Y-55298419D01*
X61298809Y-55298419D02*
X61394047Y-55346038D01*
X61394047Y-55346038D02*
X61441666Y-55393657D01*
X61441666Y-55393657D02*
X61489285Y-55488895D01*
X61489285Y-55488895D02*
X61489285Y-55631752D01*
X61489285Y-55631752D02*
X61441666Y-55726990D01*
X61441666Y-55726990D02*
X61394047Y-55774609D01*
X61394047Y-55774609D02*
X61298809Y-55822228D01*
X61298809Y-55822228D02*
X60917857Y-55822228D01*
X62441666Y-56298419D02*
X61870238Y-56298419D01*
X62155952Y-56298419D02*
X62155952Y-55298419D01*
X62155952Y-55298419D02*
X62060714Y-55441276D01*
X62060714Y-55441276D02*
X61965476Y-55536514D01*
X61965476Y-55536514D02*
X61870238Y-55584133D01*
X65746666Y-75111219D02*
X65746666Y-75825504D01*
X65746666Y-75825504D02*
X65699047Y-75968361D01*
X65699047Y-75968361D02*
X65603809Y-76063600D01*
X65603809Y-76063600D02*
X65460952Y-76111219D01*
X65460952Y-76111219D02*
X65365714Y-76111219D01*
X66127619Y-75111219D02*
X66746666Y-75111219D01*
X66746666Y-75111219D02*
X66413333Y-75492171D01*
X66413333Y-75492171D02*
X66556190Y-75492171D01*
X66556190Y-75492171D02*
X66651428Y-75539790D01*
X66651428Y-75539790D02*
X66699047Y-75587409D01*
X66699047Y-75587409D02*
X66746666Y-75682647D01*
X66746666Y-75682647D02*
X66746666Y-75920742D01*
X66746666Y-75920742D02*
X66699047Y-76015980D01*
X66699047Y-76015980D02*
X66651428Y-76063600D01*
X66651428Y-76063600D02*
X66556190Y-76111219D01*
X66556190Y-76111219D02*
X66270476Y-76111219D01*
X66270476Y-76111219D02*
X66175238Y-76063600D01*
X66175238Y-76063600D02*
X66127619Y-76015980D01*
X86028094Y-72861219D02*
X86028094Y-73670742D01*
X86028094Y-73670742D02*
X86075713Y-73765980D01*
X86075713Y-73765980D02*
X86123332Y-73813600D01*
X86123332Y-73813600D02*
X86218570Y-73861219D01*
X86218570Y-73861219D02*
X86409046Y-73861219D01*
X86409046Y-73861219D02*
X86504284Y-73813600D01*
X86504284Y-73813600D02*
X86551903Y-73765980D01*
X86551903Y-73765980D02*
X86599522Y-73670742D01*
X86599522Y-73670742D02*
X86599522Y-72861219D01*
X87028094Y-72956457D02*
X87075713Y-72908838D01*
X87075713Y-72908838D02*
X87170951Y-72861219D01*
X87170951Y-72861219D02*
X87409046Y-72861219D01*
X87409046Y-72861219D02*
X87504284Y-72908838D01*
X87504284Y-72908838D02*
X87551903Y-72956457D01*
X87551903Y-72956457D02*
X87599522Y-73051695D01*
X87599522Y-73051695D02*
X87599522Y-73146933D01*
X87599522Y-73146933D02*
X87551903Y-73289790D01*
X87551903Y-73289790D02*
X86980475Y-73861219D01*
X86980475Y-73861219D02*
X87599522Y-73861219D01*
X74583809Y-54575027D02*
X74583809Y-55051218D01*
X74250476Y-54051218D02*
X74583809Y-54575027D01*
X74583809Y-54575027D02*
X74917142Y-54051218D01*
X75774285Y-55051218D02*
X75202857Y-55051218D01*
X75488571Y-55051218D02*
X75488571Y-54051218D01*
X75488571Y-54051218D02*
X75393333Y-54194075D01*
X75393333Y-54194075D02*
X75298095Y-54289313D01*
X75298095Y-54289313D02*
X75202857Y-54336932D01*
X97786666Y-70248419D02*
X97786666Y-70962704D01*
X97786666Y-70962704D02*
X97739047Y-71105561D01*
X97739047Y-71105561D02*
X97643809Y-71200800D01*
X97643809Y-71200800D02*
X97500952Y-71248419D01*
X97500952Y-71248419D02*
X97405714Y-71248419D01*
X98262857Y-71248419D02*
X98262857Y-70248419D01*
X98262857Y-70248419D02*
X98643809Y-70248419D01*
X98643809Y-70248419D02*
X98739047Y-70296038D01*
X98739047Y-70296038D02*
X98786666Y-70343657D01*
X98786666Y-70343657D02*
X98834285Y-70438895D01*
X98834285Y-70438895D02*
X98834285Y-70581752D01*
X98834285Y-70581752D02*
X98786666Y-70676990D01*
X98786666Y-70676990D02*
X98739047Y-70724609D01*
X98739047Y-70724609D02*
X98643809Y-70772228D01*
X98643809Y-70772228D02*
X98262857Y-70772228D01*
X99215238Y-70343657D02*
X99262857Y-70296038D01*
X99262857Y-70296038D02*
X99358095Y-70248419D01*
X99358095Y-70248419D02*
X99596190Y-70248419D01*
X99596190Y-70248419D02*
X99691428Y-70296038D01*
X99691428Y-70296038D02*
X99739047Y-70343657D01*
X99739047Y-70343657D02*
X99786666Y-70438895D01*
X99786666Y-70438895D02*
X99786666Y-70534133D01*
X99786666Y-70534133D02*
X99739047Y-70676990D01*
X99739047Y-70676990D02*
X99167619Y-71248419D01*
X99167619Y-71248419D02*
X99786666Y-71248419D01*
X56305951Y-86039819D02*
X56305951Y-86754104D01*
X56305951Y-86754104D02*
X56258332Y-86896961D01*
X56258332Y-86896961D02*
X56163094Y-86992200D01*
X56163094Y-86992200D02*
X56020237Y-87039819D01*
X56020237Y-87039819D02*
X55924999Y-87039819D01*
X57305951Y-87039819D02*
X56734523Y-87039819D01*
X57020237Y-87039819D02*
X57020237Y-86039819D01*
X57020237Y-86039819D02*
X56924999Y-86182676D01*
X56924999Y-86182676D02*
X56829761Y-86277914D01*
X56829761Y-86277914D02*
X56734523Y-86325533D01*
X55927857Y-64954819D02*
X55927857Y-63954819D01*
X55927857Y-63954819D02*
X56165952Y-63954819D01*
X56165952Y-63954819D02*
X56308809Y-64002438D01*
X56308809Y-64002438D02*
X56404047Y-64097676D01*
X56404047Y-64097676D02*
X56451666Y-64192914D01*
X56451666Y-64192914D02*
X56499285Y-64383390D01*
X56499285Y-64383390D02*
X56499285Y-64526247D01*
X56499285Y-64526247D02*
X56451666Y-64716723D01*
X56451666Y-64716723D02*
X56404047Y-64811961D01*
X56404047Y-64811961D02*
X56308809Y-64907200D01*
X56308809Y-64907200D02*
X56165952Y-64954819D01*
X56165952Y-64954819D02*
X55927857Y-64954819D01*
X57451666Y-64954819D02*
X56880238Y-64954819D01*
X57165952Y-64954819D02*
X57165952Y-63954819D01*
X57165952Y-63954819D02*
X57070714Y-64097676D01*
X57070714Y-64097676D02*
X56975476Y-64192914D01*
X56975476Y-64192914D02*
X56880238Y-64240533D01*
X95253333Y-55085980D02*
X95205714Y-55133600D01*
X95205714Y-55133600D02*
X95062857Y-55181219D01*
X95062857Y-55181219D02*
X94967619Y-55181219D01*
X94967619Y-55181219D02*
X94824762Y-55133600D01*
X94824762Y-55133600D02*
X94729524Y-55038361D01*
X94729524Y-55038361D02*
X94681905Y-54943123D01*
X94681905Y-54943123D02*
X94634286Y-54752647D01*
X94634286Y-54752647D02*
X94634286Y-54609790D01*
X94634286Y-54609790D02*
X94681905Y-54419314D01*
X94681905Y-54419314D02*
X94729524Y-54324076D01*
X94729524Y-54324076D02*
X94824762Y-54228838D01*
X94824762Y-54228838D02*
X94967619Y-54181219D01*
X94967619Y-54181219D02*
X95062857Y-54181219D01*
X95062857Y-54181219D02*
X95205714Y-54228838D01*
X95205714Y-54228838D02*
X95253333Y-54276457D01*
X95824762Y-54609790D02*
X95729524Y-54562171D01*
X95729524Y-54562171D02*
X95681905Y-54514552D01*
X95681905Y-54514552D02*
X95634286Y-54419314D01*
X95634286Y-54419314D02*
X95634286Y-54371695D01*
X95634286Y-54371695D02*
X95681905Y-54276457D01*
X95681905Y-54276457D02*
X95729524Y-54228838D01*
X95729524Y-54228838D02*
X95824762Y-54181219D01*
X95824762Y-54181219D02*
X96015238Y-54181219D01*
X96015238Y-54181219D02*
X96110476Y-54228838D01*
X96110476Y-54228838D02*
X96158095Y-54276457D01*
X96158095Y-54276457D02*
X96205714Y-54371695D01*
X96205714Y-54371695D02*
X96205714Y-54419314D01*
X96205714Y-54419314D02*
X96158095Y-54514552D01*
X96158095Y-54514552D02*
X96110476Y-54562171D01*
X96110476Y-54562171D02*
X96015238Y-54609790D01*
X96015238Y-54609790D02*
X95824762Y-54609790D01*
X95824762Y-54609790D02*
X95729524Y-54657409D01*
X95729524Y-54657409D02*
X95681905Y-54705028D01*
X95681905Y-54705028D02*
X95634286Y-54800266D01*
X95634286Y-54800266D02*
X95634286Y-54990742D01*
X95634286Y-54990742D02*
X95681905Y-55085980D01*
X95681905Y-55085980D02*
X95729524Y-55133600D01*
X95729524Y-55133600D02*
X95824762Y-55181219D01*
X95824762Y-55181219D02*
X96015238Y-55181219D01*
X96015238Y-55181219D02*
X96110476Y-55133600D01*
X96110476Y-55133600D02*
X96158095Y-55085980D01*
X96158095Y-55085980D02*
X96205714Y-54990742D01*
X96205714Y-54990742D02*
X96205714Y-54800266D01*
X96205714Y-54800266D02*
X96158095Y-54705028D01*
X96158095Y-54705028D02*
X96110476Y-54657409D01*
X96110476Y-54657409D02*
X96015238Y-54609790D01*
%TO.C,J2*%
D11*
X69915000Y-84100000D02*
X80285000Y-84100000D01*
X69915000Y-93230000D02*
X69915000Y-84100000D01*
X70915000Y-94230000D02*
X69915000Y-93230000D01*
X79285000Y-94230000D02*
X70915000Y-94230000D01*
X80285000Y-84100000D02*
X80285000Y-93230000D01*
X80285000Y-93230000D02*
X79285000Y-94230000D01*
%TO.C,C4*%
X75080000Y-76630000D02*
X80320000Y-76630000D01*
X75080000Y-76967000D02*
X75080000Y-76630000D01*
X75080000Y-79370000D02*
X75080000Y-79033000D01*
X80320000Y-76630000D02*
X80320000Y-76967000D01*
X80320000Y-79033000D02*
X80320000Y-79370000D01*
X80320000Y-79370000D02*
X75080000Y-79370000D01*
%TO.C,R2*%
X67370000Y-52600000D02*
X67440000Y-52600000D01*
X67370000Y-52600000D02*
G75*
G02*
X64630000Y-52600000I-1370000J0D01*
G01*
X64630000Y-52600000D02*
G75*
G02*
X67370000Y-52600000I1370000J0D01*
G01*
%TO.C,D2*%
X51410000Y-73264000D02*
X51410000Y-73420000D01*
X51410000Y-75580000D02*
X51410000Y-75736000D01*
X51410000Y-73264484D02*
G75*
G02*
X54641437Y-73420000I1560000J-1235516D01*
G01*
X51929039Y-73420000D02*
G75*
G02*
X54010961Y-73420000I1040961J-1080000D01*
G01*
X54010961Y-75580000D02*
G75*
G02*
X51929039Y-75580000I-1040961J1080000D01*
G01*
X54641437Y-75580000D02*
G75*
G02*
X51410000Y-75735516I-1671437J1080000D01*
G01*
%TO.C,C3*%
X69880000Y-72430000D02*
X75120000Y-72430000D01*
X69880000Y-72767000D02*
X69880000Y-72430000D01*
X69880000Y-75170000D02*
X69880000Y-74833000D01*
X75120000Y-72430000D02*
X75120000Y-72767000D01*
X75120000Y-74833000D02*
X75120000Y-75170000D01*
X75120000Y-75170000D02*
X69880000Y-75170000D01*
%TO.C,C2*%
X66130000Y-55180000D02*
X66467000Y-55180000D01*
X66130000Y-60420000D02*
X66130000Y-55180000D01*
X66467000Y-60420000D02*
X66130000Y-60420000D01*
X68533000Y-55180000D02*
X68870000Y-55180000D01*
X68870000Y-55180000D02*
X68870000Y-60420000D01*
X68870000Y-60420000D02*
X68533000Y-60420000D01*
%TO.C,R3*%
X53270000Y-59500000D02*
X53340000Y-59500000D01*
X53270000Y-59500000D02*
G75*
G02*
X50530000Y-59500000I-1370000J0D01*
G01*
X50530000Y-59500000D02*
G75*
G02*
X53270000Y-59500000I1370000J0D01*
G01*
%TO.C,C6*%
X50345225Y-79525000D02*
X50845225Y-79525000D01*
X50595225Y-79275000D02*
X50595225Y-79775000D01*
X53150000Y-78420000D02*
X53150000Y-79960000D01*
X53150000Y-82040000D02*
X53150000Y-83580000D01*
X53190000Y-78420000D02*
X53190000Y-79960000D01*
X53190000Y-82040000D02*
X53190000Y-83580000D01*
X53230000Y-78421000D02*
X53230000Y-79960000D01*
X53230000Y-82040000D02*
X53230000Y-83579000D01*
X53270000Y-78423000D02*
X53270000Y-79960000D01*
X53270000Y-82040000D02*
X53270000Y-83577000D01*
X53310000Y-78425000D02*
X53310000Y-79960000D01*
X53310000Y-82040000D02*
X53310000Y-83575000D01*
X53350000Y-78428000D02*
X53350000Y-79960000D01*
X53350000Y-82040000D02*
X53350000Y-83572000D01*
X53390000Y-78431000D02*
X53390000Y-79960000D01*
X53390000Y-82040000D02*
X53390000Y-83569000D01*
X53430000Y-78435000D02*
X53430000Y-79960000D01*
X53430000Y-82040000D02*
X53430000Y-83565000D01*
X53470000Y-78440000D02*
X53470000Y-79960000D01*
X53470000Y-82040000D02*
X53470000Y-83560000D01*
X53510000Y-78445000D02*
X53510000Y-79960000D01*
X53510000Y-82040000D02*
X53510000Y-83555000D01*
X53550000Y-78451000D02*
X53550000Y-79960000D01*
X53550000Y-82040000D02*
X53550000Y-83549000D01*
X53590000Y-78457000D02*
X53590000Y-79960000D01*
X53590000Y-82040000D02*
X53590000Y-83543000D01*
X53630000Y-78464000D02*
X53630000Y-79960000D01*
X53630000Y-82040000D02*
X53630000Y-83536000D01*
X53670000Y-78472000D02*
X53670000Y-79960000D01*
X53670000Y-82040000D02*
X53670000Y-83528000D01*
X53710000Y-78481000D02*
X53710000Y-79960000D01*
X53710000Y-82040000D02*
X53710000Y-83519000D01*
X53750000Y-78490000D02*
X53750000Y-79960000D01*
X53750000Y-82040000D02*
X53750000Y-83510000D01*
X53790000Y-78499000D02*
X53790000Y-79960000D01*
X53790000Y-82040000D02*
X53790000Y-83501000D01*
X53830000Y-78510000D02*
X53830000Y-79960000D01*
X53830000Y-82040000D02*
X53830000Y-83490000D01*
X53870000Y-78521000D02*
X53870000Y-79960000D01*
X53870000Y-82040000D02*
X53870000Y-83479000D01*
X53910000Y-78533000D02*
X53910000Y-79960000D01*
X53910000Y-82040000D02*
X53910000Y-83467000D01*
X53950000Y-78545000D02*
X53950000Y-79960000D01*
X53950000Y-82040000D02*
X53950000Y-83455000D01*
X53990000Y-78558000D02*
X53990000Y-79960000D01*
X53990000Y-82040000D02*
X53990000Y-83442000D01*
X54030000Y-78572000D02*
X54030000Y-79960000D01*
X54030000Y-82040000D02*
X54030000Y-83428000D01*
X54070000Y-78587000D02*
X54070000Y-79960000D01*
X54070000Y-82040000D02*
X54070000Y-83413000D01*
X54110000Y-78602000D02*
X54110000Y-79960000D01*
X54110000Y-82040000D02*
X54110000Y-83398000D01*
X54150000Y-78618000D02*
X54150000Y-79960000D01*
X54150000Y-82040000D02*
X54150000Y-83382000D01*
X54190000Y-78635000D02*
X54190000Y-79960000D01*
X54190000Y-82040000D02*
X54190000Y-83365000D01*
X54230000Y-78653000D02*
X54230000Y-79960000D01*
X54230000Y-82040000D02*
X54230000Y-83347000D01*
X54270000Y-78671000D02*
X54270000Y-79960000D01*
X54270000Y-82040000D02*
X54270000Y-83329000D01*
X54310000Y-78691000D02*
X54310000Y-79960000D01*
X54310000Y-82040000D02*
X54310000Y-83309000D01*
X54350000Y-78711000D02*
X54350000Y-79960000D01*
X54350000Y-82040000D02*
X54350000Y-83289000D01*
X54390000Y-78732000D02*
X54390000Y-79960000D01*
X54390000Y-82040000D02*
X54390000Y-83268000D01*
X54430000Y-78754000D02*
X54430000Y-79960000D01*
X54430000Y-82040000D02*
X54430000Y-83246000D01*
X54470000Y-78777000D02*
X54470000Y-79960000D01*
X54470000Y-82040000D02*
X54470000Y-83223000D01*
X54510000Y-78801000D02*
X54510000Y-79960000D01*
X54510000Y-82040000D02*
X54510000Y-83199000D01*
X54550000Y-78825000D02*
X54550000Y-79960000D01*
X54550000Y-82040000D02*
X54550000Y-83175000D01*
X54590000Y-78851000D02*
X54590000Y-79960000D01*
X54590000Y-82040000D02*
X54590000Y-83149000D01*
X54630000Y-78878000D02*
X54630000Y-79960000D01*
X54630000Y-82040000D02*
X54630000Y-83122000D01*
X54670000Y-78906000D02*
X54670000Y-79960000D01*
X54670000Y-82040000D02*
X54670000Y-83094000D01*
X54710000Y-78935000D02*
X54710000Y-79960000D01*
X54710000Y-82040000D02*
X54710000Y-83065000D01*
X54750000Y-78965000D02*
X54750000Y-79960000D01*
X54750000Y-82040000D02*
X54750000Y-83035000D01*
X54790000Y-78997000D02*
X54790000Y-79960000D01*
X54790000Y-82040000D02*
X54790000Y-83003000D01*
X54830000Y-79030000D02*
X54830000Y-79960000D01*
X54830000Y-82040000D02*
X54830000Y-82970000D01*
X54870000Y-79064000D02*
X54870000Y-79960000D01*
X54870000Y-82040000D02*
X54870000Y-82936000D01*
X54910000Y-79099000D02*
X54910000Y-79960000D01*
X54910000Y-82040000D02*
X54910000Y-82901000D01*
X54950000Y-79136000D02*
X54950000Y-79960000D01*
X54950000Y-82040000D02*
X54950000Y-82864000D01*
X54990000Y-79175000D02*
X54990000Y-79960000D01*
X54990000Y-82040000D02*
X54990000Y-82825000D01*
X55030000Y-79215000D02*
X55030000Y-79960000D01*
X55030000Y-82040000D02*
X55030000Y-82785000D01*
X55070000Y-79257000D02*
X55070000Y-79960000D01*
X55070000Y-82040000D02*
X55070000Y-82743000D01*
X55110000Y-79301000D02*
X55110000Y-79960000D01*
X55110000Y-82040000D02*
X55110000Y-82699000D01*
X55150000Y-79348000D02*
X55150000Y-79960000D01*
X55150000Y-82040000D02*
X55150000Y-82652000D01*
X55190000Y-79396000D02*
X55190000Y-82604000D01*
X55230000Y-79447000D02*
X55230000Y-82553000D01*
X55270000Y-79501000D02*
X55270000Y-82499000D01*
X55310000Y-79557000D02*
X55310000Y-82443000D01*
X55350000Y-79617000D02*
X55350000Y-82383000D01*
X55390000Y-79681000D02*
X55390000Y-82319000D01*
X55430000Y-79749000D02*
X55430000Y-82251000D01*
X55470000Y-79823000D02*
X55470000Y-82177000D01*
X55510000Y-79902000D02*
X55510000Y-82098000D01*
X55550000Y-79989000D02*
X55550000Y-82011000D01*
X55590000Y-80086000D02*
X55590000Y-81914000D01*
X55630000Y-80195000D02*
X55630000Y-81805000D01*
X55670000Y-80323000D02*
X55670000Y-81677000D01*
X55710000Y-80483000D02*
X55710000Y-81517000D01*
X55750000Y-80717000D02*
X55750000Y-81283000D01*
X55770000Y-81000000D02*
G75*
G02*
X50530000Y-81000000I-2620000J0D01*
G01*
X50530000Y-81000000D02*
G75*
G02*
X55770000Y-81000000I2620000J0D01*
G01*
%TO.C,C1*%
X81630000Y-55180000D02*
X81967000Y-55180000D01*
X81630000Y-60420000D02*
X81630000Y-55180000D01*
X81967000Y-60420000D02*
X81630000Y-60420000D01*
X84033000Y-55180000D02*
X84370000Y-55180000D01*
X84370000Y-55180000D02*
X84370000Y-60420000D01*
X84370000Y-60420000D02*
X84033000Y-60420000D01*
%TO.C,R1*%
X90390000Y-59800000D02*
X90460000Y-59800000D01*
X90390000Y-59800000D02*
G75*
G02*
X87650000Y-59800000I-1370000J0D01*
G01*
X87650000Y-59800000D02*
G75*
G02*
X90390000Y-59800000I1370000J0D01*
G01*
%TO.C,R5*%
X86890000Y-91500000D02*
X86960000Y-91500000D01*
X86890000Y-91500000D02*
G75*
G02*
X84150000Y-91500000I-1370000J0D01*
G01*
X84150000Y-91500000D02*
G75*
G02*
X86890000Y-91500000I1370000J0D01*
G01*
%TO.C,C5*%
X81880000Y-86630000D02*
X87120000Y-86630000D01*
X81880000Y-86967000D02*
X81880000Y-86630000D01*
X81880000Y-89370000D02*
X81880000Y-89033000D01*
X87120000Y-86630000D02*
X87120000Y-86967000D01*
X87120000Y-89033000D02*
X87120000Y-89370000D01*
X87120000Y-89370000D02*
X81880000Y-89370000D01*
%TO.C,U1*%
X60670000Y-64160000D02*
X60670000Y-69460000D01*
X60670000Y-69460000D02*
X96350000Y-69460000D01*
X96350000Y-64160000D02*
X60670000Y-64160000D01*
X96350000Y-65810000D02*
X96350000Y-64160000D01*
X96350000Y-69460000D02*
X96350000Y-67810000D01*
X60610000Y-61670000D02*
X96410000Y-61670000D01*
X96410000Y-71950000D01*
X60610000Y-71950000D01*
X60610000Y-61670000D01*
X96350000Y-67810000D02*
G75*
G02*
X96350000Y-65810000I0J1000000D01*
G01*
%TO.C,R6*%
X99020000Y-60030000D02*
X99020000Y-59960000D01*
X100390000Y-61400000D02*
G75*
G02*
X97650000Y-61400000I-1370000J0D01*
G01*
X97650000Y-61400000D02*
G75*
G02*
X100390000Y-61400000I1370000J0D01*
G01*
%TO.C,R4*%
X53270000Y-69500000D02*
X53340000Y-69500000D01*
X53270000Y-69500000D02*
G75*
G02*
X50530000Y-69500000I-1370000J0D01*
G01*
X50530000Y-69500000D02*
G75*
G02*
X53270000Y-69500000I1370000J0D01*
G01*
%TO.C,JP1*%
X58620000Y-54380000D02*
X58620000Y-53000000D01*
X60000000Y-54380000D02*
X58620000Y-54380000D01*
X61270000Y-51620000D02*
X63920000Y-51620000D01*
X61270000Y-54380000D02*
X61270000Y-51620000D01*
X61270000Y-54380000D02*
X63920000Y-54380000D01*
X63920000Y-54380000D02*
X63920000Y-51620000D01*
%TO.C,J3*%
X59620000Y-79880000D02*
X59620000Y-78500000D01*
X61000000Y-79880000D02*
X59620000Y-79880000D01*
X62270000Y-77120000D02*
X72540000Y-77120000D01*
X62270000Y-79880000D02*
X62270000Y-77120000D01*
X62270000Y-79880000D02*
X72540000Y-79880000D01*
X72540000Y-79880000D02*
X72540000Y-77120000D01*
%TO.C,U2*%
X81650000Y-77160000D02*
X81650000Y-82460000D01*
X81650000Y-82460000D02*
X91930000Y-82460000D01*
X91930000Y-77160000D02*
X81650000Y-77160000D01*
X91930000Y-78810000D02*
X91930000Y-77160000D01*
X91930000Y-82460000D02*
X91930000Y-80810000D01*
X81590000Y-74670000D02*
X91990000Y-74670000D01*
X91990000Y-84950000D01*
X81590000Y-84950000D01*
X81590000Y-74670000D01*
X91930000Y-80810000D02*
G75*
G02*
X91930000Y-78810000I0J1000000D01*
G01*
%TO.C,Y1*%
X71935000Y-56065000D02*
X78185000Y-56065000D01*
X78185000Y-60935000D02*
X71935000Y-60935000D01*
X71935000Y-60935000D02*
G75*
G02*
X71935000Y-56065000I0J2435000D01*
G01*
X78185000Y-56065000D02*
G75*
G02*
X78185000Y-60935000I0J-2435000D01*
G01*
%TO.C,JP2*%
X97240000Y-64020000D02*
X98620000Y-64020000D01*
X97240000Y-65400000D02*
X97240000Y-64020000D01*
X97240000Y-66670000D02*
X97240000Y-69320000D01*
X97240000Y-66670000D02*
X100000000Y-66670000D01*
X97240000Y-69320000D02*
X100000000Y-69320000D01*
X100000000Y-66670000D02*
X100000000Y-69320000D01*
%TO.C,J1*%
X58215000Y-84100000D02*
X68585000Y-84100000D01*
X58215000Y-93230000D02*
X58215000Y-84100000D01*
X59215000Y-94230000D02*
X58215000Y-93230000D01*
X67585000Y-94230000D02*
X59215000Y-94230000D01*
X68585000Y-84100000D02*
X68585000Y-93230000D01*
X68585000Y-93230000D02*
X67585000Y-94230000D01*
%TO.C,D1*%
X51410000Y-63264000D02*
X51410000Y-63420000D01*
X51410000Y-65580000D02*
X51410000Y-65736000D01*
X51410000Y-63264484D02*
G75*
G02*
X54641437Y-63420000I1560000J-1235516D01*
G01*
X51929039Y-63420000D02*
G75*
G02*
X54010961Y-63420000I1040961J-1080000D01*
G01*
X54010961Y-65580000D02*
G75*
G02*
X51929039Y-65580000I-1040961J1080000D01*
G01*
X54641437Y-65580000D02*
G75*
G02*
X51410000Y-65735516I-1671437J1080000D01*
G01*
%TO.C,C8*%
X94050000Y-55930000D02*
X96790000Y-55930000D01*
X94050000Y-61170000D02*
X94050000Y-55930000D01*
X96790000Y-55930000D02*
X96790000Y-61170000D01*
X96790000Y-61170000D02*
X94050000Y-61170000D01*
%TD*%
M02*
